G04 (created by PCBNEW (2013-07-07 BZR 4022)-stable) date 29/12/2014 16:26:55*
%MOIN*%
G04 Gerber Fmt 3.4, Leading zero omitted, Abs format*
%FSLAX34Y34*%
G01*
G70*
G90*
G04 APERTURE LIST*
%ADD10C,0.00590551*%
%ADD11C,0.0987402*%
%ADD12R,0.1184X0.1184*%
%ADD13C,0.1184*%
%ADD14C,0.0672441*%
%ADD15C,0.0790551*%
%ADD16R,0.13811X0.17748*%
%ADD17R,0.1144X0.1144*%
%ADD18R,0.079X0.0672*%
%ADD19R,0.1145X0.0594*%
%ADD20R,0.1145X0.0515*%
%ADD21R,0.1023X0.0393*%
%ADD22C,0.086*%
%ADD23C,0.0909*%
%ADD24R,0.1578X0.1578*%
%ADD25O,0.08X0.12*%
%ADD26C,0.1145*%
%ADD27R,0.055X0.075*%
%ADD28R,0.1X0.1*%
%ADD29C,0.1*%
%ADD30R,0.1027X0.1027*%
%ADD31C,0.1066*%
%ADD32R,0.075X0.037*%
%ADD33C,0.083*%
%ADD34R,0.083X0.1224*%
%ADD35R,0.1224X0.083*%
%ADD36C,0.2759*%
%ADD37R,0.096X0.23*%
%ADD38R,0.04X0.065*%
%ADD39R,0.07X0.045*%
%ADD40R,0.075X0.055*%
%ADD41R,0.1617X0.083*%
%ADD42C,0.0987*%
%ADD43R,0.083X0.1617*%
%ADD44R,0.0377X0.0987*%
%ADD45R,0.0987X0.0377*%
%ADD46R,0.0515X0.0594*%
%ADD47R,0.12X0.07*%
%ADD48C,0.0751181*%
%ADD49C,0.118425*%
G04 APERTURE END LIST*
G54D10*
G54D11*
X45750Y-56500D03*
X45750Y-57500D03*
X45750Y-55500D03*
G54D12*
X55750Y-26500D03*
G54D13*
X57750Y-26500D03*
G54D14*
X56400Y-27400D03*
X57200Y-27400D03*
G54D15*
X60000Y-48250D03*
X61000Y-48250D03*
G54D16*
X60500Y-46900D03*
G54D17*
X41134Y-34750D03*
X42866Y-34750D03*
G54D18*
X58070Y-49750D03*
X56930Y-49750D03*
X58070Y-50500D03*
X56930Y-50500D03*
G54D19*
X56750Y-37300D03*
X56750Y-38300D03*
X56750Y-39300D03*
X56750Y-40300D03*
X56750Y-41150D03*
X56750Y-42150D03*
G54D20*
X56750Y-43100D03*
G54D21*
X56750Y-43750D03*
G54D19*
X56750Y-36300D03*
G54D21*
X56750Y-44250D03*
G54D22*
X58050Y-44500D03*
G54D23*
X58050Y-36200D03*
G54D21*
X56750Y-44700D03*
G54D24*
X67750Y-45750D03*
X67750Y-33500D03*
G54D12*
X67600Y-50500D03*
G54D13*
X59700Y-50500D03*
G54D25*
X42250Y-33000D03*
X43250Y-33000D03*
X44250Y-33000D03*
X47250Y-33000D03*
X46250Y-33000D03*
X45250Y-33000D03*
X49250Y-33000D03*
X50250Y-33000D03*
X51250Y-33000D03*
X53250Y-33000D03*
X54250Y-33000D03*
X42250Y-52000D03*
X43250Y-52000D03*
X44250Y-52000D03*
X45250Y-52000D03*
X46250Y-52000D03*
X47250Y-52000D03*
X48250Y-52000D03*
X49250Y-52000D03*
X50850Y-52000D03*
X51850Y-52000D03*
X52850Y-52000D03*
X53850Y-52000D03*
X54850Y-52000D03*
X55850Y-52000D03*
X56850Y-52000D03*
X57850Y-52000D03*
X52250Y-33000D03*
G54D26*
X49000Y-28500D03*
X49000Y-31000D03*
G54D27*
X59625Y-31250D03*
X60375Y-31250D03*
G54D28*
X42750Y-48250D03*
G54D29*
X42750Y-47250D03*
X42750Y-46250D03*
X42750Y-45250D03*
X42750Y-44250D03*
X42750Y-43250D03*
X42750Y-42250D03*
X42750Y-41250D03*
G54D30*
X41250Y-29000D03*
G54D31*
X42250Y-29000D03*
X43250Y-29000D03*
X44250Y-29000D03*
X45250Y-29000D03*
X46250Y-29000D03*
G54D30*
X41250Y-30750D03*
G54D31*
X42250Y-30750D03*
X43250Y-30750D03*
X44250Y-30750D03*
X45250Y-30750D03*
X46250Y-30750D03*
G54D28*
X52250Y-58500D03*
G54D29*
X53250Y-58500D03*
X54250Y-58500D03*
G54D28*
X52250Y-56500D03*
G54D29*
X53250Y-56500D03*
X54250Y-56500D03*
G54D28*
X48250Y-58500D03*
G54D29*
X49250Y-58500D03*
X50250Y-58500D03*
G54D28*
X48250Y-56500D03*
G54D29*
X49250Y-56500D03*
X50250Y-56500D03*
G54D28*
X56250Y-56500D03*
G54D29*
X57250Y-56500D03*
X58250Y-56500D03*
G54D28*
X56250Y-58500D03*
G54D29*
X57250Y-58500D03*
X58250Y-58500D03*
G54D28*
X44250Y-34750D03*
G54D29*
X45250Y-34750D03*
G54D32*
X61600Y-30260D03*
X61600Y-30010D03*
X61600Y-29750D03*
X61600Y-29500D03*
X61600Y-29240D03*
X61600Y-28985D03*
X59975Y-28975D03*
X59975Y-29230D03*
X59975Y-29485D03*
X59975Y-29740D03*
X59975Y-30000D03*
X59975Y-30255D03*
G54D33*
X53750Y-42000D03*
X53750Y-41000D03*
X52750Y-42000D03*
X52750Y-41000D03*
X51750Y-42000D03*
X51750Y-41000D03*
G54D34*
X54750Y-30709D03*
X54750Y-29291D03*
X51250Y-30709D03*
X51250Y-29291D03*
X56750Y-30709D03*
X56750Y-29291D03*
G54D35*
X42459Y-50000D03*
X41041Y-50000D03*
G54D27*
X53875Y-46000D03*
X54625Y-46000D03*
G54D36*
X60250Y-53750D03*
G54D27*
X41375Y-53500D03*
X40625Y-53500D03*
G54D36*
X41750Y-57500D03*
X56250Y-33000D03*
G54D34*
X64250Y-30709D03*
X64250Y-29291D03*
G54D37*
X52250Y-44100D03*
X52250Y-47900D03*
G54D38*
X51750Y-36750D03*
X52250Y-36750D03*
X52750Y-36750D03*
X53250Y-36750D03*
X53750Y-36750D03*
X54250Y-36750D03*
X54750Y-36750D03*
X55250Y-36750D03*
X55250Y-34750D03*
X54750Y-34750D03*
X54250Y-34750D03*
X53750Y-34750D03*
X53250Y-34750D03*
X52750Y-34750D03*
X52250Y-34750D03*
X51750Y-34750D03*
G54D39*
X58600Y-49000D03*
X58600Y-48500D03*
X58600Y-48000D03*
X58600Y-47500D03*
X56400Y-47500D03*
X56400Y-48000D03*
X56400Y-48500D03*
X56400Y-49000D03*
G54D36*
X42000Y-38000D03*
G54D40*
X55000Y-41875D03*
X55000Y-41125D03*
G54D27*
X47125Y-28000D03*
X47875Y-28000D03*
X45625Y-28000D03*
X46375Y-28000D03*
X47875Y-26000D03*
X48625Y-26000D03*
X46375Y-26000D03*
X47125Y-26000D03*
G54D40*
X62750Y-29625D03*
X62750Y-28875D03*
G54D27*
X42875Y-53500D03*
X42125Y-53500D03*
X43375Y-55250D03*
X42625Y-55250D03*
X47375Y-31500D03*
X48125Y-31500D03*
G54D40*
X56000Y-50625D03*
X56000Y-49875D03*
G54D27*
X61125Y-31250D03*
X61875Y-31250D03*
G54D40*
X62750Y-31125D03*
X62750Y-30375D03*
G54D27*
X54625Y-48500D03*
X55375Y-48500D03*
G54D41*
X48083Y-43000D03*
X45917Y-43000D03*
G54D40*
X40500Y-33375D03*
X40500Y-32625D03*
G54D42*
X55750Y-46250D03*
X58150Y-46250D03*
G54D35*
X54959Y-50250D03*
X53541Y-50250D03*
G54D27*
X47125Y-50350D03*
X46375Y-50350D03*
G54D43*
X66750Y-28917D03*
X66750Y-31083D03*
G54D27*
X53875Y-47000D03*
X54625Y-47000D03*
G54D44*
X47843Y-49146D03*
X47528Y-49146D03*
X47213Y-49146D03*
X46898Y-49146D03*
X46583Y-49146D03*
X46268Y-49146D03*
X45953Y-49146D03*
X45638Y-49146D03*
X45640Y-45380D03*
X47850Y-45380D03*
X47530Y-45380D03*
X47210Y-45380D03*
X46900Y-45380D03*
X46580Y-45380D03*
X46270Y-45380D03*
X45950Y-45380D03*
G54D45*
X44850Y-48362D03*
X44850Y-48048D03*
X44850Y-47732D03*
X44850Y-47418D03*
X44850Y-47102D03*
X44850Y-46788D03*
X44850Y-46472D03*
X44850Y-46158D03*
X48630Y-48360D03*
X48630Y-48050D03*
X48630Y-47730D03*
X48630Y-47420D03*
X48630Y-47110D03*
X48630Y-46790D03*
X48630Y-46470D03*
X48630Y-46150D03*
G54D46*
X53000Y-30433D03*
X52625Y-29567D03*
X53375Y-29567D03*
G54D28*
X43750Y-27000D03*
G54D29*
X42750Y-27000D03*
X41750Y-27000D03*
X40750Y-27000D03*
G54D28*
X43750Y-25000D03*
G54D29*
X42750Y-25000D03*
X41750Y-25000D03*
X40750Y-25000D03*
G54D28*
X48750Y-25000D03*
G54D29*
X47750Y-25000D03*
X46750Y-25000D03*
X45750Y-25000D03*
G54D28*
X48750Y-27000D03*
G54D29*
X47750Y-27000D03*
X46750Y-27000D03*
X45750Y-27000D03*
G54D47*
X58500Y-29400D03*
X58500Y-30600D03*
G54D12*
X51250Y-26500D03*
G54D13*
X53250Y-26500D03*
G54D14*
X51900Y-27400D03*
X52700Y-27400D03*
G54D30*
X51750Y-54500D03*
G54D31*
X52750Y-54500D03*
X53750Y-54500D03*
X54750Y-54500D03*
X55750Y-54500D03*
G54D29*
X41750Y-55250D03*
X40750Y-55250D03*
G54D48*
X50000Y-54250D03*
X48000Y-54250D03*
X49000Y-54250D03*
G54D49*
X57750Y-53750D03*
M02*
