G04 (created by PCBNEW (2013-07-07 BZR 4022)-stable) date 29/12/2014 16:28:22*
%MOIN*%
G04 Gerber Fmt 3.4, Leading zero omitted, Abs format*
%FSLAX34Y34*%
G01*
G70*
G90*
G04 APERTURE LIST*
%ADD10C,0.00590551*%
%ADD11R,0.11811X0.15748*%
%ADD12R,0.0944X0.0944*%
%ADD13R,0.059X0.0472*%
%ADD14R,0.0945X0.0394*%
%ADD15R,0.0945X0.0315*%
%ADD16R,0.1378X0.1378*%
%ADD17R,0.035X0.055*%
%ADD18R,0.055X0.017*%
%ADD19R,0.063X0.1024*%
%ADD20R,0.1024X0.063*%
%ADD21R,0.076X0.21*%
%ADD22R,0.02X0.045*%
%ADD23R,0.05X0.025*%
%ADD24R,0.055X0.035*%
%ADD25R,0.1417X0.063*%
%ADD26R,0.063X0.1417*%
%ADD27R,0.0177X0.0787*%
%ADD28R,0.0787X0.0177*%
%ADD29R,0.0315X0.0394*%
%ADD30R,0.1X0.05*%
%ADD31C,0.08*%
G04 APERTURE END LIST*
G54D10*
G54D11*
X60500Y-46900D03*
G54D12*
X41134Y-34750D03*
X42866Y-34750D03*
G54D13*
X58070Y-49750D03*
X56930Y-49750D03*
X58070Y-50500D03*
X56930Y-50500D03*
G54D14*
X56750Y-37300D03*
X56750Y-38300D03*
X56750Y-39300D03*
X56750Y-40300D03*
X56750Y-41150D03*
X56750Y-42150D03*
G54D15*
X56750Y-43100D03*
X56750Y-43750D03*
G54D14*
X56750Y-36300D03*
G54D15*
X56750Y-44250D03*
X56750Y-44700D03*
G54D16*
X67750Y-45750D03*
X67750Y-33500D03*
G54D17*
X59625Y-31250D03*
X60375Y-31250D03*
G54D18*
X61600Y-30260D03*
X61600Y-30010D03*
X61600Y-29750D03*
X61600Y-29500D03*
X61600Y-29240D03*
X61600Y-28985D03*
X59975Y-28975D03*
X59975Y-29230D03*
X59975Y-29485D03*
X59975Y-29740D03*
X59975Y-30000D03*
X59975Y-30255D03*
G54D19*
X54750Y-30709D03*
X54750Y-29291D03*
X51250Y-30709D03*
X51250Y-29291D03*
X56750Y-30709D03*
X56750Y-29291D03*
G54D20*
X42459Y-50000D03*
X41041Y-50000D03*
G54D17*
X53875Y-46000D03*
X54625Y-46000D03*
X41375Y-53500D03*
X40625Y-53500D03*
G54D19*
X64250Y-30709D03*
X64250Y-29291D03*
G54D21*
X52250Y-44100D03*
X52250Y-47900D03*
G54D22*
X51750Y-36750D03*
X52250Y-36750D03*
X52750Y-36750D03*
X53250Y-36750D03*
X53750Y-36750D03*
X54250Y-36750D03*
X54750Y-36750D03*
X55250Y-36750D03*
X55250Y-34750D03*
X54750Y-34750D03*
X54250Y-34750D03*
X53750Y-34750D03*
X53250Y-34750D03*
X52750Y-34750D03*
X52250Y-34750D03*
X51750Y-34750D03*
G54D23*
X58600Y-49000D03*
X58600Y-48500D03*
X58600Y-48000D03*
X58600Y-47500D03*
X56400Y-47500D03*
X56400Y-48000D03*
X56400Y-48500D03*
X56400Y-49000D03*
G54D24*
X55000Y-41875D03*
X55000Y-41125D03*
G54D17*
X47125Y-28000D03*
X47875Y-28000D03*
X45625Y-28000D03*
X46375Y-28000D03*
X47875Y-26000D03*
X48625Y-26000D03*
X46375Y-26000D03*
X47125Y-26000D03*
G54D24*
X62750Y-29625D03*
X62750Y-28875D03*
G54D17*
X42875Y-53500D03*
X42125Y-53500D03*
X43375Y-55250D03*
X42625Y-55250D03*
X47375Y-31500D03*
X48125Y-31500D03*
G54D24*
X56000Y-50625D03*
X56000Y-49875D03*
G54D17*
X61125Y-31250D03*
X61875Y-31250D03*
G54D24*
X62750Y-31125D03*
X62750Y-30375D03*
G54D17*
X54625Y-48500D03*
X55375Y-48500D03*
G54D25*
X48083Y-43000D03*
X45917Y-43000D03*
G54D24*
X40500Y-33375D03*
X40500Y-32625D03*
G54D20*
X54959Y-50250D03*
X53541Y-50250D03*
G54D17*
X47125Y-50350D03*
X46375Y-50350D03*
G54D26*
X66750Y-28917D03*
X66750Y-31083D03*
G54D17*
X53875Y-47000D03*
X54625Y-47000D03*
G54D27*
X47843Y-49146D03*
X47528Y-49146D03*
X47213Y-49146D03*
X46898Y-49146D03*
X46583Y-49146D03*
X46268Y-49146D03*
X45953Y-49146D03*
X45638Y-49146D03*
X45640Y-45380D03*
X47850Y-45380D03*
X47530Y-45380D03*
X47210Y-45380D03*
X46900Y-45380D03*
X46580Y-45380D03*
X46270Y-45380D03*
X45950Y-45380D03*
G54D28*
X44850Y-48362D03*
X44850Y-48048D03*
X44850Y-47732D03*
X44850Y-47418D03*
X44850Y-47102D03*
X44850Y-46788D03*
X44850Y-46472D03*
X44850Y-46158D03*
X48630Y-48360D03*
X48630Y-48050D03*
X48630Y-47730D03*
X48630Y-47420D03*
X48630Y-47110D03*
X48630Y-46790D03*
X48630Y-46470D03*
X48630Y-46150D03*
G54D29*
X53000Y-30433D03*
X52625Y-29567D03*
X53375Y-29567D03*
G54D30*
X58500Y-29400D03*
X58500Y-30600D03*
G54D31*
X41750Y-55250D03*
X40750Y-55250D03*
M02*
