G04 (created by PCBNEW (2013-07-07 BZR 4022)-stable) date 29/12/2014 16:26:55*
%MOIN*%
G04 Gerber Fmt 3.4, Leading zero omitted, Abs format*
%FSLAX34Y34*%
G01*
G70*
G90*
G04 APERTURE LIST*
%ADD10C,0.00590551*%
%ADD11C,0.0987402*%
%ADD12R,0.1184X0.1184*%
%ADD13C,0.1184*%
%ADD14C,0.0672441*%
%ADD15C,0.0790551*%
%ADD16C,0.086*%
%ADD17C,0.0909*%
%ADD18O,0.08X0.12*%
%ADD19C,0.1145*%
%ADD20R,0.1X0.1*%
%ADD21C,0.1*%
%ADD22R,0.1027X0.1027*%
%ADD23C,0.1066*%
%ADD24C,0.083*%
%ADD25C,0.2759*%
%ADD26C,0.0987*%
%ADD27C,0.0751181*%
%ADD28C,0.118425*%
%ADD29C,0.0239*%
%ADD30C,0.0594*%
G04 APERTURE END LIST*
G54D10*
G54D11*
X45750Y-56500D03*
X45750Y-57500D03*
X45750Y-55500D03*
G54D12*
X55750Y-26500D03*
G54D13*
X57750Y-26500D03*
G54D14*
X56400Y-27400D03*
X57200Y-27400D03*
G54D15*
X60000Y-48250D03*
X61000Y-48250D03*
G54D16*
X58050Y-44500D03*
G54D17*
X58050Y-36200D03*
G54D12*
X67600Y-50500D03*
G54D13*
X59700Y-50500D03*
G54D18*
X42250Y-33000D03*
X43250Y-33000D03*
X44250Y-33000D03*
X47250Y-33000D03*
X46250Y-33000D03*
X45250Y-33000D03*
X49250Y-33000D03*
X50250Y-33000D03*
X51250Y-33000D03*
X53250Y-33000D03*
X54250Y-33000D03*
X42250Y-52000D03*
X43250Y-52000D03*
X44250Y-52000D03*
X45250Y-52000D03*
X46250Y-52000D03*
X47250Y-52000D03*
X48250Y-52000D03*
X49250Y-52000D03*
X50850Y-52000D03*
X51850Y-52000D03*
X52850Y-52000D03*
X53850Y-52000D03*
X54850Y-52000D03*
X55850Y-52000D03*
X56850Y-52000D03*
X57850Y-52000D03*
X52250Y-33000D03*
G54D19*
X49000Y-28500D03*
X49000Y-31000D03*
G54D20*
X42750Y-48250D03*
G54D21*
X42750Y-47250D03*
X42750Y-46250D03*
X42750Y-45250D03*
X42750Y-44250D03*
X42750Y-43250D03*
X42750Y-42250D03*
X42750Y-41250D03*
G54D22*
X41250Y-29000D03*
G54D23*
X42250Y-29000D03*
X43250Y-29000D03*
X44250Y-29000D03*
X45250Y-29000D03*
X46250Y-29000D03*
G54D22*
X41250Y-30750D03*
G54D23*
X42250Y-30750D03*
X43250Y-30750D03*
X44250Y-30750D03*
X45250Y-30750D03*
X46250Y-30750D03*
G54D20*
X52250Y-58500D03*
G54D21*
X53250Y-58500D03*
X54250Y-58500D03*
G54D20*
X52250Y-56500D03*
G54D21*
X53250Y-56500D03*
X54250Y-56500D03*
G54D20*
X48250Y-58500D03*
G54D21*
X49250Y-58500D03*
X50250Y-58500D03*
G54D20*
X48250Y-56500D03*
G54D21*
X49250Y-56500D03*
X50250Y-56500D03*
G54D20*
X56250Y-56500D03*
G54D21*
X57250Y-56500D03*
X58250Y-56500D03*
G54D20*
X56250Y-58500D03*
G54D21*
X57250Y-58500D03*
X58250Y-58500D03*
G54D20*
X44250Y-34750D03*
G54D21*
X45250Y-34750D03*
G54D24*
X53750Y-42000D03*
X53750Y-41000D03*
X52750Y-42000D03*
X52750Y-41000D03*
X51750Y-42000D03*
X51750Y-41000D03*
G54D25*
X60250Y-53750D03*
X41750Y-57500D03*
X56250Y-33000D03*
X42000Y-38000D03*
G54D26*
X55750Y-46250D03*
X58150Y-46250D03*
G54D20*
X43750Y-27000D03*
G54D21*
X42750Y-27000D03*
X41750Y-27000D03*
X40750Y-27000D03*
G54D20*
X43750Y-25000D03*
G54D21*
X42750Y-25000D03*
X41750Y-25000D03*
X40750Y-25000D03*
G54D20*
X48750Y-25000D03*
G54D21*
X47750Y-25000D03*
X46750Y-25000D03*
X45750Y-25000D03*
G54D20*
X48750Y-27000D03*
G54D21*
X47750Y-27000D03*
X46750Y-27000D03*
X45750Y-27000D03*
G54D12*
X51250Y-26500D03*
G54D13*
X53250Y-26500D03*
G54D14*
X51900Y-27400D03*
X52700Y-27400D03*
G54D22*
X51750Y-54500D03*
G54D23*
X52750Y-54500D03*
X53750Y-54500D03*
X54750Y-54500D03*
X55750Y-54500D03*
G54D21*
X41750Y-55250D03*
X40750Y-55250D03*
G54D27*
X50000Y-54250D03*
X48000Y-54250D03*
X49000Y-54250D03*
G54D28*
X57750Y-53750D03*
G54D29*
X64850Y-39750D03*
G54D30*
X64850Y-39700D03*
M02*
