M48
INCH,TZ
T1C0.024
T2C0.025
T3C0.031
T4C0.032
T5C0.039
T6C0.039
T7C0.040
T8C0.047
T9C0.047
T10C0.063
T11C0.118
%
G90
G05
T1
X060000Y-048250
X061000Y-048250
T2
X040300Y-025950
X040400Y-042950
X041050Y-041050
X042700Y-029700
X042800Y-026100
X042850Y-049400
X043400Y-054450
X043850Y-046800
X044150Y-047150
X044450Y-040600
X044600Y-044000
X045300Y-043950
X045700Y-044350
X045700Y-050350
X046150Y-044550
X046200Y-035200
X046600Y-056900
X046700Y-034900
X046700Y-050900
X047000Y-044600
X047050Y-030750
X047550Y-040500
X048350Y-045350
X048800Y-050550
X048850Y-049750
X049100Y-044200
X049100Y-050150
X049350Y-048600
X049450Y-047400
X049500Y-045850
X049500Y-046600
X049550Y-048100
X049650Y-042050
X049650Y-044250
X049750Y-047050
X049800Y-046250
X049850Y-035750
X049850Y-047750
X050100Y-040850
X050700Y-040800
X050850Y-035300
X052200Y-028400
X052750Y-037450
X053750Y-037400
X053800Y-039150
X053900Y-048650
X054750Y-037400
X055150Y-047000
X055250Y-037500
X055750Y-049350
X058050Y-038800
X058750Y-051250
X059200Y-028800
X059300Y-048000
T3
X048000Y-054250
X049000Y-054250
X050000Y-054250
X051900Y-027400
X052700Y-027400
X056400Y-027400
X057200Y-027400
T4
X040750Y-055250
X041750Y-055250
X042750Y-041250
X042750Y-042250
X042750Y-043250
X042750Y-044250
X042750Y-045250
X042750Y-046250
X042750Y-047250
X042750Y-048250
X048250Y-056500
X048250Y-058500
X049250Y-056500
X049250Y-058500
X050250Y-056500
X050250Y-058500
X052250Y-056500
X052250Y-058500
X053250Y-056500
X053250Y-058500
X054250Y-056500
X054250Y-058500
X056250Y-056500
X056250Y-058500
X057250Y-056500
X057250Y-058500
X058250Y-056500
X058250Y-058500
T5
X045750Y-055500
X045750Y-056500
X045750Y-057500
T6
X040750Y-025000
X040750Y-027000
X041250Y-029000
X041250Y-030750
X041750Y-025000
X041750Y-027000
X042250Y-029000
X042250Y-030750
X042750Y-025000
X042750Y-027000
X043250Y-029000
X043250Y-030750
X043750Y-025000
X043750Y-027000
X044250Y-029000
X044250Y-030750
X044250Y-034750
X045250Y-029000
X045250Y-030750
X045250Y-034750
X045750Y-025000
X045750Y-027000
X046250Y-029000
X046250Y-030750
X046750Y-025000
X046750Y-027000
X047750Y-025000
X047750Y-027000
X048750Y-025000
X048750Y-027000
X051250Y-026500
X051750Y-041000
X051750Y-042000
X051750Y-054500
X052750Y-041000
X052750Y-042000
X052750Y-054500
X053250Y-026500
X053750Y-041000
X053750Y-042000
X053750Y-054500
X054750Y-054500
X055750Y-026500
X055750Y-054500
X057750Y-026500
X058050Y-044500
X059700Y-050500
X067600Y-050500
T7
X042250Y-033000
X042250Y-052000
X043250Y-033000
X043250Y-052000
X044250Y-033000
X044250Y-052000
X045250Y-033000
X045250Y-052000
X046250Y-033000
X046250Y-052000
X047250Y-033000
X047250Y-052000
X048250Y-052000
X049250Y-033000
X049250Y-052000
X050250Y-033000
X050850Y-052000
X051250Y-033000
X051850Y-052000
X052250Y-033000
X052850Y-052000
X053250Y-033000
X053850Y-052000
X054250Y-033000
X054850Y-052000
X055850Y-052000
X056850Y-052000
X057850Y-052000
T8
X049000Y-028500
X049000Y-031000
X055750Y-046250
X058150Y-046250
T9
X057750Y-053750
T10
X058050Y-036200
T11
X041750Y-057500
X042000Y-038000
X056250Y-033000
X060250Y-053750
T0
M30
