G04 (created by PCBNEW (2013-07-07 BZR 4022)-stable) date 29/12/2014 16:26:55*
%MOIN*%
G04 Gerber Fmt 3.4, Leading zero omitted, Abs format*
%FSLAX34Y34*%
G01*
G70*
G90*
G04 APERTURE LIST*
%ADD10C,0.00590551*%
%ADD11C,0.0787402*%
%ADD12R,0.0984X0.0984*%
%ADD13C,0.0984*%
%ADD14C,0.0472441*%
%ADD15C,0.0590551*%
%ADD16R,0.11811X0.15748*%
%ADD17R,0.0944X0.0944*%
%ADD18R,0.059X0.0472*%
%ADD19R,0.0945X0.0394*%
%ADD20R,0.0945X0.0315*%
%ADD21C,0.066*%
%ADD22C,0.0709*%
%ADD23R,0.1378X0.1378*%
%ADD24O,0.06X0.1*%
%ADD25C,0.0945*%
%ADD26R,0.035X0.055*%
%ADD27R,0.08X0.08*%
%ADD28C,0.08*%
%ADD29R,0.0827X0.0827*%
%ADD30C,0.0866*%
%ADD31R,0.055X0.017*%
%ADD32C,0.063*%
%ADD33R,0.063X0.1024*%
%ADD34R,0.1024X0.063*%
%ADD35C,0.2559*%
%ADD36R,0.076X0.21*%
%ADD37R,0.02X0.045*%
%ADD38R,0.05X0.025*%
%ADD39R,0.055X0.035*%
%ADD40R,0.1417X0.063*%
%ADD41C,0.0787*%
%ADD42R,0.063X0.1417*%
%ADD43R,0.0177X0.0787*%
%ADD44R,0.0787X0.0177*%
%ADD45R,0.0315X0.0394*%
%ADD46R,0.1X0.05*%
%ADD47C,0.0551181*%
%ADD48C,0.0984252*%
%ADD49C,0.035*%
%ADD50C,0.03*%
%ADD51C,0.025*%
%ADD52C,0.015*%
%ADD53C,0.01*%
G04 APERTURE END LIST*
G54D10*
G54D11*
X45750Y-56500D03*
X45750Y-57500D03*
X45750Y-55500D03*
G54D12*
X55750Y-26500D03*
G54D13*
X57750Y-26500D03*
G54D14*
X56400Y-27400D03*
X57200Y-27400D03*
G54D15*
X60000Y-48250D03*
X61000Y-48250D03*
G54D16*
X60500Y-46900D03*
G54D17*
X41134Y-34750D03*
X42866Y-34750D03*
G54D18*
X58070Y-49750D03*
X56930Y-49750D03*
X58070Y-50500D03*
X56930Y-50500D03*
G54D19*
X56750Y-37300D03*
X56750Y-38300D03*
X56750Y-39300D03*
X56750Y-40300D03*
X56750Y-41150D03*
X56750Y-42150D03*
G54D20*
X56750Y-43100D03*
X56750Y-43750D03*
G54D19*
X56750Y-36300D03*
G54D20*
X56750Y-44250D03*
G54D21*
X58050Y-44500D03*
G54D22*
X58050Y-36200D03*
G54D20*
X56750Y-44700D03*
G54D23*
X67750Y-45750D03*
X67750Y-33500D03*
G54D12*
X67600Y-50500D03*
G54D13*
X59700Y-50500D03*
G54D24*
X42250Y-33000D03*
X43250Y-33000D03*
X44250Y-33000D03*
X47250Y-33000D03*
X46250Y-33000D03*
X45250Y-33000D03*
X49250Y-33000D03*
X50250Y-33000D03*
X51250Y-33000D03*
X53250Y-33000D03*
X54250Y-33000D03*
X42250Y-52000D03*
X43250Y-52000D03*
X44250Y-52000D03*
X45250Y-52000D03*
X46250Y-52000D03*
X47250Y-52000D03*
X48250Y-52000D03*
X49250Y-52000D03*
X50850Y-52000D03*
X51850Y-52000D03*
X52850Y-52000D03*
X53850Y-52000D03*
X54850Y-52000D03*
X55850Y-52000D03*
X56850Y-52000D03*
X57850Y-52000D03*
X52250Y-33000D03*
G54D25*
X49000Y-28500D03*
X49000Y-31000D03*
G54D26*
X59625Y-31250D03*
X60375Y-31250D03*
G54D27*
X42750Y-48250D03*
G54D28*
X42750Y-47250D03*
X42750Y-46250D03*
X42750Y-45250D03*
X42750Y-44250D03*
X42750Y-43250D03*
X42750Y-42250D03*
X42750Y-41250D03*
G54D29*
X41250Y-29000D03*
G54D30*
X42250Y-29000D03*
X43250Y-29000D03*
X44250Y-29000D03*
X45250Y-29000D03*
X46250Y-29000D03*
G54D29*
X41250Y-30750D03*
G54D30*
X42250Y-30750D03*
X43250Y-30750D03*
X44250Y-30750D03*
X45250Y-30750D03*
X46250Y-30750D03*
G54D27*
X52250Y-58500D03*
G54D28*
X53250Y-58500D03*
X54250Y-58500D03*
G54D27*
X52250Y-56500D03*
G54D28*
X53250Y-56500D03*
X54250Y-56500D03*
G54D27*
X48250Y-58500D03*
G54D28*
X49250Y-58500D03*
X50250Y-58500D03*
G54D27*
X48250Y-56500D03*
G54D28*
X49250Y-56500D03*
X50250Y-56500D03*
G54D27*
X56250Y-56500D03*
G54D28*
X57250Y-56500D03*
X58250Y-56500D03*
G54D27*
X56250Y-58500D03*
G54D28*
X57250Y-58500D03*
X58250Y-58500D03*
G54D27*
X44250Y-34750D03*
G54D28*
X45250Y-34750D03*
G54D31*
X61600Y-30260D03*
X61600Y-30010D03*
X61600Y-29750D03*
X61600Y-29500D03*
X61600Y-29240D03*
X61600Y-28985D03*
X59975Y-28975D03*
X59975Y-29230D03*
X59975Y-29485D03*
X59975Y-29740D03*
X59975Y-30000D03*
X59975Y-30255D03*
G54D32*
X53750Y-42000D03*
X53750Y-41000D03*
X52750Y-42000D03*
X52750Y-41000D03*
X51750Y-42000D03*
X51750Y-41000D03*
G54D33*
X54750Y-30709D03*
X54750Y-29291D03*
X51250Y-30709D03*
X51250Y-29291D03*
X56750Y-30709D03*
X56750Y-29291D03*
G54D34*
X42459Y-50000D03*
X41041Y-50000D03*
G54D26*
X53875Y-46000D03*
X54625Y-46000D03*
G54D35*
X60250Y-53750D03*
G54D26*
X41375Y-53500D03*
X40625Y-53500D03*
G54D35*
X41750Y-57500D03*
X56250Y-33000D03*
G54D33*
X64250Y-30709D03*
X64250Y-29291D03*
G54D36*
X52250Y-44100D03*
X52250Y-47900D03*
G54D37*
X51750Y-36750D03*
X52250Y-36750D03*
X52750Y-36750D03*
X53250Y-36750D03*
X53750Y-36750D03*
X54250Y-36750D03*
X54750Y-36750D03*
X55250Y-36750D03*
X55250Y-34750D03*
X54750Y-34750D03*
X54250Y-34750D03*
X53750Y-34750D03*
X53250Y-34750D03*
X52750Y-34750D03*
X52250Y-34750D03*
X51750Y-34750D03*
G54D38*
X58600Y-49000D03*
X58600Y-48500D03*
X58600Y-48000D03*
X58600Y-47500D03*
X56400Y-47500D03*
X56400Y-48000D03*
X56400Y-48500D03*
X56400Y-49000D03*
G54D35*
X42000Y-38000D03*
G54D39*
X55000Y-41875D03*
X55000Y-41125D03*
G54D26*
X47125Y-28000D03*
X47875Y-28000D03*
X45625Y-28000D03*
X46375Y-28000D03*
X47875Y-26000D03*
X48625Y-26000D03*
X46375Y-26000D03*
X47125Y-26000D03*
G54D39*
X62750Y-29625D03*
X62750Y-28875D03*
G54D26*
X42875Y-53500D03*
X42125Y-53500D03*
X43375Y-55250D03*
X42625Y-55250D03*
X47375Y-31500D03*
X48125Y-31500D03*
G54D39*
X56000Y-50625D03*
X56000Y-49875D03*
G54D26*
X61125Y-31250D03*
X61875Y-31250D03*
G54D39*
X62750Y-31125D03*
X62750Y-30375D03*
G54D26*
X54625Y-48500D03*
X55375Y-48500D03*
G54D40*
X48083Y-43000D03*
X45917Y-43000D03*
G54D39*
X40500Y-33375D03*
X40500Y-32625D03*
G54D41*
X55750Y-46250D03*
X58150Y-46250D03*
G54D34*
X54959Y-50250D03*
X53541Y-50250D03*
G54D26*
X47125Y-50350D03*
X46375Y-50350D03*
G54D42*
X66750Y-28917D03*
X66750Y-31083D03*
G54D26*
X53875Y-47000D03*
X54625Y-47000D03*
G54D43*
X47843Y-49146D03*
X47528Y-49146D03*
X47213Y-49146D03*
X46898Y-49146D03*
X46583Y-49146D03*
X46268Y-49146D03*
X45953Y-49146D03*
X45638Y-49146D03*
X45640Y-45380D03*
X47850Y-45380D03*
X47530Y-45380D03*
X47210Y-45380D03*
X46900Y-45380D03*
X46580Y-45380D03*
X46270Y-45380D03*
X45950Y-45380D03*
G54D44*
X44850Y-48362D03*
X44850Y-48048D03*
X44850Y-47732D03*
X44850Y-47418D03*
X44850Y-47102D03*
X44850Y-46788D03*
X44850Y-46472D03*
X44850Y-46158D03*
X48630Y-48360D03*
X48630Y-48050D03*
X48630Y-47730D03*
X48630Y-47420D03*
X48630Y-47110D03*
X48630Y-46790D03*
X48630Y-46470D03*
X48630Y-46150D03*
G54D45*
X53000Y-30433D03*
X52625Y-29567D03*
X53375Y-29567D03*
G54D27*
X43750Y-27000D03*
G54D28*
X42750Y-27000D03*
X41750Y-27000D03*
X40750Y-27000D03*
G54D27*
X43750Y-25000D03*
G54D28*
X42750Y-25000D03*
X41750Y-25000D03*
X40750Y-25000D03*
G54D27*
X48750Y-25000D03*
G54D28*
X47750Y-25000D03*
X46750Y-25000D03*
X45750Y-25000D03*
G54D27*
X48750Y-27000D03*
G54D28*
X47750Y-27000D03*
X46750Y-27000D03*
X45750Y-27000D03*
G54D46*
X58500Y-29400D03*
X58500Y-30600D03*
G54D12*
X51250Y-26500D03*
G54D13*
X53250Y-26500D03*
G54D14*
X51900Y-27400D03*
X52700Y-27400D03*
G54D29*
X51750Y-54500D03*
G54D30*
X52750Y-54500D03*
X53750Y-54500D03*
X54750Y-54500D03*
X55750Y-54500D03*
G54D28*
X41750Y-55250D03*
X40750Y-55250D03*
G54D47*
X50000Y-54250D03*
X48000Y-54250D03*
X49000Y-54250D03*
G54D48*
X57750Y-53750D03*
G54D49*
X58750Y-51250D03*
X49850Y-35750D03*
X44450Y-40600D03*
X46700Y-50900D03*
X53800Y-39150D03*
X50850Y-35300D03*
X46150Y-44550D03*
X47050Y-30750D03*
X45700Y-44350D03*
X45300Y-43950D03*
X44600Y-44000D03*
X42800Y-26100D03*
X40300Y-25950D03*
X43850Y-46800D03*
X48850Y-49750D03*
X44150Y-47150D03*
X49100Y-50150D03*
X50700Y-40800D03*
X52750Y-37450D03*
X49500Y-46600D03*
X50100Y-40850D03*
X53750Y-37400D03*
X49800Y-46250D03*
X49650Y-44250D03*
X49500Y-45850D03*
X46600Y-56900D03*
X49100Y-44200D03*
X54750Y-37400D03*
X48350Y-45350D03*
X48800Y-50550D03*
X40400Y-42950D03*
X43400Y-54450D03*
X49350Y-48600D03*
X49550Y-48100D03*
X49850Y-47750D03*
X49450Y-47400D03*
X46200Y-35200D03*
X46700Y-34900D03*
X47000Y-44600D03*
X49750Y-47050D03*
X52200Y-28400D03*
X59200Y-28800D03*
X55150Y-47000D03*
X53900Y-48650D03*
X45700Y-50350D03*
X58050Y-38800D03*
X55250Y-37500D03*
X42700Y-29700D03*
X55750Y-49350D03*
X59300Y-48000D03*
X41050Y-41050D03*
X47550Y-40500D03*
X49650Y-42050D03*
X42850Y-49400D03*
G54D50*
X58070Y-50570D02*
X58070Y-50500D01*
X58750Y-51250D02*
X58070Y-50570D01*
G54D51*
X54250Y-56500D02*
X54250Y-56400D01*
X55750Y-54900D02*
X55750Y-54500D01*
X54250Y-56400D02*
X55750Y-54900D01*
X47800Y-35750D02*
X47950Y-35750D01*
X47375Y-31825D02*
X47375Y-31500D01*
X48000Y-32450D02*
X47375Y-31825D01*
X48000Y-35700D02*
X48000Y-32450D01*
X47950Y-35750D02*
X48000Y-35700D01*
X53750Y-41000D02*
X54875Y-41000D01*
X54875Y-41000D02*
X55000Y-41125D01*
X50850Y-35300D02*
X50850Y-37400D01*
X50850Y-37400D02*
X52100Y-38650D01*
X53300Y-38650D02*
X53800Y-39150D01*
X52100Y-38650D02*
X53300Y-38650D01*
X45250Y-35750D02*
X47800Y-35750D01*
X47800Y-35750D02*
X49850Y-35750D01*
X44450Y-40600D02*
X44817Y-40600D01*
X44817Y-40600D02*
X45250Y-40167D01*
X45250Y-34750D02*
X45250Y-35750D01*
X45250Y-35750D02*
X45250Y-40167D01*
X45250Y-40167D02*
X48083Y-43000D01*
X52250Y-33000D02*
X52250Y-31183D01*
X52250Y-31183D02*
X53000Y-30433D01*
X56000Y-50625D02*
X56000Y-50650D01*
X56400Y-51050D02*
X57750Y-51050D01*
X57750Y-51050D02*
X58070Y-50730D01*
X58070Y-50730D02*
X58070Y-50500D01*
X56000Y-50650D02*
X56400Y-51050D01*
G54D52*
X53250Y-26500D02*
X53250Y-27750D01*
X53250Y-27750D02*
X53000Y-28000D01*
X53000Y-29000D02*
X53000Y-28000D01*
X53000Y-28000D02*
X53250Y-27750D01*
X47125Y-50475D02*
X47125Y-50350D01*
X46700Y-50900D02*
X47125Y-50475D01*
X54875Y-41000D02*
X55000Y-41125D01*
X40750Y-25000D02*
X40750Y-25400D01*
X45050Y-25700D02*
X45750Y-25000D01*
X41050Y-25700D02*
X45050Y-25700D01*
X40750Y-25400D02*
X41050Y-25700D01*
X46375Y-26000D02*
X46100Y-26000D01*
X45750Y-25650D02*
X45750Y-25000D01*
X46100Y-26000D02*
X45750Y-25650D01*
X52250Y-31183D02*
X53000Y-30433D01*
X53000Y-30433D02*
X53000Y-29000D01*
X56750Y-30709D02*
X57109Y-30709D01*
X61125Y-31725D02*
X61125Y-31250D01*
X60900Y-31950D02*
X61125Y-31725D01*
X58350Y-31950D02*
X60900Y-31950D01*
X57109Y-30709D02*
X58350Y-31950D01*
X47530Y-45380D02*
X47530Y-43553D01*
X47530Y-43553D02*
X48083Y-43000D01*
X56000Y-50625D02*
X55775Y-50625D01*
X54250Y-48875D02*
X54625Y-48500D01*
X54250Y-50550D02*
X54250Y-48875D01*
X54500Y-50800D02*
X54250Y-50550D01*
X55600Y-50800D02*
X54500Y-50800D01*
X55775Y-50625D02*
X55600Y-50800D01*
X42459Y-50000D02*
X42459Y-48541D01*
X42459Y-48541D02*
X42750Y-48250D01*
X47125Y-50350D02*
X47125Y-49925D01*
X47213Y-49837D02*
X47213Y-49146D01*
X47125Y-49925D02*
X47213Y-49837D01*
X46583Y-49146D02*
X46583Y-49683D01*
X47213Y-49637D02*
X47213Y-49146D01*
X47050Y-49800D02*
X47213Y-49637D01*
X46700Y-49800D02*
X47050Y-49800D01*
X46583Y-49683D02*
X46700Y-49800D01*
X61125Y-31250D02*
X61125Y-30575D01*
X61125Y-30575D02*
X60550Y-30000D01*
X60550Y-30000D02*
X59975Y-30000D01*
X54750Y-30709D02*
X56791Y-30709D01*
X57000Y-30500D02*
X56750Y-30709D01*
X56791Y-30709D02*
X57000Y-30500D01*
X53000Y-30433D02*
X53683Y-30433D01*
X53959Y-30709D02*
X54750Y-30709D01*
X53683Y-30433D02*
X53959Y-30709D01*
X54625Y-30817D02*
X54625Y-31125D01*
X54625Y-30817D02*
X54567Y-30817D01*
X54500Y-30750D02*
X54625Y-30817D01*
X54567Y-30817D02*
X54500Y-30750D01*
X45950Y-45380D02*
X45950Y-44750D01*
X45950Y-44750D02*
X46150Y-44550D01*
X46375Y-28000D02*
X47125Y-28000D01*
X47125Y-28000D02*
X47125Y-27625D01*
X47125Y-27625D02*
X47750Y-27000D01*
X47050Y-30750D02*
X47050Y-31050D01*
X47050Y-31050D02*
X46250Y-31850D01*
X46250Y-31850D02*
X46250Y-33000D01*
X46250Y-33000D02*
X46250Y-31850D01*
X46250Y-31850D02*
X47050Y-31050D01*
X45640Y-45380D02*
X45640Y-44410D01*
X45640Y-44410D02*
X45700Y-44350D01*
X47875Y-26000D02*
X47875Y-25125D01*
X47875Y-25125D02*
X47750Y-25000D01*
X47125Y-26000D02*
X47875Y-26000D01*
X44850Y-46158D02*
X44850Y-44400D01*
X44850Y-44400D02*
X45300Y-43950D01*
X44372Y-46472D02*
X44850Y-46472D01*
X44100Y-46200D02*
X44372Y-46472D01*
X44100Y-44500D02*
X44100Y-46200D01*
X44600Y-44000D02*
X44100Y-44500D01*
X40450Y-26100D02*
X42800Y-26100D01*
X40300Y-25950D02*
X40450Y-26100D01*
X43850Y-46800D02*
X43850Y-40200D01*
X42350Y-33900D02*
X42300Y-33900D01*
X42300Y-33900D02*
X42150Y-34050D01*
X42150Y-34050D02*
X42150Y-35500D01*
X42150Y-35500D02*
X42400Y-35750D01*
X42400Y-35750D02*
X43500Y-35750D01*
X42350Y-33900D02*
X43250Y-33000D01*
X43850Y-35750D02*
X43500Y-35750D01*
X44850Y-36750D02*
X43850Y-35750D01*
X44850Y-39200D02*
X44850Y-36750D01*
X43850Y-40200D02*
X44850Y-39200D01*
X51200Y-49750D02*
X51400Y-49750D01*
X51950Y-49200D02*
X52700Y-49200D01*
X51400Y-49750D02*
X51950Y-49200D01*
X56400Y-47500D02*
X53500Y-47500D01*
X52900Y-49000D02*
X52700Y-49200D01*
X52900Y-48100D02*
X52900Y-49000D01*
X53500Y-47500D02*
X52900Y-48100D01*
X43862Y-46788D02*
X44850Y-46788D01*
X43850Y-46800D02*
X43862Y-46788D01*
X51200Y-49750D02*
X48850Y-49750D01*
X44850Y-47102D02*
X44198Y-47102D01*
X44198Y-47102D02*
X44000Y-47300D01*
X42200Y-36000D02*
X41850Y-35650D01*
X43750Y-36000D02*
X42200Y-36000D01*
X44600Y-36850D02*
X43750Y-36000D01*
X44600Y-39100D02*
X44600Y-36850D01*
X43600Y-40100D02*
X44600Y-39100D01*
X43600Y-46400D02*
X43600Y-40100D01*
X43450Y-46550D02*
X43600Y-46400D01*
X43450Y-47000D02*
X43450Y-46550D01*
X43750Y-47300D02*
X43450Y-47000D01*
X44000Y-47300D02*
X43750Y-47300D01*
X42250Y-33000D02*
X42250Y-33500D01*
X41850Y-33900D02*
X41850Y-35650D01*
X42250Y-33500D02*
X41850Y-33900D01*
X51200Y-50000D02*
X51500Y-50000D01*
X52050Y-49450D02*
X52800Y-49450D01*
X51500Y-50000D02*
X52050Y-49450D01*
X56400Y-48000D02*
X56050Y-48000D01*
X53150Y-49100D02*
X52800Y-49450D01*
X53150Y-48200D02*
X53150Y-49100D01*
X53600Y-47750D02*
X53150Y-48200D01*
X55800Y-47750D02*
X53600Y-47750D01*
X56050Y-48000D02*
X55800Y-47750D01*
X44150Y-47150D02*
X44198Y-47102D01*
X49250Y-50000D02*
X49100Y-50150D01*
X51200Y-50000D02*
X49250Y-50000D01*
X52750Y-36750D02*
X52750Y-37450D01*
X50100Y-46600D02*
X49500Y-46600D01*
X50300Y-46400D02*
X50100Y-46600D01*
X50300Y-41200D02*
X50300Y-46400D01*
X50700Y-40800D02*
X50300Y-41200D01*
X49060Y-46790D02*
X48630Y-46790D01*
X49250Y-46600D02*
X49060Y-46790D01*
X49500Y-46600D02*
X49250Y-46600D01*
X50050Y-46000D02*
X49800Y-46250D01*
X50050Y-40900D02*
X50050Y-46000D01*
X50100Y-40850D02*
X50050Y-40900D01*
X53750Y-36750D02*
X53750Y-37400D01*
X49030Y-46470D02*
X48630Y-46470D01*
X49800Y-46250D02*
X49750Y-46200D01*
X49750Y-46200D02*
X49300Y-46200D01*
X49300Y-46200D02*
X49030Y-46470D01*
X55200Y-41500D02*
X55300Y-41500D01*
X55600Y-42550D02*
X56150Y-43100D01*
X55600Y-41800D02*
X55600Y-42550D01*
X55300Y-41500D02*
X55600Y-41800D01*
X49250Y-44650D02*
X49250Y-45850D01*
X49650Y-44250D02*
X49250Y-44650D01*
X53750Y-42000D02*
X54000Y-42000D01*
X56150Y-43100D02*
X56750Y-43100D01*
X54500Y-41500D02*
X55200Y-41500D01*
X54000Y-42000D02*
X54500Y-41500D01*
X49500Y-45850D02*
X49250Y-45850D01*
X48700Y-46150D02*
X48630Y-46150D01*
X49000Y-45850D02*
X48700Y-46150D01*
X49250Y-45850D02*
X49000Y-45850D01*
X46625Y-58125D02*
X46250Y-58500D01*
X46625Y-56925D02*
X46625Y-58125D01*
X46600Y-56900D02*
X46625Y-56925D01*
X43500Y-53500D02*
X43500Y-53750D01*
X45500Y-58500D02*
X46250Y-58500D01*
X44750Y-57750D02*
X45500Y-58500D01*
X44750Y-55000D02*
X44750Y-57750D01*
X43500Y-53750D02*
X44750Y-55000D01*
X43500Y-53500D02*
X42875Y-53500D01*
X48950Y-44750D02*
X48320Y-45380D01*
X48950Y-44350D02*
X48950Y-44750D01*
X49100Y-44200D02*
X48950Y-44350D01*
X54750Y-36750D02*
X54750Y-37400D01*
X48350Y-45350D02*
X48320Y-45380D01*
X48320Y-45380D02*
X47850Y-45380D01*
X53300Y-49350D02*
X52950Y-49700D01*
X49200Y-50550D02*
X48800Y-50550D01*
X49500Y-50250D02*
X49200Y-50550D01*
X51650Y-50250D02*
X49500Y-50250D01*
X52200Y-49700D02*
X51650Y-50250D01*
X52950Y-49700D02*
X52200Y-49700D01*
X55375Y-48500D02*
X55375Y-48325D01*
X53450Y-49200D02*
X53300Y-49350D01*
X53300Y-49350D02*
X53250Y-49400D01*
X53450Y-48350D02*
X53450Y-49200D01*
X53750Y-48050D02*
X53450Y-48350D01*
X55100Y-48050D02*
X53750Y-48050D01*
X55375Y-48325D02*
X55100Y-48050D01*
X44250Y-52000D02*
X44250Y-48962D01*
X44250Y-48962D02*
X44850Y-48362D01*
X56400Y-48500D02*
X55375Y-48500D01*
X49250Y-56500D02*
X49250Y-56300D01*
X48400Y-55450D02*
X46750Y-55450D01*
X49250Y-56300D02*
X48400Y-55450D01*
X46150Y-54850D02*
X46750Y-55450D01*
X45250Y-53950D02*
X46150Y-54850D01*
X45250Y-52000D02*
X45250Y-53950D01*
X45638Y-49146D02*
X45254Y-49146D01*
X45254Y-49146D02*
X44650Y-49750D01*
X44650Y-49750D02*
X44650Y-51400D01*
X44650Y-51400D02*
X45250Y-52000D01*
X42750Y-42250D02*
X41100Y-42250D01*
X41100Y-42250D02*
X40400Y-42950D01*
X43375Y-54475D02*
X43375Y-55250D01*
X43400Y-54450D02*
X43375Y-54475D01*
X46250Y-52000D02*
X46200Y-52000D01*
X45800Y-49800D02*
X45953Y-49647D01*
X45350Y-49800D02*
X45800Y-49800D01*
X44950Y-50200D02*
X45350Y-49800D01*
X44950Y-50750D02*
X44950Y-50200D01*
X46200Y-52000D02*
X44950Y-50750D01*
X45953Y-49647D02*
X45953Y-49146D01*
X54750Y-54500D02*
X54750Y-54300D01*
X48800Y-53550D02*
X47250Y-52000D01*
X54000Y-53550D02*
X48800Y-53550D01*
X54750Y-54300D02*
X54000Y-53550D01*
X53250Y-56500D02*
X53250Y-56000D01*
X53250Y-56000D02*
X54750Y-54500D01*
X49350Y-48600D02*
X49110Y-48360D01*
X49110Y-48360D02*
X48630Y-48360D01*
X53250Y-58500D02*
X53250Y-57950D01*
X55250Y-56200D02*
X56200Y-55250D01*
X55250Y-56950D02*
X55250Y-56200D01*
X54750Y-57450D02*
X55250Y-56950D01*
X53750Y-57450D02*
X54750Y-57450D01*
X53250Y-57950D02*
X53750Y-57450D01*
X48250Y-52000D02*
X48250Y-52150D01*
X48250Y-52150D02*
X49350Y-53250D01*
X49350Y-53250D02*
X55650Y-53250D01*
X55650Y-53250D02*
X56450Y-54050D01*
X56450Y-54050D02*
X56450Y-55000D01*
X56450Y-55000D02*
X56200Y-55250D01*
X56200Y-55250D02*
X55850Y-55600D01*
X49500Y-48050D02*
X48630Y-48050D01*
X49550Y-48100D02*
X49500Y-48050D01*
X49250Y-52000D02*
X49700Y-52000D01*
X57600Y-56150D02*
X57250Y-56500D01*
X57600Y-54800D02*
X57600Y-56150D01*
X55750Y-52950D02*
X57600Y-54800D01*
X50650Y-52950D02*
X55750Y-52950D01*
X49700Y-52000D02*
X50650Y-52950D01*
X49830Y-47730D02*
X48630Y-47730D01*
X49850Y-47750D02*
X49830Y-47730D01*
X50850Y-52000D02*
X50850Y-52150D01*
X55800Y-52700D02*
X58700Y-55600D01*
X51400Y-52700D02*
X55800Y-52700D01*
X50850Y-52150D02*
X51400Y-52700D01*
X57250Y-58500D02*
X57250Y-58050D01*
X58900Y-55800D02*
X58700Y-55600D01*
X58900Y-57000D02*
X58900Y-55800D01*
X58600Y-57300D02*
X58900Y-57000D01*
X58000Y-57300D02*
X58600Y-57300D01*
X57250Y-58050D02*
X58000Y-57300D01*
X49430Y-47420D02*
X48630Y-47420D01*
X49450Y-47400D02*
X49430Y-47420D01*
X44850Y-47732D02*
X44368Y-47732D01*
X43750Y-48350D02*
X43750Y-48750D01*
X44368Y-47732D02*
X43750Y-48350D01*
X46200Y-35200D02*
X46200Y-34550D01*
X45600Y-33950D02*
X45800Y-34150D01*
X45100Y-33950D02*
X45600Y-33950D01*
X44700Y-33550D02*
X45100Y-33950D01*
X44700Y-32250D02*
X44700Y-33550D01*
X44250Y-31800D02*
X44700Y-32250D01*
X44250Y-30750D02*
X44250Y-31800D01*
X46200Y-34550D02*
X45800Y-34150D01*
X42250Y-52000D02*
X42250Y-51800D01*
X43750Y-51000D02*
X43750Y-48750D01*
X43500Y-51250D02*
X43750Y-51000D01*
X42800Y-51250D02*
X43500Y-51250D01*
X42250Y-51800D02*
X42800Y-51250D01*
X45750Y-31250D02*
X45250Y-30750D01*
X45750Y-33400D02*
X45750Y-31250D01*
X46700Y-34350D02*
X45750Y-33400D01*
X46700Y-34900D02*
X46700Y-34350D01*
X42250Y-29000D02*
X42250Y-29750D01*
X42250Y-29750D02*
X42550Y-30050D01*
X42550Y-30050D02*
X44950Y-30050D01*
X44950Y-30050D02*
X45250Y-30350D01*
X45250Y-30350D02*
X45250Y-30750D01*
X43250Y-52000D02*
X43250Y-51850D01*
X44352Y-48048D02*
X44850Y-48048D01*
X44000Y-48400D02*
X44352Y-48048D01*
X44000Y-51100D02*
X44000Y-48400D01*
X43250Y-51850D02*
X44000Y-51100D01*
X46900Y-45380D02*
X46900Y-44700D01*
X46900Y-44700D02*
X47000Y-44600D01*
G54D51*
X58500Y-28400D02*
X66233Y-28400D01*
X66233Y-28400D02*
X66750Y-28917D01*
X57750Y-26500D02*
X57800Y-26500D01*
X58500Y-27200D02*
X58500Y-29400D01*
X57800Y-26500D02*
X58500Y-27200D01*
G54D52*
X57750Y-26500D02*
X58500Y-27250D01*
X58500Y-29400D02*
X58500Y-28400D01*
X58500Y-28400D02*
X58500Y-27250D01*
X59975Y-29230D02*
X58670Y-29230D01*
X58670Y-29230D02*
X58500Y-29400D01*
X49500Y-46950D02*
X50500Y-46950D01*
X51750Y-42700D02*
X55000Y-42700D01*
X51200Y-43250D02*
X51750Y-42700D01*
X51200Y-46250D02*
X51200Y-43250D01*
X50500Y-46950D02*
X51200Y-46250D01*
X56750Y-44250D02*
X55750Y-44250D01*
X55750Y-44250D02*
X55000Y-43500D01*
X55000Y-43500D02*
X55000Y-42700D01*
X55000Y-42700D02*
X55000Y-41875D01*
X49140Y-47110D02*
X48630Y-47110D01*
X49300Y-46950D02*
X49140Y-47110D01*
X49650Y-46950D02*
X49500Y-46950D01*
X49500Y-46950D02*
X49300Y-46950D01*
X49750Y-47050D02*
X49650Y-46950D01*
X56325Y-44250D02*
X56300Y-44275D01*
X61600Y-30010D02*
X61910Y-30010D01*
X64209Y-30750D02*
X64250Y-30709D01*
X62350Y-30750D02*
X64209Y-30750D01*
X62200Y-30600D02*
X62350Y-30750D01*
X62200Y-30300D02*
X62200Y-30600D01*
X61910Y-30010D02*
X62200Y-30300D01*
X52625Y-28825D02*
X52200Y-28400D01*
X52625Y-28825D02*
X52625Y-29567D01*
X45625Y-28000D02*
X42300Y-28000D01*
X41750Y-27450D02*
X41750Y-27000D01*
X42300Y-28000D02*
X41750Y-27450D01*
X51750Y-34200D02*
X51750Y-31209D01*
X51750Y-31209D02*
X51250Y-30709D01*
X51750Y-36750D02*
X51600Y-36750D01*
X53250Y-33950D02*
X53250Y-33000D01*
X53000Y-34200D02*
X53250Y-33950D01*
X51450Y-34200D02*
X51750Y-34200D01*
X51750Y-34200D02*
X51800Y-34200D01*
X51800Y-34200D02*
X53000Y-34200D01*
X51250Y-34400D02*
X51450Y-34200D01*
X51250Y-36400D02*
X51250Y-34400D01*
X51600Y-36750D02*
X51250Y-36400D01*
X45625Y-28000D02*
X45650Y-28000D01*
X46650Y-27000D02*
X46750Y-27000D01*
X45650Y-28000D02*
X46650Y-27000D01*
X56750Y-40300D02*
X56050Y-40300D01*
X51750Y-37550D02*
X51750Y-36750D01*
X52100Y-37900D02*
X51750Y-37550D01*
X54800Y-37900D02*
X52100Y-37900D01*
X55300Y-38400D02*
X54800Y-37900D01*
X55300Y-39550D02*
X55300Y-38400D01*
X56050Y-40300D02*
X55300Y-39550D01*
X51250Y-30709D02*
X51483Y-30709D01*
X51483Y-30709D02*
X52625Y-29567D01*
X52250Y-56500D02*
X52250Y-56000D01*
X52250Y-56000D02*
X53750Y-54500D01*
X40750Y-55250D02*
X40750Y-54650D01*
X40625Y-54525D02*
X40625Y-53500D01*
X40750Y-54650D02*
X40625Y-54525D01*
X40625Y-53500D02*
X40625Y-52775D01*
X40600Y-52750D02*
X40625Y-52750D01*
X40625Y-52775D02*
X40600Y-52750D01*
G54D51*
X67600Y-50500D02*
X67600Y-45900D01*
X67600Y-45900D02*
X67750Y-45750D01*
X60500Y-46900D02*
X66600Y-46900D01*
X66600Y-46900D02*
X67750Y-45750D01*
X58600Y-47500D02*
X59900Y-47500D01*
X59900Y-47500D02*
X60500Y-46900D01*
G54D52*
X54625Y-46000D02*
X54750Y-46000D01*
X55450Y-45300D02*
X57200Y-45300D01*
X54750Y-46000D02*
X55450Y-45300D01*
X57200Y-45300D02*
X58150Y-46250D01*
X58325Y-41675D02*
X58675Y-41675D01*
X60500Y-43500D02*
X60500Y-46900D01*
X58675Y-41675D02*
X60500Y-43500D01*
X57200Y-45300D02*
X58800Y-46900D01*
X58800Y-46900D02*
X60500Y-46900D01*
X55750Y-29250D02*
X55750Y-26500D01*
X59375Y-28975D02*
X59200Y-28800D01*
X59975Y-28975D02*
X59375Y-28975D01*
X51250Y-29291D02*
X51250Y-26500D01*
X53541Y-50250D02*
X53541Y-49659D01*
X55150Y-47000D02*
X54625Y-47000D01*
X53900Y-49300D02*
X53900Y-48650D01*
X53541Y-49659D02*
X53900Y-49300D01*
X53541Y-50250D02*
X52700Y-50250D01*
X46000Y-51050D02*
X46000Y-50350D01*
X46200Y-51250D02*
X46000Y-51050D01*
X51700Y-51250D02*
X46200Y-51250D01*
X52700Y-50250D02*
X51700Y-51250D01*
X48750Y-27000D02*
X48750Y-26850D01*
X48750Y-26850D02*
X49200Y-26400D01*
X49200Y-26400D02*
X49200Y-25450D01*
X49200Y-25450D02*
X48750Y-25000D01*
X46250Y-29000D02*
X47650Y-29000D01*
X47875Y-28775D02*
X47875Y-28000D01*
X47650Y-29000D02*
X47875Y-28775D01*
X45700Y-50350D02*
X46000Y-50350D01*
X46000Y-50350D02*
X46375Y-50350D01*
X51750Y-41000D02*
X51750Y-40500D01*
X50250Y-39000D02*
X50250Y-33000D01*
X51750Y-40500D02*
X50250Y-39000D01*
X56750Y-42150D02*
X56250Y-42150D01*
X55800Y-41700D02*
X55800Y-41000D01*
X56250Y-42150D02*
X55800Y-41700D01*
X51750Y-41000D02*
X51750Y-40850D01*
X51750Y-40850D02*
X52250Y-40350D01*
X52250Y-40350D02*
X55150Y-40350D01*
X55150Y-40350D02*
X55800Y-41000D01*
X67750Y-45750D02*
X67750Y-33500D01*
X67600Y-45900D02*
X67750Y-45750D01*
X66600Y-46900D02*
X67750Y-45750D01*
X58325Y-41675D02*
X58300Y-41650D01*
X47700Y-24350D02*
X50850Y-24350D01*
X51250Y-24750D02*
X51250Y-26000D01*
X50850Y-24350D02*
X51250Y-24750D01*
X43750Y-25000D02*
X43750Y-24900D01*
X48100Y-24350D02*
X48750Y-25000D01*
X47700Y-24350D02*
X48100Y-24350D01*
X44300Y-24350D02*
X47700Y-24350D01*
X43750Y-24900D02*
X44300Y-24350D01*
X48625Y-26000D02*
X48625Y-25125D01*
X48625Y-25125D02*
X48750Y-25000D01*
X47875Y-28000D02*
X48250Y-28000D01*
X48750Y-27500D02*
X48750Y-27000D01*
X48250Y-28000D02*
X48750Y-27500D01*
X49000Y-28500D02*
X49100Y-28500D01*
X49100Y-28500D02*
X50250Y-29650D01*
X50250Y-29650D02*
X50250Y-29750D01*
X50250Y-33000D02*
X50250Y-29950D01*
X50250Y-29950D02*
X50250Y-29750D01*
X50709Y-29291D02*
X51250Y-29291D01*
X50250Y-29750D02*
X50709Y-29291D01*
X51250Y-33000D02*
X50250Y-33000D01*
X56750Y-29291D02*
X57041Y-29291D01*
X59875Y-31749D02*
X60375Y-31250D01*
X58549Y-31749D02*
X59875Y-31749D01*
X57600Y-30800D02*
X58549Y-31749D01*
X57600Y-29850D02*
X57600Y-30800D01*
X57041Y-29291D02*
X57600Y-29850D01*
X66750Y-31083D02*
X67083Y-31083D01*
X67083Y-31083D02*
X67750Y-31750D01*
X67750Y-31750D02*
X67750Y-33500D01*
X64250Y-29291D02*
X64291Y-29291D01*
X66083Y-31083D02*
X66750Y-31083D01*
X64291Y-29291D02*
X66083Y-31083D01*
X55750Y-29250D02*
X55750Y-29291D01*
X51250Y-26000D02*
X51250Y-29291D01*
X54750Y-29291D02*
X55750Y-29291D01*
X55750Y-29291D02*
X56750Y-29291D01*
X53375Y-29567D02*
X54474Y-29567D01*
X54474Y-29567D02*
X54750Y-29291D01*
X46580Y-45380D02*
X46580Y-43663D01*
X46580Y-43663D02*
X45917Y-43000D01*
X53541Y-50250D02*
X53550Y-50250D01*
X53550Y-50250D02*
X54400Y-51100D01*
X46580Y-45380D02*
X46580Y-48500D01*
X46580Y-48500D02*
X46500Y-48500D01*
X41041Y-50000D02*
X41041Y-47709D01*
X41500Y-47250D02*
X42750Y-47250D01*
X41041Y-47709D02*
X41500Y-47250D01*
X40625Y-52750D02*
X40625Y-50416D01*
X40625Y-50416D02*
X41041Y-50000D01*
X46375Y-50350D02*
X46375Y-49925D01*
X46375Y-49925D02*
X46268Y-49818D01*
X46268Y-49818D02*
X46268Y-49146D01*
X46898Y-49146D02*
X46898Y-48648D01*
X46268Y-48632D02*
X46268Y-49146D01*
X46400Y-48500D02*
X46268Y-48632D01*
X46750Y-48500D02*
X46500Y-48500D01*
X46500Y-48500D02*
X46400Y-48500D01*
X46898Y-48648D02*
X46750Y-48500D01*
X54625Y-47000D02*
X54625Y-46000D01*
X55250Y-36750D02*
X55250Y-37500D01*
X58300Y-39050D02*
X58300Y-39850D01*
X58050Y-38800D02*
X58300Y-39050D01*
X56750Y-39300D02*
X57750Y-39300D01*
X57800Y-42150D02*
X56750Y-42150D01*
X58300Y-41650D02*
X57800Y-42150D01*
X58300Y-39850D02*
X58300Y-41650D01*
X57750Y-39300D02*
X58300Y-39850D01*
X61600Y-28985D02*
X59985Y-28985D01*
X59985Y-28985D02*
X59975Y-28975D01*
X61600Y-29750D02*
X61300Y-29750D01*
X61065Y-28985D02*
X61600Y-28985D01*
X61050Y-29000D02*
X61065Y-28985D01*
X61050Y-29500D02*
X61050Y-29000D01*
X61300Y-29750D02*
X61050Y-29500D01*
X62750Y-28875D02*
X63834Y-28875D01*
X63834Y-28875D02*
X64250Y-29291D01*
X62750Y-28875D02*
X61710Y-28875D01*
X61710Y-28875D02*
X61600Y-28985D01*
X62750Y-30375D02*
X63125Y-30375D01*
X63125Y-30375D02*
X64209Y-29291D01*
X64209Y-29291D02*
X64250Y-29291D01*
X66491Y-31450D02*
X66750Y-31709D01*
X53541Y-50000D02*
X53541Y-50241D01*
X53541Y-50241D02*
X54400Y-51100D01*
X54400Y-51100D02*
X55950Y-51100D01*
X55950Y-51100D02*
X56850Y-52000D01*
X59900Y-47500D02*
X60500Y-46900D01*
X60750Y-47500D02*
X60500Y-47500D01*
X60050Y-47250D02*
X60150Y-47150D01*
X49000Y-54250D02*
X49000Y-54350D01*
X51450Y-54800D02*
X51750Y-54500D01*
X49450Y-54800D02*
X51450Y-54800D01*
X49000Y-54350D02*
X49450Y-54800D01*
X42125Y-53500D02*
X41375Y-53500D01*
X41750Y-55250D02*
X42625Y-55250D01*
X56750Y-37300D02*
X58200Y-37300D01*
X52250Y-36000D02*
X52250Y-36750D01*
X53000Y-35250D02*
X52250Y-36000D01*
X58500Y-35250D02*
X53000Y-35250D01*
X59000Y-35750D02*
X58500Y-35250D01*
X59000Y-36500D02*
X59000Y-35750D01*
X58200Y-37300D02*
X59000Y-36500D01*
X56750Y-41150D02*
X57250Y-41150D01*
X54250Y-36250D02*
X54250Y-36750D01*
X54500Y-36000D02*
X54250Y-36250D01*
X55350Y-36000D02*
X54500Y-36000D01*
X55650Y-36300D02*
X55350Y-36000D01*
X55650Y-39350D02*
X55650Y-36300D01*
X56100Y-39800D02*
X55650Y-39350D01*
X57450Y-39800D02*
X56100Y-39800D01*
X57700Y-40050D02*
X57450Y-39800D01*
X57700Y-40700D02*
X57700Y-40050D01*
X57250Y-41150D02*
X57700Y-40700D01*
X56750Y-38300D02*
X56600Y-38300D01*
X53250Y-35900D02*
X53250Y-36750D01*
X53600Y-35550D02*
X53250Y-35900D01*
X55600Y-35550D02*
X53600Y-35550D01*
X56000Y-35950D02*
X55600Y-35550D01*
X56000Y-37700D02*
X56000Y-35950D01*
X56600Y-38300D02*
X56000Y-37700D01*
X44250Y-34750D02*
X42866Y-34750D01*
X47528Y-49146D02*
X47528Y-49678D01*
X50750Y-49400D02*
X52250Y-47900D01*
X48400Y-49400D02*
X50750Y-49400D01*
X48000Y-49800D02*
X48400Y-49400D01*
X47650Y-49800D02*
X48000Y-49800D01*
X47528Y-49678D02*
X47650Y-49800D01*
X52250Y-47900D02*
X52350Y-47900D01*
X53250Y-47000D02*
X53875Y-47000D01*
X52350Y-47900D02*
X53250Y-47000D01*
X41134Y-34750D02*
X41134Y-32866D01*
X41134Y-32866D02*
X43250Y-30750D01*
X44250Y-29000D02*
X44250Y-29350D01*
X43900Y-29700D02*
X42700Y-29700D01*
X44250Y-29350D02*
X43900Y-29700D01*
X50000Y-48800D02*
X50300Y-48800D01*
X51650Y-44700D02*
X52250Y-44100D01*
X51650Y-47450D02*
X51650Y-44700D01*
X50300Y-48800D02*
X51650Y-47450D01*
X52250Y-44100D02*
X52250Y-44900D01*
X52250Y-44900D02*
X53350Y-46000D01*
X53350Y-46000D02*
X53875Y-46000D01*
X47843Y-49146D02*
X49654Y-49146D01*
X49654Y-49146D02*
X50000Y-48800D01*
X41250Y-29000D02*
X41100Y-29000D01*
X40500Y-29600D02*
X40500Y-32625D01*
X41100Y-29000D02*
X40500Y-29600D01*
X58600Y-48500D02*
X59750Y-48500D01*
X59750Y-48500D02*
X60000Y-48250D01*
X58600Y-48000D02*
X59300Y-48000D01*
X56000Y-49600D02*
X56000Y-49875D01*
X55750Y-49350D02*
X56000Y-49600D01*
X54959Y-50250D02*
X56680Y-50250D01*
X56680Y-50250D02*
X56930Y-50500D01*
X56930Y-49750D02*
X56930Y-49530D01*
X56930Y-49530D02*
X56400Y-49000D01*
X56930Y-50500D02*
X56930Y-49750D01*
X55750Y-46250D02*
X56250Y-46250D01*
X56250Y-46250D02*
X57000Y-47000D01*
X58600Y-49000D02*
X57750Y-49000D01*
X57000Y-48250D02*
X57000Y-47000D01*
X57750Y-49000D02*
X57000Y-48250D01*
X58600Y-49000D02*
X60250Y-49000D01*
X60250Y-49000D02*
X61000Y-48250D01*
G54D51*
X58070Y-49750D02*
X58950Y-49750D01*
X58950Y-49750D02*
X59700Y-50500D01*
G54D52*
X58950Y-49750D02*
X59700Y-50500D01*
X58500Y-30600D02*
X58750Y-30600D01*
X59565Y-29485D02*
X59975Y-29485D01*
X59400Y-29650D02*
X59565Y-29485D01*
X59400Y-29950D02*
X59400Y-29650D01*
X58750Y-30600D02*
X59400Y-29950D01*
X62750Y-29625D02*
X62525Y-29625D01*
X62140Y-29240D02*
X61600Y-29240D01*
X62525Y-29625D02*
X62140Y-29240D01*
X59975Y-30255D02*
X59975Y-30900D01*
X59975Y-30900D02*
X59625Y-31250D01*
X62750Y-31125D02*
X62000Y-31125D01*
X62000Y-31125D02*
X61875Y-31250D01*
X61875Y-31250D02*
X61875Y-30535D01*
X61875Y-30535D02*
X61600Y-30260D01*
X52750Y-54500D02*
X52750Y-54800D01*
X48950Y-55200D02*
X48000Y-54250D01*
X52350Y-55200D02*
X48950Y-55200D01*
X52750Y-54800D02*
X52350Y-55200D01*
X40475Y-40475D02*
X40475Y-40425D01*
X41050Y-41050D02*
X40475Y-40475D01*
X47550Y-40500D02*
X49100Y-42050D01*
X49100Y-42050D02*
X49650Y-42050D01*
X40250Y-40200D02*
X40250Y-35250D01*
X40250Y-34050D02*
X40250Y-35250D01*
X40500Y-33800D02*
X40250Y-34050D01*
X40500Y-33375D02*
X40500Y-33800D01*
X40475Y-40425D02*
X40250Y-40200D01*
X44850Y-47418D02*
X44332Y-47418D01*
X43450Y-48800D02*
X42850Y-49400D01*
X43450Y-48300D02*
X43450Y-48800D01*
X44332Y-47418D02*
X43450Y-48300D01*
X49000Y-31000D02*
X48625Y-31000D01*
X48625Y-31000D02*
X48125Y-31500D01*
G54D10*
G36*
X45977Y-26390D02*
X45879Y-26350D01*
X45621Y-26349D01*
X45382Y-26448D01*
X45199Y-26631D01*
X45100Y-26870D01*
X45099Y-27128D01*
X45198Y-27367D01*
X45333Y-27502D01*
X45308Y-27512D01*
X45238Y-27583D01*
X45200Y-27675D01*
X44400Y-27675D01*
X44400Y-27350D01*
X44400Y-26649D01*
X44399Y-26550D01*
X44361Y-26458D01*
X44291Y-26387D01*
X44199Y-26349D01*
X43862Y-26350D01*
X43800Y-26412D01*
X43800Y-26950D01*
X44337Y-26950D01*
X44400Y-26887D01*
X44400Y-26649D01*
X44400Y-27350D01*
X44400Y-27112D01*
X44337Y-27050D01*
X43800Y-27050D01*
X43800Y-27587D01*
X43862Y-27650D01*
X44199Y-27650D01*
X44291Y-27612D01*
X44361Y-27541D01*
X44399Y-27449D01*
X44400Y-27350D01*
X44400Y-27675D01*
X42434Y-27675D01*
X42214Y-27454D01*
X42250Y-27419D01*
X42381Y-27550D01*
X42620Y-27649D01*
X42878Y-27650D01*
X43117Y-27551D01*
X43134Y-27534D01*
X43138Y-27541D01*
X43208Y-27612D01*
X43300Y-27650D01*
X43637Y-27650D01*
X43700Y-27587D01*
X43700Y-27050D01*
X43692Y-27050D01*
X43692Y-26950D01*
X43700Y-26950D01*
X43700Y-26412D01*
X43637Y-26350D01*
X43300Y-26349D01*
X43208Y-26387D01*
X43138Y-26458D01*
X43135Y-26465D01*
X43118Y-26449D01*
X43071Y-26429D01*
X43160Y-26341D01*
X43224Y-26184D01*
X43225Y-26025D01*
X45050Y-26025D01*
X45174Y-26000D01*
X45174Y-26000D01*
X45279Y-25929D01*
X45447Y-25762D01*
X45449Y-25774D01*
X45520Y-25879D01*
X45870Y-26229D01*
X45870Y-26229D01*
X45949Y-26283D01*
X45949Y-26324D01*
X45977Y-26390D01*
X45977Y-26390D01*
G37*
G54D53*
X45977Y-26390D02*
X45879Y-26350D01*
X45621Y-26349D01*
X45382Y-26448D01*
X45199Y-26631D01*
X45100Y-26870D01*
X45099Y-27128D01*
X45198Y-27367D01*
X45333Y-27502D01*
X45308Y-27512D01*
X45238Y-27583D01*
X45200Y-27675D01*
X44400Y-27675D01*
X44400Y-27350D01*
X44400Y-26649D01*
X44399Y-26550D01*
X44361Y-26458D01*
X44291Y-26387D01*
X44199Y-26349D01*
X43862Y-26350D01*
X43800Y-26412D01*
X43800Y-26950D01*
X44337Y-26950D01*
X44400Y-26887D01*
X44400Y-26649D01*
X44400Y-27350D01*
X44400Y-27112D01*
X44337Y-27050D01*
X43800Y-27050D01*
X43800Y-27587D01*
X43862Y-27650D01*
X44199Y-27650D01*
X44291Y-27612D01*
X44361Y-27541D01*
X44399Y-27449D01*
X44400Y-27350D01*
X44400Y-27675D01*
X42434Y-27675D01*
X42214Y-27454D01*
X42250Y-27419D01*
X42381Y-27550D01*
X42620Y-27649D01*
X42878Y-27650D01*
X43117Y-27551D01*
X43134Y-27534D01*
X43138Y-27541D01*
X43208Y-27612D01*
X43300Y-27650D01*
X43637Y-27650D01*
X43700Y-27587D01*
X43700Y-27050D01*
X43692Y-27050D01*
X43692Y-26950D01*
X43700Y-26950D01*
X43700Y-26412D01*
X43637Y-26350D01*
X43300Y-26349D01*
X43208Y-26387D01*
X43138Y-26458D01*
X43135Y-26465D01*
X43118Y-26449D01*
X43071Y-26429D01*
X43160Y-26341D01*
X43224Y-26184D01*
X43225Y-26025D01*
X45050Y-26025D01*
X45174Y-26000D01*
X45174Y-26000D01*
X45279Y-25929D01*
X45447Y-25762D01*
X45449Y-25774D01*
X45520Y-25879D01*
X45870Y-26229D01*
X45870Y-26229D01*
X45949Y-26283D01*
X45949Y-26324D01*
X45977Y-26390D01*
G54D10*
G36*
X46324Y-49887D02*
X46262Y-49825D01*
X46217Y-49824D01*
X46253Y-49771D01*
X46253Y-49771D01*
X46264Y-49715D01*
X46282Y-49807D01*
X46324Y-49870D01*
X46324Y-49887D01*
X46324Y-49887D01*
G37*
G54D53*
X46324Y-49887D02*
X46262Y-49825D01*
X46217Y-49824D01*
X46253Y-49771D01*
X46253Y-49771D01*
X46264Y-49715D01*
X46282Y-49807D01*
X46324Y-49870D01*
X46324Y-49887D01*
G54D10*
G36*
X47213Y-43508D02*
X47205Y-43553D01*
X47205Y-44224D01*
X47084Y-44175D01*
X46915Y-44174D01*
X46875Y-44191D01*
X46875Y-43265D01*
X46875Y-42734D01*
X46875Y-42635D01*
X46837Y-42543D01*
X46766Y-42472D01*
X46675Y-42434D01*
X46029Y-42435D01*
X45967Y-42497D01*
X45967Y-42950D01*
X46813Y-42950D01*
X46875Y-42887D01*
X46875Y-42734D01*
X46875Y-43265D01*
X46875Y-43112D01*
X46813Y-43050D01*
X45967Y-43050D01*
X45967Y-43502D01*
X46029Y-43565D01*
X46675Y-43565D01*
X46766Y-43527D01*
X46837Y-43456D01*
X46875Y-43364D01*
X46875Y-43265D01*
X46875Y-44191D01*
X46759Y-44239D01*
X46639Y-44358D01*
X46575Y-44515D01*
X46574Y-44684D01*
X46577Y-44689D01*
X46575Y-44700D01*
X46575Y-44736D01*
X46532Y-44736D01*
X46532Y-44736D01*
X46473Y-44736D01*
X46473Y-44736D01*
X46532Y-44736D01*
X46574Y-44634D01*
X46575Y-44465D01*
X46510Y-44309D01*
X46391Y-44189D01*
X46234Y-44125D01*
X46066Y-44124D01*
X46060Y-44109D01*
X45941Y-43989D01*
X45784Y-43925D01*
X45725Y-43925D01*
X45725Y-43865D01*
X45660Y-43709D01*
X45541Y-43589D01*
X45481Y-43565D01*
X45804Y-43565D01*
X45867Y-43502D01*
X45867Y-43050D01*
X45867Y-42950D01*
X45867Y-42497D01*
X45804Y-42435D01*
X45158Y-42434D01*
X45067Y-42472D01*
X44996Y-42543D01*
X44958Y-42635D01*
X44958Y-42734D01*
X44958Y-42887D01*
X45021Y-42950D01*
X45867Y-42950D01*
X45867Y-43050D01*
X45021Y-43050D01*
X44958Y-43112D01*
X44958Y-43265D01*
X44958Y-43364D01*
X44996Y-43456D01*
X45067Y-43527D01*
X45138Y-43556D01*
X45059Y-43589D01*
X44939Y-43708D01*
X44931Y-43730D01*
X44841Y-43639D01*
X44684Y-43575D01*
X44515Y-43574D01*
X44359Y-43639D01*
X44239Y-43758D01*
X44175Y-43915D01*
X44175Y-43965D01*
X44175Y-43965D01*
X44175Y-40926D01*
X44208Y-40960D01*
X44365Y-41024D01*
X44534Y-41025D01*
X44655Y-40975D01*
X44817Y-40975D01*
X44960Y-40946D01*
X45082Y-40865D01*
X45250Y-40697D01*
X47143Y-42590D01*
X47124Y-42635D01*
X47124Y-42734D01*
X47124Y-43364D01*
X47162Y-43456D01*
X47213Y-43508D01*
X47213Y-43508D01*
G37*
G54D53*
X47213Y-43508D02*
X47205Y-43553D01*
X47205Y-44224D01*
X47084Y-44175D01*
X46915Y-44174D01*
X46875Y-44191D01*
X46875Y-43265D01*
X46875Y-42734D01*
X46875Y-42635D01*
X46837Y-42543D01*
X46766Y-42472D01*
X46675Y-42434D01*
X46029Y-42435D01*
X45967Y-42497D01*
X45967Y-42950D01*
X46813Y-42950D01*
X46875Y-42887D01*
X46875Y-42734D01*
X46875Y-43265D01*
X46875Y-43112D01*
X46813Y-43050D01*
X45967Y-43050D01*
X45967Y-43502D01*
X46029Y-43565D01*
X46675Y-43565D01*
X46766Y-43527D01*
X46837Y-43456D01*
X46875Y-43364D01*
X46875Y-43265D01*
X46875Y-44191D01*
X46759Y-44239D01*
X46639Y-44358D01*
X46575Y-44515D01*
X46574Y-44684D01*
X46577Y-44689D01*
X46575Y-44700D01*
X46575Y-44736D01*
X46532Y-44736D01*
X46532Y-44736D01*
X46473Y-44736D01*
X46473Y-44736D01*
X46532Y-44736D01*
X46574Y-44634D01*
X46575Y-44465D01*
X46510Y-44309D01*
X46391Y-44189D01*
X46234Y-44125D01*
X46066Y-44124D01*
X46060Y-44109D01*
X45941Y-43989D01*
X45784Y-43925D01*
X45725Y-43925D01*
X45725Y-43865D01*
X45660Y-43709D01*
X45541Y-43589D01*
X45481Y-43565D01*
X45804Y-43565D01*
X45867Y-43502D01*
X45867Y-43050D01*
X45867Y-42950D01*
X45867Y-42497D01*
X45804Y-42435D01*
X45158Y-42434D01*
X45067Y-42472D01*
X44996Y-42543D01*
X44958Y-42635D01*
X44958Y-42734D01*
X44958Y-42887D01*
X45021Y-42950D01*
X45867Y-42950D01*
X45867Y-43050D01*
X45021Y-43050D01*
X44958Y-43112D01*
X44958Y-43265D01*
X44958Y-43364D01*
X44996Y-43456D01*
X45067Y-43527D01*
X45138Y-43556D01*
X45059Y-43589D01*
X44939Y-43708D01*
X44931Y-43730D01*
X44841Y-43639D01*
X44684Y-43575D01*
X44515Y-43574D01*
X44359Y-43639D01*
X44239Y-43758D01*
X44175Y-43915D01*
X44175Y-43965D01*
X44175Y-43965D01*
X44175Y-40926D01*
X44208Y-40960D01*
X44365Y-41024D01*
X44534Y-41025D01*
X44655Y-40975D01*
X44817Y-40975D01*
X44960Y-40946D01*
X45082Y-40865D01*
X45250Y-40697D01*
X47143Y-42590D01*
X47124Y-42635D01*
X47124Y-42734D01*
X47124Y-43364D01*
X47162Y-43456D01*
X47213Y-43508D01*
G54D10*
G36*
X47995Y-47889D02*
X47986Y-47911D01*
X47986Y-48011D01*
X47986Y-48188D01*
X47993Y-48204D01*
X47986Y-48221D01*
X47986Y-48321D01*
X47986Y-48498D01*
X47989Y-48505D01*
X47981Y-48502D01*
X47881Y-48502D01*
X47704Y-48502D01*
X47685Y-48510D01*
X47666Y-48502D01*
X47566Y-48502D01*
X47389Y-48502D01*
X47370Y-48510D01*
X47351Y-48502D01*
X47251Y-48502D01*
X47074Y-48502D01*
X47055Y-48510D01*
X47036Y-48502D01*
X47004Y-48502D01*
X46942Y-48565D01*
X46942Y-48581D01*
X46912Y-48610D01*
X46898Y-48646D01*
X46883Y-48611D01*
X46853Y-48581D01*
X46853Y-48565D01*
X46791Y-48502D01*
X46759Y-48502D01*
X46740Y-48510D01*
X46721Y-48502D01*
X46621Y-48502D01*
X46444Y-48502D01*
X46425Y-48510D01*
X46406Y-48502D01*
X46374Y-48502D01*
X46312Y-48565D01*
X46312Y-48581D01*
X46282Y-48610D01*
X46268Y-48646D01*
X46253Y-48611D01*
X46223Y-48581D01*
X46223Y-48565D01*
X46161Y-48502D01*
X46129Y-48502D01*
X46110Y-48510D01*
X46091Y-48502D01*
X45991Y-48502D01*
X45814Y-48502D01*
X45795Y-48510D01*
X45776Y-48502D01*
X45676Y-48502D01*
X45499Y-48502D01*
X45491Y-48506D01*
X45493Y-48500D01*
X45493Y-48400D01*
X45493Y-48223D01*
X45485Y-48205D01*
X45493Y-48186D01*
X45493Y-48086D01*
X45493Y-47909D01*
X45485Y-47890D01*
X45493Y-47870D01*
X45493Y-47770D01*
X45493Y-47593D01*
X45485Y-47575D01*
X45493Y-47556D01*
X45493Y-47456D01*
X45493Y-47279D01*
X45485Y-47260D01*
X45493Y-47240D01*
X45493Y-47140D01*
X45493Y-46963D01*
X45485Y-46945D01*
X45493Y-46926D01*
X45493Y-46826D01*
X45493Y-46649D01*
X45485Y-46630D01*
X45493Y-46610D01*
X45493Y-46510D01*
X45493Y-46333D01*
X45485Y-46315D01*
X45493Y-46296D01*
X45493Y-46196D01*
X45493Y-46020D01*
X45501Y-46023D01*
X45601Y-46023D01*
X45778Y-46023D01*
X45794Y-46016D01*
X45811Y-46023D01*
X45911Y-46023D01*
X46088Y-46023D01*
X46109Y-46014D01*
X46131Y-46023D01*
X46231Y-46023D01*
X46408Y-46023D01*
X46424Y-46016D01*
X46441Y-46023D01*
X46473Y-46023D01*
X46535Y-45961D01*
X46535Y-45949D01*
X46570Y-45915D01*
X46584Y-45879D01*
X46599Y-45914D01*
X46624Y-45939D01*
X46624Y-45961D01*
X46686Y-46023D01*
X46718Y-46023D01*
X46740Y-46014D01*
X46761Y-46023D01*
X46861Y-46023D01*
X47038Y-46023D01*
X47054Y-46016D01*
X47071Y-46023D01*
X47171Y-46023D01*
X47348Y-46023D01*
X47369Y-46014D01*
X47391Y-46023D01*
X47491Y-46023D01*
X47668Y-46023D01*
X47689Y-46014D01*
X47711Y-46023D01*
X47811Y-46023D01*
X47986Y-46023D01*
X47986Y-46111D01*
X47986Y-46288D01*
X47995Y-46309D01*
X47986Y-46331D01*
X47986Y-46431D01*
X47986Y-46608D01*
X47995Y-46629D01*
X47986Y-46651D01*
X47986Y-46751D01*
X47986Y-46928D01*
X47995Y-46949D01*
X47986Y-46971D01*
X47986Y-47071D01*
X47986Y-47248D01*
X47993Y-47264D01*
X47986Y-47281D01*
X47986Y-47381D01*
X47986Y-47558D01*
X47993Y-47574D01*
X47986Y-47591D01*
X47986Y-47691D01*
X47986Y-47868D01*
X47995Y-47889D01*
X47995Y-47889D01*
G37*
G54D53*
X47995Y-47889D02*
X47986Y-47911D01*
X47986Y-48011D01*
X47986Y-48188D01*
X47993Y-48204D01*
X47986Y-48221D01*
X47986Y-48321D01*
X47986Y-48498D01*
X47989Y-48505D01*
X47981Y-48502D01*
X47881Y-48502D01*
X47704Y-48502D01*
X47685Y-48510D01*
X47666Y-48502D01*
X47566Y-48502D01*
X47389Y-48502D01*
X47370Y-48510D01*
X47351Y-48502D01*
X47251Y-48502D01*
X47074Y-48502D01*
X47055Y-48510D01*
X47036Y-48502D01*
X47004Y-48502D01*
X46942Y-48565D01*
X46942Y-48581D01*
X46912Y-48610D01*
X46898Y-48646D01*
X46883Y-48611D01*
X46853Y-48581D01*
X46853Y-48565D01*
X46791Y-48502D01*
X46759Y-48502D01*
X46740Y-48510D01*
X46721Y-48502D01*
X46621Y-48502D01*
X46444Y-48502D01*
X46425Y-48510D01*
X46406Y-48502D01*
X46374Y-48502D01*
X46312Y-48565D01*
X46312Y-48581D01*
X46282Y-48610D01*
X46268Y-48646D01*
X46253Y-48611D01*
X46223Y-48581D01*
X46223Y-48565D01*
X46161Y-48502D01*
X46129Y-48502D01*
X46110Y-48510D01*
X46091Y-48502D01*
X45991Y-48502D01*
X45814Y-48502D01*
X45795Y-48510D01*
X45776Y-48502D01*
X45676Y-48502D01*
X45499Y-48502D01*
X45491Y-48506D01*
X45493Y-48500D01*
X45493Y-48400D01*
X45493Y-48223D01*
X45485Y-48205D01*
X45493Y-48186D01*
X45493Y-48086D01*
X45493Y-47909D01*
X45485Y-47890D01*
X45493Y-47870D01*
X45493Y-47770D01*
X45493Y-47593D01*
X45485Y-47575D01*
X45493Y-47556D01*
X45493Y-47456D01*
X45493Y-47279D01*
X45485Y-47260D01*
X45493Y-47240D01*
X45493Y-47140D01*
X45493Y-46963D01*
X45485Y-46945D01*
X45493Y-46926D01*
X45493Y-46826D01*
X45493Y-46649D01*
X45485Y-46630D01*
X45493Y-46610D01*
X45493Y-46510D01*
X45493Y-46333D01*
X45485Y-46315D01*
X45493Y-46296D01*
X45493Y-46196D01*
X45493Y-46020D01*
X45501Y-46023D01*
X45601Y-46023D01*
X45778Y-46023D01*
X45794Y-46016D01*
X45811Y-46023D01*
X45911Y-46023D01*
X46088Y-46023D01*
X46109Y-46014D01*
X46131Y-46023D01*
X46231Y-46023D01*
X46408Y-46023D01*
X46424Y-46016D01*
X46441Y-46023D01*
X46473Y-46023D01*
X46535Y-45961D01*
X46535Y-45949D01*
X46570Y-45915D01*
X46584Y-45879D01*
X46599Y-45914D01*
X46624Y-45939D01*
X46624Y-45961D01*
X46686Y-46023D01*
X46718Y-46023D01*
X46740Y-46014D01*
X46761Y-46023D01*
X46861Y-46023D01*
X47038Y-46023D01*
X47054Y-46016D01*
X47071Y-46023D01*
X47171Y-46023D01*
X47348Y-46023D01*
X47369Y-46014D01*
X47391Y-46023D01*
X47491Y-46023D01*
X47668Y-46023D01*
X47689Y-46014D01*
X47711Y-46023D01*
X47811Y-46023D01*
X47986Y-46023D01*
X47986Y-46111D01*
X47986Y-46288D01*
X47995Y-46309D01*
X47986Y-46331D01*
X47986Y-46431D01*
X47986Y-46608D01*
X47995Y-46629D01*
X47986Y-46651D01*
X47986Y-46751D01*
X47986Y-46928D01*
X47995Y-46949D01*
X47986Y-46971D01*
X47986Y-47071D01*
X47986Y-47248D01*
X47993Y-47264D01*
X47986Y-47281D01*
X47986Y-47381D01*
X47986Y-47558D01*
X47993Y-47574D01*
X47986Y-47591D01*
X47986Y-47691D01*
X47986Y-47868D01*
X47995Y-47889D01*
G54D10*
G36*
X55325Y-37965D02*
X55055Y-37695D01*
X55110Y-37641D01*
X55174Y-37484D01*
X55175Y-37315D01*
X55137Y-37224D01*
X55200Y-37162D01*
X55200Y-36800D01*
X55192Y-36800D01*
X55192Y-36700D01*
X55200Y-36700D01*
X55200Y-36692D01*
X55300Y-36692D01*
X55300Y-36700D01*
X55307Y-36700D01*
X55307Y-36800D01*
X55300Y-36800D01*
X55300Y-37162D01*
X55325Y-37187D01*
X55325Y-37965D01*
X55325Y-37965D01*
G37*
G54D53*
X55325Y-37965D02*
X55055Y-37695D01*
X55110Y-37641D01*
X55174Y-37484D01*
X55175Y-37315D01*
X55137Y-37224D01*
X55200Y-37162D01*
X55200Y-36800D01*
X55192Y-36800D01*
X55192Y-36700D01*
X55200Y-36700D01*
X55200Y-36692D01*
X55300Y-36692D01*
X55300Y-36700D01*
X55307Y-36700D01*
X55307Y-36800D01*
X55300Y-36800D01*
X55300Y-37162D01*
X55325Y-37187D01*
X55325Y-37965D01*
G54D10*
G36*
X56456Y-51425D02*
X56361Y-51543D01*
X56353Y-51568D01*
X56238Y-51396D01*
X56060Y-51277D01*
X55850Y-51235D01*
X55639Y-51277D01*
X55461Y-51396D01*
X55350Y-51562D01*
X55238Y-51396D01*
X55060Y-51277D01*
X54850Y-51235D01*
X54639Y-51277D01*
X54461Y-51396D01*
X54350Y-51562D01*
X54238Y-51396D01*
X54060Y-51277D01*
X53850Y-51235D01*
X53639Y-51277D01*
X53491Y-51376D01*
X53491Y-50752D01*
X53491Y-50300D01*
X52841Y-50300D01*
X52779Y-50362D01*
X52778Y-50515D01*
X52779Y-50614D01*
X52817Y-50706D01*
X52887Y-50777D01*
X52979Y-50815D01*
X53428Y-50815D01*
X53491Y-50752D01*
X53491Y-51376D01*
X53461Y-51396D01*
X53350Y-51562D01*
X53238Y-51396D01*
X53060Y-51277D01*
X52850Y-51235D01*
X52639Y-51277D01*
X52461Y-51396D01*
X52350Y-51562D01*
X52238Y-51396D01*
X52060Y-51277D01*
X51850Y-51235D01*
X51639Y-51277D01*
X51461Y-51396D01*
X51350Y-51562D01*
X51238Y-51396D01*
X51060Y-51277D01*
X50850Y-51235D01*
X50639Y-51277D01*
X50461Y-51396D01*
X50341Y-51574D01*
X50300Y-51785D01*
X50300Y-52140D01*
X49929Y-51770D01*
X49824Y-51699D01*
X49781Y-51691D01*
X49758Y-51574D01*
X49638Y-51396D01*
X49460Y-51277D01*
X49250Y-51235D01*
X49039Y-51277D01*
X48861Y-51396D01*
X48750Y-51562D01*
X48638Y-51396D01*
X48460Y-51277D01*
X48250Y-51235D01*
X48039Y-51277D01*
X47861Y-51396D01*
X47750Y-51562D01*
X47638Y-51396D01*
X47460Y-51277D01*
X47250Y-51235D01*
X47039Y-51277D01*
X46861Y-51396D01*
X46750Y-51562D01*
X46638Y-51396D01*
X46460Y-51277D01*
X46250Y-51235D01*
X46039Y-51277D01*
X45977Y-51318D01*
X45275Y-50615D01*
X45275Y-50334D01*
X45484Y-50125D01*
X45800Y-50125D01*
X45924Y-50100D01*
X45924Y-50100D01*
X45949Y-50083D01*
X45949Y-50124D01*
X45950Y-50237D01*
X46012Y-50300D01*
X46325Y-50300D01*
X46325Y-50292D01*
X46425Y-50292D01*
X46425Y-50300D01*
X46432Y-50300D01*
X46432Y-50400D01*
X46425Y-50400D01*
X46425Y-50407D01*
X46325Y-50407D01*
X46325Y-50400D01*
X46012Y-50400D01*
X45950Y-50462D01*
X45949Y-50575D01*
X45950Y-50674D01*
X45988Y-50766D01*
X46058Y-50837D01*
X46150Y-50875D01*
X46262Y-50875D01*
X46275Y-50862D01*
X46274Y-50984D01*
X46339Y-51140D01*
X46458Y-51260D01*
X46615Y-51324D01*
X46784Y-51325D01*
X46940Y-51260D01*
X47060Y-51141D01*
X47124Y-50984D01*
X47124Y-50934D01*
X47184Y-50875D01*
X47349Y-50875D01*
X47441Y-50837D01*
X47511Y-50766D01*
X47549Y-50674D01*
X47550Y-50575D01*
X47550Y-50105D01*
X47650Y-50125D01*
X48000Y-50125D01*
X48124Y-50100D01*
X48124Y-50100D01*
X48229Y-50029D01*
X48425Y-49834D01*
X48489Y-49990D01*
X48608Y-50110D01*
X48675Y-50137D01*
X48675Y-50141D01*
X48559Y-50189D01*
X48439Y-50308D01*
X48375Y-50465D01*
X48374Y-50634D01*
X48439Y-50790D01*
X48558Y-50910D01*
X48715Y-50974D01*
X48884Y-50975D01*
X49040Y-50910D01*
X49075Y-50875D01*
X49200Y-50875D01*
X49324Y-50850D01*
X49324Y-50850D01*
X49429Y-50779D01*
X49634Y-50575D01*
X51650Y-50575D01*
X51774Y-50550D01*
X51774Y-50550D01*
X51879Y-50479D01*
X52334Y-50025D01*
X52778Y-50025D01*
X52779Y-50137D01*
X52841Y-50200D01*
X53491Y-50200D01*
X53491Y-49747D01*
X53428Y-49685D01*
X53424Y-49684D01*
X53479Y-49629D01*
X53479Y-49629D01*
X53529Y-49579D01*
X53529Y-49579D01*
X53679Y-49429D01*
X53679Y-49429D01*
X53679Y-49429D01*
X53750Y-49324D01*
X53750Y-49324D01*
X53775Y-49200D01*
X53775Y-48484D01*
X53884Y-48375D01*
X54199Y-48375D01*
X54199Y-48465D01*
X54020Y-48645D01*
X53949Y-48750D01*
X53925Y-48875D01*
X53925Y-49684D01*
X53653Y-49685D01*
X53591Y-49747D01*
X53591Y-50200D01*
X53598Y-50200D01*
X53598Y-50300D01*
X53591Y-50300D01*
X53591Y-50752D01*
X53653Y-50815D01*
X54055Y-50815D01*
X54270Y-51029D01*
X54270Y-51029D01*
X54375Y-51100D01*
X54375Y-51100D01*
X54500Y-51125D01*
X55600Y-51125D01*
X55724Y-51100D01*
X55724Y-51100D01*
X55799Y-51050D01*
X55799Y-51050D01*
X55869Y-51050D01*
X56134Y-51315D01*
X56134Y-51315D01*
X56183Y-51347D01*
X56256Y-51396D01*
X56399Y-51424D01*
X56400Y-51425D01*
X56456Y-51425D01*
X56456Y-51425D01*
G37*
G54D53*
X56456Y-51425D02*
X56361Y-51543D01*
X56353Y-51568D01*
X56238Y-51396D01*
X56060Y-51277D01*
X55850Y-51235D01*
X55639Y-51277D01*
X55461Y-51396D01*
X55350Y-51562D01*
X55238Y-51396D01*
X55060Y-51277D01*
X54850Y-51235D01*
X54639Y-51277D01*
X54461Y-51396D01*
X54350Y-51562D01*
X54238Y-51396D01*
X54060Y-51277D01*
X53850Y-51235D01*
X53639Y-51277D01*
X53491Y-51376D01*
X53491Y-50752D01*
X53491Y-50300D01*
X52841Y-50300D01*
X52779Y-50362D01*
X52778Y-50515D01*
X52779Y-50614D01*
X52817Y-50706D01*
X52887Y-50777D01*
X52979Y-50815D01*
X53428Y-50815D01*
X53491Y-50752D01*
X53491Y-51376D01*
X53461Y-51396D01*
X53350Y-51562D01*
X53238Y-51396D01*
X53060Y-51277D01*
X52850Y-51235D01*
X52639Y-51277D01*
X52461Y-51396D01*
X52350Y-51562D01*
X52238Y-51396D01*
X52060Y-51277D01*
X51850Y-51235D01*
X51639Y-51277D01*
X51461Y-51396D01*
X51350Y-51562D01*
X51238Y-51396D01*
X51060Y-51277D01*
X50850Y-51235D01*
X50639Y-51277D01*
X50461Y-51396D01*
X50341Y-51574D01*
X50300Y-51785D01*
X50300Y-52140D01*
X49929Y-51770D01*
X49824Y-51699D01*
X49781Y-51691D01*
X49758Y-51574D01*
X49638Y-51396D01*
X49460Y-51277D01*
X49250Y-51235D01*
X49039Y-51277D01*
X48861Y-51396D01*
X48750Y-51562D01*
X48638Y-51396D01*
X48460Y-51277D01*
X48250Y-51235D01*
X48039Y-51277D01*
X47861Y-51396D01*
X47750Y-51562D01*
X47638Y-51396D01*
X47460Y-51277D01*
X47250Y-51235D01*
X47039Y-51277D01*
X46861Y-51396D01*
X46750Y-51562D01*
X46638Y-51396D01*
X46460Y-51277D01*
X46250Y-51235D01*
X46039Y-51277D01*
X45977Y-51318D01*
X45275Y-50615D01*
X45275Y-50334D01*
X45484Y-50125D01*
X45800Y-50125D01*
X45924Y-50100D01*
X45924Y-50100D01*
X45949Y-50083D01*
X45949Y-50124D01*
X45950Y-50237D01*
X46012Y-50300D01*
X46325Y-50300D01*
X46325Y-50292D01*
X46425Y-50292D01*
X46425Y-50300D01*
X46432Y-50300D01*
X46432Y-50400D01*
X46425Y-50400D01*
X46425Y-50407D01*
X46325Y-50407D01*
X46325Y-50400D01*
X46012Y-50400D01*
X45950Y-50462D01*
X45949Y-50575D01*
X45950Y-50674D01*
X45988Y-50766D01*
X46058Y-50837D01*
X46150Y-50875D01*
X46262Y-50875D01*
X46275Y-50862D01*
X46274Y-50984D01*
X46339Y-51140D01*
X46458Y-51260D01*
X46615Y-51324D01*
X46784Y-51325D01*
X46940Y-51260D01*
X47060Y-51141D01*
X47124Y-50984D01*
X47124Y-50934D01*
X47184Y-50875D01*
X47349Y-50875D01*
X47441Y-50837D01*
X47511Y-50766D01*
X47549Y-50674D01*
X47550Y-50575D01*
X47550Y-50105D01*
X47650Y-50125D01*
X48000Y-50125D01*
X48124Y-50100D01*
X48124Y-50100D01*
X48229Y-50029D01*
X48425Y-49834D01*
X48489Y-49990D01*
X48608Y-50110D01*
X48675Y-50137D01*
X48675Y-50141D01*
X48559Y-50189D01*
X48439Y-50308D01*
X48375Y-50465D01*
X48374Y-50634D01*
X48439Y-50790D01*
X48558Y-50910D01*
X48715Y-50974D01*
X48884Y-50975D01*
X49040Y-50910D01*
X49075Y-50875D01*
X49200Y-50875D01*
X49324Y-50850D01*
X49324Y-50850D01*
X49429Y-50779D01*
X49634Y-50575D01*
X51650Y-50575D01*
X51774Y-50550D01*
X51774Y-50550D01*
X51879Y-50479D01*
X52334Y-50025D01*
X52778Y-50025D01*
X52779Y-50137D01*
X52841Y-50200D01*
X53491Y-50200D01*
X53491Y-49747D01*
X53428Y-49685D01*
X53424Y-49684D01*
X53479Y-49629D01*
X53479Y-49629D01*
X53529Y-49579D01*
X53529Y-49579D01*
X53679Y-49429D01*
X53679Y-49429D01*
X53679Y-49429D01*
X53750Y-49324D01*
X53750Y-49324D01*
X53775Y-49200D01*
X53775Y-48484D01*
X53884Y-48375D01*
X54199Y-48375D01*
X54199Y-48465D01*
X54020Y-48645D01*
X53949Y-48750D01*
X53925Y-48875D01*
X53925Y-49684D01*
X53653Y-49685D01*
X53591Y-49747D01*
X53591Y-50200D01*
X53598Y-50200D01*
X53598Y-50300D01*
X53591Y-50300D01*
X53591Y-50752D01*
X53653Y-50815D01*
X54055Y-50815D01*
X54270Y-51029D01*
X54270Y-51029D01*
X54375Y-51100D01*
X54375Y-51100D01*
X54500Y-51125D01*
X55600Y-51125D01*
X55724Y-51100D01*
X55724Y-51100D01*
X55799Y-51050D01*
X55799Y-51050D01*
X55869Y-51050D01*
X56134Y-51315D01*
X56134Y-51315D01*
X56183Y-51347D01*
X56256Y-51396D01*
X56399Y-51424D01*
X56400Y-51425D01*
X56456Y-51425D01*
G54D10*
G36*
X58925Y-58716D02*
X58886Y-58910D01*
X58796Y-59045D01*
X58659Y-59137D01*
X58468Y-59175D01*
X56200Y-59175D01*
X56200Y-59087D01*
X56200Y-58550D01*
X56200Y-58450D01*
X56200Y-57912D01*
X56200Y-57087D01*
X56200Y-56550D01*
X55662Y-56550D01*
X55600Y-56612D01*
X55599Y-56850D01*
X55600Y-56949D01*
X55638Y-57041D01*
X55708Y-57112D01*
X55800Y-57150D01*
X56137Y-57150D01*
X56200Y-57087D01*
X56200Y-57912D01*
X56137Y-57850D01*
X55800Y-57849D01*
X55708Y-57887D01*
X55638Y-57958D01*
X55600Y-58050D01*
X55599Y-58149D01*
X55600Y-58387D01*
X55662Y-58450D01*
X56200Y-58450D01*
X56200Y-58550D01*
X55662Y-58550D01*
X55600Y-58612D01*
X55599Y-58850D01*
X55600Y-58949D01*
X55638Y-59041D01*
X55708Y-59112D01*
X55800Y-59150D01*
X56137Y-59150D01*
X56200Y-59087D01*
X56200Y-59175D01*
X52200Y-59175D01*
X52200Y-59087D01*
X52200Y-58550D01*
X52200Y-58450D01*
X52200Y-57912D01*
X52200Y-57087D01*
X52200Y-56550D01*
X52200Y-56450D01*
X52200Y-55912D01*
X52137Y-55850D01*
X51800Y-55849D01*
X51708Y-55887D01*
X51638Y-55958D01*
X51600Y-56050D01*
X51599Y-56149D01*
X51600Y-56387D01*
X51662Y-56450D01*
X52200Y-56450D01*
X52200Y-56550D01*
X51662Y-56550D01*
X51600Y-56612D01*
X51599Y-56850D01*
X51600Y-56949D01*
X51638Y-57041D01*
X51708Y-57112D01*
X51800Y-57150D01*
X52137Y-57150D01*
X52200Y-57087D01*
X52200Y-57912D01*
X52137Y-57850D01*
X51800Y-57849D01*
X51708Y-57887D01*
X51638Y-57958D01*
X51600Y-58050D01*
X51599Y-58149D01*
X51600Y-58387D01*
X51662Y-58450D01*
X52200Y-58450D01*
X52200Y-58550D01*
X51662Y-58550D01*
X51600Y-58612D01*
X51599Y-58850D01*
X51600Y-58949D01*
X51638Y-59041D01*
X51708Y-59112D01*
X51800Y-59150D01*
X52137Y-59150D01*
X52200Y-59087D01*
X52200Y-59175D01*
X50900Y-59175D01*
X50900Y-58371D01*
X50801Y-58132D01*
X50618Y-57949D01*
X50379Y-57850D01*
X50121Y-57849D01*
X49882Y-57948D01*
X49749Y-58080D01*
X49618Y-57949D01*
X49379Y-57850D01*
X49121Y-57849D01*
X48882Y-57948D01*
X48865Y-57965D01*
X48861Y-57958D01*
X48791Y-57887D01*
X48699Y-57849D01*
X48362Y-57850D01*
X48300Y-57912D01*
X48300Y-58450D01*
X48307Y-58450D01*
X48307Y-58550D01*
X48300Y-58550D01*
X48300Y-59087D01*
X48362Y-59150D01*
X48699Y-59150D01*
X48791Y-59112D01*
X48861Y-59041D01*
X48864Y-59034D01*
X48881Y-59050D01*
X49120Y-59149D01*
X49378Y-59150D01*
X49617Y-59051D01*
X49750Y-58919D01*
X49881Y-59050D01*
X50120Y-59149D01*
X50378Y-59150D01*
X50617Y-59051D01*
X50800Y-58868D01*
X50899Y-58629D01*
X50900Y-58371D01*
X50900Y-59175D01*
X48200Y-59175D01*
X48200Y-59087D01*
X48200Y-58550D01*
X48200Y-58450D01*
X48200Y-57912D01*
X48200Y-57087D01*
X48200Y-56550D01*
X48200Y-56450D01*
X48200Y-55912D01*
X48137Y-55850D01*
X47800Y-55849D01*
X47708Y-55887D01*
X47638Y-55958D01*
X47600Y-56050D01*
X47599Y-56149D01*
X47600Y-56387D01*
X47662Y-56450D01*
X48200Y-56450D01*
X48200Y-56550D01*
X47662Y-56550D01*
X47600Y-56612D01*
X47599Y-56850D01*
X47600Y-56949D01*
X47638Y-57041D01*
X47708Y-57112D01*
X47800Y-57150D01*
X48137Y-57150D01*
X48200Y-57087D01*
X48200Y-57912D01*
X48137Y-57850D01*
X47800Y-57849D01*
X47708Y-57887D01*
X47638Y-57958D01*
X47600Y-58050D01*
X47599Y-58149D01*
X47600Y-58387D01*
X47662Y-58450D01*
X48200Y-58450D01*
X48200Y-58550D01*
X47662Y-58550D01*
X47600Y-58612D01*
X47599Y-58850D01*
X47600Y-58949D01*
X47638Y-59041D01*
X47708Y-59112D01*
X47800Y-59150D01*
X48137Y-59150D01*
X48200Y-59087D01*
X48200Y-59175D01*
X43315Y-59175D01*
X43315Y-57189D01*
X43077Y-56614D01*
X42637Y-56173D01*
X42062Y-55934D01*
X41439Y-55934D01*
X41137Y-56059D01*
X41137Y-55708D01*
X40750Y-55320D01*
X40679Y-55391D01*
X40679Y-55250D01*
X40291Y-54862D01*
X40185Y-54902D01*
X40095Y-55144D01*
X40105Y-55402D01*
X40185Y-55597D01*
X40291Y-55637D01*
X40679Y-55250D01*
X40679Y-55391D01*
X40362Y-55708D01*
X40402Y-55814D01*
X40644Y-55904D01*
X40902Y-55894D01*
X41097Y-55814D01*
X41137Y-55708D01*
X41137Y-56059D01*
X40864Y-56172D01*
X40423Y-56612D01*
X40184Y-57187D01*
X40184Y-57810D01*
X40422Y-58385D01*
X40862Y-58826D01*
X41437Y-59065D01*
X42060Y-59065D01*
X42635Y-58827D01*
X43076Y-58387D01*
X43315Y-57812D01*
X43315Y-57189D01*
X43315Y-59175D01*
X40533Y-59175D01*
X40339Y-59136D01*
X40204Y-59046D01*
X40112Y-58909D01*
X40075Y-58718D01*
X40075Y-43225D01*
X40158Y-43310D01*
X40315Y-43374D01*
X40484Y-43375D01*
X40640Y-43310D01*
X40760Y-43191D01*
X40824Y-43034D01*
X40824Y-42984D01*
X41234Y-42575D01*
X42180Y-42575D01*
X42198Y-42617D01*
X42330Y-42750D01*
X42199Y-42881D01*
X42100Y-43120D01*
X42099Y-43378D01*
X42198Y-43617D01*
X42330Y-43750D01*
X42199Y-43881D01*
X42100Y-44120D01*
X42099Y-44378D01*
X42198Y-44617D01*
X42330Y-44750D01*
X42199Y-44881D01*
X42100Y-45120D01*
X42099Y-45378D01*
X42198Y-45617D01*
X42330Y-45750D01*
X42199Y-45881D01*
X42100Y-46120D01*
X42099Y-46378D01*
X42198Y-46617D01*
X42365Y-46784D01*
X42362Y-46791D01*
X42750Y-47179D01*
X42755Y-47173D01*
X42826Y-47244D01*
X42820Y-47250D01*
X42826Y-47255D01*
X42755Y-47326D01*
X42750Y-47320D01*
X42744Y-47326D01*
X42673Y-47255D01*
X42679Y-47250D01*
X42291Y-46862D01*
X42185Y-46902D01*
X42095Y-47144D01*
X42105Y-47402D01*
X42185Y-47597D01*
X42248Y-47621D01*
X42208Y-47637D01*
X42138Y-47708D01*
X42100Y-47800D01*
X42099Y-47899D01*
X42099Y-48699D01*
X42134Y-48781D01*
X42134Y-49434D01*
X41897Y-49434D01*
X41805Y-49472D01*
X41750Y-49528D01*
X41694Y-49472D01*
X41602Y-49434D01*
X41153Y-49435D01*
X41091Y-49497D01*
X41091Y-49950D01*
X41098Y-49950D01*
X41098Y-50050D01*
X41091Y-50050D01*
X41091Y-50502D01*
X41153Y-50565D01*
X41602Y-50565D01*
X41694Y-50527D01*
X41750Y-50471D01*
X41805Y-50526D01*
X41897Y-50564D01*
X41996Y-50565D01*
X43020Y-50565D01*
X43112Y-50527D01*
X43182Y-50456D01*
X43220Y-50364D01*
X43221Y-50265D01*
X43221Y-49635D01*
X43216Y-49625D01*
X43274Y-49484D01*
X43274Y-49434D01*
X43425Y-49284D01*
X43425Y-50865D01*
X43365Y-50925D01*
X42800Y-50925D01*
X42675Y-50949D01*
X42633Y-50977D01*
X42570Y-51020D01*
X42570Y-51020D01*
X42337Y-51252D01*
X42250Y-51235D01*
X42039Y-51277D01*
X41861Y-51396D01*
X41741Y-51574D01*
X41700Y-51785D01*
X41700Y-52214D01*
X41741Y-52425D01*
X41861Y-52603D01*
X42039Y-52722D01*
X42250Y-52764D01*
X42460Y-52722D01*
X42638Y-52603D01*
X42750Y-52437D01*
X42861Y-52603D01*
X43039Y-52722D01*
X43250Y-52764D01*
X43460Y-52722D01*
X43638Y-52603D01*
X43750Y-52437D01*
X43861Y-52603D01*
X44039Y-52722D01*
X44250Y-52764D01*
X44460Y-52722D01*
X44638Y-52603D01*
X44750Y-52437D01*
X44861Y-52603D01*
X44925Y-52646D01*
X44925Y-53950D01*
X44949Y-54074D01*
X45020Y-54179D01*
X45696Y-54856D01*
X45622Y-54856D01*
X45385Y-54953D01*
X45204Y-55134D01*
X45106Y-55371D01*
X45106Y-55627D01*
X45203Y-55864D01*
X45339Y-56000D01*
X45204Y-56134D01*
X45106Y-56371D01*
X45106Y-56627D01*
X45203Y-56864D01*
X45372Y-57032D01*
X45366Y-57046D01*
X45750Y-57429D01*
X45755Y-57423D01*
X45826Y-57494D01*
X45820Y-57500D01*
X46203Y-57883D01*
X46300Y-57847D01*
X46300Y-57990D01*
X46115Y-58175D01*
X45634Y-58175D01*
X45585Y-58125D01*
X45645Y-58147D01*
X45901Y-58138D01*
X46094Y-58058D01*
X46133Y-57953D01*
X45750Y-57570D01*
X45744Y-57576D01*
X45673Y-57505D01*
X45679Y-57500D01*
X45296Y-57116D01*
X45191Y-57155D01*
X45102Y-57395D01*
X45111Y-57651D01*
X45111Y-57651D01*
X45075Y-57615D01*
X45075Y-55000D01*
X45050Y-54875D01*
X45050Y-54875D01*
X44979Y-54770D01*
X43825Y-53615D01*
X43825Y-53500D01*
X43800Y-53375D01*
X43729Y-53270D01*
X43624Y-53199D01*
X43500Y-53175D01*
X43299Y-53175D01*
X43262Y-53083D01*
X43191Y-53013D01*
X43099Y-52975D01*
X43000Y-52974D01*
X42650Y-52974D01*
X42558Y-53012D01*
X42499Y-53071D01*
X42441Y-53013D01*
X42349Y-52975D01*
X42250Y-52974D01*
X41900Y-52974D01*
X41808Y-53012D01*
X41749Y-53071D01*
X41691Y-53013D01*
X41599Y-52975D01*
X41500Y-52974D01*
X41150Y-52974D01*
X41058Y-53012D01*
X41000Y-53071D01*
X40991Y-53062D01*
X40991Y-50502D01*
X40991Y-50050D01*
X40991Y-49950D01*
X40991Y-49497D01*
X40928Y-49435D01*
X40479Y-49434D01*
X40387Y-49472D01*
X40317Y-49543D01*
X40279Y-49635D01*
X40278Y-49734D01*
X40279Y-49887D01*
X40341Y-49950D01*
X40991Y-49950D01*
X40991Y-50050D01*
X40341Y-50050D01*
X40279Y-50112D01*
X40278Y-50265D01*
X40279Y-50364D01*
X40317Y-50456D01*
X40387Y-50527D01*
X40479Y-50565D01*
X40928Y-50565D01*
X40991Y-50502D01*
X40991Y-53062D01*
X40941Y-53012D01*
X40849Y-52974D01*
X40737Y-52975D01*
X40675Y-53037D01*
X40675Y-53450D01*
X40682Y-53450D01*
X40682Y-53550D01*
X40675Y-53550D01*
X40675Y-53962D01*
X40737Y-54025D01*
X40849Y-54025D01*
X40941Y-53987D01*
X41000Y-53928D01*
X41058Y-53986D01*
X41150Y-54024D01*
X41249Y-54025D01*
X41599Y-54025D01*
X41691Y-53987D01*
X41750Y-53928D01*
X41808Y-53986D01*
X41900Y-54024D01*
X41999Y-54025D01*
X42349Y-54025D01*
X42441Y-53987D01*
X42500Y-53928D01*
X42558Y-53986D01*
X42650Y-54024D01*
X42749Y-54025D01*
X43099Y-54025D01*
X43191Y-53987D01*
X43241Y-53936D01*
X43241Y-53936D01*
X43270Y-53979D01*
X43315Y-54025D01*
X43159Y-54089D01*
X43039Y-54208D01*
X42975Y-54365D01*
X42974Y-54534D01*
X43039Y-54690D01*
X43050Y-54700D01*
X43050Y-54771D01*
X42999Y-54821D01*
X42941Y-54763D01*
X42849Y-54725D01*
X42750Y-54724D01*
X42400Y-54724D01*
X42308Y-54762D01*
X42245Y-54826D01*
X42118Y-54699D01*
X41879Y-54600D01*
X41621Y-54599D01*
X41382Y-54698D01*
X41215Y-54865D01*
X41208Y-54862D01*
X41137Y-54933D01*
X41137Y-54791D01*
X41097Y-54685D01*
X40855Y-54595D01*
X40597Y-54605D01*
X40575Y-54614D01*
X40575Y-53962D01*
X40575Y-53550D01*
X40575Y-53450D01*
X40575Y-53037D01*
X40512Y-52975D01*
X40400Y-52974D01*
X40308Y-53012D01*
X40238Y-53083D01*
X40200Y-53175D01*
X40199Y-53274D01*
X40200Y-53387D01*
X40262Y-53450D01*
X40575Y-53450D01*
X40575Y-53550D01*
X40262Y-53550D01*
X40200Y-53612D01*
X40199Y-53725D01*
X40200Y-53824D01*
X40238Y-53916D01*
X40308Y-53987D01*
X40400Y-54025D01*
X40512Y-54025D01*
X40575Y-53962D01*
X40575Y-54614D01*
X40402Y-54685D01*
X40362Y-54791D01*
X40750Y-55179D01*
X41137Y-54791D01*
X41137Y-54933D01*
X40820Y-55250D01*
X41208Y-55637D01*
X41215Y-55634D01*
X41381Y-55800D01*
X41620Y-55899D01*
X41878Y-55900D01*
X42117Y-55801D01*
X42245Y-55673D01*
X42308Y-55736D01*
X42400Y-55774D01*
X42499Y-55775D01*
X42849Y-55775D01*
X42941Y-55737D01*
X43000Y-55678D01*
X43058Y-55736D01*
X43150Y-55774D01*
X43249Y-55775D01*
X43599Y-55775D01*
X43691Y-55737D01*
X43761Y-55666D01*
X43799Y-55574D01*
X43800Y-55475D01*
X43800Y-54925D01*
X43762Y-54833D01*
X43700Y-54771D01*
X43700Y-54751D01*
X43760Y-54691D01*
X43824Y-54534D01*
X43824Y-54534D01*
X44425Y-55134D01*
X44425Y-57750D01*
X44449Y-57874D01*
X44520Y-57979D01*
X45270Y-58729D01*
X45270Y-58729D01*
X45375Y-58800D01*
X45375Y-58800D01*
X45475Y-58820D01*
X45499Y-58825D01*
X45499Y-58824D01*
X45500Y-58825D01*
X46250Y-58825D01*
X46374Y-58800D01*
X46374Y-58800D01*
X46479Y-58729D01*
X46854Y-58354D01*
X46854Y-58354D01*
X46854Y-58354D01*
X46925Y-58249D01*
X46925Y-58249D01*
X46950Y-58125D01*
X46950Y-57151D01*
X46960Y-57141D01*
X47024Y-56984D01*
X47025Y-56815D01*
X46960Y-56659D01*
X46841Y-56539D01*
X46684Y-56475D01*
X46515Y-56474D01*
X46393Y-56525D01*
X46393Y-56372D01*
X46296Y-56135D01*
X46160Y-55999D01*
X46295Y-55865D01*
X46393Y-55628D01*
X46393Y-55553D01*
X46520Y-55679D01*
X46520Y-55679D01*
X46625Y-55750D01*
X46625Y-55750D01*
X46750Y-55775D01*
X48265Y-55775D01*
X48351Y-55861D01*
X48300Y-55912D01*
X48300Y-56450D01*
X48307Y-56450D01*
X48307Y-56550D01*
X48300Y-56550D01*
X48300Y-57087D01*
X48362Y-57150D01*
X48699Y-57150D01*
X48791Y-57112D01*
X48861Y-57041D01*
X48864Y-57034D01*
X48881Y-57050D01*
X49120Y-57149D01*
X49378Y-57150D01*
X49617Y-57051D01*
X49750Y-56919D01*
X49881Y-57050D01*
X50120Y-57149D01*
X50378Y-57150D01*
X50617Y-57051D01*
X50800Y-56868D01*
X50899Y-56629D01*
X50900Y-56371D01*
X50801Y-56132D01*
X50618Y-55949D01*
X50379Y-55850D01*
X50121Y-55849D01*
X49882Y-55948D01*
X49749Y-56080D01*
X49618Y-55949D01*
X49379Y-55850D01*
X49259Y-55850D01*
X48930Y-55521D01*
X48950Y-55525D01*
X52350Y-55525D01*
X52474Y-55500D01*
X52474Y-55500D01*
X52579Y-55429D01*
X52826Y-55183D01*
X52885Y-55183D01*
X53136Y-55079D01*
X53328Y-54887D01*
X53354Y-54824D01*
X53679Y-54500D01*
X53355Y-54175D01*
X53329Y-54113D01*
X53137Y-53921D01*
X53025Y-53875D01*
X53463Y-53875D01*
X53382Y-53908D01*
X53338Y-54017D01*
X53750Y-54429D01*
X53755Y-54423D01*
X53826Y-54494D01*
X53820Y-54500D01*
X53826Y-54505D01*
X53755Y-54576D01*
X53750Y-54570D01*
X53338Y-54982D01*
X53382Y-55091D01*
X53612Y-55177D01*
X53020Y-55770D01*
X52949Y-55875D01*
X52939Y-55924D01*
X52882Y-55948D01*
X52865Y-55965D01*
X52861Y-55958D01*
X52791Y-55887D01*
X52699Y-55849D01*
X52362Y-55850D01*
X52300Y-55912D01*
X52300Y-56450D01*
X52307Y-56450D01*
X52307Y-56550D01*
X52300Y-56550D01*
X52300Y-57087D01*
X52362Y-57150D01*
X52699Y-57150D01*
X52791Y-57112D01*
X52861Y-57041D01*
X52864Y-57034D01*
X52881Y-57050D01*
X53120Y-57149D01*
X53378Y-57150D01*
X53617Y-57051D01*
X53750Y-56919D01*
X53881Y-57050D01*
X54060Y-57125D01*
X53750Y-57125D01*
X53625Y-57149D01*
X53583Y-57177D01*
X53520Y-57220D01*
X53520Y-57220D01*
X53020Y-57720D01*
X52949Y-57825D01*
X52929Y-57929D01*
X52882Y-57948D01*
X52865Y-57965D01*
X52861Y-57958D01*
X52791Y-57887D01*
X52699Y-57849D01*
X52362Y-57850D01*
X52300Y-57912D01*
X52300Y-58450D01*
X52307Y-58450D01*
X52307Y-58550D01*
X52300Y-58550D01*
X52300Y-59087D01*
X52362Y-59150D01*
X52699Y-59150D01*
X52791Y-59112D01*
X52861Y-59041D01*
X52864Y-59034D01*
X52881Y-59050D01*
X53120Y-59149D01*
X53378Y-59150D01*
X53617Y-59051D01*
X53750Y-58919D01*
X53881Y-59050D01*
X54120Y-59149D01*
X54378Y-59150D01*
X54617Y-59051D01*
X54800Y-58868D01*
X54899Y-58629D01*
X54900Y-58371D01*
X54801Y-58132D01*
X54618Y-57949D01*
X54379Y-57850D01*
X54121Y-57849D01*
X53882Y-57948D01*
X53749Y-58080D01*
X53664Y-57995D01*
X53884Y-57775D01*
X54750Y-57775D01*
X54874Y-57750D01*
X54874Y-57750D01*
X54979Y-57679D01*
X55479Y-57179D01*
X55479Y-57179D01*
X55479Y-57179D01*
X55522Y-57116D01*
X55550Y-57074D01*
X55550Y-57074D01*
X55575Y-56950D01*
X55575Y-56334D01*
X55599Y-56309D01*
X55600Y-56387D01*
X55662Y-56450D01*
X56200Y-56450D01*
X56200Y-55912D01*
X56137Y-55850D01*
X56059Y-55849D01*
X56079Y-55829D01*
X56079Y-55829D01*
X56429Y-55479D01*
X56429Y-55479D01*
X56429Y-55479D01*
X56679Y-55229D01*
X56679Y-55229D01*
X56679Y-55229D01*
X56750Y-55124D01*
X56750Y-55124D01*
X56775Y-55000D01*
X56775Y-54434D01*
X57275Y-54934D01*
X57275Y-55850D01*
X57121Y-55849D01*
X56882Y-55948D01*
X56865Y-55965D01*
X56861Y-55958D01*
X56791Y-55887D01*
X56699Y-55849D01*
X56362Y-55850D01*
X56300Y-55912D01*
X56300Y-56450D01*
X56307Y-56450D01*
X56307Y-56550D01*
X56300Y-56550D01*
X56300Y-57087D01*
X56362Y-57150D01*
X56699Y-57150D01*
X56791Y-57112D01*
X56861Y-57041D01*
X56864Y-57034D01*
X56881Y-57050D01*
X57120Y-57149D01*
X57378Y-57150D01*
X57617Y-57051D01*
X57750Y-56919D01*
X57848Y-57017D01*
X57848Y-57017D01*
X57770Y-57070D01*
X57770Y-57070D01*
X57020Y-57820D01*
X56954Y-57918D01*
X56954Y-57918D01*
X56882Y-57948D01*
X56865Y-57965D01*
X56861Y-57958D01*
X56791Y-57887D01*
X56699Y-57849D01*
X56362Y-57850D01*
X56300Y-57912D01*
X56300Y-58450D01*
X56307Y-58450D01*
X56307Y-58550D01*
X56300Y-58550D01*
X56300Y-59087D01*
X56362Y-59150D01*
X56699Y-59150D01*
X56791Y-59112D01*
X56861Y-59041D01*
X56864Y-59034D01*
X56881Y-59050D01*
X57120Y-59149D01*
X57378Y-59150D01*
X57617Y-59051D01*
X57750Y-58919D01*
X57881Y-59050D01*
X58120Y-59149D01*
X58378Y-59150D01*
X58617Y-59051D01*
X58800Y-58868D01*
X58899Y-58629D01*
X58900Y-58371D01*
X58801Y-58132D01*
X58618Y-57949D01*
X58379Y-57850D01*
X58121Y-57849D01*
X57882Y-57948D01*
X57749Y-58080D01*
X57714Y-58045D01*
X58134Y-57625D01*
X58600Y-57625D01*
X58724Y-57600D01*
X58724Y-57600D01*
X58829Y-57529D01*
X58925Y-57434D01*
X58925Y-58716D01*
X58925Y-58716D01*
G37*
G54D53*
X58925Y-58716D02*
X58886Y-58910D01*
X58796Y-59045D01*
X58659Y-59137D01*
X58468Y-59175D01*
X56200Y-59175D01*
X56200Y-59087D01*
X56200Y-58550D01*
X56200Y-58450D01*
X56200Y-57912D01*
X56200Y-57087D01*
X56200Y-56550D01*
X55662Y-56550D01*
X55600Y-56612D01*
X55599Y-56850D01*
X55600Y-56949D01*
X55638Y-57041D01*
X55708Y-57112D01*
X55800Y-57150D01*
X56137Y-57150D01*
X56200Y-57087D01*
X56200Y-57912D01*
X56137Y-57850D01*
X55800Y-57849D01*
X55708Y-57887D01*
X55638Y-57958D01*
X55600Y-58050D01*
X55599Y-58149D01*
X55600Y-58387D01*
X55662Y-58450D01*
X56200Y-58450D01*
X56200Y-58550D01*
X55662Y-58550D01*
X55600Y-58612D01*
X55599Y-58850D01*
X55600Y-58949D01*
X55638Y-59041D01*
X55708Y-59112D01*
X55800Y-59150D01*
X56137Y-59150D01*
X56200Y-59087D01*
X56200Y-59175D01*
X52200Y-59175D01*
X52200Y-59087D01*
X52200Y-58550D01*
X52200Y-58450D01*
X52200Y-57912D01*
X52200Y-57087D01*
X52200Y-56550D01*
X52200Y-56450D01*
X52200Y-55912D01*
X52137Y-55850D01*
X51800Y-55849D01*
X51708Y-55887D01*
X51638Y-55958D01*
X51600Y-56050D01*
X51599Y-56149D01*
X51600Y-56387D01*
X51662Y-56450D01*
X52200Y-56450D01*
X52200Y-56550D01*
X51662Y-56550D01*
X51600Y-56612D01*
X51599Y-56850D01*
X51600Y-56949D01*
X51638Y-57041D01*
X51708Y-57112D01*
X51800Y-57150D01*
X52137Y-57150D01*
X52200Y-57087D01*
X52200Y-57912D01*
X52137Y-57850D01*
X51800Y-57849D01*
X51708Y-57887D01*
X51638Y-57958D01*
X51600Y-58050D01*
X51599Y-58149D01*
X51600Y-58387D01*
X51662Y-58450D01*
X52200Y-58450D01*
X52200Y-58550D01*
X51662Y-58550D01*
X51600Y-58612D01*
X51599Y-58850D01*
X51600Y-58949D01*
X51638Y-59041D01*
X51708Y-59112D01*
X51800Y-59150D01*
X52137Y-59150D01*
X52200Y-59087D01*
X52200Y-59175D01*
X50900Y-59175D01*
X50900Y-58371D01*
X50801Y-58132D01*
X50618Y-57949D01*
X50379Y-57850D01*
X50121Y-57849D01*
X49882Y-57948D01*
X49749Y-58080D01*
X49618Y-57949D01*
X49379Y-57850D01*
X49121Y-57849D01*
X48882Y-57948D01*
X48865Y-57965D01*
X48861Y-57958D01*
X48791Y-57887D01*
X48699Y-57849D01*
X48362Y-57850D01*
X48300Y-57912D01*
X48300Y-58450D01*
X48307Y-58450D01*
X48307Y-58550D01*
X48300Y-58550D01*
X48300Y-59087D01*
X48362Y-59150D01*
X48699Y-59150D01*
X48791Y-59112D01*
X48861Y-59041D01*
X48864Y-59034D01*
X48881Y-59050D01*
X49120Y-59149D01*
X49378Y-59150D01*
X49617Y-59051D01*
X49750Y-58919D01*
X49881Y-59050D01*
X50120Y-59149D01*
X50378Y-59150D01*
X50617Y-59051D01*
X50800Y-58868D01*
X50899Y-58629D01*
X50900Y-58371D01*
X50900Y-59175D01*
X48200Y-59175D01*
X48200Y-59087D01*
X48200Y-58550D01*
X48200Y-58450D01*
X48200Y-57912D01*
X48200Y-57087D01*
X48200Y-56550D01*
X48200Y-56450D01*
X48200Y-55912D01*
X48137Y-55850D01*
X47800Y-55849D01*
X47708Y-55887D01*
X47638Y-55958D01*
X47600Y-56050D01*
X47599Y-56149D01*
X47600Y-56387D01*
X47662Y-56450D01*
X48200Y-56450D01*
X48200Y-56550D01*
X47662Y-56550D01*
X47600Y-56612D01*
X47599Y-56850D01*
X47600Y-56949D01*
X47638Y-57041D01*
X47708Y-57112D01*
X47800Y-57150D01*
X48137Y-57150D01*
X48200Y-57087D01*
X48200Y-57912D01*
X48137Y-57850D01*
X47800Y-57849D01*
X47708Y-57887D01*
X47638Y-57958D01*
X47600Y-58050D01*
X47599Y-58149D01*
X47600Y-58387D01*
X47662Y-58450D01*
X48200Y-58450D01*
X48200Y-58550D01*
X47662Y-58550D01*
X47600Y-58612D01*
X47599Y-58850D01*
X47600Y-58949D01*
X47638Y-59041D01*
X47708Y-59112D01*
X47800Y-59150D01*
X48137Y-59150D01*
X48200Y-59087D01*
X48200Y-59175D01*
X43315Y-59175D01*
X43315Y-57189D01*
X43077Y-56614D01*
X42637Y-56173D01*
X42062Y-55934D01*
X41439Y-55934D01*
X41137Y-56059D01*
X41137Y-55708D01*
X40750Y-55320D01*
X40679Y-55391D01*
X40679Y-55250D01*
X40291Y-54862D01*
X40185Y-54902D01*
X40095Y-55144D01*
X40105Y-55402D01*
X40185Y-55597D01*
X40291Y-55637D01*
X40679Y-55250D01*
X40679Y-55391D01*
X40362Y-55708D01*
X40402Y-55814D01*
X40644Y-55904D01*
X40902Y-55894D01*
X41097Y-55814D01*
X41137Y-55708D01*
X41137Y-56059D01*
X40864Y-56172D01*
X40423Y-56612D01*
X40184Y-57187D01*
X40184Y-57810D01*
X40422Y-58385D01*
X40862Y-58826D01*
X41437Y-59065D01*
X42060Y-59065D01*
X42635Y-58827D01*
X43076Y-58387D01*
X43315Y-57812D01*
X43315Y-57189D01*
X43315Y-59175D01*
X40533Y-59175D01*
X40339Y-59136D01*
X40204Y-59046D01*
X40112Y-58909D01*
X40075Y-58718D01*
X40075Y-43225D01*
X40158Y-43310D01*
X40315Y-43374D01*
X40484Y-43375D01*
X40640Y-43310D01*
X40760Y-43191D01*
X40824Y-43034D01*
X40824Y-42984D01*
X41234Y-42575D01*
X42180Y-42575D01*
X42198Y-42617D01*
X42330Y-42750D01*
X42199Y-42881D01*
X42100Y-43120D01*
X42099Y-43378D01*
X42198Y-43617D01*
X42330Y-43750D01*
X42199Y-43881D01*
X42100Y-44120D01*
X42099Y-44378D01*
X42198Y-44617D01*
X42330Y-44750D01*
X42199Y-44881D01*
X42100Y-45120D01*
X42099Y-45378D01*
X42198Y-45617D01*
X42330Y-45750D01*
X42199Y-45881D01*
X42100Y-46120D01*
X42099Y-46378D01*
X42198Y-46617D01*
X42365Y-46784D01*
X42362Y-46791D01*
X42750Y-47179D01*
X42755Y-47173D01*
X42826Y-47244D01*
X42820Y-47250D01*
X42826Y-47255D01*
X42755Y-47326D01*
X42750Y-47320D01*
X42744Y-47326D01*
X42673Y-47255D01*
X42679Y-47250D01*
X42291Y-46862D01*
X42185Y-46902D01*
X42095Y-47144D01*
X42105Y-47402D01*
X42185Y-47597D01*
X42248Y-47621D01*
X42208Y-47637D01*
X42138Y-47708D01*
X42100Y-47800D01*
X42099Y-47899D01*
X42099Y-48699D01*
X42134Y-48781D01*
X42134Y-49434D01*
X41897Y-49434D01*
X41805Y-49472D01*
X41750Y-49528D01*
X41694Y-49472D01*
X41602Y-49434D01*
X41153Y-49435D01*
X41091Y-49497D01*
X41091Y-49950D01*
X41098Y-49950D01*
X41098Y-50050D01*
X41091Y-50050D01*
X41091Y-50502D01*
X41153Y-50565D01*
X41602Y-50565D01*
X41694Y-50527D01*
X41750Y-50471D01*
X41805Y-50526D01*
X41897Y-50564D01*
X41996Y-50565D01*
X43020Y-50565D01*
X43112Y-50527D01*
X43182Y-50456D01*
X43220Y-50364D01*
X43221Y-50265D01*
X43221Y-49635D01*
X43216Y-49625D01*
X43274Y-49484D01*
X43274Y-49434D01*
X43425Y-49284D01*
X43425Y-50865D01*
X43365Y-50925D01*
X42800Y-50925D01*
X42675Y-50949D01*
X42633Y-50977D01*
X42570Y-51020D01*
X42570Y-51020D01*
X42337Y-51252D01*
X42250Y-51235D01*
X42039Y-51277D01*
X41861Y-51396D01*
X41741Y-51574D01*
X41700Y-51785D01*
X41700Y-52214D01*
X41741Y-52425D01*
X41861Y-52603D01*
X42039Y-52722D01*
X42250Y-52764D01*
X42460Y-52722D01*
X42638Y-52603D01*
X42750Y-52437D01*
X42861Y-52603D01*
X43039Y-52722D01*
X43250Y-52764D01*
X43460Y-52722D01*
X43638Y-52603D01*
X43750Y-52437D01*
X43861Y-52603D01*
X44039Y-52722D01*
X44250Y-52764D01*
X44460Y-52722D01*
X44638Y-52603D01*
X44750Y-52437D01*
X44861Y-52603D01*
X44925Y-52646D01*
X44925Y-53950D01*
X44949Y-54074D01*
X45020Y-54179D01*
X45696Y-54856D01*
X45622Y-54856D01*
X45385Y-54953D01*
X45204Y-55134D01*
X45106Y-55371D01*
X45106Y-55627D01*
X45203Y-55864D01*
X45339Y-56000D01*
X45204Y-56134D01*
X45106Y-56371D01*
X45106Y-56627D01*
X45203Y-56864D01*
X45372Y-57032D01*
X45366Y-57046D01*
X45750Y-57429D01*
X45755Y-57423D01*
X45826Y-57494D01*
X45820Y-57500D01*
X46203Y-57883D01*
X46300Y-57847D01*
X46300Y-57990D01*
X46115Y-58175D01*
X45634Y-58175D01*
X45585Y-58125D01*
X45645Y-58147D01*
X45901Y-58138D01*
X46094Y-58058D01*
X46133Y-57953D01*
X45750Y-57570D01*
X45744Y-57576D01*
X45673Y-57505D01*
X45679Y-57500D01*
X45296Y-57116D01*
X45191Y-57155D01*
X45102Y-57395D01*
X45111Y-57651D01*
X45111Y-57651D01*
X45075Y-57615D01*
X45075Y-55000D01*
X45050Y-54875D01*
X45050Y-54875D01*
X44979Y-54770D01*
X43825Y-53615D01*
X43825Y-53500D01*
X43800Y-53375D01*
X43729Y-53270D01*
X43624Y-53199D01*
X43500Y-53175D01*
X43299Y-53175D01*
X43262Y-53083D01*
X43191Y-53013D01*
X43099Y-52975D01*
X43000Y-52974D01*
X42650Y-52974D01*
X42558Y-53012D01*
X42499Y-53071D01*
X42441Y-53013D01*
X42349Y-52975D01*
X42250Y-52974D01*
X41900Y-52974D01*
X41808Y-53012D01*
X41749Y-53071D01*
X41691Y-53013D01*
X41599Y-52975D01*
X41500Y-52974D01*
X41150Y-52974D01*
X41058Y-53012D01*
X41000Y-53071D01*
X40991Y-53062D01*
X40991Y-50502D01*
X40991Y-50050D01*
X40991Y-49950D01*
X40991Y-49497D01*
X40928Y-49435D01*
X40479Y-49434D01*
X40387Y-49472D01*
X40317Y-49543D01*
X40279Y-49635D01*
X40278Y-49734D01*
X40279Y-49887D01*
X40341Y-49950D01*
X40991Y-49950D01*
X40991Y-50050D01*
X40341Y-50050D01*
X40279Y-50112D01*
X40278Y-50265D01*
X40279Y-50364D01*
X40317Y-50456D01*
X40387Y-50527D01*
X40479Y-50565D01*
X40928Y-50565D01*
X40991Y-50502D01*
X40991Y-53062D01*
X40941Y-53012D01*
X40849Y-52974D01*
X40737Y-52975D01*
X40675Y-53037D01*
X40675Y-53450D01*
X40682Y-53450D01*
X40682Y-53550D01*
X40675Y-53550D01*
X40675Y-53962D01*
X40737Y-54025D01*
X40849Y-54025D01*
X40941Y-53987D01*
X41000Y-53928D01*
X41058Y-53986D01*
X41150Y-54024D01*
X41249Y-54025D01*
X41599Y-54025D01*
X41691Y-53987D01*
X41750Y-53928D01*
X41808Y-53986D01*
X41900Y-54024D01*
X41999Y-54025D01*
X42349Y-54025D01*
X42441Y-53987D01*
X42500Y-53928D01*
X42558Y-53986D01*
X42650Y-54024D01*
X42749Y-54025D01*
X43099Y-54025D01*
X43191Y-53987D01*
X43241Y-53936D01*
X43241Y-53936D01*
X43270Y-53979D01*
X43315Y-54025D01*
X43159Y-54089D01*
X43039Y-54208D01*
X42975Y-54365D01*
X42974Y-54534D01*
X43039Y-54690D01*
X43050Y-54700D01*
X43050Y-54771D01*
X42999Y-54821D01*
X42941Y-54763D01*
X42849Y-54725D01*
X42750Y-54724D01*
X42400Y-54724D01*
X42308Y-54762D01*
X42245Y-54826D01*
X42118Y-54699D01*
X41879Y-54600D01*
X41621Y-54599D01*
X41382Y-54698D01*
X41215Y-54865D01*
X41208Y-54862D01*
X41137Y-54933D01*
X41137Y-54791D01*
X41097Y-54685D01*
X40855Y-54595D01*
X40597Y-54605D01*
X40575Y-54614D01*
X40575Y-53962D01*
X40575Y-53550D01*
X40575Y-53450D01*
X40575Y-53037D01*
X40512Y-52975D01*
X40400Y-52974D01*
X40308Y-53012D01*
X40238Y-53083D01*
X40200Y-53175D01*
X40199Y-53274D01*
X40200Y-53387D01*
X40262Y-53450D01*
X40575Y-53450D01*
X40575Y-53550D01*
X40262Y-53550D01*
X40200Y-53612D01*
X40199Y-53725D01*
X40200Y-53824D01*
X40238Y-53916D01*
X40308Y-53987D01*
X40400Y-54025D01*
X40512Y-54025D01*
X40575Y-53962D01*
X40575Y-54614D01*
X40402Y-54685D01*
X40362Y-54791D01*
X40750Y-55179D01*
X41137Y-54791D01*
X41137Y-54933D01*
X40820Y-55250D01*
X41208Y-55637D01*
X41215Y-55634D01*
X41381Y-55800D01*
X41620Y-55899D01*
X41878Y-55900D01*
X42117Y-55801D01*
X42245Y-55673D01*
X42308Y-55736D01*
X42400Y-55774D01*
X42499Y-55775D01*
X42849Y-55775D01*
X42941Y-55737D01*
X43000Y-55678D01*
X43058Y-55736D01*
X43150Y-55774D01*
X43249Y-55775D01*
X43599Y-55775D01*
X43691Y-55737D01*
X43761Y-55666D01*
X43799Y-55574D01*
X43800Y-55475D01*
X43800Y-54925D01*
X43762Y-54833D01*
X43700Y-54771D01*
X43700Y-54751D01*
X43760Y-54691D01*
X43824Y-54534D01*
X43824Y-54534D01*
X44425Y-55134D01*
X44425Y-57750D01*
X44449Y-57874D01*
X44520Y-57979D01*
X45270Y-58729D01*
X45270Y-58729D01*
X45375Y-58800D01*
X45375Y-58800D01*
X45475Y-58820D01*
X45499Y-58825D01*
X45499Y-58824D01*
X45500Y-58825D01*
X46250Y-58825D01*
X46374Y-58800D01*
X46374Y-58800D01*
X46479Y-58729D01*
X46854Y-58354D01*
X46854Y-58354D01*
X46854Y-58354D01*
X46925Y-58249D01*
X46925Y-58249D01*
X46950Y-58125D01*
X46950Y-57151D01*
X46960Y-57141D01*
X47024Y-56984D01*
X47025Y-56815D01*
X46960Y-56659D01*
X46841Y-56539D01*
X46684Y-56475D01*
X46515Y-56474D01*
X46393Y-56525D01*
X46393Y-56372D01*
X46296Y-56135D01*
X46160Y-55999D01*
X46295Y-55865D01*
X46393Y-55628D01*
X46393Y-55553D01*
X46520Y-55679D01*
X46520Y-55679D01*
X46625Y-55750D01*
X46625Y-55750D01*
X46750Y-55775D01*
X48265Y-55775D01*
X48351Y-55861D01*
X48300Y-55912D01*
X48300Y-56450D01*
X48307Y-56450D01*
X48307Y-56550D01*
X48300Y-56550D01*
X48300Y-57087D01*
X48362Y-57150D01*
X48699Y-57150D01*
X48791Y-57112D01*
X48861Y-57041D01*
X48864Y-57034D01*
X48881Y-57050D01*
X49120Y-57149D01*
X49378Y-57150D01*
X49617Y-57051D01*
X49750Y-56919D01*
X49881Y-57050D01*
X50120Y-57149D01*
X50378Y-57150D01*
X50617Y-57051D01*
X50800Y-56868D01*
X50899Y-56629D01*
X50900Y-56371D01*
X50801Y-56132D01*
X50618Y-55949D01*
X50379Y-55850D01*
X50121Y-55849D01*
X49882Y-55948D01*
X49749Y-56080D01*
X49618Y-55949D01*
X49379Y-55850D01*
X49259Y-55850D01*
X48930Y-55521D01*
X48950Y-55525D01*
X52350Y-55525D01*
X52474Y-55500D01*
X52474Y-55500D01*
X52579Y-55429D01*
X52826Y-55183D01*
X52885Y-55183D01*
X53136Y-55079D01*
X53328Y-54887D01*
X53354Y-54824D01*
X53679Y-54500D01*
X53355Y-54175D01*
X53329Y-54113D01*
X53137Y-53921D01*
X53025Y-53875D01*
X53463Y-53875D01*
X53382Y-53908D01*
X53338Y-54017D01*
X53750Y-54429D01*
X53755Y-54423D01*
X53826Y-54494D01*
X53820Y-54500D01*
X53826Y-54505D01*
X53755Y-54576D01*
X53750Y-54570D01*
X53338Y-54982D01*
X53382Y-55091D01*
X53612Y-55177D01*
X53020Y-55770D01*
X52949Y-55875D01*
X52939Y-55924D01*
X52882Y-55948D01*
X52865Y-55965D01*
X52861Y-55958D01*
X52791Y-55887D01*
X52699Y-55849D01*
X52362Y-55850D01*
X52300Y-55912D01*
X52300Y-56450D01*
X52307Y-56450D01*
X52307Y-56550D01*
X52300Y-56550D01*
X52300Y-57087D01*
X52362Y-57150D01*
X52699Y-57150D01*
X52791Y-57112D01*
X52861Y-57041D01*
X52864Y-57034D01*
X52881Y-57050D01*
X53120Y-57149D01*
X53378Y-57150D01*
X53617Y-57051D01*
X53750Y-56919D01*
X53881Y-57050D01*
X54060Y-57125D01*
X53750Y-57125D01*
X53625Y-57149D01*
X53583Y-57177D01*
X53520Y-57220D01*
X53520Y-57220D01*
X53020Y-57720D01*
X52949Y-57825D01*
X52929Y-57929D01*
X52882Y-57948D01*
X52865Y-57965D01*
X52861Y-57958D01*
X52791Y-57887D01*
X52699Y-57849D01*
X52362Y-57850D01*
X52300Y-57912D01*
X52300Y-58450D01*
X52307Y-58450D01*
X52307Y-58550D01*
X52300Y-58550D01*
X52300Y-59087D01*
X52362Y-59150D01*
X52699Y-59150D01*
X52791Y-59112D01*
X52861Y-59041D01*
X52864Y-59034D01*
X52881Y-59050D01*
X53120Y-59149D01*
X53378Y-59150D01*
X53617Y-59051D01*
X53750Y-58919D01*
X53881Y-59050D01*
X54120Y-59149D01*
X54378Y-59150D01*
X54617Y-59051D01*
X54800Y-58868D01*
X54899Y-58629D01*
X54900Y-58371D01*
X54801Y-58132D01*
X54618Y-57949D01*
X54379Y-57850D01*
X54121Y-57849D01*
X53882Y-57948D01*
X53749Y-58080D01*
X53664Y-57995D01*
X53884Y-57775D01*
X54750Y-57775D01*
X54874Y-57750D01*
X54874Y-57750D01*
X54979Y-57679D01*
X55479Y-57179D01*
X55479Y-57179D01*
X55479Y-57179D01*
X55522Y-57116D01*
X55550Y-57074D01*
X55550Y-57074D01*
X55575Y-56950D01*
X55575Y-56334D01*
X55599Y-56309D01*
X55600Y-56387D01*
X55662Y-56450D01*
X56200Y-56450D01*
X56200Y-55912D01*
X56137Y-55850D01*
X56059Y-55849D01*
X56079Y-55829D01*
X56079Y-55829D01*
X56429Y-55479D01*
X56429Y-55479D01*
X56429Y-55479D01*
X56679Y-55229D01*
X56679Y-55229D01*
X56679Y-55229D01*
X56750Y-55124D01*
X56750Y-55124D01*
X56775Y-55000D01*
X56775Y-54434D01*
X57275Y-54934D01*
X57275Y-55850D01*
X57121Y-55849D01*
X56882Y-55948D01*
X56865Y-55965D01*
X56861Y-55958D01*
X56791Y-55887D01*
X56699Y-55849D01*
X56362Y-55850D01*
X56300Y-55912D01*
X56300Y-56450D01*
X56307Y-56450D01*
X56307Y-56550D01*
X56300Y-56550D01*
X56300Y-57087D01*
X56362Y-57150D01*
X56699Y-57150D01*
X56791Y-57112D01*
X56861Y-57041D01*
X56864Y-57034D01*
X56881Y-57050D01*
X57120Y-57149D01*
X57378Y-57150D01*
X57617Y-57051D01*
X57750Y-56919D01*
X57848Y-57017D01*
X57848Y-57017D01*
X57770Y-57070D01*
X57770Y-57070D01*
X57020Y-57820D01*
X56954Y-57918D01*
X56954Y-57918D01*
X56882Y-57948D01*
X56865Y-57965D01*
X56861Y-57958D01*
X56791Y-57887D01*
X56699Y-57849D01*
X56362Y-57850D01*
X56300Y-57912D01*
X56300Y-58450D01*
X56307Y-58450D01*
X56307Y-58550D01*
X56300Y-58550D01*
X56300Y-59087D01*
X56362Y-59150D01*
X56699Y-59150D01*
X56791Y-59112D01*
X56861Y-59041D01*
X56864Y-59034D01*
X56881Y-59050D01*
X57120Y-59149D01*
X57378Y-59150D01*
X57617Y-59051D01*
X57750Y-58919D01*
X57881Y-59050D01*
X58120Y-59149D01*
X58378Y-59150D01*
X58617Y-59051D01*
X58800Y-58868D01*
X58899Y-58629D01*
X58900Y-58371D01*
X58801Y-58132D01*
X58618Y-57949D01*
X58379Y-57850D01*
X58121Y-57849D01*
X57882Y-57948D01*
X57749Y-58080D01*
X57714Y-58045D01*
X58134Y-57625D01*
X58600Y-57625D01*
X58724Y-57600D01*
X58724Y-57600D01*
X58829Y-57529D01*
X58925Y-57434D01*
X58925Y-58716D01*
G54D10*
G36*
X59485Y-28905D02*
X59061Y-28905D01*
X59049Y-28900D01*
X58950Y-28899D01*
X58875Y-28899D01*
X58875Y-28775D01*
X59477Y-28775D01*
X59449Y-28840D01*
X59450Y-28870D01*
X59485Y-28905D01*
X59485Y-28905D01*
G37*
G54D53*
X59485Y-28905D02*
X59061Y-28905D01*
X59049Y-28900D01*
X58950Y-28899D01*
X58875Y-28899D01*
X58875Y-28775D01*
X59477Y-28775D01*
X59449Y-28840D01*
X59450Y-28870D01*
X59485Y-28905D01*
G54D10*
G36*
X60800Y-30771D02*
X60750Y-30821D01*
X60691Y-30762D01*
X60599Y-30724D01*
X60487Y-30725D01*
X60425Y-30787D01*
X60425Y-31200D01*
X60432Y-31200D01*
X60432Y-31300D01*
X60425Y-31300D01*
X60425Y-31307D01*
X60325Y-31307D01*
X60325Y-31300D01*
X60317Y-31300D01*
X60317Y-31200D01*
X60325Y-31200D01*
X60325Y-30787D01*
X60300Y-30762D01*
X60300Y-30589D01*
X60391Y-30552D01*
X60461Y-30481D01*
X60494Y-30403D01*
X60800Y-30709D01*
X60800Y-30771D01*
X60800Y-30771D01*
G37*
G54D53*
X60800Y-30771D02*
X60750Y-30821D01*
X60691Y-30762D01*
X60599Y-30724D01*
X60487Y-30725D01*
X60425Y-30787D01*
X60425Y-31200D01*
X60432Y-31200D01*
X60432Y-31300D01*
X60425Y-31300D01*
X60425Y-31307D01*
X60325Y-31307D01*
X60325Y-31300D01*
X60317Y-31300D01*
X60317Y-31200D01*
X60325Y-31200D01*
X60325Y-30787D01*
X60300Y-30762D01*
X60300Y-30589D01*
X60391Y-30552D01*
X60461Y-30481D01*
X60494Y-30403D01*
X60800Y-30709D01*
X60800Y-30771D01*
G54D10*
G36*
X61184Y-28942D02*
X61183Y-28942D01*
X61113Y-29013D01*
X61085Y-29079D01*
X61075Y-29090D01*
X61074Y-29119D01*
X61075Y-29119D01*
X61074Y-29204D01*
X61074Y-29374D01*
X61075Y-29374D01*
X61074Y-29464D01*
X61074Y-29615D01*
X61074Y-29634D01*
X61074Y-29634D01*
X61075Y-29645D01*
X61082Y-29652D01*
X61112Y-29726D01*
X61141Y-29754D01*
X61113Y-29783D01*
X61089Y-29840D01*
X61075Y-29855D01*
X61074Y-29884D01*
X61075Y-29884D01*
X61074Y-29974D01*
X61074Y-30065D01*
X60779Y-29770D01*
X60674Y-29699D01*
X60550Y-29675D01*
X60500Y-29675D01*
X60500Y-29605D01*
X60499Y-29605D01*
X60500Y-29520D01*
X60500Y-29350D01*
X60499Y-29350D01*
X60500Y-29265D01*
X60500Y-29109D01*
X60500Y-29095D01*
X60500Y-29095D01*
X60500Y-29080D01*
X60489Y-29069D01*
X60462Y-29003D01*
X60391Y-28933D01*
X60390Y-28932D01*
X60437Y-28932D01*
X60500Y-28870D01*
X60500Y-28840D01*
X60472Y-28775D01*
X61106Y-28775D01*
X61074Y-28850D01*
X61075Y-28880D01*
X61137Y-28942D01*
X61184Y-28942D01*
X61184Y-28942D01*
G37*
G54D53*
X61184Y-28942D02*
X61183Y-28942D01*
X61113Y-29013D01*
X61085Y-29079D01*
X61075Y-29090D01*
X61074Y-29119D01*
X61075Y-29119D01*
X61074Y-29204D01*
X61074Y-29374D01*
X61075Y-29374D01*
X61074Y-29464D01*
X61074Y-29615D01*
X61074Y-29634D01*
X61074Y-29634D01*
X61075Y-29645D01*
X61082Y-29652D01*
X61112Y-29726D01*
X61141Y-29754D01*
X61113Y-29783D01*
X61089Y-29840D01*
X61075Y-29855D01*
X61074Y-29884D01*
X61075Y-29884D01*
X61074Y-29974D01*
X61074Y-30065D01*
X60779Y-29770D01*
X60674Y-29699D01*
X60550Y-29675D01*
X60500Y-29675D01*
X60500Y-29605D01*
X60499Y-29605D01*
X60500Y-29520D01*
X60500Y-29350D01*
X60499Y-29350D01*
X60500Y-29265D01*
X60500Y-29109D01*
X60500Y-29095D01*
X60500Y-29095D01*
X60500Y-29080D01*
X60489Y-29069D01*
X60462Y-29003D01*
X60391Y-28933D01*
X60390Y-28932D01*
X60437Y-28932D01*
X60500Y-28870D01*
X60500Y-28840D01*
X60472Y-28775D01*
X61106Y-28775D01*
X61074Y-28850D01*
X61075Y-28880D01*
X61137Y-28942D01*
X61184Y-28942D01*
G54D10*
G36*
X68925Y-54716D02*
X68886Y-54910D01*
X68796Y-55045D01*
X68689Y-55117D01*
X68689Y-46488D01*
X68689Y-45011D01*
X68689Y-34238D01*
X68689Y-32761D01*
X68651Y-32669D01*
X68580Y-32599D01*
X68488Y-32561D01*
X68389Y-32560D01*
X67862Y-32561D01*
X67800Y-32623D01*
X67800Y-33450D01*
X68626Y-33450D01*
X68689Y-33387D01*
X68689Y-32761D01*
X68689Y-34238D01*
X68689Y-33612D01*
X68626Y-33550D01*
X67800Y-33550D01*
X67800Y-34376D01*
X67862Y-34439D01*
X68389Y-34439D01*
X68488Y-34438D01*
X68580Y-34400D01*
X68651Y-34330D01*
X68689Y-34238D01*
X68689Y-45011D01*
X68651Y-44919D01*
X68580Y-44849D01*
X68488Y-44811D01*
X68389Y-44810D01*
X67862Y-44811D01*
X67800Y-44873D01*
X67800Y-45700D01*
X68626Y-45700D01*
X68689Y-45637D01*
X68689Y-45011D01*
X68689Y-46488D01*
X68689Y-45862D01*
X68626Y-45800D01*
X67800Y-45800D01*
X67800Y-46626D01*
X67862Y-46689D01*
X68389Y-46689D01*
X68488Y-46688D01*
X68580Y-46650D01*
X68651Y-46580D01*
X68689Y-46488D01*
X68689Y-55117D01*
X68659Y-55137D01*
X68468Y-55175D01*
X68342Y-55175D01*
X68342Y-50942D01*
X68342Y-50057D01*
X68341Y-49958D01*
X68303Y-49866D01*
X68233Y-49795D01*
X68141Y-49757D01*
X67712Y-49758D01*
X67700Y-49770D01*
X67700Y-46626D01*
X67700Y-45800D01*
X67700Y-45700D01*
X67700Y-44873D01*
X67700Y-34376D01*
X67700Y-33550D01*
X67700Y-33450D01*
X67700Y-32623D01*
X67637Y-32561D01*
X67315Y-32560D01*
X67315Y-31841D01*
X67315Y-30324D01*
X67277Y-30233D01*
X67206Y-30162D01*
X67114Y-30124D01*
X67015Y-30124D01*
X66862Y-30124D01*
X66800Y-30187D01*
X66800Y-31033D01*
X67252Y-31033D01*
X67315Y-30970D01*
X67315Y-30324D01*
X67315Y-31841D01*
X67315Y-31195D01*
X67252Y-31133D01*
X66800Y-31133D01*
X66800Y-31979D01*
X66862Y-32041D01*
X67015Y-32041D01*
X67114Y-32041D01*
X67206Y-32003D01*
X67277Y-31932D01*
X67315Y-31841D01*
X67315Y-32560D01*
X67110Y-32560D01*
X67011Y-32561D01*
X66919Y-32599D01*
X66848Y-32669D01*
X66810Y-32761D01*
X66811Y-33387D01*
X66873Y-33450D01*
X67700Y-33450D01*
X67700Y-33550D01*
X66873Y-33550D01*
X66811Y-33612D01*
X66810Y-34238D01*
X66848Y-34330D01*
X66919Y-34400D01*
X67011Y-34438D01*
X67110Y-34439D01*
X67637Y-34439D01*
X67700Y-34376D01*
X67700Y-44873D01*
X67637Y-44811D01*
X67110Y-44810D01*
X67011Y-44811D01*
X66919Y-44849D01*
X66848Y-44919D01*
X66810Y-45011D01*
X66811Y-45637D01*
X66873Y-45700D01*
X67700Y-45700D01*
X67700Y-45800D01*
X66873Y-45800D01*
X66811Y-45862D01*
X66810Y-46488D01*
X66848Y-46580D01*
X66919Y-46650D01*
X67011Y-46688D01*
X67110Y-46689D01*
X67637Y-46689D01*
X67700Y-46626D01*
X67700Y-49770D01*
X67650Y-49820D01*
X67650Y-50450D01*
X68279Y-50450D01*
X68342Y-50387D01*
X68342Y-50057D01*
X68342Y-50942D01*
X68342Y-50612D01*
X68279Y-50550D01*
X67650Y-50550D01*
X67650Y-51179D01*
X67712Y-51242D01*
X68141Y-51242D01*
X68233Y-51204D01*
X68303Y-51133D01*
X68341Y-51041D01*
X68342Y-50942D01*
X68342Y-55175D01*
X67550Y-55175D01*
X67550Y-51179D01*
X67550Y-50550D01*
X67550Y-50450D01*
X67550Y-49820D01*
X67487Y-49758D01*
X67058Y-49757D01*
X66966Y-49795D01*
X66896Y-49866D01*
X66858Y-49958D01*
X66857Y-50057D01*
X66858Y-50387D01*
X66920Y-50450D01*
X67550Y-50450D01*
X67550Y-50550D01*
X66920Y-50550D01*
X66858Y-50612D01*
X66857Y-50942D01*
X66858Y-51041D01*
X66896Y-51133D01*
X66966Y-51204D01*
X67058Y-51242D01*
X67487Y-51242D01*
X67550Y-51179D01*
X67550Y-55175D01*
X66700Y-55175D01*
X66700Y-31979D01*
X66700Y-31133D01*
X66700Y-31033D01*
X66700Y-30187D01*
X66637Y-30124D01*
X66484Y-30124D01*
X66385Y-30124D01*
X66293Y-30162D01*
X66222Y-30233D01*
X66184Y-30324D01*
X66185Y-30970D01*
X66247Y-31033D01*
X66700Y-31033D01*
X66700Y-31133D01*
X66247Y-31133D01*
X66185Y-31195D01*
X66184Y-31841D01*
X66222Y-31932D01*
X66293Y-32003D01*
X66385Y-32041D01*
X66484Y-32041D01*
X66637Y-32041D01*
X66700Y-31979D01*
X66700Y-55175D01*
X60900Y-55175D01*
X61135Y-55077D01*
X61576Y-54637D01*
X61815Y-54062D01*
X61815Y-53439D01*
X61577Y-52864D01*
X61137Y-52423D01*
X60562Y-52184D01*
X59939Y-52184D01*
X59364Y-52422D01*
X58923Y-52862D01*
X58684Y-53437D01*
X58684Y-54060D01*
X58922Y-54635D01*
X59362Y-55076D01*
X59599Y-55175D01*
X59250Y-55175D01*
X59125Y-55199D01*
X59020Y-55270D01*
X58949Y-55375D01*
X58947Y-55387D01*
X58929Y-55370D01*
X58495Y-54936D01*
X58495Y-53877D01*
X58487Y-53582D01*
X58390Y-53346D01*
X58274Y-53295D01*
X58204Y-53366D01*
X58204Y-53225D01*
X58153Y-53109D01*
X57877Y-53004D01*
X57582Y-53012D01*
X57346Y-53109D01*
X57295Y-53225D01*
X57750Y-53679D01*
X58204Y-53225D01*
X58204Y-53366D01*
X57820Y-53750D01*
X58274Y-54204D01*
X58390Y-54153D01*
X58495Y-53877D01*
X58495Y-54936D01*
X58009Y-54449D01*
X58153Y-54390D01*
X58204Y-54274D01*
X57750Y-53820D01*
X57744Y-53826D01*
X57673Y-53755D01*
X57679Y-53750D01*
X57225Y-53295D01*
X57109Y-53346D01*
X57053Y-53493D01*
X56193Y-52633D01*
X56238Y-52603D01*
X56353Y-52431D01*
X56361Y-52456D01*
X56496Y-52624D01*
X56685Y-52727D01*
X56714Y-52733D01*
X56800Y-52684D01*
X56800Y-52050D01*
X56792Y-52050D01*
X56792Y-51950D01*
X56800Y-51950D01*
X56800Y-51942D01*
X56900Y-51942D01*
X56900Y-51950D01*
X56907Y-51950D01*
X56907Y-52050D01*
X56900Y-52050D01*
X56900Y-52684D01*
X56985Y-52733D01*
X57014Y-52727D01*
X57203Y-52624D01*
X57338Y-52456D01*
X57346Y-52431D01*
X57461Y-52603D01*
X57639Y-52722D01*
X57850Y-52764D01*
X58060Y-52722D01*
X58238Y-52603D01*
X58358Y-52425D01*
X58400Y-52214D01*
X58400Y-51785D01*
X58358Y-51574D01*
X58238Y-51396D01*
X58060Y-51277D01*
X58054Y-51275D01*
X58132Y-51198D01*
X58364Y-51430D01*
X58389Y-51490D01*
X58508Y-51610D01*
X58665Y-51674D01*
X58834Y-51675D01*
X58990Y-51610D01*
X59110Y-51491D01*
X59174Y-51334D01*
X59175Y-51165D01*
X59110Y-51009D01*
X58991Y-50889D01*
X58930Y-50864D01*
X58615Y-50549D01*
X58615Y-50214D01*
X58578Y-50125D01*
X58794Y-50125D01*
X58976Y-50307D01*
X58958Y-50351D01*
X58957Y-50646D01*
X59070Y-50919D01*
X59279Y-51128D01*
X59551Y-51241D01*
X59846Y-51242D01*
X60119Y-51129D01*
X60328Y-50920D01*
X60441Y-50648D01*
X60442Y-50353D01*
X60329Y-50080D01*
X60120Y-49871D01*
X59848Y-49758D01*
X59553Y-49757D01*
X59507Y-49776D01*
X59215Y-49484D01*
X59093Y-49403D01*
X58950Y-49375D01*
X58899Y-49375D01*
X58991Y-49337D01*
X59003Y-49325D01*
X60250Y-49325D01*
X60374Y-49300D01*
X60374Y-49300D01*
X60479Y-49229D01*
X60914Y-48795D01*
X61107Y-48795D01*
X61308Y-48712D01*
X61461Y-48559D01*
X61545Y-48358D01*
X61545Y-48142D01*
X61462Y-47941D01*
X61316Y-47795D01*
X61340Y-47737D01*
X61340Y-47637D01*
X61340Y-46162D01*
X61340Y-46062D01*
X61302Y-45970D01*
X61231Y-45900D01*
X61140Y-45862D01*
X60612Y-45862D01*
X60550Y-45925D01*
X60550Y-46850D01*
X61278Y-46850D01*
X61340Y-46787D01*
X61340Y-46162D01*
X61340Y-47637D01*
X61340Y-47012D01*
X61278Y-46950D01*
X60550Y-46950D01*
X60550Y-47874D01*
X60576Y-47901D01*
X60538Y-47940D01*
X60500Y-48032D01*
X60462Y-47941D01*
X60422Y-47901D01*
X60450Y-47874D01*
X60450Y-46950D01*
X60450Y-46850D01*
X60450Y-45925D01*
X60387Y-45862D01*
X59859Y-45862D01*
X59768Y-45900D01*
X59697Y-45970D01*
X59659Y-46062D01*
X59659Y-46162D01*
X59659Y-46787D01*
X59721Y-46850D01*
X60450Y-46850D01*
X60450Y-46950D01*
X59721Y-46950D01*
X59659Y-47012D01*
X59659Y-47637D01*
X59659Y-47737D01*
X59683Y-47795D01*
X59677Y-47801D01*
X59660Y-47759D01*
X59541Y-47639D01*
X59384Y-47575D01*
X59215Y-47574D01*
X59100Y-47622D01*
X59100Y-47325D01*
X59062Y-47233D01*
X58991Y-47163D01*
X58899Y-47125D01*
X58800Y-47124D01*
X58797Y-47124D01*
X58797Y-46354D01*
X58788Y-46098D01*
X58708Y-45905D01*
X58603Y-45867D01*
X58532Y-45937D01*
X58532Y-45796D01*
X58494Y-45691D01*
X58254Y-45602D01*
X57998Y-45611D01*
X57805Y-45691D01*
X57767Y-45796D01*
X58150Y-46179D01*
X58532Y-45796D01*
X58532Y-45937D01*
X58220Y-46250D01*
X58603Y-46632D01*
X58708Y-46594D01*
X58797Y-46354D01*
X58797Y-47124D01*
X58712Y-47125D01*
X58650Y-47187D01*
X58650Y-47450D01*
X59037Y-47450D01*
X59100Y-47387D01*
X59100Y-47325D01*
X59100Y-47622D01*
X59100Y-47622D01*
X59100Y-47612D01*
X59037Y-47550D01*
X58650Y-47550D01*
X58650Y-47557D01*
X58550Y-47557D01*
X58550Y-47550D01*
X58550Y-47450D01*
X58550Y-47187D01*
X58532Y-47170D01*
X58532Y-46703D01*
X58150Y-46320D01*
X58079Y-46391D01*
X58079Y-46250D01*
X57696Y-45867D01*
X57591Y-45905D01*
X57502Y-46145D01*
X57511Y-46401D01*
X57591Y-46594D01*
X57696Y-46632D01*
X58079Y-46250D01*
X58079Y-46391D01*
X57767Y-46703D01*
X57805Y-46808D01*
X58045Y-46897D01*
X58301Y-46888D01*
X58494Y-46808D01*
X58532Y-46703D01*
X58532Y-47170D01*
X58487Y-47125D01*
X58399Y-47124D01*
X58300Y-47125D01*
X58208Y-47163D01*
X58137Y-47233D01*
X58099Y-47325D01*
X58100Y-47387D01*
X58162Y-47450D01*
X58550Y-47450D01*
X58550Y-47550D01*
X58162Y-47550D01*
X58100Y-47612D01*
X58099Y-47674D01*
X58131Y-47750D01*
X58100Y-47825D01*
X58099Y-47924D01*
X58099Y-48174D01*
X58131Y-48250D01*
X58100Y-48325D01*
X58099Y-48424D01*
X58099Y-48674D01*
X58100Y-48675D01*
X57884Y-48675D01*
X57325Y-48115D01*
X57325Y-47000D01*
X57324Y-46999D01*
X57325Y-46999D01*
X57320Y-46975D01*
X57300Y-46875D01*
X57300Y-46875D01*
X57229Y-46770D01*
X57229Y-46770D01*
X56479Y-46020D01*
X56374Y-45949D01*
X56317Y-45938D01*
X56295Y-45885D01*
X56114Y-45704D01*
X55878Y-45606D01*
X55622Y-45606D01*
X55385Y-45704D01*
X55204Y-45885D01*
X55106Y-46121D01*
X55106Y-46377D01*
X55204Y-46614D01*
X55385Y-46795D01*
X55621Y-46893D01*
X55877Y-46893D01*
X56114Y-46795D01*
X56225Y-46684D01*
X56665Y-47125D01*
X56600Y-47124D01*
X56100Y-47124D01*
X56008Y-47162D01*
X55996Y-47175D01*
X55050Y-47175D01*
X55050Y-46774D01*
X55049Y-46675D01*
X55011Y-46583D01*
X54941Y-46512D01*
X54910Y-46500D01*
X54941Y-46487D01*
X55011Y-46416D01*
X55049Y-46324D01*
X55050Y-46225D01*
X55050Y-45774D01*
X55049Y-45675D01*
X55011Y-45583D01*
X54941Y-45512D01*
X54849Y-45474D01*
X54737Y-45475D01*
X54675Y-45537D01*
X54675Y-45950D01*
X54987Y-45950D01*
X55050Y-45887D01*
X55050Y-45774D01*
X55050Y-46225D01*
X55050Y-46112D01*
X54987Y-46050D01*
X54675Y-46050D01*
X54675Y-46462D01*
X54712Y-46500D01*
X54675Y-46537D01*
X54675Y-46950D01*
X54987Y-46950D01*
X55050Y-46887D01*
X55050Y-46774D01*
X55050Y-47175D01*
X55050Y-47175D01*
X55050Y-47112D01*
X54987Y-47050D01*
X54675Y-47050D01*
X54675Y-47057D01*
X54575Y-47057D01*
X54575Y-47050D01*
X54567Y-47050D01*
X54567Y-46950D01*
X54575Y-46950D01*
X54575Y-46537D01*
X54537Y-46500D01*
X54575Y-46462D01*
X54575Y-46050D01*
X54567Y-46050D01*
X54567Y-45950D01*
X54575Y-45950D01*
X54575Y-45537D01*
X54512Y-45475D01*
X54400Y-45474D01*
X54308Y-45512D01*
X54249Y-45571D01*
X54191Y-45513D01*
X54099Y-45475D01*
X54000Y-45474D01*
X53650Y-45474D01*
X53558Y-45512D01*
X53488Y-45583D01*
X53460Y-45650D01*
X52880Y-45070D01*
X52880Y-43025D01*
X54675Y-43025D01*
X54675Y-43500D01*
X54699Y-43624D01*
X54770Y-43729D01*
X55520Y-44479D01*
X55520Y-44479D01*
X55625Y-44550D01*
X55625Y-44550D01*
X55725Y-44570D01*
X55749Y-44575D01*
X55749Y-44574D01*
X55750Y-44575D01*
X56027Y-44575D01*
X56027Y-44592D01*
X56027Y-44907D01*
X56065Y-44998D01*
X56135Y-45069D01*
X56227Y-45107D01*
X56327Y-45107D01*
X57272Y-45107D01*
X57363Y-45069D01*
X57434Y-44999D01*
X57472Y-44907D01*
X57472Y-44807D01*
X57472Y-44621D01*
X57558Y-44828D01*
X57721Y-44991D01*
X57934Y-45079D01*
X58164Y-45080D01*
X58378Y-44991D01*
X58541Y-44828D01*
X58629Y-44615D01*
X58630Y-44385D01*
X58541Y-44171D01*
X58378Y-44008D01*
X58165Y-43920D01*
X57935Y-43919D01*
X57721Y-44008D01*
X57558Y-44171D01*
X57472Y-44378D01*
X57472Y-44357D01*
X57472Y-44042D01*
X57454Y-44000D01*
X57472Y-43957D01*
X57472Y-43857D01*
X57472Y-43542D01*
X57434Y-43451D01*
X57408Y-43425D01*
X57434Y-43399D01*
X57472Y-43307D01*
X57472Y-43207D01*
X57472Y-42892D01*
X57472Y-42396D01*
X57472Y-41903D01*
X57434Y-41811D01*
X57364Y-41741D01*
X57272Y-41703D01*
X57172Y-41702D01*
X56862Y-41703D01*
X56800Y-41765D01*
X56800Y-42100D01*
X57410Y-42100D01*
X57472Y-42037D01*
X57472Y-41903D01*
X57472Y-42396D01*
X57472Y-42262D01*
X57410Y-42200D01*
X56800Y-42200D01*
X56800Y-42534D01*
X56862Y-42597D01*
X57172Y-42597D01*
X57272Y-42596D01*
X57364Y-42558D01*
X57434Y-42488D01*
X57472Y-42396D01*
X57472Y-42892D01*
X57434Y-42801D01*
X57364Y-42730D01*
X57272Y-42692D01*
X57172Y-42692D01*
X56700Y-42692D01*
X56700Y-42534D01*
X56700Y-42200D01*
X56700Y-42100D01*
X56700Y-41765D01*
X56637Y-41703D01*
X56327Y-41702D01*
X56227Y-41703D01*
X56135Y-41741D01*
X56065Y-41811D01*
X56027Y-41903D01*
X56027Y-42037D01*
X56090Y-42100D01*
X56700Y-42100D01*
X56700Y-42200D01*
X56090Y-42200D01*
X56027Y-42262D01*
X56027Y-42396D01*
X56065Y-42488D01*
X56135Y-42558D01*
X56227Y-42596D01*
X56327Y-42597D01*
X56637Y-42597D01*
X56700Y-42534D01*
X56700Y-42692D01*
X56227Y-42692D01*
X56209Y-42700D01*
X55925Y-42415D01*
X55925Y-41800D01*
X55924Y-41799D01*
X55925Y-41799D01*
X55920Y-41775D01*
X55900Y-41675D01*
X55900Y-41675D01*
X55829Y-41570D01*
X55829Y-41570D01*
X55529Y-41270D01*
X55525Y-41266D01*
X55525Y-41250D01*
X55525Y-40900D01*
X55487Y-40808D01*
X55416Y-40738D01*
X55324Y-40700D01*
X55225Y-40699D01*
X55087Y-40699D01*
X55018Y-40653D01*
X54875Y-40625D01*
X54173Y-40625D01*
X54070Y-40521D01*
X53862Y-40435D01*
X53638Y-40434D01*
X53430Y-40520D01*
X53271Y-40679D01*
X53250Y-40730D01*
X53229Y-40680D01*
X53070Y-40521D01*
X52862Y-40435D01*
X52638Y-40434D01*
X52430Y-40520D01*
X52271Y-40679D01*
X52252Y-40724D01*
X52243Y-40703D01*
X52146Y-40673D01*
X52076Y-40744D01*
X52076Y-40603D01*
X52046Y-40506D01*
X51835Y-40430D01*
X51610Y-40440D01*
X51453Y-40506D01*
X51423Y-40603D01*
X51750Y-40929D01*
X52076Y-40603D01*
X52076Y-40744D01*
X51820Y-41000D01*
X52146Y-41326D01*
X52243Y-41296D01*
X52251Y-41274D01*
X52270Y-41319D01*
X52429Y-41478D01*
X52480Y-41499D01*
X52430Y-41520D01*
X52271Y-41679D01*
X52250Y-41730D01*
X52229Y-41680D01*
X52070Y-41521D01*
X52025Y-41502D01*
X52046Y-41493D01*
X52076Y-41396D01*
X51750Y-41070D01*
X51679Y-41141D01*
X51679Y-41000D01*
X51353Y-40673D01*
X51256Y-40703D01*
X51180Y-40914D01*
X51190Y-41139D01*
X51256Y-41296D01*
X51353Y-41326D01*
X51679Y-41000D01*
X51679Y-41141D01*
X51423Y-41396D01*
X51453Y-41493D01*
X51475Y-41501D01*
X51430Y-41520D01*
X51271Y-41679D01*
X51185Y-41887D01*
X51184Y-42111D01*
X51270Y-42319D01*
X51429Y-42478D01*
X51487Y-42502D01*
X50970Y-43020D01*
X50899Y-43125D01*
X50875Y-43250D01*
X50875Y-46115D01*
X50625Y-46365D01*
X50625Y-41334D01*
X50734Y-41225D01*
X50784Y-41225D01*
X50940Y-41160D01*
X51060Y-41041D01*
X51124Y-40884D01*
X51125Y-40715D01*
X51060Y-40559D01*
X50941Y-40439D01*
X50784Y-40375D01*
X50615Y-40374D01*
X50459Y-40439D01*
X50375Y-40523D01*
X50341Y-40489D01*
X50184Y-40425D01*
X50015Y-40424D01*
X49859Y-40489D01*
X49739Y-40608D01*
X49675Y-40765D01*
X49674Y-40934D01*
X49725Y-41055D01*
X49725Y-41625D01*
X49565Y-41624D01*
X49409Y-41689D01*
X49374Y-41725D01*
X49234Y-41725D01*
X47975Y-40465D01*
X47975Y-40415D01*
X47910Y-40259D01*
X47791Y-40139D01*
X47634Y-40075D01*
X47465Y-40074D01*
X47309Y-40139D01*
X47189Y-40258D01*
X47125Y-40415D01*
X47124Y-40584D01*
X47189Y-40740D01*
X47308Y-40860D01*
X47465Y-40924D01*
X47515Y-40924D01*
X48870Y-42279D01*
X48870Y-42279D01*
X48975Y-42350D01*
X48975Y-42350D01*
X49075Y-42370D01*
X49099Y-42375D01*
X49099Y-42374D01*
X49100Y-42375D01*
X49373Y-42375D01*
X49408Y-42410D01*
X49565Y-42474D01*
X49725Y-42475D01*
X49725Y-43825D01*
X49565Y-43824D01*
X49409Y-43889D01*
X49400Y-43899D01*
X49341Y-43839D01*
X49184Y-43775D01*
X49015Y-43774D01*
X48859Y-43839D01*
X48739Y-43958D01*
X48675Y-44115D01*
X48675Y-44187D01*
X48649Y-44225D01*
X48625Y-44350D01*
X48625Y-44615D01*
X48315Y-44924D01*
X48265Y-44924D01*
X48188Y-44956D01*
X48188Y-44936D01*
X48150Y-44845D01*
X48080Y-44774D01*
X47988Y-44736D01*
X47888Y-44736D01*
X47855Y-44736D01*
X47855Y-43687D01*
X47977Y-43565D01*
X48841Y-43565D01*
X48932Y-43527D01*
X49003Y-43456D01*
X49041Y-43364D01*
X49041Y-43265D01*
X49041Y-42635D01*
X49003Y-42543D01*
X48933Y-42473D01*
X48841Y-42435D01*
X48741Y-42434D01*
X48048Y-42434D01*
X45625Y-40011D01*
X45625Y-36125D01*
X47800Y-36125D01*
X47950Y-36125D01*
X49644Y-36125D01*
X49765Y-36174D01*
X49934Y-36175D01*
X50090Y-36110D01*
X50210Y-35991D01*
X50274Y-35834D01*
X50275Y-35665D01*
X50210Y-35509D01*
X50200Y-35499D01*
X50200Y-33684D01*
X50200Y-33050D01*
X50192Y-33050D01*
X50192Y-32950D01*
X50200Y-32950D01*
X50200Y-32315D01*
X50114Y-32266D01*
X50085Y-32272D01*
X49896Y-32375D01*
X49761Y-32543D01*
X49753Y-32568D01*
X49726Y-32527D01*
X49726Y-28622D01*
X49718Y-28335D01*
X49623Y-28108D01*
X49510Y-28059D01*
X49440Y-28130D01*
X49440Y-27989D01*
X49400Y-27895D01*
X49400Y-27350D01*
X49400Y-27112D01*
X49337Y-27050D01*
X48800Y-27050D01*
X48800Y-27587D01*
X48862Y-27650D01*
X49199Y-27650D01*
X49291Y-27612D01*
X49361Y-27541D01*
X49399Y-27449D01*
X49400Y-27350D01*
X49400Y-27895D01*
X49391Y-27876D01*
X49122Y-27773D01*
X48835Y-27781D01*
X48608Y-27876D01*
X48559Y-27989D01*
X49000Y-28429D01*
X49440Y-27989D01*
X49440Y-28130D01*
X49070Y-28500D01*
X49510Y-28940D01*
X49623Y-28891D01*
X49726Y-28622D01*
X49726Y-32527D01*
X49638Y-32396D01*
X49460Y-32277D01*
X49250Y-32235D01*
X49039Y-32277D01*
X48861Y-32396D01*
X48741Y-32574D01*
X48700Y-32785D01*
X48700Y-33214D01*
X48741Y-33425D01*
X48861Y-33603D01*
X49039Y-33722D01*
X49250Y-33764D01*
X49460Y-33722D01*
X49638Y-33603D01*
X49753Y-33431D01*
X49761Y-33456D01*
X49896Y-33624D01*
X50085Y-33727D01*
X50114Y-33733D01*
X50200Y-33684D01*
X50200Y-35499D01*
X50091Y-35389D01*
X49934Y-35325D01*
X49765Y-35324D01*
X49644Y-35375D01*
X48375Y-35375D01*
X48375Y-32450D01*
X48346Y-32306D01*
X48265Y-32184D01*
X48105Y-32025D01*
X48349Y-32025D01*
X48441Y-31987D01*
X48511Y-31916D01*
X48549Y-31824D01*
X48550Y-31725D01*
X48550Y-31571D01*
X48590Y-31612D01*
X48855Y-31722D01*
X49143Y-31722D01*
X49408Y-31612D01*
X49612Y-31409D01*
X49722Y-31144D01*
X49722Y-30856D01*
X49612Y-30591D01*
X49440Y-30418D01*
X49440Y-29010D01*
X49000Y-28570D01*
X48929Y-28641D01*
X48929Y-28500D01*
X48489Y-28059D01*
X48376Y-28108D01*
X48299Y-28308D01*
X48300Y-28225D01*
X48300Y-28112D01*
X48237Y-28050D01*
X47925Y-28050D01*
X47925Y-28462D01*
X47987Y-28525D01*
X48099Y-28525D01*
X48191Y-28487D01*
X48261Y-28416D01*
X48273Y-28387D01*
X48281Y-28664D01*
X48376Y-28891D01*
X48489Y-28940D01*
X48929Y-28500D01*
X48929Y-28641D01*
X48559Y-29010D01*
X48608Y-29123D01*
X48877Y-29226D01*
X49164Y-29218D01*
X49391Y-29123D01*
X49440Y-29010D01*
X49440Y-30418D01*
X49409Y-30387D01*
X49144Y-30277D01*
X48856Y-30277D01*
X48591Y-30387D01*
X48387Y-30590D01*
X48277Y-30855D01*
X48277Y-30887D01*
X48190Y-30974D01*
X47900Y-30974D01*
X47808Y-31012D01*
X47749Y-31071D01*
X47691Y-31013D01*
X47599Y-30975D01*
X47500Y-30974D01*
X47416Y-30974D01*
X47474Y-30834D01*
X47475Y-30665D01*
X47410Y-30509D01*
X47291Y-30389D01*
X47134Y-30325D01*
X46965Y-30324D01*
X46937Y-30336D01*
X46937Y-29113D01*
X46928Y-28841D01*
X46841Y-28632D01*
X46732Y-28588D01*
X46320Y-29000D01*
X46732Y-29411D01*
X46841Y-29367D01*
X46937Y-29113D01*
X46937Y-30336D01*
X46834Y-30379D01*
X46732Y-30338D01*
X46661Y-30409D01*
X46661Y-30267D01*
X46661Y-29482D01*
X46250Y-29070D01*
X46179Y-29141D01*
X45838Y-29482D01*
X45882Y-29591D01*
X46136Y-29687D01*
X46408Y-29678D01*
X46617Y-29591D01*
X46661Y-29482D01*
X46661Y-30267D01*
X46617Y-30158D01*
X46363Y-30062D01*
X46091Y-30071D01*
X45882Y-30158D01*
X45838Y-30267D01*
X46250Y-30679D01*
X46661Y-30267D01*
X46661Y-30409D01*
X46320Y-30750D01*
X46326Y-30755D01*
X46255Y-30826D01*
X46250Y-30820D01*
X46244Y-30826D01*
X46173Y-30755D01*
X46179Y-30750D01*
X45855Y-30425D01*
X45829Y-30363D01*
X45661Y-30195D01*
X45661Y-29482D01*
X45250Y-29070D01*
X44838Y-29482D01*
X44882Y-29591D01*
X45136Y-29687D01*
X45408Y-29678D01*
X45617Y-29591D01*
X45661Y-29482D01*
X45661Y-30195D01*
X45637Y-30171D01*
X45455Y-30095D01*
X45179Y-29820D01*
X45074Y-29749D01*
X44950Y-29725D01*
X44334Y-29725D01*
X44376Y-29683D01*
X44385Y-29683D01*
X44636Y-29579D01*
X44828Y-29387D01*
X44854Y-29324D01*
X45179Y-29000D01*
X44855Y-28675D01*
X44829Y-28613D01*
X44637Y-28421D01*
X44405Y-28325D01*
X45084Y-28325D01*
X44882Y-28408D01*
X44838Y-28517D01*
X45250Y-28929D01*
X45255Y-28923D01*
X45326Y-28994D01*
X45320Y-29000D01*
X45637Y-29316D01*
X45658Y-29367D01*
X45708Y-29387D01*
X45732Y-29411D01*
X45750Y-29404D01*
X45767Y-29411D01*
X45791Y-29387D01*
X45841Y-29367D01*
X45859Y-29319D01*
X46179Y-29000D01*
X46173Y-28994D01*
X46244Y-28923D01*
X46250Y-28929D01*
X46661Y-28517D01*
X46655Y-28502D01*
X46691Y-28487D01*
X46750Y-28428D01*
X46808Y-28486D01*
X46900Y-28524D01*
X46999Y-28525D01*
X47349Y-28525D01*
X47441Y-28487D01*
X47500Y-28428D01*
X47558Y-28487D01*
X47650Y-28525D01*
X47762Y-28525D01*
X47825Y-28462D01*
X47825Y-28050D01*
X47817Y-28050D01*
X47817Y-27950D01*
X47825Y-27950D01*
X47825Y-27942D01*
X47925Y-27942D01*
X47925Y-27950D01*
X48237Y-27950D01*
X48300Y-27887D01*
X48300Y-27774D01*
X48299Y-27675D01*
X48287Y-27644D01*
X48300Y-27650D01*
X48637Y-27650D01*
X48700Y-27587D01*
X48700Y-27050D01*
X48692Y-27050D01*
X48692Y-26950D01*
X48700Y-26950D01*
X48700Y-26942D01*
X48800Y-26942D01*
X48800Y-26950D01*
X49337Y-26950D01*
X49400Y-26887D01*
X49400Y-26649D01*
X49399Y-26550D01*
X49361Y-26458D01*
X49291Y-26387D01*
X49199Y-26349D01*
X49039Y-26349D01*
X49049Y-26324D01*
X49050Y-26225D01*
X49050Y-26112D01*
X48987Y-26050D01*
X48675Y-26050D01*
X48675Y-26057D01*
X48575Y-26057D01*
X48575Y-26050D01*
X48567Y-26050D01*
X48567Y-25950D01*
X48575Y-25950D01*
X48575Y-25942D01*
X48675Y-25942D01*
X48675Y-25950D01*
X48987Y-25950D01*
X49050Y-25887D01*
X49050Y-25774D01*
X49049Y-25675D01*
X49039Y-25650D01*
X49199Y-25650D01*
X49291Y-25612D01*
X49361Y-25541D01*
X49399Y-25449D01*
X49400Y-25350D01*
X49400Y-24649D01*
X49399Y-24550D01*
X49361Y-24458D01*
X49291Y-24387D01*
X49199Y-24349D01*
X48862Y-24350D01*
X48800Y-24412D01*
X48800Y-24950D01*
X49337Y-24950D01*
X49400Y-24887D01*
X49400Y-24649D01*
X49400Y-25350D01*
X49400Y-25112D01*
X49337Y-25050D01*
X48800Y-25050D01*
X48800Y-25057D01*
X48700Y-25057D01*
X48700Y-25050D01*
X48692Y-25050D01*
X48692Y-24950D01*
X48700Y-24950D01*
X48700Y-24412D01*
X48637Y-24350D01*
X48300Y-24349D01*
X48208Y-24387D01*
X48138Y-24458D01*
X48135Y-24465D01*
X48118Y-24449D01*
X47879Y-24350D01*
X47621Y-24349D01*
X47382Y-24448D01*
X47249Y-24580D01*
X47118Y-24449D01*
X46879Y-24350D01*
X46621Y-24349D01*
X46382Y-24448D01*
X46249Y-24580D01*
X46118Y-24449D01*
X45879Y-24350D01*
X45621Y-24349D01*
X45382Y-24448D01*
X45199Y-24631D01*
X45100Y-24870D01*
X45099Y-25128D01*
X45117Y-25172D01*
X44915Y-25375D01*
X44400Y-25375D01*
X44400Y-25350D01*
X44400Y-24649D01*
X44399Y-24550D01*
X44361Y-24458D01*
X44291Y-24387D01*
X44199Y-24349D01*
X43862Y-24350D01*
X43800Y-24412D01*
X43800Y-24950D01*
X44337Y-24950D01*
X44400Y-24887D01*
X44400Y-24649D01*
X44400Y-25350D01*
X44400Y-25112D01*
X44337Y-25050D01*
X43800Y-25050D01*
X43800Y-25057D01*
X43700Y-25057D01*
X43700Y-25050D01*
X43692Y-25050D01*
X43692Y-24950D01*
X43700Y-24950D01*
X43700Y-24412D01*
X43637Y-24350D01*
X43300Y-24349D01*
X43208Y-24387D01*
X43138Y-24458D01*
X43135Y-24465D01*
X43118Y-24449D01*
X42879Y-24350D01*
X42621Y-24349D01*
X42382Y-24448D01*
X42249Y-24580D01*
X42118Y-24449D01*
X41879Y-24350D01*
X41621Y-24349D01*
X41382Y-24448D01*
X41249Y-24580D01*
X41118Y-24449D01*
X40879Y-24350D01*
X40621Y-24349D01*
X40382Y-24448D01*
X40199Y-24631D01*
X40100Y-24870D01*
X40099Y-25128D01*
X40198Y-25367D01*
X40355Y-25525D01*
X40215Y-25524D01*
X40075Y-25583D01*
X40075Y-24781D01*
X40112Y-24590D01*
X40204Y-24453D01*
X40339Y-24363D01*
X40533Y-24325D01*
X58250Y-24325D01*
X58468Y-24325D01*
X58659Y-24362D01*
X58796Y-24454D01*
X58886Y-24589D01*
X58925Y-24783D01*
X58925Y-28000D01*
X58929Y-28025D01*
X58875Y-28025D01*
X58875Y-27200D01*
X58874Y-27199D01*
X58846Y-27056D01*
X58765Y-26934D01*
X58765Y-26934D01*
X58487Y-26657D01*
X58491Y-26648D01*
X58492Y-26353D01*
X58379Y-26080D01*
X58170Y-25871D01*
X57898Y-25758D01*
X57603Y-25757D01*
X57330Y-25870D01*
X57121Y-26079D01*
X57008Y-26351D01*
X57007Y-26646D01*
X57118Y-26913D01*
X57103Y-26913D01*
X56924Y-26987D01*
X56788Y-27124D01*
X56781Y-27140D01*
X56739Y-27131D01*
X56668Y-27201D01*
X56668Y-27060D01*
X56649Y-26971D01*
X56492Y-26917D01*
X56492Y-26057D01*
X56491Y-25958D01*
X56453Y-25866D01*
X56383Y-25795D01*
X56291Y-25757D01*
X55862Y-25758D01*
X55800Y-25820D01*
X55800Y-26450D01*
X56429Y-26450D01*
X56492Y-26387D01*
X56492Y-26057D01*
X56492Y-26917D01*
X56492Y-26917D01*
X56492Y-26612D01*
X56429Y-26550D01*
X55800Y-26550D01*
X55800Y-27179D01*
X55862Y-27242D01*
X55940Y-27242D01*
X55908Y-27333D01*
X55920Y-27526D01*
X55971Y-27649D01*
X56060Y-27668D01*
X56329Y-27400D01*
X56323Y-27394D01*
X56394Y-27323D01*
X56400Y-27329D01*
X56668Y-27060D01*
X56668Y-27201D01*
X56470Y-27400D01*
X56739Y-27668D01*
X56781Y-27659D01*
X56787Y-27675D01*
X56924Y-27811D01*
X57102Y-27886D01*
X57296Y-27886D01*
X57475Y-27812D01*
X57611Y-27675D01*
X57686Y-27497D01*
X57686Y-27303D01*
X57660Y-27241D01*
X57896Y-27242D01*
X57978Y-27208D01*
X58125Y-27355D01*
X58125Y-28400D01*
X58125Y-28899D01*
X57950Y-28899D01*
X57858Y-28937D01*
X57788Y-29008D01*
X57750Y-29100D01*
X57749Y-29199D01*
X57749Y-29699D01*
X57787Y-29791D01*
X57858Y-29861D01*
X57950Y-29899D01*
X58049Y-29900D01*
X58990Y-29900D01*
X58790Y-30099D01*
X57950Y-30099D01*
X57858Y-30137D01*
X57788Y-30208D01*
X57750Y-30300D01*
X57749Y-30399D01*
X57749Y-30890D01*
X57338Y-30479D01*
X57318Y-30465D01*
X57315Y-30451D01*
X57315Y-30448D01*
X57315Y-30147D01*
X57277Y-30055D01*
X57221Y-30000D01*
X57277Y-29944D01*
X57315Y-29852D01*
X57315Y-28729D01*
X57277Y-28637D01*
X57206Y-28567D01*
X57114Y-28529D01*
X57015Y-28528D01*
X56862Y-28529D01*
X56800Y-28591D01*
X56800Y-29241D01*
X57252Y-29241D01*
X57315Y-29178D01*
X57315Y-28729D01*
X57315Y-29852D01*
X57315Y-29403D01*
X57252Y-29341D01*
X56800Y-29341D01*
X56800Y-29348D01*
X56700Y-29348D01*
X56700Y-29341D01*
X56700Y-29241D01*
X56700Y-28591D01*
X56668Y-28560D01*
X56668Y-27739D01*
X56400Y-27470D01*
X56131Y-27739D01*
X56150Y-27828D01*
X56333Y-27891D01*
X56526Y-27879D01*
X56649Y-27828D01*
X56668Y-27739D01*
X56668Y-28560D01*
X56637Y-28529D01*
X56484Y-28528D01*
X56385Y-28529D01*
X56293Y-28567D01*
X56222Y-28637D01*
X56184Y-28729D01*
X56185Y-29178D01*
X56247Y-29241D01*
X56700Y-29241D01*
X56700Y-29341D01*
X56247Y-29341D01*
X56185Y-29403D01*
X56184Y-29852D01*
X56222Y-29944D01*
X56278Y-30000D01*
X56223Y-30055D01*
X56185Y-30147D01*
X56184Y-30246D01*
X56184Y-30384D01*
X55700Y-30384D01*
X55700Y-27179D01*
X55700Y-26550D01*
X55700Y-26450D01*
X55700Y-25820D01*
X55637Y-25758D01*
X55208Y-25757D01*
X55116Y-25795D01*
X55046Y-25866D01*
X55008Y-25958D01*
X55007Y-26057D01*
X55008Y-26387D01*
X55070Y-26450D01*
X55700Y-26450D01*
X55700Y-26550D01*
X55070Y-26550D01*
X55008Y-26612D01*
X55007Y-26942D01*
X55008Y-27041D01*
X55046Y-27133D01*
X55116Y-27204D01*
X55208Y-27242D01*
X55637Y-27242D01*
X55700Y-27179D01*
X55700Y-30384D01*
X55315Y-30384D01*
X55315Y-30147D01*
X55277Y-30055D01*
X55221Y-30000D01*
X55277Y-29944D01*
X55315Y-29852D01*
X55315Y-28729D01*
X55277Y-28637D01*
X55206Y-28567D01*
X55114Y-28529D01*
X55015Y-28528D01*
X54862Y-28529D01*
X54800Y-28591D01*
X54800Y-29241D01*
X55252Y-29241D01*
X55315Y-29178D01*
X55315Y-28729D01*
X55315Y-29852D01*
X55315Y-29403D01*
X55252Y-29341D01*
X54800Y-29341D01*
X54800Y-29348D01*
X54700Y-29348D01*
X54700Y-29341D01*
X54700Y-29241D01*
X54700Y-28591D01*
X54637Y-28529D01*
X54484Y-28528D01*
X54385Y-28529D01*
X54293Y-28567D01*
X54222Y-28637D01*
X54184Y-28729D01*
X54185Y-29178D01*
X54247Y-29241D01*
X54700Y-29241D01*
X54700Y-29341D01*
X54247Y-29341D01*
X54185Y-29403D01*
X54184Y-29852D01*
X54222Y-29944D01*
X54278Y-30000D01*
X54223Y-30055D01*
X54185Y-30147D01*
X54184Y-30246D01*
X54184Y-30384D01*
X54093Y-30384D01*
X53912Y-30203D01*
X53807Y-30132D01*
X53782Y-30127D01*
X53782Y-29714D01*
X53782Y-29419D01*
X53782Y-29320D01*
X53744Y-29228D01*
X53673Y-29157D01*
X53582Y-29119D01*
X53487Y-29120D01*
X53425Y-29182D01*
X53425Y-29517D01*
X53720Y-29517D01*
X53782Y-29454D01*
X53782Y-29419D01*
X53782Y-29714D01*
X53782Y-29679D01*
X53720Y-29617D01*
X53425Y-29617D01*
X53425Y-29951D01*
X53487Y-30014D01*
X53582Y-30014D01*
X53673Y-29976D01*
X53744Y-29905D01*
X53782Y-29813D01*
X53782Y-29714D01*
X53782Y-30127D01*
X53683Y-30108D01*
X53375Y-30108D01*
X53369Y-30094D01*
X53325Y-30049D01*
X53325Y-29951D01*
X53325Y-29617D01*
X53325Y-29517D01*
X53325Y-29182D01*
X53325Y-29000D01*
X53325Y-28134D01*
X53479Y-27979D01*
X53479Y-27979D01*
X53479Y-27979D01*
X53550Y-27874D01*
X53550Y-27874D01*
X53575Y-27750D01*
X53575Y-27168D01*
X53669Y-27129D01*
X53878Y-26920D01*
X53991Y-26648D01*
X53992Y-26353D01*
X53879Y-26080D01*
X53670Y-25871D01*
X53398Y-25758D01*
X53103Y-25757D01*
X52830Y-25870D01*
X52621Y-26079D01*
X52508Y-26351D01*
X52507Y-26646D01*
X52618Y-26913D01*
X52603Y-26913D01*
X52424Y-26987D01*
X52288Y-27124D01*
X52281Y-27140D01*
X52239Y-27131D01*
X52168Y-27201D01*
X52168Y-27060D01*
X52149Y-26971D01*
X51992Y-26917D01*
X51992Y-26057D01*
X51991Y-25958D01*
X51953Y-25866D01*
X51883Y-25795D01*
X51791Y-25757D01*
X51362Y-25758D01*
X51300Y-25820D01*
X51300Y-26450D01*
X51929Y-26450D01*
X51992Y-26387D01*
X51992Y-26057D01*
X51992Y-26917D01*
X51992Y-26917D01*
X51992Y-26612D01*
X51929Y-26550D01*
X51300Y-26550D01*
X51300Y-27179D01*
X51362Y-27242D01*
X51440Y-27242D01*
X51408Y-27333D01*
X51420Y-27526D01*
X51471Y-27649D01*
X51560Y-27668D01*
X51829Y-27400D01*
X51823Y-27394D01*
X51894Y-27323D01*
X51900Y-27329D01*
X52168Y-27060D01*
X52168Y-27201D01*
X51970Y-27400D01*
X52239Y-27668D01*
X52281Y-27659D01*
X52287Y-27675D01*
X52424Y-27811D01*
X52602Y-27886D01*
X52697Y-27886D01*
X52675Y-28000D01*
X52675Y-28415D01*
X52625Y-28365D01*
X52625Y-28315D01*
X52560Y-28159D01*
X52441Y-28039D01*
X52284Y-27975D01*
X52168Y-27974D01*
X52168Y-27739D01*
X51900Y-27470D01*
X51631Y-27739D01*
X51650Y-27828D01*
X51833Y-27891D01*
X52026Y-27879D01*
X52149Y-27828D01*
X52168Y-27739D01*
X52168Y-27974D01*
X52115Y-27974D01*
X51959Y-28039D01*
X51839Y-28158D01*
X51775Y-28315D01*
X51774Y-28484D01*
X51839Y-28640D01*
X51958Y-28760D01*
X52115Y-28824D01*
X52165Y-28824D01*
X52300Y-28959D01*
X52300Y-29183D01*
X52255Y-29228D01*
X52217Y-29320D01*
X52217Y-29419D01*
X52217Y-29514D01*
X51726Y-30005D01*
X51721Y-30000D01*
X51777Y-29944D01*
X51815Y-29852D01*
X51815Y-28729D01*
X51777Y-28637D01*
X51706Y-28567D01*
X51614Y-28529D01*
X51515Y-28528D01*
X51362Y-28529D01*
X51300Y-28591D01*
X51300Y-29241D01*
X51752Y-29241D01*
X51815Y-29178D01*
X51815Y-28729D01*
X51815Y-29852D01*
X51815Y-29403D01*
X51752Y-29341D01*
X51300Y-29341D01*
X51300Y-29348D01*
X51200Y-29348D01*
X51200Y-29341D01*
X51200Y-29241D01*
X51200Y-28591D01*
X51200Y-27179D01*
X51200Y-26550D01*
X51200Y-26450D01*
X51200Y-25820D01*
X51137Y-25758D01*
X50708Y-25757D01*
X50616Y-25795D01*
X50546Y-25866D01*
X50508Y-25958D01*
X50507Y-26057D01*
X50508Y-26387D01*
X50570Y-26450D01*
X51200Y-26450D01*
X51200Y-26550D01*
X50570Y-26550D01*
X50508Y-26612D01*
X50507Y-26942D01*
X50508Y-27041D01*
X50546Y-27133D01*
X50616Y-27204D01*
X50708Y-27242D01*
X51137Y-27242D01*
X51200Y-27179D01*
X51200Y-28591D01*
X51137Y-28529D01*
X50984Y-28528D01*
X50885Y-28529D01*
X50793Y-28567D01*
X50722Y-28637D01*
X50684Y-28729D01*
X50685Y-29178D01*
X50747Y-29241D01*
X51200Y-29241D01*
X51200Y-29341D01*
X50747Y-29341D01*
X50685Y-29403D01*
X50684Y-29852D01*
X50722Y-29944D01*
X50778Y-30000D01*
X50723Y-30055D01*
X50685Y-30147D01*
X50684Y-30246D01*
X50684Y-31270D01*
X50722Y-31362D01*
X50793Y-31432D01*
X50885Y-31470D01*
X50984Y-31471D01*
X51425Y-31471D01*
X51425Y-32278D01*
X51414Y-32272D01*
X51385Y-32266D01*
X51300Y-32315D01*
X51300Y-32950D01*
X51307Y-32950D01*
X51307Y-33050D01*
X51300Y-33050D01*
X51300Y-33684D01*
X51385Y-33733D01*
X51414Y-33727D01*
X51425Y-33721D01*
X51425Y-33879D01*
X51325Y-33899D01*
X51220Y-33970D01*
X51220Y-33970D01*
X51200Y-33990D01*
X51200Y-33684D01*
X51200Y-33050D01*
X51200Y-32950D01*
X51200Y-32315D01*
X51114Y-32266D01*
X51085Y-32272D01*
X50896Y-32375D01*
X50761Y-32543D01*
X50750Y-32580D01*
X50738Y-32543D01*
X50603Y-32375D01*
X50414Y-32272D01*
X50385Y-32266D01*
X50300Y-32315D01*
X50300Y-32950D01*
X50700Y-32950D01*
X50800Y-32950D01*
X51200Y-32950D01*
X51200Y-33050D01*
X50800Y-33050D01*
X50700Y-33050D01*
X50300Y-33050D01*
X50300Y-33684D01*
X50385Y-33733D01*
X50414Y-33727D01*
X50603Y-33624D01*
X50738Y-33456D01*
X50750Y-33419D01*
X50761Y-33456D01*
X50896Y-33624D01*
X51085Y-33727D01*
X51114Y-33733D01*
X51200Y-33684D01*
X51200Y-33990D01*
X51020Y-34170D01*
X50949Y-34275D01*
X50925Y-34400D01*
X50925Y-34875D01*
X50765Y-34874D01*
X50609Y-34939D01*
X50489Y-35058D01*
X50425Y-35215D01*
X50424Y-35384D01*
X50475Y-35505D01*
X50475Y-37400D01*
X50503Y-37543D01*
X50584Y-37665D01*
X51834Y-38915D01*
X51956Y-38996D01*
X52100Y-39025D01*
X53144Y-39025D01*
X53389Y-39270D01*
X53439Y-39390D01*
X53558Y-39510D01*
X53715Y-39574D01*
X53884Y-39575D01*
X54040Y-39510D01*
X54160Y-39391D01*
X54224Y-39234D01*
X54225Y-39065D01*
X54160Y-38909D01*
X54041Y-38789D01*
X53919Y-38739D01*
X53565Y-38384D01*
X53443Y-38303D01*
X53300Y-38275D01*
X52255Y-38275D01*
X52205Y-38225D01*
X54665Y-38225D01*
X54975Y-38534D01*
X54975Y-39550D01*
X54999Y-39674D01*
X55070Y-39779D01*
X55820Y-40529D01*
X55820Y-40529D01*
X55925Y-40600D01*
X55925Y-40600D01*
X56025Y-40620D01*
X56049Y-40625D01*
X56049Y-40624D01*
X56050Y-40625D01*
X56059Y-40625D01*
X56065Y-40638D01*
X56135Y-40708D01*
X56174Y-40724D01*
X56136Y-40740D01*
X56065Y-40811D01*
X56027Y-40903D01*
X56027Y-41002D01*
X56027Y-41396D01*
X56065Y-41488D01*
X56135Y-41558D01*
X56227Y-41596D01*
X56327Y-41597D01*
X57272Y-41597D01*
X57363Y-41559D01*
X57434Y-41488D01*
X57472Y-41396D01*
X57472Y-41384D01*
X57479Y-41379D01*
X57929Y-40929D01*
X58000Y-40824D01*
X58000Y-40824D01*
X58025Y-40700D01*
X58025Y-40050D01*
X58000Y-39925D01*
X58000Y-39925D01*
X57929Y-39820D01*
X57929Y-39820D01*
X57679Y-39570D01*
X57574Y-39499D01*
X57472Y-39479D01*
X57472Y-39053D01*
X57434Y-38961D01*
X57364Y-38891D01*
X57272Y-38853D01*
X57172Y-38852D01*
X56862Y-38853D01*
X56800Y-38915D01*
X56800Y-39250D01*
X57410Y-39250D01*
X57472Y-39187D01*
X57472Y-39053D01*
X57472Y-39479D01*
X57472Y-39479D01*
X57472Y-39412D01*
X57410Y-39350D01*
X56800Y-39350D01*
X56800Y-39357D01*
X56700Y-39357D01*
X56700Y-39350D01*
X56692Y-39350D01*
X56692Y-39250D01*
X56700Y-39250D01*
X56700Y-38915D01*
X56637Y-38853D01*
X56327Y-38852D01*
X56227Y-38853D01*
X56135Y-38891D01*
X56065Y-38961D01*
X56027Y-39053D01*
X56027Y-39187D01*
X56089Y-39249D01*
X56027Y-39249D01*
X56027Y-39267D01*
X55975Y-39215D01*
X55975Y-38134D01*
X56027Y-38187D01*
X56027Y-38546D01*
X56065Y-38638D01*
X56135Y-38708D01*
X56227Y-38746D01*
X56327Y-38747D01*
X57272Y-38747D01*
X57363Y-38709D01*
X57434Y-38638D01*
X57472Y-38546D01*
X57472Y-38447D01*
X57472Y-38053D01*
X57434Y-37961D01*
X57364Y-37891D01*
X57272Y-37853D01*
X57172Y-37852D01*
X56612Y-37852D01*
X56506Y-37747D01*
X57272Y-37747D01*
X57363Y-37709D01*
X57434Y-37638D01*
X57440Y-37625D01*
X58200Y-37625D01*
X58324Y-37600D01*
X58324Y-37600D01*
X58429Y-37529D01*
X59229Y-36729D01*
X59229Y-36729D01*
X59229Y-36729D01*
X59300Y-36624D01*
X59300Y-36624D01*
X59320Y-36524D01*
X59325Y-36500D01*
X59324Y-36500D01*
X59325Y-36500D01*
X59325Y-35750D01*
X59300Y-35625D01*
X59300Y-35625D01*
X59272Y-35583D01*
X59229Y-35520D01*
X59229Y-35520D01*
X58729Y-35020D01*
X58624Y-34949D01*
X58500Y-34925D01*
X55600Y-34925D01*
X55600Y-34475D01*
X55574Y-34414D01*
X55937Y-34565D01*
X56560Y-34565D01*
X57135Y-34327D01*
X57576Y-33887D01*
X57815Y-33312D01*
X57815Y-32689D01*
X57577Y-32114D01*
X57137Y-31673D01*
X56650Y-31471D01*
X57114Y-31471D01*
X57206Y-31433D01*
X57276Y-31362D01*
X57284Y-31344D01*
X58120Y-32179D01*
X58225Y-32250D01*
X58225Y-32250D01*
X58350Y-32275D01*
X60900Y-32275D01*
X61024Y-32250D01*
X61024Y-32250D01*
X61129Y-32179D01*
X61354Y-31954D01*
X61425Y-31849D01*
X61425Y-31849D01*
X61449Y-31729D01*
X61500Y-31678D01*
X61558Y-31736D01*
X61650Y-31774D01*
X61749Y-31775D01*
X62099Y-31775D01*
X62191Y-31737D01*
X62261Y-31666D01*
X62299Y-31574D01*
X62300Y-31478D01*
X62333Y-31511D01*
X62425Y-31549D01*
X62524Y-31550D01*
X63074Y-31550D01*
X63166Y-31512D01*
X63236Y-31441D01*
X63274Y-31349D01*
X63275Y-31250D01*
X63275Y-31075D01*
X63684Y-31075D01*
X63684Y-31270D01*
X63722Y-31362D01*
X63793Y-31432D01*
X63885Y-31470D01*
X63984Y-31471D01*
X64614Y-31471D01*
X64706Y-31433D01*
X64776Y-31362D01*
X64814Y-31270D01*
X64815Y-31171D01*
X64815Y-30147D01*
X64777Y-30055D01*
X64721Y-30000D01*
X64777Y-29944D01*
X64815Y-29852D01*
X64815Y-29403D01*
X64752Y-29341D01*
X64300Y-29341D01*
X64300Y-29348D01*
X64200Y-29348D01*
X64200Y-29341D01*
X63747Y-29341D01*
X63685Y-29403D01*
X63684Y-29852D01*
X63722Y-29944D01*
X63778Y-30000D01*
X63723Y-30055D01*
X63685Y-30147D01*
X63684Y-30246D01*
X63684Y-30425D01*
X63212Y-30425D01*
X62800Y-30425D01*
X62700Y-30425D01*
X62692Y-30425D01*
X62692Y-30325D01*
X62700Y-30325D01*
X62700Y-30317D01*
X62800Y-30317D01*
X62800Y-30325D01*
X63212Y-30325D01*
X63275Y-30262D01*
X63275Y-30150D01*
X63237Y-30058D01*
X63178Y-29999D01*
X63236Y-29941D01*
X63274Y-29849D01*
X63275Y-29750D01*
X63275Y-29400D01*
X63237Y-29308D01*
X63178Y-29250D01*
X63237Y-29191D01*
X63275Y-29099D01*
X63275Y-28987D01*
X63212Y-28925D01*
X62800Y-28925D01*
X62800Y-28932D01*
X62700Y-28932D01*
X62700Y-28925D01*
X62287Y-28925D01*
X62269Y-28943D01*
X62264Y-28939D01*
X62140Y-28915D01*
X62090Y-28915D01*
X62125Y-28880D01*
X62125Y-28850D01*
X62093Y-28775D01*
X62237Y-28775D01*
X62287Y-28825D01*
X62700Y-28825D01*
X62700Y-28817D01*
X62800Y-28817D01*
X62800Y-28825D01*
X63212Y-28825D01*
X63262Y-28775D01*
X63684Y-28775D01*
X63685Y-29178D01*
X63747Y-29241D01*
X64200Y-29241D01*
X64200Y-29233D01*
X64300Y-29233D01*
X64300Y-29241D01*
X64752Y-29241D01*
X64815Y-29178D01*
X64815Y-28775D01*
X66077Y-28775D01*
X66184Y-28882D01*
X66184Y-29675D01*
X66222Y-29766D01*
X66293Y-29837D01*
X66385Y-29875D01*
X66484Y-29875D01*
X67114Y-29875D01*
X67206Y-29837D01*
X67276Y-29767D01*
X67314Y-29675D01*
X67315Y-29575D01*
X67315Y-28325D01*
X68468Y-28325D01*
X68659Y-28362D01*
X68796Y-28454D01*
X68886Y-28589D01*
X68925Y-28783D01*
X68925Y-54716D01*
X68925Y-54716D01*
G37*
G54D53*
X68925Y-54716D02*
X68886Y-54910D01*
X68796Y-55045D01*
X68689Y-55117D01*
X68689Y-46488D01*
X68689Y-45011D01*
X68689Y-34238D01*
X68689Y-32761D01*
X68651Y-32669D01*
X68580Y-32599D01*
X68488Y-32561D01*
X68389Y-32560D01*
X67862Y-32561D01*
X67800Y-32623D01*
X67800Y-33450D01*
X68626Y-33450D01*
X68689Y-33387D01*
X68689Y-32761D01*
X68689Y-34238D01*
X68689Y-33612D01*
X68626Y-33550D01*
X67800Y-33550D01*
X67800Y-34376D01*
X67862Y-34439D01*
X68389Y-34439D01*
X68488Y-34438D01*
X68580Y-34400D01*
X68651Y-34330D01*
X68689Y-34238D01*
X68689Y-45011D01*
X68651Y-44919D01*
X68580Y-44849D01*
X68488Y-44811D01*
X68389Y-44810D01*
X67862Y-44811D01*
X67800Y-44873D01*
X67800Y-45700D01*
X68626Y-45700D01*
X68689Y-45637D01*
X68689Y-45011D01*
X68689Y-46488D01*
X68689Y-45862D01*
X68626Y-45800D01*
X67800Y-45800D01*
X67800Y-46626D01*
X67862Y-46689D01*
X68389Y-46689D01*
X68488Y-46688D01*
X68580Y-46650D01*
X68651Y-46580D01*
X68689Y-46488D01*
X68689Y-55117D01*
X68659Y-55137D01*
X68468Y-55175D01*
X68342Y-55175D01*
X68342Y-50942D01*
X68342Y-50057D01*
X68341Y-49958D01*
X68303Y-49866D01*
X68233Y-49795D01*
X68141Y-49757D01*
X67712Y-49758D01*
X67700Y-49770D01*
X67700Y-46626D01*
X67700Y-45800D01*
X67700Y-45700D01*
X67700Y-44873D01*
X67700Y-34376D01*
X67700Y-33550D01*
X67700Y-33450D01*
X67700Y-32623D01*
X67637Y-32561D01*
X67315Y-32560D01*
X67315Y-31841D01*
X67315Y-30324D01*
X67277Y-30233D01*
X67206Y-30162D01*
X67114Y-30124D01*
X67015Y-30124D01*
X66862Y-30124D01*
X66800Y-30187D01*
X66800Y-31033D01*
X67252Y-31033D01*
X67315Y-30970D01*
X67315Y-30324D01*
X67315Y-31841D01*
X67315Y-31195D01*
X67252Y-31133D01*
X66800Y-31133D01*
X66800Y-31979D01*
X66862Y-32041D01*
X67015Y-32041D01*
X67114Y-32041D01*
X67206Y-32003D01*
X67277Y-31932D01*
X67315Y-31841D01*
X67315Y-32560D01*
X67110Y-32560D01*
X67011Y-32561D01*
X66919Y-32599D01*
X66848Y-32669D01*
X66810Y-32761D01*
X66811Y-33387D01*
X66873Y-33450D01*
X67700Y-33450D01*
X67700Y-33550D01*
X66873Y-33550D01*
X66811Y-33612D01*
X66810Y-34238D01*
X66848Y-34330D01*
X66919Y-34400D01*
X67011Y-34438D01*
X67110Y-34439D01*
X67637Y-34439D01*
X67700Y-34376D01*
X67700Y-44873D01*
X67637Y-44811D01*
X67110Y-44810D01*
X67011Y-44811D01*
X66919Y-44849D01*
X66848Y-44919D01*
X66810Y-45011D01*
X66811Y-45637D01*
X66873Y-45700D01*
X67700Y-45700D01*
X67700Y-45800D01*
X66873Y-45800D01*
X66811Y-45862D01*
X66810Y-46488D01*
X66848Y-46580D01*
X66919Y-46650D01*
X67011Y-46688D01*
X67110Y-46689D01*
X67637Y-46689D01*
X67700Y-46626D01*
X67700Y-49770D01*
X67650Y-49820D01*
X67650Y-50450D01*
X68279Y-50450D01*
X68342Y-50387D01*
X68342Y-50057D01*
X68342Y-50942D01*
X68342Y-50612D01*
X68279Y-50550D01*
X67650Y-50550D01*
X67650Y-51179D01*
X67712Y-51242D01*
X68141Y-51242D01*
X68233Y-51204D01*
X68303Y-51133D01*
X68341Y-51041D01*
X68342Y-50942D01*
X68342Y-55175D01*
X67550Y-55175D01*
X67550Y-51179D01*
X67550Y-50550D01*
X67550Y-50450D01*
X67550Y-49820D01*
X67487Y-49758D01*
X67058Y-49757D01*
X66966Y-49795D01*
X66896Y-49866D01*
X66858Y-49958D01*
X66857Y-50057D01*
X66858Y-50387D01*
X66920Y-50450D01*
X67550Y-50450D01*
X67550Y-50550D01*
X66920Y-50550D01*
X66858Y-50612D01*
X66857Y-50942D01*
X66858Y-51041D01*
X66896Y-51133D01*
X66966Y-51204D01*
X67058Y-51242D01*
X67487Y-51242D01*
X67550Y-51179D01*
X67550Y-55175D01*
X66700Y-55175D01*
X66700Y-31979D01*
X66700Y-31133D01*
X66700Y-31033D01*
X66700Y-30187D01*
X66637Y-30124D01*
X66484Y-30124D01*
X66385Y-30124D01*
X66293Y-30162D01*
X66222Y-30233D01*
X66184Y-30324D01*
X66185Y-30970D01*
X66247Y-31033D01*
X66700Y-31033D01*
X66700Y-31133D01*
X66247Y-31133D01*
X66185Y-31195D01*
X66184Y-31841D01*
X66222Y-31932D01*
X66293Y-32003D01*
X66385Y-32041D01*
X66484Y-32041D01*
X66637Y-32041D01*
X66700Y-31979D01*
X66700Y-55175D01*
X60900Y-55175D01*
X61135Y-55077D01*
X61576Y-54637D01*
X61815Y-54062D01*
X61815Y-53439D01*
X61577Y-52864D01*
X61137Y-52423D01*
X60562Y-52184D01*
X59939Y-52184D01*
X59364Y-52422D01*
X58923Y-52862D01*
X58684Y-53437D01*
X58684Y-54060D01*
X58922Y-54635D01*
X59362Y-55076D01*
X59599Y-55175D01*
X59250Y-55175D01*
X59125Y-55199D01*
X59020Y-55270D01*
X58949Y-55375D01*
X58947Y-55387D01*
X58929Y-55370D01*
X58495Y-54936D01*
X58495Y-53877D01*
X58487Y-53582D01*
X58390Y-53346D01*
X58274Y-53295D01*
X58204Y-53366D01*
X58204Y-53225D01*
X58153Y-53109D01*
X57877Y-53004D01*
X57582Y-53012D01*
X57346Y-53109D01*
X57295Y-53225D01*
X57750Y-53679D01*
X58204Y-53225D01*
X58204Y-53366D01*
X57820Y-53750D01*
X58274Y-54204D01*
X58390Y-54153D01*
X58495Y-53877D01*
X58495Y-54936D01*
X58009Y-54449D01*
X58153Y-54390D01*
X58204Y-54274D01*
X57750Y-53820D01*
X57744Y-53826D01*
X57673Y-53755D01*
X57679Y-53750D01*
X57225Y-53295D01*
X57109Y-53346D01*
X57053Y-53493D01*
X56193Y-52633D01*
X56238Y-52603D01*
X56353Y-52431D01*
X56361Y-52456D01*
X56496Y-52624D01*
X56685Y-52727D01*
X56714Y-52733D01*
X56800Y-52684D01*
X56800Y-52050D01*
X56792Y-52050D01*
X56792Y-51950D01*
X56800Y-51950D01*
X56800Y-51942D01*
X56900Y-51942D01*
X56900Y-51950D01*
X56907Y-51950D01*
X56907Y-52050D01*
X56900Y-52050D01*
X56900Y-52684D01*
X56985Y-52733D01*
X57014Y-52727D01*
X57203Y-52624D01*
X57338Y-52456D01*
X57346Y-52431D01*
X57461Y-52603D01*
X57639Y-52722D01*
X57850Y-52764D01*
X58060Y-52722D01*
X58238Y-52603D01*
X58358Y-52425D01*
X58400Y-52214D01*
X58400Y-51785D01*
X58358Y-51574D01*
X58238Y-51396D01*
X58060Y-51277D01*
X58054Y-51275D01*
X58132Y-51198D01*
X58364Y-51430D01*
X58389Y-51490D01*
X58508Y-51610D01*
X58665Y-51674D01*
X58834Y-51675D01*
X58990Y-51610D01*
X59110Y-51491D01*
X59174Y-51334D01*
X59175Y-51165D01*
X59110Y-51009D01*
X58991Y-50889D01*
X58930Y-50864D01*
X58615Y-50549D01*
X58615Y-50214D01*
X58578Y-50125D01*
X58794Y-50125D01*
X58976Y-50307D01*
X58958Y-50351D01*
X58957Y-50646D01*
X59070Y-50919D01*
X59279Y-51128D01*
X59551Y-51241D01*
X59846Y-51242D01*
X60119Y-51129D01*
X60328Y-50920D01*
X60441Y-50648D01*
X60442Y-50353D01*
X60329Y-50080D01*
X60120Y-49871D01*
X59848Y-49758D01*
X59553Y-49757D01*
X59507Y-49776D01*
X59215Y-49484D01*
X59093Y-49403D01*
X58950Y-49375D01*
X58899Y-49375D01*
X58991Y-49337D01*
X59003Y-49325D01*
X60250Y-49325D01*
X60374Y-49300D01*
X60374Y-49300D01*
X60479Y-49229D01*
X60914Y-48795D01*
X61107Y-48795D01*
X61308Y-48712D01*
X61461Y-48559D01*
X61545Y-48358D01*
X61545Y-48142D01*
X61462Y-47941D01*
X61316Y-47795D01*
X61340Y-47737D01*
X61340Y-47637D01*
X61340Y-46162D01*
X61340Y-46062D01*
X61302Y-45970D01*
X61231Y-45900D01*
X61140Y-45862D01*
X60612Y-45862D01*
X60550Y-45925D01*
X60550Y-46850D01*
X61278Y-46850D01*
X61340Y-46787D01*
X61340Y-46162D01*
X61340Y-47637D01*
X61340Y-47012D01*
X61278Y-46950D01*
X60550Y-46950D01*
X60550Y-47874D01*
X60576Y-47901D01*
X60538Y-47940D01*
X60500Y-48032D01*
X60462Y-47941D01*
X60422Y-47901D01*
X60450Y-47874D01*
X60450Y-46950D01*
X60450Y-46850D01*
X60450Y-45925D01*
X60387Y-45862D01*
X59859Y-45862D01*
X59768Y-45900D01*
X59697Y-45970D01*
X59659Y-46062D01*
X59659Y-46162D01*
X59659Y-46787D01*
X59721Y-46850D01*
X60450Y-46850D01*
X60450Y-46950D01*
X59721Y-46950D01*
X59659Y-47012D01*
X59659Y-47637D01*
X59659Y-47737D01*
X59683Y-47795D01*
X59677Y-47801D01*
X59660Y-47759D01*
X59541Y-47639D01*
X59384Y-47575D01*
X59215Y-47574D01*
X59100Y-47622D01*
X59100Y-47325D01*
X59062Y-47233D01*
X58991Y-47163D01*
X58899Y-47125D01*
X58800Y-47124D01*
X58797Y-47124D01*
X58797Y-46354D01*
X58788Y-46098D01*
X58708Y-45905D01*
X58603Y-45867D01*
X58532Y-45937D01*
X58532Y-45796D01*
X58494Y-45691D01*
X58254Y-45602D01*
X57998Y-45611D01*
X57805Y-45691D01*
X57767Y-45796D01*
X58150Y-46179D01*
X58532Y-45796D01*
X58532Y-45937D01*
X58220Y-46250D01*
X58603Y-46632D01*
X58708Y-46594D01*
X58797Y-46354D01*
X58797Y-47124D01*
X58712Y-47125D01*
X58650Y-47187D01*
X58650Y-47450D01*
X59037Y-47450D01*
X59100Y-47387D01*
X59100Y-47325D01*
X59100Y-47622D01*
X59100Y-47622D01*
X59100Y-47612D01*
X59037Y-47550D01*
X58650Y-47550D01*
X58650Y-47557D01*
X58550Y-47557D01*
X58550Y-47550D01*
X58550Y-47450D01*
X58550Y-47187D01*
X58532Y-47170D01*
X58532Y-46703D01*
X58150Y-46320D01*
X58079Y-46391D01*
X58079Y-46250D01*
X57696Y-45867D01*
X57591Y-45905D01*
X57502Y-46145D01*
X57511Y-46401D01*
X57591Y-46594D01*
X57696Y-46632D01*
X58079Y-46250D01*
X58079Y-46391D01*
X57767Y-46703D01*
X57805Y-46808D01*
X58045Y-46897D01*
X58301Y-46888D01*
X58494Y-46808D01*
X58532Y-46703D01*
X58532Y-47170D01*
X58487Y-47125D01*
X58399Y-47124D01*
X58300Y-47125D01*
X58208Y-47163D01*
X58137Y-47233D01*
X58099Y-47325D01*
X58100Y-47387D01*
X58162Y-47450D01*
X58550Y-47450D01*
X58550Y-47550D01*
X58162Y-47550D01*
X58100Y-47612D01*
X58099Y-47674D01*
X58131Y-47750D01*
X58100Y-47825D01*
X58099Y-47924D01*
X58099Y-48174D01*
X58131Y-48250D01*
X58100Y-48325D01*
X58099Y-48424D01*
X58099Y-48674D01*
X58100Y-48675D01*
X57884Y-48675D01*
X57325Y-48115D01*
X57325Y-47000D01*
X57324Y-46999D01*
X57325Y-46999D01*
X57320Y-46975D01*
X57300Y-46875D01*
X57300Y-46875D01*
X57229Y-46770D01*
X57229Y-46770D01*
X56479Y-46020D01*
X56374Y-45949D01*
X56317Y-45938D01*
X56295Y-45885D01*
X56114Y-45704D01*
X55878Y-45606D01*
X55622Y-45606D01*
X55385Y-45704D01*
X55204Y-45885D01*
X55106Y-46121D01*
X55106Y-46377D01*
X55204Y-46614D01*
X55385Y-46795D01*
X55621Y-46893D01*
X55877Y-46893D01*
X56114Y-46795D01*
X56225Y-46684D01*
X56665Y-47125D01*
X56600Y-47124D01*
X56100Y-47124D01*
X56008Y-47162D01*
X55996Y-47175D01*
X55050Y-47175D01*
X55050Y-46774D01*
X55049Y-46675D01*
X55011Y-46583D01*
X54941Y-46512D01*
X54910Y-46500D01*
X54941Y-46487D01*
X55011Y-46416D01*
X55049Y-46324D01*
X55050Y-46225D01*
X55050Y-45774D01*
X55049Y-45675D01*
X55011Y-45583D01*
X54941Y-45512D01*
X54849Y-45474D01*
X54737Y-45475D01*
X54675Y-45537D01*
X54675Y-45950D01*
X54987Y-45950D01*
X55050Y-45887D01*
X55050Y-45774D01*
X55050Y-46225D01*
X55050Y-46112D01*
X54987Y-46050D01*
X54675Y-46050D01*
X54675Y-46462D01*
X54712Y-46500D01*
X54675Y-46537D01*
X54675Y-46950D01*
X54987Y-46950D01*
X55050Y-46887D01*
X55050Y-46774D01*
X55050Y-47175D01*
X55050Y-47175D01*
X55050Y-47112D01*
X54987Y-47050D01*
X54675Y-47050D01*
X54675Y-47057D01*
X54575Y-47057D01*
X54575Y-47050D01*
X54567Y-47050D01*
X54567Y-46950D01*
X54575Y-46950D01*
X54575Y-46537D01*
X54537Y-46500D01*
X54575Y-46462D01*
X54575Y-46050D01*
X54567Y-46050D01*
X54567Y-45950D01*
X54575Y-45950D01*
X54575Y-45537D01*
X54512Y-45475D01*
X54400Y-45474D01*
X54308Y-45512D01*
X54249Y-45571D01*
X54191Y-45513D01*
X54099Y-45475D01*
X54000Y-45474D01*
X53650Y-45474D01*
X53558Y-45512D01*
X53488Y-45583D01*
X53460Y-45650D01*
X52880Y-45070D01*
X52880Y-43025D01*
X54675Y-43025D01*
X54675Y-43500D01*
X54699Y-43624D01*
X54770Y-43729D01*
X55520Y-44479D01*
X55520Y-44479D01*
X55625Y-44550D01*
X55625Y-44550D01*
X55725Y-44570D01*
X55749Y-44575D01*
X55749Y-44574D01*
X55750Y-44575D01*
X56027Y-44575D01*
X56027Y-44592D01*
X56027Y-44907D01*
X56065Y-44998D01*
X56135Y-45069D01*
X56227Y-45107D01*
X56327Y-45107D01*
X57272Y-45107D01*
X57363Y-45069D01*
X57434Y-44999D01*
X57472Y-44907D01*
X57472Y-44807D01*
X57472Y-44621D01*
X57558Y-44828D01*
X57721Y-44991D01*
X57934Y-45079D01*
X58164Y-45080D01*
X58378Y-44991D01*
X58541Y-44828D01*
X58629Y-44615D01*
X58630Y-44385D01*
X58541Y-44171D01*
X58378Y-44008D01*
X58165Y-43920D01*
X57935Y-43919D01*
X57721Y-44008D01*
X57558Y-44171D01*
X57472Y-44378D01*
X57472Y-44357D01*
X57472Y-44042D01*
X57454Y-44000D01*
X57472Y-43957D01*
X57472Y-43857D01*
X57472Y-43542D01*
X57434Y-43451D01*
X57408Y-43425D01*
X57434Y-43399D01*
X57472Y-43307D01*
X57472Y-43207D01*
X57472Y-42892D01*
X57472Y-42396D01*
X57472Y-41903D01*
X57434Y-41811D01*
X57364Y-41741D01*
X57272Y-41703D01*
X57172Y-41702D01*
X56862Y-41703D01*
X56800Y-41765D01*
X56800Y-42100D01*
X57410Y-42100D01*
X57472Y-42037D01*
X57472Y-41903D01*
X57472Y-42396D01*
X57472Y-42262D01*
X57410Y-42200D01*
X56800Y-42200D01*
X56800Y-42534D01*
X56862Y-42597D01*
X57172Y-42597D01*
X57272Y-42596D01*
X57364Y-42558D01*
X57434Y-42488D01*
X57472Y-42396D01*
X57472Y-42892D01*
X57434Y-42801D01*
X57364Y-42730D01*
X57272Y-42692D01*
X57172Y-42692D01*
X56700Y-42692D01*
X56700Y-42534D01*
X56700Y-42200D01*
X56700Y-42100D01*
X56700Y-41765D01*
X56637Y-41703D01*
X56327Y-41702D01*
X56227Y-41703D01*
X56135Y-41741D01*
X56065Y-41811D01*
X56027Y-41903D01*
X56027Y-42037D01*
X56090Y-42100D01*
X56700Y-42100D01*
X56700Y-42200D01*
X56090Y-42200D01*
X56027Y-42262D01*
X56027Y-42396D01*
X56065Y-42488D01*
X56135Y-42558D01*
X56227Y-42596D01*
X56327Y-42597D01*
X56637Y-42597D01*
X56700Y-42534D01*
X56700Y-42692D01*
X56227Y-42692D01*
X56209Y-42700D01*
X55925Y-42415D01*
X55925Y-41800D01*
X55924Y-41799D01*
X55925Y-41799D01*
X55920Y-41775D01*
X55900Y-41675D01*
X55900Y-41675D01*
X55829Y-41570D01*
X55829Y-41570D01*
X55529Y-41270D01*
X55525Y-41266D01*
X55525Y-41250D01*
X55525Y-40900D01*
X55487Y-40808D01*
X55416Y-40738D01*
X55324Y-40700D01*
X55225Y-40699D01*
X55087Y-40699D01*
X55018Y-40653D01*
X54875Y-40625D01*
X54173Y-40625D01*
X54070Y-40521D01*
X53862Y-40435D01*
X53638Y-40434D01*
X53430Y-40520D01*
X53271Y-40679D01*
X53250Y-40730D01*
X53229Y-40680D01*
X53070Y-40521D01*
X52862Y-40435D01*
X52638Y-40434D01*
X52430Y-40520D01*
X52271Y-40679D01*
X52252Y-40724D01*
X52243Y-40703D01*
X52146Y-40673D01*
X52076Y-40744D01*
X52076Y-40603D01*
X52046Y-40506D01*
X51835Y-40430D01*
X51610Y-40440D01*
X51453Y-40506D01*
X51423Y-40603D01*
X51750Y-40929D01*
X52076Y-40603D01*
X52076Y-40744D01*
X51820Y-41000D01*
X52146Y-41326D01*
X52243Y-41296D01*
X52251Y-41274D01*
X52270Y-41319D01*
X52429Y-41478D01*
X52480Y-41499D01*
X52430Y-41520D01*
X52271Y-41679D01*
X52250Y-41730D01*
X52229Y-41680D01*
X52070Y-41521D01*
X52025Y-41502D01*
X52046Y-41493D01*
X52076Y-41396D01*
X51750Y-41070D01*
X51679Y-41141D01*
X51679Y-41000D01*
X51353Y-40673D01*
X51256Y-40703D01*
X51180Y-40914D01*
X51190Y-41139D01*
X51256Y-41296D01*
X51353Y-41326D01*
X51679Y-41000D01*
X51679Y-41141D01*
X51423Y-41396D01*
X51453Y-41493D01*
X51475Y-41501D01*
X51430Y-41520D01*
X51271Y-41679D01*
X51185Y-41887D01*
X51184Y-42111D01*
X51270Y-42319D01*
X51429Y-42478D01*
X51487Y-42502D01*
X50970Y-43020D01*
X50899Y-43125D01*
X50875Y-43250D01*
X50875Y-46115D01*
X50625Y-46365D01*
X50625Y-41334D01*
X50734Y-41225D01*
X50784Y-41225D01*
X50940Y-41160D01*
X51060Y-41041D01*
X51124Y-40884D01*
X51125Y-40715D01*
X51060Y-40559D01*
X50941Y-40439D01*
X50784Y-40375D01*
X50615Y-40374D01*
X50459Y-40439D01*
X50375Y-40523D01*
X50341Y-40489D01*
X50184Y-40425D01*
X50015Y-40424D01*
X49859Y-40489D01*
X49739Y-40608D01*
X49675Y-40765D01*
X49674Y-40934D01*
X49725Y-41055D01*
X49725Y-41625D01*
X49565Y-41624D01*
X49409Y-41689D01*
X49374Y-41725D01*
X49234Y-41725D01*
X47975Y-40465D01*
X47975Y-40415D01*
X47910Y-40259D01*
X47791Y-40139D01*
X47634Y-40075D01*
X47465Y-40074D01*
X47309Y-40139D01*
X47189Y-40258D01*
X47125Y-40415D01*
X47124Y-40584D01*
X47189Y-40740D01*
X47308Y-40860D01*
X47465Y-40924D01*
X47515Y-40924D01*
X48870Y-42279D01*
X48870Y-42279D01*
X48975Y-42350D01*
X48975Y-42350D01*
X49075Y-42370D01*
X49099Y-42375D01*
X49099Y-42374D01*
X49100Y-42375D01*
X49373Y-42375D01*
X49408Y-42410D01*
X49565Y-42474D01*
X49725Y-42475D01*
X49725Y-43825D01*
X49565Y-43824D01*
X49409Y-43889D01*
X49400Y-43899D01*
X49341Y-43839D01*
X49184Y-43775D01*
X49015Y-43774D01*
X48859Y-43839D01*
X48739Y-43958D01*
X48675Y-44115D01*
X48675Y-44187D01*
X48649Y-44225D01*
X48625Y-44350D01*
X48625Y-44615D01*
X48315Y-44924D01*
X48265Y-44924D01*
X48188Y-44956D01*
X48188Y-44936D01*
X48150Y-44845D01*
X48080Y-44774D01*
X47988Y-44736D01*
X47888Y-44736D01*
X47855Y-44736D01*
X47855Y-43687D01*
X47977Y-43565D01*
X48841Y-43565D01*
X48932Y-43527D01*
X49003Y-43456D01*
X49041Y-43364D01*
X49041Y-43265D01*
X49041Y-42635D01*
X49003Y-42543D01*
X48933Y-42473D01*
X48841Y-42435D01*
X48741Y-42434D01*
X48048Y-42434D01*
X45625Y-40011D01*
X45625Y-36125D01*
X47800Y-36125D01*
X47950Y-36125D01*
X49644Y-36125D01*
X49765Y-36174D01*
X49934Y-36175D01*
X50090Y-36110D01*
X50210Y-35991D01*
X50274Y-35834D01*
X50275Y-35665D01*
X50210Y-35509D01*
X50200Y-35499D01*
X50200Y-33684D01*
X50200Y-33050D01*
X50192Y-33050D01*
X50192Y-32950D01*
X50200Y-32950D01*
X50200Y-32315D01*
X50114Y-32266D01*
X50085Y-32272D01*
X49896Y-32375D01*
X49761Y-32543D01*
X49753Y-32568D01*
X49726Y-32527D01*
X49726Y-28622D01*
X49718Y-28335D01*
X49623Y-28108D01*
X49510Y-28059D01*
X49440Y-28130D01*
X49440Y-27989D01*
X49400Y-27895D01*
X49400Y-27350D01*
X49400Y-27112D01*
X49337Y-27050D01*
X48800Y-27050D01*
X48800Y-27587D01*
X48862Y-27650D01*
X49199Y-27650D01*
X49291Y-27612D01*
X49361Y-27541D01*
X49399Y-27449D01*
X49400Y-27350D01*
X49400Y-27895D01*
X49391Y-27876D01*
X49122Y-27773D01*
X48835Y-27781D01*
X48608Y-27876D01*
X48559Y-27989D01*
X49000Y-28429D01*
X49440Y-27989D01*
X49440Y-28130D01*
X49070Y-28500D01*
X49510Y-28940D01*
X49623Y-28891D01*
X49726Y-28622D01*
X49726Y-32527D01*
X49638Y-32396D01*
X49460Y-32277D01*
X49250Y-32235D01*
X49039Y-32277D01*
X48861Y-32396D01*
X48741Y-32574D01*
X48700Y-32785D01*
X48700Y-33214D01*
X48741Y-33425D01*
X48861Y-33603D01*
X49039Y-33722D01*
X49250Y-33764D01*
X49460Y-33722D01*
X49638Y-33603D01*
X49753Y-33431D01*
X49761Y-33456D01*
X49896Y-33624D01*
X50085Y-33727D01*
X50114Y-33733D01*
X50200Y-33684D01*
X50200Y-35499D01*
X50091Y-35389D01*
X49934Y-35325D01*
X49765Y-35324D01*
X49644Y-35375D01*
X48375Y-35375D01*
X48375Y-32450D01*
X48346Y-32306D01*
X48265Y-32184D01*
X48105Y-32025D01*
X48349Y-32025D01*
X48441Y-31987D01*
X48511Y-31916D01*
X48549Y-31824D01*
X48550Y-31725D01*
X48550Y-31571D01*
X48590Y-31612D01*
X48855Y-31722D01*
X49143Y-31722D01*
X49408Y-31612D01*
X49612Y-31409D01*
X49722Y-31144D01*
X49722Y-30856D01*
X49612Y-30591D01*
X49440Y-30418D01*
X49440Y-29010D01*
X49000Y-28570D01*
X48929Y-28641D01*
X48929Y-28500D01*
X48489Y-28059D01*
X48376Y-28108D01*
X48299Y-28308D01*
X48300Y-28225D01*
X48300Y-28112D01*
X48237Y-28050D01*
X47925Y-28050D01*
X47925Y-28462D01*
X47987Y-28525D01*
X48099Y-28525D01*
X48191Y-28487D01*
X48261Y-28416D01*
X48273Y-28387D01*
X48281Y-28664D01*
X48376Y-28891D01*
X48489Y-28940D01*
X48929Y-28500D01*
X48929Y-28641D01*
X48559Y-29010D01*
X48608Y-29123D01*
X48877Y-29226D01*
X49164Y-29218D01*
X49391Y-29123D01*
X49440Y-29010D01*
X49440Y-30418D01*
X49409Y-30387D01*
X49144Y-30277D01*
X48856Y-30277D01*
X48591Y-30387D01*
X48387Y-30590D01*
X48277Y-30855D01*
X48277Y-30887D01*
X48190Y-30974D01*
X47900Y-30974D01*
X47808Y-31012D01*
X47749Y-31071D01*
X47691Y-31013D01*
X47599Y-30975D01*
X47500Y-30974D01*
X47416Y-30974D01*
X47474Y-30834D01*
X47475Y-30665D01*
X47410Y-30509D01*
X47291Y-30389D01*
X47134Y-30325D01*
X46965Y-30324D01*
X46937Y-30336D01*
X46937Y-29113D01*
X46928Y-28841D01*
X46841Y-28632D01*
X46732Y-28588D01*
X46320Y-29000D01*
X46732Y-29411D01*
X46841Y-29367D01*
X46937Y-29113D01*
X46937Y-30336D01*
X46834Y-30379D01*
X46732Y-30338D01*
X46661Y-30409D01*
X46661Y-30267D01*
X46661Y-29482D01*
X46250Y-29070D01*
X46179Y-29141D01*
X45838Y-29482D01*
X45882Y-29591D01*
X46136Y-29687D01*
X46408Y-29678D01*
X46617Y-29591D01*
X46661Y-29482D01*
X46661Y-30267D01*
X46617Y-30158D01*
X46363Y-30062D01*
X46091Y-30071D01*
X45882Y-30158D01*
X45838Y-30267D01*
X46250Y-30679D01*
X46661Y-30267D01*
X46661Y-30409D01*
X46320Y-30750D01*
X46326Y-30755D01*
X46255Y-30826D01*
X46250Y-30820D01*
X46244Y-30826D01*
X46173Y-30755D01*
X46179Y-30750D01*
X45855Y-30425D01*
X45829Y-30363D01*
X45661Y-30195D01*
X45661Y-29482D01*
X45250Y-29070D01*
X44838Y-29482D01*
X44882Y-29591D01*
X45136Y-29687D01*
X45408Y-29678D01*
X45617Y-29591D01*
X45661Y-29482D01*
X45661Y-30195D01*
X45637Y-30171D01*
X45455Y-30095D01*
X45179Y-29820D01*
X45074Y-29749D01*
X44950Y-29725D01*
X44334Y-29725D01*
X44376Y-29683D01*
X44385Y-29683D01*
X44636Y-29579D01*
X44828Y-29387D01*
X44854Y-29324D01*
X45179Y-29000D01*
X44855Y-28675D01*
X44829Y-28613D01*
X44637Y-28421D01*
X44405Y-28325D01*
X45084Y-28325D01*
X44882Y-28408D01*
X44838Y-28517D01*
X45250Y-28929D01*
X45255Y-28923D01*
X45326Y-28994D01*
X45320Y-29000D01*
X45637Y-29316D01*
X45658Y-29367D01*
X45708Y-29387D01*
X45732Y-29411D01*
X45750Y-29404D01*
X45767Y-29411D01*
X45791Y-29387D01*
X45841Y-29367D01*
X45859Y-29319D01*
X46179Y-29000D01*
X46173Y-28994D01*
X46244Y-28923D01*
X46250Y-28929D01*
X46661Y-28517D01*
X46655Y-28502D01*
X46691Y-28487D01*
X46750Y-28428D01*
X46808Y-28486D01*
X46900Y-28524D01*
X46999Y-28525D01*
X47349Y-28525D01*
X47441Y-28487D01*
X47500Y-28428D01*
X47558Y-28487D01*
X47650Y-28525D01*
X47762Y-28525D01*
X47825Y-28462D01*
X47825Y-28050D01*
X47817Y-28050D01*
X47817Y-27950D01*
X47825Y-27950D01*
X47825Y-27942D01*
X47925Y-27942D01*
X47925Y-27950D01*
X48237Y-27950D01*
X48300Y-27887D01*
X48300Y-27774D01*
X48299Y-27675D01*
X48287Y-27644D01*
X48300Y-27650D01*
X48637Y-27650D01*
X48700Y-27587D01*
X48700Y-27050D01*
X48692Y-27050D01*
X48692Y-26950D01*
X48700Y-26950D01*
X48700Y-26942D01*
X48800Y-26942D01*
X48800Y-26950D01*
X49337Y-26950D01*
X49400Y-26887D01*
X49400Y-26649D01*
X49399Y-26550D01*
X49361Y-26458D01*
X49291Y-26387D01*
X49199Y-26349D01*
X49039Y-26349D01*
X49049Y-26324D01*
X49050Y-26225D01*
X49050Y-26112D01*
X48987Y-26050D01*
X48675Y-26050D01*
X48675Y-26057D01*
X48575Y-26057D01*
X48575Y-26050D01*
X48567Y-26050D01*
X48567Y-25950D01*
X48575Y-25950D01*
X48575Y-25942D01*
X48675Y-25942D01*
X48675Y-25950D01*
X48987Y-25950D01*
X49050Y-25887D01*
X49050Y-25774D01*
X49049Y-25675D01*
X49039Y-25650D01*
X49199Y-25650D01*
X49291Y-25612D01*
X49361Y-25541D01*
X49399Y-25449D01*
X49400Y-25350D01*
X49400Y-24649D01*
X49399Y-24550D01*
X49361Y-24458D01*
X49291Y-24387D01*
X49199Y-24349D01*
X48862Y-24350D01*
X48800Y-24412D01*
X48800Y-24950D01*
X49337Y-24950D01*
X49400Y-24887D01*
X49400Y-24649D01*
X49400Y-25350D01*
X49400Y-25112D01*
X49337Y-25050D01*
X48800Y-25050D01*
X48800Y-25057D01*
X48700Y-25057D01*
X48700Y-25050D01*
X48692Y-25050D01*
X48692Y-24950D01*
X48700Y-24950D01*
X48700Y-24412D01*
X48637Y-24350D01*
X48300Y-24349D01*
X48208Y-24387D01*
X48138Y-24458D01*
X48135Y-24465D01*
X48118Y-24449D01*
X47879Y-24350D01*
X47621Y-24349D01*
X47382Y-24448D01*
X47249Y-24580D01*
X47118Y-24449D01*
X46879Y-24350D01*
X46621Y-24349D01*
X46382Y-24448D01*
X46249Y-24580D01*
X46118Y-24449D01*
X45879Y-24350D01*
X45621Y-24349D01*
X45382Y-24448D01*
X45199Y-24631D01*
X45100Y-24870D01*
X45099Y-25128D01*
X45117Y-25172D01*
X44915Y-25375D01*
X44400Y-25375D01*
X44400Y-25350D01*
X44400Y-24649D01*
X44399Y-24550D01*
X44361Y-24458D01*
X44291Y-24387D01*
X44199Y-24349D01*
X43862Y-24350D01*
X43800Y-24412D01*
X43800Y-24950D01*
X44337Y-24950D01*
X44400Y-24887D01*
X44400Y-24649D01*
X44400Y-25350D01*
X44400Y-25112D01*
X44337Y-25050D01*
X43800Y-25050D01*
X43800Y-25057D01*
X43700Y-25057D01*
X43700Y-25050D01*
X43692Y-25050D01*
X43692Y-24950D01*
X43700Y-24950D01*
X43700Y-24412D01*
X43637Y-24350D01*
X43300Y-24349D01*
X43208Y-24387D01*
X43138Y-24458D01*
X43135Y-24465D01*
X43118Y-24449D01*
X42879Y-24350D01*
X42621Y-24349D01*
X42382Y-24448D01*
X42249Y-24580D01*
X42118Y-24449D01*
X41879Y-24350D01*
X41621Y-24349D01*
X41382Y-24448D01*
X41249Y-24580D01*
X41118Y-24449D01*
X40879Y-24350D01*
X40621Y-24349D01*
X40382Y-24448D01*
X40199Y-24631D01*
X40100Y-24870D01*
X40099Y-25128D01*
X40198Y-25367D01*
X40355Y-25525D01*
X40215Y-25524D01*
X40075Y-25583D01*
X40075Y-24781D01*
X40112Y-24590D01*
X40204Y-24453D01*
X40339Y-24363D01*
X40533Y-24325D01*
X58250Y-24325D01*
X58468Y-24325D01*
X58659Y-24362D01*
X58796Y-24454D01*
X58886Y-24589D01*
X58925Y-24783D01*
X58925Y-28000D01*
X58929Y-28025D01*
X58875Y-28025D01*
X58875Y-27200D01*
X58874Y-27199D01*
X58846Y-27056D01*
X58765Y-26934D01*
X58765Y-26934D01*
X58487Y-26657D01*
X58491Y-26648D01*
X58492Y-26353D01*
X58379Y-26080D01*
X58170Y-25871D01*
X57898Y-25758D01*
X57603Y-25757D01*
X57330Y-25870D01*
X57121Y-26079D01*
X57008Y-26351D01*
X57007Y-26646D01*
X57118Y-26913D01*
X57103Y-26913D01*
X56924Y-26987D01*
X56788Y-27124D01*
X56781Y-27140D01*
X56739Y-27131D01*
X56668Y-27201D01*
X56668Y-27060D01*
X56649Y-26971D01*
X56492Y-26917D01*
X56492Y-26057D01*
X56491Y-25958D01*
X56453Y-25866D01*
X56383Y-25795D01*
X56291Y-25757D01*
X55862Y-25758D01*
X55800Y-25820D01*
X55800Y-26450D01*
X56429Y-26450D01*
X56492Y-26387D01*
X56492Y-26057D01*
X56492Y-26917D01*
X56492Y-26917D01*
X56492Y-26612D01*
X56429Y-26550D01*
X55800Y-26550D01*
X55800Y-27179D01*
X55862Y-27242D01*
X55940Y-27242D01*
X55908Y-27333D01*
X55920Y-27526D01*
X55971Y-27649D01*
X56060Y-27668D01*
X56329Y-27400D01*
X56323Y-27394D01*
X56394Y-27323D01*
X56400Y-27329D01*
X56668Y-27060D01*
X56668Y-27201D01*
X56470Y-27400D01*
X56739Y-27668D01*
X56781Y-27659D01*
X56787Y-27675D01*
X56924Y-27811D01*
X57102Y-27886D01*
X57296Y-27886D01*
X57475Y-27812D01*
X57611Y-27675D01*
X57686Y-27497D01*
X57686Y-27303D01*
X57660Y-27241D01*
X57896Y-27242D01*
X57978Y-27208D01*
X58125Y-27355D01*
X58125Y-28400D01*
X58125Y-28899D01*
X57950Y-28899D01*
X57858Y-28937D01*
X57788Y-29008D01*
X57750Y-29100D01*
X57749Y-29199D01*
X57749Y-29699D01*
X57787Y-29791D01*
X57858Y-29861D01*
X57950Y-29899D01*
X58049Y-29900D01*
X58990Y-29900D01*
X58790Y-30099D01*
X57950Y-30099D01*
X57858Y-30137D01*
X57788Y-30208D01*
X57750Y-30300D01*
X57749Y-30399D01*
X57749Y-30890D01*
X57338Y-30479D01*
X57318Y-30465D01*
X57315Y-30451D01*
X57315Y-30448D01*
X57315Y-30147D01*
X57277Y-30055D01*
X57221Y-30000D01*
X57277Y-29944D01*
X57315Y-29852D01*
X57315Y-28729D01*
X57277Y-28637D01*
X57206Y-28567D01*
X57114Y-28529D01*
X57015Y-28528D01*
X56862Y-28529D01*
X56800Y-28591D01*
X56800Y-29241D01*
X57252Y-29241D01*
X57315Y-29178D01*
X57315Y-28729D01*
X57315Y-29852D01*
X57315Y-29403D01*
X57252Y-29341D01*
X56800Y-29341D01*
X56800Y-29348D01*
X56700Y-29348D01*
X56700Y-29341D01*
X56700Y-29241D01*
X56700Y-28591D01*
X56668Y-28560D01*
X56668Y-27739D01*
X56400Y-27470D01*
X56131Y-27739D01*
X56150Y-27828D01*
X56333Y-27891D01*
X56526Y-27879D01*
X56649Y-27828D01*
X56668Y-27739D01*
X56668Y-28560D01*
X56637Y-28529D01*
X56484Y-28528D01*
X56385Y-28529D01*
X56293Y-28567D01*
X56222Y-28637D01*
X56184Y-28729D01*
X56185Y-29178D01*
X56247Y-29241D01*
X56700Y-29241D01*
X56700Y-29341D01*
X56247Y-29341D01*
X56185Y-29403D01*
X56184Y-29852D01*
X56222Y-29944D01*
X56278Y-30000D01*
X56223Y-30055D01*
X56185Y-30147D01*
X56184Y-30246D01*
X56184Y-30384D01*
X55700Y-30384D01*
X55700Y-27179D01*
X55700Y-26550D01*
X55700Y-26450D01*
X55700Y-25820D01*
X55637Y-25758D01*
X55208Y-25757D01*
X55116Y-25795D01*
X55046Y-25866D01*
X55008Y-25958D01*
X55007Y-26057D01*
X55008Y-26387D01*
X55070Y-26450D01*
X55700Y-26450D01*
X55700Y-26550D01*
X55070Y-26550D01*
X55008Y-26612D01*
X55007Y-26942D01*
X55008Y-27041D01*
X55046Y-27133D01*
X55116Y-27204D01*
X55208Y-27242D01*
X55637Y-27242D01*
X55700Y-27179D01*
X55700Y-30384D01*
X55315Y-30384D01*
X55315Y-30147D01*
X55277Y-30055D01*
X55221Y-30000D01*
X55277Y-29944D01*
X55315Y-29852D01*
X55315Y-28729D01*
X55277Y-28637D01*
X55206Y-28567D01*
X55114Y-28529D01*
X55015Y-28528D01*
X54862Y-28529D01*
X54800Y-28591D01*
X54800Y-29241D01*
X55252Y-29241D01*
X55315Y-29178D01*
X55315Y-28729D01*
X55315Y-29852D01*
X55315Y-29403D01*
X55252Y-29341D01*
X54800Y-29341D01*
X54800Y-29348D01*
X54700Y-29348D01*
X54700Y-29341D01*
X54700Y-29241D01*
X54700Y-28591D01*
X54637Y-28529D01*
X54484Y-28528D01*
X54385Y-28529D01*
X54293Y-28567D01*
X54222Y-28637D01*
X54184Y-28729D01*
X54185Y-29178D01*
X54247Y-29241D01*
X54700Y-29241D01*
X54700Y-29341D01*
X54247Y-29341D01*
X54185Y-29403D01*
X54184Y-29852D01*
X54222Y-29944D01*
X54278Y-30000D01*
X54223Y-30055D01*
X54185Y-30147D01*
X54184Y-30246D01*
X54184Y-30384D01*
X54093Y-30384D01*
X53912Y-30203D01*
X53807Y-30132D01*
X53782Y-30127D01*
X53782Y-29714D01*
X53782Y-29419D01*
X53782Y-29320D01*
X53744Y-29228D01*
X53673Y-29157D01*
X53582Y-29119D01*
X53487Y-29120D01*
X53425Y-29182D01*
X53425Y-29517D01*
X53720Y-29517D01*
X53782Y-29454D01*
X53782Y-29419D01*
X53782Y-29714D01*
X53782Y-29679D01*
X53720Y-29617D01*
X53425Y-29617D01*
X53425Y-29951D01*
X53487Y-30014D01*
X53582Y-30014D01*
X53673Y-29976D01*
X53744Y-29905D01*
X53782Y-29813D01*
X53782Y-29714D01*
X53782Y-30127D01*
X53683Y-30108D01*
X53375Y-30108D01*
X53369Y-30094D01*
X53325Y-30049D01*
X53325Y-29951D01*
X53325Y-29617D01*
X53325Y-29517D01*
X53325Y-29182D01*
X53325Y-29000D01*
X53325Y-28134D01*
X53479Y-27979D01*
X53479Y-27979D01*
X53479Y-27979D01*
X53550Y-27874D01*
X53550Y-27874D01*
X53575Y-27750D01*
X53575Y-27168D01*
X53669Y-27129D01*
X53878Y-26920D01*
X53991Y-26648D01*
X53992Y-26353D01*
X53879Y-26080D01*
X53670Y-25871D01*
X53398Y-25758D01*
X53103Y-25757D01*
X52830Y-25870D01*
X52621Y-26079D01*
X52508Y-26351D01*
X52507Y-26646D01*
X52618Y-26913D01*
X52603Y-26913D01*
X52424Y-26987D01*
X52288Y-27124D01*
X52281Y-27140D01*
X52239Y-27131D01*
X52168Y-27201D01*
X52168Y-27060D01*
X52149Y-26971D01*
X51992Y-26917D01*
X51992Y-26057D01*
X51991Y-25958D01*
X51953Y-25866D01*
X51883Y-25795D01*
X51791Y-25757D01*
X51362Y-25758D01*
X51300Y-25820D01*
X51300Y-26450D01*
X51929Y-26450D01*
X51992Y-26387D01*
X51992Y-26057D01*
X51992Y-26917D01*
X51992Y-26917D01*
X51992Y-26612D01*
X51929Y-26550D01*
X51300Y-26550D01*
X51300Y-27179D01*
X51362Y-27242D01*
X51440Y-27242D01*
X51408Y-27333D01*
X51420Y-27526D01*
X51471Y-27649D01*
X51560Y-27668D01*
X51829Y-27400D01*
X51823Y-27394D01*
X51894Y-27323D01*
X51900Y-27329D01*
X52168Y-27060D01*
X52168Y-27201D01*
X51970Y-27400D01*
X52239Y-27668D01*
X52281Y-27659D01*
X52287Y-27675D01*
X52424Y-27811D01*
X52602Y-27886D01*
X52697Y-27886D01*
X52675Y-28000D01*
X52675Y-28415D01*
X52625Y-28365D01*
X52625Y-28315D01*
X52560Y-28159D01*
X52441Y-28039D01*
X52284Y-27975D01*
X52168Y-27974D01*
X52168Y-27739D01*
X51900Y-27470D01*
X51631Y-27739D01*
X51650Y-27828D01*
X51833Y-27891D01*
X52026Y-27879D01*
X52149Y-27828D01*
X52168Y-27739D01*
X52168Y-27974D01*
X52115Y-27974D01*
X51959Y-28039D01*
X51839Y-28158D01*
X51775Y-28315D01*
X51774Y-28484D01*
X51839Y-28640D01*
X51958Y-28760D01*
X52115Y-28824D01*
X52165Y-28824D01*
X52300Y-28959D01*
X52300Y-29183D01*
X52255Y-29228D01*
X52217Y-29320D01*
X52217Y-29419D01*
X52217Y-29514D01*
X51726Y-30005D01*
X51721Y-30000D01*
X51777Y-29944D01*
X51815Y-29852D01*
X51815Y-28729D01*
X51777Y-28637D01*
X51706Y-28567D01*
X51614Y-28529D01*
X51515Y-28528D01*
X51362Y-28529D01*
X51300Y-28591D01*
X51300Y-29241D01*
X51752Y-29241D01*
X51815Y-29178D01*
X51815Y-28729D01*
X51815Y-29852D01*
X51815Y-29403D01*
X51752Y-29341D01*
X51300Y-29341D01*
X51300Y-29348D01*
X51200Y-29348D01*
X51200Y-29341D01*
X51200Y-29241D01*
X51200Y-28591D01*
X51200Y-27179D01*
X51200Y-26550D01*
X51200Y-26450D01*
X51200Y-25820D01*
X51137Y-25758D01*
X50708Y-25757D01*
X50616Y-25795D01*
X50546Y-25866D01*
X50508Y-25958D01*
X50507Y-26057D01*
X50508Y-26387D01*
X50570Y-26450D01*
X51200Y-26450D01*
X51200Y-26550D01*
X50570Y-26550D01*
X50508Y-26612D01*
X50507Y-26942D01*
X50508Y-27041D01*
X50546Y-27133D01*
X50616Y-27204D01*
X50708Y-27242D01*
X51137Y-27242D01*
X51200Y-27179D01*
X51200Y-28591D01*
X51137Y-28529D01*
X50984Y-28528D01*
X50885Y-28529D01*
X50793Y-28567D01*
X50722Y-28637D01*
X50684Y-28729D01*
X50685Y-29178D01*
X50747Y-29241D01*
X51200Y-29241D01*
X51200Y-29341D01*
X50747Y-29341D01*
X50685Y-29403D01*
X50684Y-29852D01*
X50722Y-29944D01*
X50778Y-30000D01*
X50723Y-30055D01*
X50685Y-30147D01*
X50684Y-30246D01*
X50684Y-31270D01*
X50722Y-31362D01*
X50793Y-31432D01*
X50885Y-31470D01*
X50984Y-31471D01*
X51425Y-31471D01*
X51425Y-32278D01*
X51414Y-32272D01*
X51385Y-32266D01*
X51300Y-32315D01*
X51300Y-32950D01*
X51307Y-32950D01*
X51307Y-33050D01*
X51300Y-33050D01*
X51300Y-33684D01*
X51385Y-33733D01*
X51414Y-33727D01*
X51425Y-33721D01*
X51425Y-33879D01*
X51325Y-33899D01*
X51220Y-33970D01*
X51220Y-33970D01*
X51200Y-33990D01*
X51200Y-33684D01*
X51200Y-33050D01*
X51200Y-32950D01*
X51200Y-32315D01*
X51114Y-32266D01*
X51085Y-32272D01*
X50896Y-32375D01*
X50761Y-32543D01*
X50750Y-32580D01*
X50738Y-32543D01*
X50603Y-32375D01*
X50414Y-32272D01*
X50385Y-32266D01*
X50300Y-32315D01*
X50300Y-32950D01*
X50700Y-32950D01*
X50800Y-32950D01*
X51200Y-32950D01*
X51200Y-33050D01*
X50800Y-33050D01*
X50700Y-33050D01*
X50300Y-33050D01*
X50300Y-33684D01*
X50385Y-33733D01*
X50414Y-33727D01*
X50603Y-33624D01*
X50738Y-33456D01*
X50750Y-33419D01*
X50761Y-33456D01*
X50896Y-33624D01*
X51085Y-33727D01*
X51114Y-33733D01*
X51200Y-33684D01*
X51200Y-33990D01*
X51020Y-34170D01*
X50949Y-34275D01*
X50925Y-34400D01*
X50925Y-34875D01*
X50765Y-34874D01*
X50609Y-34939D01*
X50489Y-35058D01*
X50425Y-35215D01*
X50424Y-35384D01*
X50475Y-35505D01*
X50475Y-37400D01*
X50503Y-37543D01*
X50584Y-37665D01*
X51834Y-38915D01*
X51956Y-38996D01*
X52100Y-39025D01*
X53144Y-39025D01*
X53389Y-39270D01*
X53439Y-39390D01*
X53558Y-39510D01*
X53715Y-39574D01*
X53884Y-39575D01*
X54040Y-39510D01*
X54160Y-39391D01*
X54224Y-39234D01*
X54225Y-39065D01*
X54160Y-38909D01*
X54041Y-38789D01*
X53919Y-38739D01*
X53565Y-38384D01*
X53443Y-38303D01*
X53300Y-38275D01*
X52255Y-38275D01*
X52205Y-38225D01*
X54665Y-38225D01*
X54975Y-38534D01*
X54975Y-39550D01*
X54999Y-39674D01*
X55070Y-39779D01*
X55820Y-40529D01*
X55820Y-40529D01*
X55925Y-40600D01*
X55925Y-40600D01*
X56025Y-40620D01*
X56049Y-40625D01*
X56049Y-40624D01*
X56050Y-40625D01*
X56059Y-40625D01*
X56065Y-40638D01*
X56135Y-40708D01*
X56174Y-40724D01*
X56136Y-40740D01*
X56065Y-40811D01*
X56027Y-40903D01*
X56027Y-41002D01*
X56027Y-41396D01*
X56065Y-41488D01*
X56135Y-41558D01*
X56227Y-41596D01*
X56327Y-41597D01*
X57272Y-41597D01*
X57363Y-41559D01*
X57434Y-41488D01*
X57472Y-41396D01*
X57472Y-41384D01*
X57479Y-41379D01*
X57929Y-40929D01*
X58000Y-40824D01*
X58000Y-40824D01*
X58025Y-40700D01*
X58025Y-40050D01*
X58000Y-39925D01*
X58000Y-39925D01*
X57929Y-39820D01*
X57929Y-39820D01*
X57679Y-39570D01*
X57574Y-39499D01*
X57472Y-39479D01*
X57472Y-39053D01*
X57434Y-38961D01*
X57364Y-38891D01*
X57272Y-38853D01*
X57172Y-38852D01*
X56862Y-38853D01*
X56800Y-38915D01*
X56800Y-39250D01*
X57410Y-39250D01*
X57472Y-39187D01*
X57472Y-39053D01*
X57472Y-39479D01*
X57472Y-39479D01*
X57472Y-39412D01*
X57410Y-39350D01*
X56800Y-39350D01*
X56800Y-39357D01*
X56700Y-39357D01*
X56700Y-39350D01*
X56692Y-39350D01*
X56692Y-39250D01*
X56700Y-39250D01*
X56700Y-38915D01*
X56637Y-38853D01*
X56327Y-38852D01*
X56227Y-38853D01*
X56135Y-38891D01*
X56065Y-38961D01*
X56027Y-39053D01*
X56027Y-39187D01*
X56089Y-39249D01*
X56027Y-39249D01*
X56027Y-39267D01*
X55975Y-39215D01*
X55975Y-38134D01*
X56027Y-38187D01*
X56027Y-38546D01*
X56065Y-38638D01*
X56135Y-38708D01*
X56227Y-38746D01*
X56327Y-38747D01*
X57272Y-38747D01*
X57363Y-38709D01*
X57434Y-38638D01*
X57472Y-38546D01*
X57472Y-38447D01*
X57472Y-38053D01*
X57434Y-37961D01*
X57364Y-37891D01*
X57272Y-37853D01*
X57172Y-37852D01*
X56612Y-37852D01*
X56506Y-37747D01*
X57272Y-37747D01*
X57363Y-37709D01*
X57434Y-37638D01*
X57440Y-37625D01*
X58200Y-37625D01*
X58324Y-37600D01*
X58324Y-37600D01*
X58429Y-37529D01*
X59229Y-36729D01*
X59229Y-36729D01*
X59229Y-36729D01*
X59300Y-36624D01*
X59300Y-36624D01*
X59320Y-36524D01*
X59325Y-36500D01*
X59324Y-36500D01*
X59325Y-36500D01*
X59325Y-35750D01*
X59300Y-35625D01*
X59300Y-35625D01*
X59272Y-35583D01*
X59229Y-35520D01*
X59229Y-35520D01*
X58729Y-35020D01*
X58624Y-34949D01*
X58500Y-34925D01*
X55600Y-34925D01*
X55600Y-34475D01*
X55574Y-34414D01*
X55937Y-34565D01*
X56560Y-34565D01*
X57135Y-34327D01*
X57576Y-33887D01*
X57815Y-33312D01*
X57815Y-32689D01*
X57577Y-32114D01*
X57137Y-31673D01*
X56650Y-31471D01*
X57114Y-31471D01*
X57206Y-31433D01*
X57276Y-31362D01*
X57284Y-31344D01*
X58120Y-32179D01*
X58225Y-32250D01*
X58225Y-32250D01*
X58350Y-32275D01*
X60900Y-32275D01*
X61024Y-32250D01*
X61024Y-32250D01*
X61129Y-32179D01*
X61354Y-31954D01*
X61425Y-31849D01*
X61425Y-31849D01*
X61449Y-31729D01*
X61500Y-31678D01*
X61558Y-31736D01*
X61650Y-31774D01*
X61749Y-31775D01*
X62099Y-31775D01*
X62191Y-31737D01*
X62261Y-31666D01*
X62299Y-31574D01*
X62300Y-31478D01*
X62333Y-31511D01*
X62425Y-31549D01*
X62524Y-31550D01*
X63074Y-31550D01*
X63166Y-31512D01*
X63236Y-31441D01*
X63274Y-31349D01*
X63275Y-31250D01*
X63275Y-31075D01*
X63684Y-31075D01*
X63684Y-31270D01*
X63722Y-31362D01*
X63793Y-31432D01*
X63885Y-31470D01*
X63984Y-31471D01*
X64614Y-31471D01*
X64706Y-31433D01*
X64776Y-31362D01*
X64814Y-31270D01*
X64815Y-31171D01*
X64815Y-30147D01*
X64777Y-30055D01*
X64721Y-30000D01*
X64777Y-29944D01*
X64815Y-29852D01*
X64815Y-29403D01*
X64752Y-29341D01*
X64300Y-29341D01*
X64300Y-29348D01*
X64200Y-29348D01*
X64200Y-29341D01*
X63747Y-29341D01*
X63685Y-29403D01*
X63684Y-29852D01*
X63722Y-29944D01*
X63778Y-30000D01*
X63723Y-30055D01*
X63685Y-30147D01*
X63684Y-30246D01*
X63684Y-30425D01*
X63212Y-30425D01*
X62800Y-30425D01*
X62700Y-30425D01*
X62692Y-30425D01*
X62692Y-30325D01*
X62700Y-30325D01*
X62700Y-30317D01*
X62800Y-30317D01*
X62800Y-30325D01*
X63212Y-30325D01*
X63275Y-30262D01*
X63275Y-30150D01*
X63237Y-30058D01*
X63178Y-29999D01*
X63236Y-29941D01*
X63274Y-29849D01*
X63275Y-29750D01*
X63275Y-29400D01*
X63237Y-29308D01*
X63178Y-29250D01*
X63237Y-29191D01*
X63275Y-29099D01*
X63275Y-28987D01*
X63212Y-28925D01*
X62800Y-28925D01*
X62800Y-28932D01*
X62700Y-28932D01*
X62700Y-28925D01*
X62287Y-28925D01*
X62269Y-28943D01*
X62264Y-28939D01*
X62140Y-28915D01*
X62090Y-28915D01*
X62125Y-28880D01*
X62125Y-28850D01*
X62093Y-28775D01*
X62237Y-28775D01*
X62287Y-28825D01*
X62700Y-28825D01*
X62700Y-28817D01*
X62800Y-28817D01*
X62800Y-28825D01*
X63212Y-28825D01*
X63262Y-28775D01*
X63684Y-28775D01*
X63685Y-29178D01*
X63747Y-29241D01*
X64200Y-29241D01*
X64200Y-29233D01*
X64300Y-29233D01*
X64300Y-29241D01*
X64752Y-29241D01*
X64815Y-29178D01*
X64815Y-28775D01*
X66077Y-28775D01*
X66184Y-28882D01*
X66184Y-29675D01*
X66222Y-29766D01*
X66293Y-29837D01*
X66385Y-29875D01*
X66484Y-29875D01*
X67114Y-29875D01*
X67206Y-29837D01*
X67276Y-29767D01*
X67314Y-29675D01*
X67315Y-29575D01*
X67315Y-28325D01*
X68468Y-28325D01*
X68659Y-28362D01*
X68796Y-28454D01*
X68886Y-28589D01*
X68925Y-28783D01*
X68925Y-54716D01*
M02*
