G04 (created by PCBNEW (2013-07-07 BZR 4022)-stable) date 29/12/2014 16:41:19*
%MOIN*%
G04 Gerber Fmt 3.4, Leading zero omitted, Abs format*
%FSLAX34Y34*%
G01*
G70*
G90*
G04 APERTURE LIST*
%ADD10C,0.00590551*%
%ADD11R,0.055X0.035*%
%ADD12C,0.0984252*%
%ADD13R,0.0827X0.0827*%
%ADD14C,0.0866*%
%ADD15R,0.05X0.025*%
%ADD16R,0.08X0.08*%
%ADD17C,0.08*%
%ADD18R,0.1024X0.063*%
G04 APERTURE END LIST*
G54D10*
G54D11*
X47750Y-24625D03*
X47750Y-25375D03*
G54D12*
X49000Y-26500D03*
G54D13*
X42750Y-23000D03*
G54D14*
X42750Y-24000D03*
X42750Y-25000D03*
X42750Y-26000D03*
X42750Y-27000D03*
G54D11*
X47750Y-23125D03*
X47750Y-23875D03*
X47750Y-26125D03*
X47750Y-26875D03*
G54D15*
X44400Y-25500D03*
X44400Y-26000D03*
X44400Y-26500D03*
X44400Y-27000D03*
X46600Y-27000D03*
X46600Y-26500D03*
X46600Y-26000D03*
X46600Y-25500D03*
G54D16*
X49000Y-24000D03*
G54D17*
X49000Y-25000D03*
G54D18*
X46209Y-23750D03*
X44791Y-23750D03*
X56209Y-23750D03*
X54791Y-23750D03*
G54D16*
X59000Y-24000D03*
G54D17*
X59000Y-25000D03*
G54D15*
X54400Y-25500D03*
X54400Y-26000D03*
X54400Y-26500D03*
X54400Y-27000D03*
X56600Y-27000D03*
X56600Y-26500D03*
X56600Y-26000D03*
X56600Y-25500D03*
G54D11*
X57750Y-26125D03*
X57750Y-26875D03*
X57750Y-23125D03*
X57750Y-23875D03*
G54D13*
X52750Y-23000D03*
G54D14*
X52750Y-24000D03*
X52750Y-25000D03*
X52750Y-26000D03*
X52750Y-27000D03*
G54D12*
X59000Y-26500D03*
G54D11*
X57750Y-24625D03*
X57750Y-25375D03*
X57750Y-16625D03*
X57750Y-17375D03*
G54D12*
X59000Y-18500D03*
G54D13*
X52750Y-15000D03*
G54D14*
X52750Y-16000D03*
X52750Y-17000D03*
X52750Y-18000D03*
X52750Y-19000D03*
G54D11*
X57750Y-15125D03*
X57750Y-15875D03*
X57750Y-18125D03*
X57750Y-18875D03*
G54D15*
X54400Y-17500D03*
X54400Y-18000D03*
X54400Y-18500D03*
X54400Y-19000D03*
X56600Y-19000D03*
X56600Y-18500D03*
X56600Y-18000D03*
X56600Y-17500D03*
G54D16*
X59000Y-16000D03*
G54D17*
X59000Y-17000D03*
G54D18*
X56209Y-15750D03*
X54791Y-15750D03*
X46209Y-15750D03*
X44791Y-15750D03*
G54D16*
X49000Y-16000D03*
G54D17*
X49000Y-17000D03*
G54D15*
X44400Y-17500D03*
X44400Y-18000D03*
X44400Y-18500D03*
X44400Y-19000D03*
X46600Y-19000D03*
X46600Y-18500D03*
X46600Y-18000D03*
X46600Y-17500D03*
G54D11*
X47750Y-18125D03*
X47750Y-18875D03*
X47750Y-15125D03*
X47750Y-15875D03*
G54D13*
X42750Y-15000D03*
G54D14*
X42750Y-16000D03*
X42750Y-17000D03*
X42750Y-18000D03*
X42750Y-19000D03*
G54D12*
X49000Y-18500D03*
G54D11*
X47750Y-16625D03*
X47750Y-17375D03*
M02*
