G04 (created by PCBNEW (2013-07-07 BZR 4022)-stable) date 29/12/2014 16:41:19*
%MOIN*%
G04 Gerber Fmt 3.4, Leading zero omitted, Abs format*
%FSLAX34Y34*%
G01*
G70*
G90*
G04 APERTURE LIST*
%ADD10C,0.00590551*%
%ADD11R,0.055X0.035*%
%ADD12C,0.0984252*%
%ADD13R,0.0827X0.0827*%
%ADD14C,0.0866*%
%ADD15R,0.05X0.025*%
%ADD16R,0.08X0.08*%
%ADD17C,0.08*%
%ADD18R,0.1024X0.063*%
%ADD19C,0.035*%
%ADD20C,0.02*%
%ADD21C,0.01*%
%ADD22C,0.015*%
G04 APERTURE END LIST*
G54D10*
G54D11*
X47750Y-24625D03*
X47750Y-25375D03*
G54D12*
X49000Y-26500D03*
G54D13*
X42750Y-23000D03*
G54D14*
X42750Y-24000D03*
X42750Y-25000D03*
X42750Y-26000D03*
X42750Y-27000D03*
G54D11*
X47750Y-23125D03*
X47750Y-23875D03*
X47750Y-26125D03*
X47750Y-26875D03*
G54D15*
X44400Y-25500D03*
X44400Y-26000D03*
X44400Y-26500D03*
X44400Y-27000D03*
X46600Y-27000D03*
X46600Y-26500D03*
X46600Y-26000D03*
X46600Y-25500D03*
G54D16*
X49000Y-24000D03*
G54D17*
X49000Y-25000D03*
G54D18*
X46209Y-23750D03*
X44791Y-23750D03*
X56209Y-23750D03*
X54791Y-23750D03*
G54D16*
X59000Y-24000D03*
G54D17*
X59000Y-25000D03*
G54D15*
X54400Y-25500D03*
X54400Y-26000D03*
X54400Y-26500D03*
X54400Y-27000D03*
X56600Y-27000D03*
X56600Y-26500D03*
X56600Y-26000D03*
X56600Y-25500D03*
G54D11*
X57750Y-26125D03*
X57750Y-26875D03*
X57750Y-23125D03*
X57750Y-23875D03*
G54D13*
X52750Y-23000D03*
G54D14*
X52750Y-24000D03*
X52750Y-25000D03*
X52750Y-26000D03*
X52750Y-27000D03*
G54D12*
X59000Y-26500D03*
G54D11*
X57750Y-24625D03*
X57750Y-25375D03*
X57750Y-16625D03*
X57750Y-17375D03*
G54D12*
X59000Y-18500D03*
G54D13*
X52750Y-15000D03*
G54D14*
X52750Y-16000D03*
X52750Y-17000D03*
X52750Y-18000D03*
X52750Y-19000D03*
G54D11*
X57750Y-15125D03*
X57750Y-15875D03*
X57750Y-18125D03*
X57750Y-18875D03*
G54D15*
X54400Y-17500D03*
X54400Y-18000D03*
X54400Y-18500D03*
X54400Y-19000D03*
X56600Y-19000D03*
X56600Y-18500D03*
X56600Y-18000D03*
X56600Y-17500D03*
G54D16*
X59000Y-16000D03*
G54D17*
X59000Y-17000D03*
G54D18*
X56209Y-15750D03*
X54791Y-15750D03*
X46209Y-15750D03*
X44791Y-15750D03*
G54D16*
X49000Y-16000D03*
G54D17*
X49000Y-17000D03*
G54D15*
X44400Y-17500D03*
X44400Y-18000D03*
X44400Y-18500D03*
X44400Y-19000D03*
X46600Y-19000D03*
X46600Y-18500D03*
X46600Y-18000D03*
X46600Y-17500D03*
G54D11*
X47750Y-18125D03*
X47750Y-18875D03*
X47750Y-15125D03*
X47750Y-15875D03*
G54D13*
X42750Y-15000D03*
G54D14*
X42750Y-16000D03*
X42750Y-17000D03*
X42750Y-18000D03*
X42750Y-19000D03*
G54D12*
X49000Y-18500D03*
G54D11*
X47750Y-16625D03*
X47750Y-17375D03*
G54D19*
X45950Y-26950D03*
X46000Y-25000D03*
X56000Y-25000D03*
X55950Y-26950D03*
X55950Y-18950D03*
X56000Y-17000D03*
X46000Y-17000D03*
X45950Y-18950D03*
X43850Y-25500D03*
X53850Y-25500D03*
X53850Y-17500D03*
X43850Y-17500D03*
G54D20*
X46209Y-23750D02*
X46366Y-23750D01*
X46366Y-23750D02*
X46600Y-23984D01*
X46600Y-23984D02*
X46209Y-23750D01*
X46209Y-23750D02*
X46500Y-23750D01*
X46366Y-23750D02*
X46500Y-23750D01*
X46600Y-25500D02*
X46600Y-23984D01*
X46600Y-23984D02*
X46366Y-23750D01*
G54D21*
X46600Y-25500D02*
X46600Y-25000D01*
X46600Y-25000D02*
X46600Y-23984D01*
X46600Y-23984D02*
X46366Y-23750D01*
G54D22*
X42750Y-27000D02*
X44400Y-27000D01*
X45900Y-27000D02*
X45950Y-26950D01*
X46000Y-25000D02*
X46600Y-25000D01*
X44400Y-27000D02*
X45900Y-27000D01*
X46250Y-23750D02*
X46875Y-23125D01*
X46875Y-23125D02*
X47750Y-23125D01*
X46209Y-23750D02*
X46250Y-23750D01*
X56209Y-23750D02*
X56250Y-23750D01*
X56875Y-23125D02*
X57750Y-23125D01*
X56250Y-23750D02*
X56875Y-23125D01*
X54400Y-27000D02*
X55900Y-27000D01*
X56000Y-25000D02*
X56600Y-25000D01*
X55900Y-27000D02*
X55950Y-26950D01*
X52750Y-27000D02*
X54400Y-27000D01*
G54D21*
X56600Y-23984D02*
X56366Y-23750D01*
X56600Y-25000D02*
X56600Y-23984D01*
X56600Y-25500D02*
X56600Y-25000D01*
G54D20*
X56600Y-23984D02*
X56366Y-23750D01*
X56600Y-25500D02*
X56600Y-23984D01*
X56366Y-23750D02*
X56500Y-23750D01*
X56209Y-23750D02*
X56500Y-23750D01*
X56600Y-23984D02*
X56209Y-23750D01*
X56366Y-23750D02*
X56600Y-23984D01*
X56209Y-23750D02*
X56366Y-23750D01*
X56209Y-15750D02*
X56366Y-15750D01*
X56366Y-15750D02*
X56600Y-15984D01*
X56600Y-15984D02*
X56209Y-15750D01*
X56209Y-15750D02*
X56500Y-15750D01*
X56366Y-15750D02*
X56500Y-15750D01*
X56600Y-17500D02*
X56600Y-15984D01*
X56600Y-15984D02*
X56366Y-15750D01*
G54D21*
X56600Y-17500D02*
X56600Y-17000D01*
X56600Y-17000D02*
X56600Y-15984D01*
X56600Y-15984D02*
X56366Y-15750D01*
G54D22*
X52750Y-19000D02*
X54400Y-19000D01*
X55900Y-19000D02*
X55950Y-18950D01*
X56000Y-17000D02*
X56600Y-17000D01*
X54400Y-19000D02*
X55900Y-19000D01*
X56250Y-15750D02*
X56875Y-15125D01*
X56875Y-15125D02*
X57750Y-15125D01*
X56209Y-15750D02*
X56250Y-15750D01*
X46209Y-15750D02*
X46250Y-15750D01*
X46875Y-15125D02*
X47750Y-15125D01*
X46250Y-15750D02*
X46875Y-15125D01*
X44400Y-19000D02*
X45900Y-19000D01*
X46000Y-17000D02*
X46600Y-17000D01*
X45900Y-19000D02*
X45950Y-18950D01*
X42750Y-19000D02*
X44400Y-19000D01*
G54D21*
X46600Y-15984D02*
X46366Y-15750D01*
X46600Y-17000D02*
X46600Y-15984D01*
X46600Y-17500D02*
X46600Y-17000D01*
G54D20*
X46600Y-15984D02*
X46366Y-15750D01*
X46600Y-17500D02*
X46600Y-15984D01*
X46366Y-15750D02*
X46500Y-15750D01*
X46209Y-15750D02*
X46500Y-15750D01*
X46600Y-15984D02*
X46209Y-15750D01*
X46366Y-15750D02*
X46600Y-15984D01*
X46209Y-15750D02*
X46366Y-15750D01*
X44791Y-23750D02*
X44634Y-23750D01*
X44634Y-23750D02*
X44400Y-23984D01*
X44400Y-23984D02*
X44791Y-23750D01*
X44400Y-25500D02*
X44400Y-23984D01*
X44400Y-23984D02*
X44634Y-23750D01*
G54D21*
X44400Y-23984D02*
X44634Y-23750D01*
G54D20*
X48625Y-26875D02*
X49000Y-26500D01*
X47750Y-26875D02*
X48625Y-26875D01*
G54D22*
X43850Y-25500D02*
X44400Y-25500D01*
X49000Y-26500D02*
X49000Y-25000D01*
X59000Y-26500D02*
X59000Y-25000D01*
X53850Y-25500D02*
X54400Y-25500D01*
G54D20*
X57750Y-26875D02*
X58625Y-26875D01*
X58625Y-26875D02*
X59000Y-26500D01*
G54D21*
X54400Y-23984D02*
X54634Y-23750D01*
G54D20*
X54400Y-23984D02*
X54634Y-23750D01*
X54400Y-25500D02*
X54400Y-23984D01*
X54400Y-23984D02*
X54791Y-23750D01*
X54634Y-23750D02*
X54400Y-23984D01*
X54791Y-23750D02*
X54634Y-23750D01*
X54791Y-15750D02*
X54634Y-15750D01*
X54634Y-15750D02*
X54400Y-15984D01*
X54400Y-15984D02*
X54791Y-15750D01*
X54400Y-17500D02*
X54400Y-15984D01*
X54400Y-15984D02*
X54634Y-15750D01*
G54D21*
X54400Y-15984D02*
X54634Y-15750D01*
G54D20*
X58625Y-18875D02*
X59000Y-18500D01*
X57750Y-18875D02*
X58625Y-18875D01*
G54D22*
X53850Y-17500D02*
X54400Y-17500D01*
X59000Y-18500D02*
X59000Y-17000D01*
X49000Y-18500D02*
X49000Y-17000D01*
X43850Y-17500D02*
X44400Y-17500D01*
G54D20*
X47750Y-18875D02*
X48625Y-18875D01*
X48625Y-18875D02*
X49000Y-18500D01*
G54D21*
X44400Y-15984D02*
X44634Y-15750D01*
G54D20*
X44400Y-15984D02*
X44634Y-15750D01*
X44400Y-17500D02*
X44400Y-15984D01*
X44400Y-15984D02*
X44791Y-15750D01*
X44634Y-15750D02*
X44400Y-15984D01*
X44791Y-15750D02*
X44634Y-15750D01*
X44400Y-26000D02*
X45250Y-26000D01*
X45250Y-26000D02*
X45750Y-26500D01*
X45750Y-26500D02*
X46600Y-26500D01*
G54D21*
X45750Y-26500D02*
X46600Y-26500D01*
X45250Y-26000D02*
X45750Y-26500D01*
G54D22*
X43750Y-26000D02*
X43500Y-25750D01*
X43500Y-25750D02*
X43500Y-24750D01*
X43500Y-24750D02*
X42750Y-24000D01*
X44400Y-26000D02*
X43750Y-26000D01*
X48266Y-25000D02*
X48266Y-24733D01*
X48266Y-24733D02*
X49000Y-24000D01*
X48250Y-25000D02*
X48266Y-25000D01*
X46750Y-26500D02*
X47250Y-26000D01*
X47250Y-26000D02*
X47250Y-25750D01*
X47250Y-25750D02*
X47625Y-25375D01*
X47625Y-25375D02*
X47750Y-25375D01*
X46600Y-26500D02*
X46750Y-26500D01*
X48250Y-24750D02*
X49000Y-24000D01*
X48250Y-25000D02*
X48250Y-24750D01*
X47875Y-25375D02*
X48250Y-25000D01*
X47750Y-25375D02*
X47875Y-25375D01*
X57750Y-25375D02*
X57875Y-25375D01*
X57875Y-25375D02*
X58250Y-25000D01*
X58250Y-25000D02*
X58250Y-24750D01*
X58250Y-24750D02*
X59000Y-24000D01*
X56600Y-26500D02*
X56750Y-26500D01*
X57625Y-25375D02*
X57750Y-25375D01*
X57250Y-25750D02*
X57625Y-25375D01*
X57250Y-26000D02*
X57250Y-25750D01*
X56750Y-26500D02*
X57250Y-26000D01*
X58250Y-25000D02*
X58266Y-25000D01*
X58266Y-24733D02*
X59000Y-24000D01*
X58266Y-25000D02*
X58266Y-24733D01*
X54400Y-26000D02*
X53750Y-26000D01*
X53500Y-24750D02*
X52750Y-24000D01*
X53500Y-25750D02*
X53500Y-24750D01*
X53750Y-26000D02*
X53500Y-25750D01*
G54D21*
X55250Y-26000D02*
X55750Y-26500D01*
X55750Y-26500D02*
X56600Y-26500D01*
G54D20*
X55750Y-26500D02*
X56600Y-26500D01*
X55250Y-26000D02*
X55750Y-26500D01*
X54400Y-26000D02*
X55250Y-26000D01*
X54400Y-18000D02*
X55250Y-18000D01*
X55250Y-18000D02*
X55750Y-18500D01*
X55750Y-18500D02*
X56600Y-18500D01*
G54D21*
X55750Y-18500D02*
X56600Y-18500D01*
X55250Y-18000D02*
X55750Y-18500D01*
G54D22*
X53750Y-18000D02*
X53500Y-17750D01*
X53500Y-17750D02*
X53500Y-16750D01*
X53500Y-16750D02*
X52750Y-16000D01*
X54400Y-18000D02*
X53750Y-18000D01*
X58266Y-17000D02*
X58266Y-16733D01*
X58266Y-16733D02*
X59000Y-16000D01*
X58250Y-17000D02*
X58266Y-17000D01*
X56750Y-18500D02*
X57250Y-18000D01*
X57250Y-18000D02*
X57250Y-17750D01*
X57250Y-17750D02*
X57625Y-17375D01*
X57625Y-17375D02*
X57750Y-17375D01*
X56600Y-18500D02*
X56750Y-18500D01*
X58250Y-16750D02*
X59000Y-16000D01*
X58250Y-17000D02*
X58250Y-16750D01*
X57875Y-17375D02*
X58250Y-17000D01*
X57750Y-17375D02*
X57875Y-17375D01*
X47750Y-17375D02*
X47875Y-17375D01*
X47875Y-17375D02*
X48250Y-17000D01*
X48250Y-17000D02*
X48250Y-16750D01*
X48250Y-16750D02*
X49000Y-16000D01*
X46600Y-18500D02*
X46750Y-18500D01*
X47625Y-17375D02*
X47750Y-17375D01*
X47250Y-17750D02*
X47625Y-17375D01*
X47250Y-18000D02*
X47250Y-17750D01*
X46750Y-18500D02*
X47250Y-18000D01*
X48250Y-17000D02*
X48266Y-17000D01*
X48266Y-16733D02*
X49000Y-16000D01*
X48266Y-17000D02*
X48266Y-16733D01*
X44400Y-18000D02*
X43750Y-18000D01*
X43500Y-16750D02*
X42750Y-16000D01*
X43500Y-17750D02*
X43500Y-16750D01*
X43750Y-18000D02*
X43500Y-17750D01*
G54D21*
X45250Y-18000D02*
X45750Y-18500D01*
X45750Y-18500D02*
X46600Y-18500D01*
G54D20*
X45750Y-18500D02*
X46600Y-18500D01*
X45250Y-18000D02*
X45750Y-18500D01*
X44400Y-18000D02*
X45250Y-18000D01*
G54D21*
X46600Y-26000D02*
X46900Y-26000D01*
X47425Y-24625D02*
X47750Y-24625D01*
X47050Y-25000D02*
X47425Y-24625D01*
X47050Y-25850D02*
X47050Y-25000D01*
X46900Y-26000D02*
X47050Y-25850D01*
G54D22*
X47750Y-24625D02*
X47750Y-23875D01*
X47875Y-23875D02*
X48250Y-23500D01*
X48250Y-23500D02*
X48250Y-22750D01*
X48250Y-22750D02*
X45500Y-22750D01*
X45500Y-22750D02*
X45250Y-23000D01*
X45250Y-23000D02*
X42750Y-23000D01*
X47750Y-23875D02*
X47875Y-23875D01*
X57750Y-23875D02*
X57875Y-23875D01*
X55250Y-23000D02*
X52750Y-23000D01*
X55500Y-22750D02*
X55250Y-23000D01*
X58250Y-22750D02*
X55500Y-22750D01*
X58250Y-23500D02*
X58250Y-22750D01*
X57875Y-23875D02*
X58250Y-23500D01*
X57750Y-24625D02*
X57750Y-23875D01*
G54D21*
X56900Y-26000D02*
X57050Y-25850D01*
X57050Y-25850D02*
X57050Y-25000D01*
X57050Y-25000D02*
X57425Y-24625D01*
X57425Y-24625D02*
X57750Y-24625D01*
X56600Y-26000D02*
X56900Y-26000D01*
X56600Y-18000D02*
X56900Y-18000D01*
X57425Y-16625D02*
X57750Y-16625D01*
X57050Y-17000D02*
X57425Y-16625D01*
X57050Y-17850D02*
X57050Y-17000D01*
X56900Y-18000D02*
X57050Y-17850D01*
G54D22*
X57750Y-16625D02*
X57750Y-15875D01*
X57875Y-15875D02*
X58250Y-15500D01*
X58250Y-15500D02*
X58250Y-14750D01*
X58250Y-14750D02*
X55500Y-14750D01*
X55500Y-14750D02*
X55250Y-15000D01*
X55250Y-15000D02*
X52750Y-15000D01*
X57750Y-15875D02*
X57875Y-15875D01*
X47750Y-15875D02*
X47875Y-15875D01*
X45250Y-15000D02*
X42750Y-15000D01*
X45500Y-14750D02*
X45250Y-15000D01*
X48250Y-14750D02*
X45500Y-14750D01*
X48250Y-15500D02*
X48250Y-14750D01*
X47875Y-15875D02*
X48250Y-15500D01*
X47750Y-16625D02*
X47750Y-15875D01*
G54D21*
X46900Y-18000D02*
X47050Y-17850D01*
X47050Y-17850D02*
X47050Y-17000D01*
X47050Y-17000D02*
X47425Y-16625D01*
X47425Y-16625D02*
X47750Y-16625D01*
X46600Y-18000D02*
X46900Y-18000D01*
G54D22*
X43000Y-26000D02*
X43500Y-26500D01*
X43500Y-26500D02*
X44400Y-26500D01*
X42750Y-26000D02*
X43000Y-26000D01*
X52750Y-26000D02*
X53000Y-26000D01*
X53500Y-26500D02*
X54400Y-26500D01*
X53000Y-26000D02*
X53500Y-26500D01*
X53000Y-18000D02*
X53500Y-18500D01*
X53500Y-18500D02*
X54400Y-18500D01*
X52750Y-18000D02*
X53000Y-18000D01*
X42750Y-18000D02*
X43000Y-18000D01*
X43500Y-18500D02*
X44400Y-18500D01*
X43000Y-18000D02*
X43500Y-18500D01*
G54D21*
X46600Y-27000D02*
X47050Y-27000D01*
X47200Y-26675D02*
X47750Y-26125D01*
X47200Y-26850D02*
X47200Y-26675D01*
X47050Y-27000D02*
X47200Y-26850D01*
X57050Y-27000D02*
X57200Y-26850D01*
X57200Y-26850D02*
X57200Y-26675D01*
X57200Y-26675D02*
X57750Y-26125D01*
X56600Y-27000D02*
X57050Y-27000D01*
X56600Y-19000D02*
X57050Y-19000D01*
X57200Y-18675D02*
X57750Y-18125D01*
X57200Y-18850D02*
X57200Y-18675D01*
X57050Y-19000D02*
X57200Y-18850D01*
X47050Y-19000D02*
X47200Y-18850D01*
X47200Y-18850D02*
X47200Y-18675D01*
X47200Y-18675D02*
X47750Y-18125D01*
X46600Y-19000D02*
X47050Y-19000D01*
G54D10*
G36*
X46250Y-16648D02*
X46241Y-16639D01*
X46084Y-16575D01*
X45915Y-16574D01*
X45759Y-16639D01*
X45639Y-16758D01*
X45575Y-16915D01*
X45574Y-17084D01*
X45639Y-17240D01*
X45758Y-17360D01*
X45915Y-17424D01*
X46084Y-17425D01*
X46099Y-17418D01*
X46099Y-17424D01*
X46099Y-17674D01*
X46131Y-17750D01*
X46100Y-17825D01*
X46099Y-17924D01*
X46099Y-18150D01*
X45894Y-18150D01*
X45497Y-17752D01*
X45383Y-17676D01*
X45250Y-17650D01*
X44900Y-17650D01*
X44900Y-17325D01*
X44862Y-17233D01*
X44791Y-17163D01*
X44741Y-17142D01*
X44741Y-16252D01*
X44741Y-15800D01*
X44091Y-15800D01*
X44029Y-15862D01*
X44028Y-16015D01*
X44029Y-16114D01*
X44067Y-16206D01*
X44137Y-16277D01*
X44229Y-16315D01*
X44678Y-16315D01*
X44741Y-16252D01*
X44741Y-17142D01*
X44699Y-17125D01*
X44600Y-17124D01*
X44512Y-17125D01*
X44450Y-17187D01*
X44450Y-17450D01*
X44837Y-17450D01*
X44900Y-17387D01*
X44900Y-17325D01*
X44900Y-17650D01*
X44900Y-17650D01*
X44900Y-17612D01*
X44837Y-17550D01*
X44450Y-17550D01*
X44450Y-17557D01*
X44350Y-17557D01*
X44350Y-17550D01*
X44350Y-17450D01*
X44350Y-17187D01*
X44287Y-17125D01*
X44199Y-17124D01*
X44100Y-17125D01*
X44008Y-17163D01*
X43937Y-17233D01*
X43899Y-17325D01*
X43900Y-17387D01*
X43962Y-17450D01*
X44350Y-17450D01*
X44350Y-17550D01*
X43962Y-17550D01*
X43900Y-17612D01*
X43899Y-17674D01*
X43900Y-17675D01*
X43884Y-17675D01*
X43825Y-17615D01*
X43825Y-16750D01*
X43824Y-16749D01*
X43825Y-16749D01*
X43820Y-16725D01*
X43800Y-16625D01*
X43800Y-16625D01*
X43729Y-16520D01*
X43729Y-16520D01*
X43407Y-16197D01*
X43432Y-16136D01*
X43433Y-15864D01*
X43329Y-15613D01*
X43323Y-15607D01*
X43375Y-15555D01*
X43413Y-15463D01*
X43413Y-15363D01*
X43413Y-15325D01*
X44053Y-15325D01*
X44029Y-15385D01*
X44028Y-15484D01*
X44029Y-15637D01*
X44091Y-15700D01*
X44741Y-15700D01*
X44741Y-15692D01*
X44841Y-15692D01*
X44841Y-15700D01*
X44848Y-15700D01*
X44848Y-15800D01*
X44841Y-15800D01*
X44841Y-16252D01*
X44903Y-16315D01*
X45352Y-16315D01*
X45444Y-16277D01*
X45500Y-16221D01*
X45555Y-16276D01*
X45647Y-16314D01*
X45746Y-16315D01*
X46250Y-16315D01*
X46250Y-16648D01*
X46250Y-16648D01*
G37*
G54D21*
X46250Y-16648D02*
X46241Y-16639D01*
X46084Y-16575D01*
X45915Y-16574D01*
X45759Y-16639D01*
X45639Y-16758D01*
X45575Y-16915D01*
X45574Y-17084D01*
X45639Y-17240D01*
X45758Y-17360D01*
X45915Y-17424D01*
X46084Y-17425D01*
X46099Y-17418D01*
X46099Y-17424D01*
X46099Y-17674D01*
X46131Y-17750D01*
X46100Y-17825D01*
X46099Y-17924D01*
X46099Y-18150D01*
X45894Y-18150D01*
X45497Y-17752D01*
X45383Y-17676D01*
X45250Y-17650D01*
X44900Y-17650D01*
X44900Y-17325D01*
X44862Y-17233D01*
X44791Y-17163D01*
X44741Y-17142D01*
X44741Y-16252D01*
X44741Y-15800D01*
X44091Y-15800D01*
X44029Y-15862D01*
X44028Y-16015D01*
X44029Y-16114D01*
X44067Y-16206D01*
X44137Y-16277D01*
X44229Y-16315D01*
X44678Y-16315D01*
X44741Y-16252D01*
X44741Y-17142D01*
X44699Y-17125D01*
X44600Y-17124D01*
X44512Y-17125D01*
X44450Y-17187D01*
X44450Y-17450D01*
X44837Y-17450D01*
X44900Y-17387D01*
X44900Y-17325D01*
X44900Y-17650D01*
X44900Y-17650D01*
X44900Y-17612D01*
X44837Y-17550D01*
X44450Y-17550D01*
X44450Y-17557D01*
X44350Y-17557D01*
X44350Y-17550D01*
X44350Y-17450D01*
X44350Y-17187D01*
X44287Y-17125D01*
X44199Y-17124D01*
X44100Y-17125D01*
X44008Y-17163D01*
X43937Y-17233D01*
X43899Y-17325D01*
X43900Y-17387D01*
X43962Y-17450D01*
X44350Y-17450D01*
X44350Y-17550D01*
X43962Y-17550D01*
X43900Y-17612D01*
X43899Y-17674D01*
X43900Y-17675D01*
X43884Y-17675D01*
X43825Y-17615D01*
X43825Y-16750D01*
X43824Y-16749D01*
X43825Y-16749D01*
X43820Y-16725D01*
X43800Y-16625D01*
X43800Y-16625D01*
X43729Y-16520D01*
X43729Y-16520D01*
X43407Y-16197D01*
X43432Y-16136D01*
X43433Y-15864D01*
X43329Y-15613D01*
X43323Y-15607D01*
X43375Y-15555D01*
X43413Y-15463D01*
X43413Y-15363D01*
X43413Y-15325D01*
X44053Y-15325D01*
X44029Y-15385D01*
X44028Y-15484D01*
X44029Y-15637D01*
X44091Y-15700D01*
X44741Y-15700D01*
X44741Y-15692D01*
X44841Y-15692D01*
X44841Y-15700D01*
X44848Y-15700D01*
X44848Y-15800D01*
X44841Y-15800D01*
X44841Y-16252D01*
X44903Y-16315D01*
X45352Y-16315D01*
X45444Y-16277D01*
X45500Y-16221D01*
X45555Y-16276D01*
X45647Y-16314D01*
X45746Y-16315D01*
X46250Y-16315D01*
X46250Y-16648D01*
G54D10*
G36*
X46250Y-24648D02*
X46241Y-24639D01*
X46084Y-24575D01*
X45915Y-24574D01*
X45759Y-24639D01*
X45639Y-24758D01*
X45575Y-24915D01*
X45574Y-25084D01*
X45639Y-25240D01*
X45758Y-25360D01*
X45915Y-25424D01*
X46084Y-25425D01*
X46099Y-25418D01*
X46099Y-25424D01*
X46099Y-25674D01*
X46131Y-25750D01*
X46100Y-25825D01*
X46099Y-25924D01*
X46099Y-26150D01*
X45894Y-26150D01*
X45497Y-25752D01*
X45383Y-25676D01*
X45250Y-25650D01*
X44900Y-25650D01*
X44900Y-25325D01*
X44862Y-25233D01*
X44791Y-25163D01*
X44741Y-25142D01*
X44741Y-24252D01*
X44741Y-23800D01*
X44091Y-23800D01*
X44029Y-23862D01*
X44028Y-24015D01*
X44029Y-24114D01*
X44067Y-24206D01*
X44137Y-24277D01*
X44229Y-24315D01*
X44678Y-24315D01*
X44741Y-24252D01*
X44741Y-25142D01*
X44699Y-25125D01*
X44600Y-25124D01*
X44512Y-25125D01*
X44450Y-25187D01*
X44450Y-25450D01*
X44837Y-25450D01*
X44900Y-25387D01*
X44900Y-25325D01*
X44900Y-25650D01*
X44900Y-25650D01*
X44900Y-25612D01*
X44837Y-25550D01*
X44450Y-25550D01*
X44450Y-25557D01*
X44350Y-25557D01*
X44350Y-25550D01*
X44350Y-25450D01*
X44350Y-25187D01*
X44287Y-25125D01*
X44199Y-25124D01*
X44100Y-25125D01*
X44008Y-25163D01*
X43937Y-25233D01*
X43899Y-25325D01*
X43900Y-25387D01*
X43962Y-25450D01*
X44350Y-25450D01*
X44350Y-25550D01*
X43962Y-25550D01*
X43900Y-25612D01*
X43899Y-25674D01*
X43900Y-25675D01*
X43884Y-25675D01*
X43825Y-25615D01*
X43825Y-24750D01*
X43824Y-24749D01*
X43825Y-24749D01*
X43820Y-24725D01*
X43800Y-24625D01*
X43800Y-24625D01*
X43729Y-24520D01*
X43729Y-24520D01*
X43407Y-24197D01*
X43432Y-24136D01*
X43433Y-23864D01*
X43329Y-23613D01*
X43323Y-23607D01*
X43375Y-23555D01*
X43413Y-23463D01*
X43413Y-23363D01*
X43413Y-23325D01*
X44053Y-23325D01*
X44029Y-23385D01*
X44028Y-23484D01*
X44029Y-23637D01*
X44091Y-23700D01*
X44741Y-23700D01*
X44741Y-23692D01*
X44841Y-23692D01*
X44841Y-23700D01*
X44848Y-23700D01*
X44848Y-23800D01*
X44841Y-23800D01*
X44841Y-24252D01*
X44903Y-24315D01*
X45352Y-24315D01*
X45444Y-24277D01*
X45500Y-24221D01*
X45555Y-24276D01*
X45647Y-24314D01*
X45746Y-24315D01*
X46250Y-24315D01*
X46250Y-24648D01*
X46250Y-24648D01*
G37*
G54D21*
X46250Y-24648D02*
X46241Y-24639D01*
X46084Y-24575D01*
X45915Y-24574D01*
X45759Y-24639D01*
X45639Y-24758D01*
X45575Y-24915D01*
X45574Y-25084D01*
X45639Y-25240D01*
X45758Y-25360D01*
X45915Y-25424D01*
X46084Y-25425D01*
X46099Y-25418D01*
X46099Y-25424D01*
X46099Y-25674D01*
X46131Y-25750D01*
X46100Y-25825D01*
X46099Y-25924D01*
X46099Y-26150D01*
X45894Y-26150D01*
X45497Y-25752D01*
X45383Y-25676D01*
X45250Y-25650D01*
X44900Y-25650D01*
X44900Y-25325D01*
X44862Y-25233D01*
X44791Y-25163D01*
X44741Y-25142D01*
X44741Y-24252D01*
X44741Y-23800D01*
X44091Y-23800D01*
X44029Y-23862D01*
X44028Y-24015D01*
X44029Y-24114D01*
X44067Y-24206D01*
X44137Y-24277D01*
X44229Y-24315D01*
X44678Y-24315D01*
X44741Y-24252D01*
X44741Y-25142D01*
X44699Y-25125D01*
X44600Y-25124D01*
X44512Y-25125D01*
X44450Y-25187D01*
X44450Y-25450D01*
X44837Y-25450D01*
X44900Y-25387D01*
X44900Y-25325D01*
X44900Y-25650D01*
X44900Y-25650D01*
X44900Y-25612D01*
X44837Y-25550D01*
X44450Y-25550D01*
X44450Y-25557D01*
X44350Y-25557D01*
X44350Y-25550D01*
X44350Y-25450D01*
X44350Y-25187D01*
X44287Y-25125D01*
X44199Y-25124D01*
X44100Y-25125D01*
X44008Y-25163D01*
X43937Y-25233D01*
X43899Y-25325D01*
X43900Y-25387D01*
X43962Y-25450D01*
X44350Y-25450D01*
X44350Y-25550D01*
X43962Y-25550D01*
X43900Y-25612D01*
X43899Y-25674D01*
X43900Y-25675D01*
X43884Y-25675D01*
X43825Y-25615D01*
X43825Y-24750D01*
X43824Y-24749D01*
X43825Y-24749D01*
X43820Y-24725D01*
X43800Y-24625D01*
X43800Y-24625D01*
X43729Y-24520D01*
X43729Y-24520D01*
X43407Y-24197D01*
X43432Y-24136D01*
X43433Y-23864D01*
X43329Y-23613D01*
X43323Y-23607D01*
X43375Y-23555D01*
X43413Y-23463D01*
X43413Y-23363D01*
X43413Y-23325D01*
X44053Y-23325D01*
X44029Y-23385D01*
X44028Y-23484D01*
X44029Y-23637D01*
X44091Y-23700D01*
X44741Y-23700D01*
X44741Y-23692D01*
X44841Y-23692D01*
X44841Y-23700D01*
X44848Y-23700D01*
X44848Y-23800D01*
X44841Y-23800D01*
X44841Y-24252D01*
X44903Y-24315D01*
X45352Y-24315D01*
X45444Y-24277D01*
X45500Y-24221D01*
X45555Y-24276D01*
X45647Y-24314D01*
X45746Y-24315D01*
X46250Y-24315D01*
X46250Y-24648D01*
G54D10*
G36*
X56250Y-16648D02*
X56241Y-16639D01*
X56084Y-16575D01*
X55915Y-16574D01*
X55759Y-16639D01*
X55639Y-16758D01*
X55575Y-16915D01*
X55574Y-17084D01*
X55639Y-17240D01*
X55758Y-17360D01*
X55915Y-17424D01*
X56084Y-17425D01*
X56099Y-17418D01*
X56099Y-17424D01*
X56099Y-17674D01*
X56131Y-17750D01*
X56100Y-17825D01*
X56099Y-17924D01*
X56099Y-18150D01*
X55894Y-18150D01*
X55497Y-17752D01*
X55383Y-17676D01*
X55250Y-17650D01*
X54900Y-17650D01*
X54900Y-17325D01*
X54862Y-17233D01*
X54791Y-17163D01*
X54741Y-17142D01*
X54741Y-16252D01*
X54741Y-15800D01*
X54091Y-15800D01*
X54029Y-15862D01*
X54028Y-16015D01*
X54029Y-16114D01*
X54067Y-16206D01*
X54137Y-16277D01*
X54229Y-16315D01*
X54678Y-16315D01*
X54741Y-16252D01*
X54741Y-17142D01*
X54699Y-17125D01*
X54600Y-17124D01*
X54512Y-17125D01*
X54450Y-17187D01*
X54450Y-17450D01*
X54837Y-17450D01*
X54900Y-17387D01*
X54900Y-17325D01*
X54900Y-17650D01*
X54900Y-17650D01*
X54900Y-17612D01*
X54837Y-17550D01*
X54450Y-17550D01*
X54450Y-17557D01*
X54350Y-17557D01*
X54350Y-17550D01*
X54350Y-17450D01*
X54350Y-17187D01*
X54287Y-17125D01*
X54199Y-17124D01*
X54100Y-17125D01*
X54008Y-17163D01*
X53937Y-17233D01*
X53899Y-17325D01*
X53900Y-17387D01*
X53962Y-17450D01*
X54350Y-17450D01*
X54350Y-17550D01*
X53962Y-17550D01*
X53900Y-17612D01*
X53899Y-17674D01*
X53900Y-17675D01*
X53884Y-17675D01*
X53825Y-17615D01*
X53825Y-16750D01*
X53824Y-16749D01*
X53825Y-16749D01*
X53820Y-16725D01*
X53800Y-16625D01*
X53800Y-16625D01*
X53729Y-16520D01*
X53729Y-16520D01*
X53407Y-16197D01*
X53432Y-16136D01*
X53433Y-15864D01*
X53329Y-15613D01*
X53323Y-15607D01*
X53375Y-15555D01*
X53413Y-15463D01*
X53413Y-15363D01*
X53413Y-15325D01*
X54053Y-15325D01*
X54029Y-15385D01*
X54028Y-15484D01*
X54029Y-15637D01*
X54091Y-15700D01*
X54741Y-15700D01*
X54741Y-15692D01*
X54841Y-15692D01*
X54841Y-15700D01*
X54848Y-15700D01*
X54848Y-15800D01*
X54841Y-15800D01*
X54841Y-16252D01*
X54903Y-16315D01*
X55352Y-16315D01*
X55444Y-16277D01*
X55500Y-16221D01*
X55555Y-16276D01*
X55647Y-16314D01*
X55746Y-16315D01*
X56250Y-16315D01*
X56250Y-16648D01*
X56250Y-16648D01*
G37*
G54D21*
X56250Y-16648D02*
X56241Y-16639D01*
X56084Y-16575D01*
X55915Y-16574D01*
X55759Y-16639D01*
X55639Y-16758D01*
X55575Y-16915D01*
X55574Y-17084D01*
X55639Y-17240D01*
X55758Y-17360D01*
X55915Y-17424D01*
X56084Y-17425D01*
X56099Y-17418D01*
X56099Y-17424D01*
X56099Y-17674D01*
X56131Y-17750D01*
X56100Y-17825D01*
X56099Y-17924D01*
X56099Y-18150D01*
X55894Y-18150D01*
X55497Y-17752D01*
X55383Y-17676D01*
X55250Y-17650D01*
X54900Y-17650D01*
X54900Y-17325D01*
X54862Y-17233D01*
X54791Y-17163D01*
X54741Y-17142D01*
X54741Y-16252D01*
X54741Y-15800D01*
X54091Y-15800D01*
X54029Y-15862D01*
X54028Y-16015D01*
X54029Y-16114D01*
X54067Y-16206D01*
X54137Y-16277D01*
X54229Y-16315D01*
X54678Y-16315D01*
X54741Y-16252D01*
X54741Y-17142D01*
X54699Y-17125D01*
X54600Y-17124D01*
X54512Y-17125D01*
X54450Y-17187D01*
X54450Y-17450D01*
X54837Y-17450D01*
X54900Y-17387D01*
X54900Y-17325D01*
X54900Y-17650D01*
X54900Y-17650D01*
X54900Y-17612D01*
X54837Y-17550D01*
X54450Y-17550D01*
X54450Y-17557D01*
X54350Y-17557D01*
X54350Y-17550D01*
X54350Y-17450D01*
X54350Y-17187D01*
X54287Y-17125D01*
X54199Y-17124D01*
X54100Y-17125D01*
X54008Y-17163D01*
X53937Y-17233D01*
X53899Y-17325D01*
X53900Y-17387D01*
X53962Y-17450D01*
X54350Y-17450D01*
X54350Y-17550D01*
X53962Y-17550D01*
X53900Y-17612D01*
X53899Y-17674D01*
X53900Y-17675D01*
X53884Y-17675D01*
X53825Y-17615D01*
X53825Y-16750D01*
X53824Y-16749D01*
X53825Y-16749D01*
X53820Y-16725D01*
X53800Y-16625D01*
X53800Y-16625D01*
X53729Y-16520D01*
X53729Y-16520D01*
X53407Y-16197D01*
X53432Y-16136D01*
X53433Y-15864D01*
X53329Y-15613D01*
X53323Y-15607D01*
X53375Y-15555D01*
X53413Y-15463D01*
X53413Y-15363D01*
X53413Y-15325D01*
X54053Y-15325D01*
X54029Y-15385D01*
X54028Y-15484D01*
X54029Y-15637D01*
X54091Y-15700D01*
X54741Y-15700D01*
X54741Y-15692D01*
X54841Y-15692D01*
X54841Y-15700D01*
X54848Y-15700D01*
X54848Y-15800D01*
X54841Y-15800D01*
X54841Y-16252D01*
X54903Y-16315D01*
X55352Y-16315D01*
X55444Y-16277D01*
X55500Y-16221D01*
X55555Y-16276D01*
X55647Y-16314D01*
X55746Y-16315D01*
X56250Y-16315D01*
X56250Y-16648D01*
G54D10*
G36*
X56250Y-24648D02*
X56241Y-24639D01*
X56084Y-24575D01*
X55915Y-24574D01*
X55759Y-24639D01*
X55639Y-24758D01*
X55575Y-24915D01*
X55574Y-25084D01*
X55639Y-25240D01*
X55758Y-25360D01*
X55915Y-25424D01*
X56084Y-25425D01*
X56099Y-25418D01*
X56099Y-25424D01*
X56099Y-25674D01*
X56131Y-25750D01*
X56100Y-25825D01*
X56099Y-25924D01*
X56099Y-26150D01*
X55894Y-26150D01*
X55497Y-25752D01*
X55383Y-25676D01*
X55250Y-25650D01*
X54900Y-25650D01*
X54900Y-25325D01*
X54862Y-25233D01*
X54791Y-25163D01*
X54741Y-25142D01*
X54741Y-24252D01*
X54741Y-23800D01*
X54091Y-23800D01*
X54029Y-23862D01*
X54028Y-24015D01*
X54029Y-24114D01*
X54067Y-24206D01*
X54137Y-24277D01*
X54229Y-24315D01*
X54678Y-24315D01*
X54741Y-24252D01*
X54741Y-25142D01*
X54699Y-25125D01*
X54600Y-25124D01*
X54512Y-25125D01*
X54450Y-25187D01*
X54450Y-25450D01*
X54837Y-25450D01*
X54900Y-25387D01*
X54900Y-25325D01*
X54900Y-25650D01*
X54900Y-25650D01*
X54900Y-25612D01*
X54837Y-25550D01*
X54450Y-25550D01*
X54450Y-25557D01*
X54350Y-25557D01*
X54350Y-25550D01*
X54350Y-25450D01*
X54350Y-25187D01*
X54287Y-25125D01*
X54199Y-25124D01*
X54100Y-25125D01*
X54008Y-25163D01*
X53937Y-25233D01*
X53899Y-25325D01*
X53900Y-25387D01*
X53962Y-25450D01*
X54350Y-25450D01*
X54350Y-25550D01*
X53962Y-25550D01*
X53900Y-25612D01*
X53899Y-25674D01*
X53900Y-25675D01*
X53884Y-25675D01*
X53825Y-25615D01*
X53825Y-24750D01*
X53824Y-24749D01*
X53825Y-24749D01*
X53820Y-24725D01*
X53800Y-24625D01*
X53800Y-24625D01*
X53729Y-24520D01*
X53729Y-24520D01*
X53407Y-24197D01*
X53432Y-24136D01*
X53433Y-23864D01*
X53329Y-23613D01*
X53323Y-23607D01*
X53375Y-23555D01*
X53413Y-23463D01*
X53413Y-23363D01*
X53413Y-23325D01*
X54053Y-23325D01*
X54029Y-23385D01*
X54028Y-23484D01*
X54029Y-23637D01*
X54091Y-23700D01*
X54741Y-23700D01*
X54741Y-23692D01*
X54841Y-23692D01*
X54841Y-23700D01*
X54848Y-23700D01*
X54848Y-23800D01*
X54841Y-23800D01*
X54841Y-24252D01*
X54903Y-24315D01*
X55352Y-24315D01*
X55444Y-24277D01*
X55500Y-24221D01*
X55555Y-24276D01*
X55647Y-24314D01*
X55746Y-24315D01*
X56250Y-24315D01*
X56250Y-24648D01*
X56250Y-24648D01*
G37*
G54D21*
X56250Y-24648D02*
X56241Y-24639D01*
X56084Y-24575D01*
X55915Y-24574D01*
X55759Y-24639D01*
X55639Y-24758D01*
X55575Y-24915D01*
X55574Y-25084D01*
X55639Y-25240D01*
X55758Y-25360D01*
X55915Y-25424D01*
X56084Y-25425D01*
X56099Y-25418D01*
X56099Y-25424D01*
X56099Y-25674D01*
X56131Y-25750D01*
X56100Y-25825D01*
X56099Y-25924D01*
X56099Y-26150D01*
X55894Y-26150D01*
X55497Y-25752D01*
X55383Y-25676D01*
X55250Y-25650D01*
X54900Y-25650D01*
X54900Y-25325D01*
X54862Y-25233D01*
X54791Y-25163D01*
X54741Y-25142D01*
X54741Y-24252D01*
X54741Y-23800D01*
X54091Y-23800D01*
X54029Y-23862D01*
X54028Y-24015D01*
X54029Y-24114D01*
X54067Y-24206D01*
X54137Y-24277D01*
X54229Y-24315D01*
X54678Y-24315D01*
X54741Y-24252D01*
X54741Y-25142D01*
X54699Y-25125D01*
X54600Y-25124D01*
X54512Y-25125D01*
X54450Y-25187D01*
X54450Y-25450D01*
X54837Y-25450D01*
X54900Y-25387D01*
X54900Y-25325D01*
X54900Y-25650D01*
X54900Y-25650D01*
X54900Y-25612D01*
X54837Y-25550D01*
X54450Y-25550D01*
X54450Y-25557D01*
X54350Y-25557D01*
X54350Y-25550D01*
X54350Y-25450D01*
X54350Y-25187D01*
X54287Y-25125D01*
X54199Y-25124D01*
X54100Y-25125D01*
X54008Y-25163D01*
X53937Y-25233D01*
X53899Y-25325D01*
X53900Y-25387D01*
X53962Y-25450D01*
X54350Y-25450D01*
X54350Y-25550D01*
X53962Y-25550D01*
X53900Y-25612D01*
X53899Y-25674D01*
X53900Y-25675D01*
X53884Y-25675D01*
X53825Y-25615D01*
X53825Y-24750D01*
X53824Y-24749D01*
X53825Y-24749D01*
X53820Y-24725D01*
X53800Y-24625D01*
X53800Y-24625D01*
X53729Y-24520D01*
X53729Y-24520D01*
X53407Y-24197D01*
X53432Y-24136D01*
X53433Y-23864D01*
X53329Y-23613D01*
X53323Y-23607D01*
X53375Y-23555D01*
X53413Y-23463D01*
X53413Y-23363D01*
X53413Y-23325D01*
X54053Y-23325D01*
X54029Y-23385D01*
X54028Y-23484D01*
X54029Y-23637D01*
X54091Y-23700D01*
X54741Y-23700D01*
X54741Y-23692D01*
X54841Y-23692D01*
X54841Y-23700D01*
X54848Y-23700D01*
X54848Y-23800D01*
X54841Y-23800D01*
X54841Y-24252D01*
X54903Y-24315D01*
X55352Y-24315D01*
X55444Y-24277D01*
X55500Y-24221D01*
X55555Y-24276D01*
X55647Y-24314D01*
X55746Y-24315D01*
X56250Y-24315D01*
X56250Y-24648D01*
G54D10*
G36*
X60230Y-28230D02*
X59745Y-28230D01*
X59745Y-26627D01*
X59745Y-18627D01*
X59737Y-18332D01*
X59654Y-18130D01*
X59654Y-17105D01*
X59644Y-16847D01*
X59564Y-16652D01*
X59501Y-16628D01*
X59541Y-16612D01*
X59611Y-16541D01*
X59649Y-16449D01*
X59650Y-16350D01*
X59650Y-15550D01*
X59612Y-15458D01*
X59541Y-15388D01*
X59449Y-15350D01*
X59350Y-15349D01*
X58575Y-15349D01*
X58575Y-14750D01*
X58550Y-14625D01*
X58479Y-14520D01*
X58374Y-14449D01*
X58250Y-14425D01*
X55500Y-14425D01*
X55375Y-14449D01*
X55270Y-14520D01*
X55270Y-14520D01*
X55115Y-14675D01*
X53413Y-14675D01*
X53413Y-14536D01*
X53375Y-14445D01*
X53305Y-14374D01*
X53213Y-14336D01*
X53113Y-14336D01*
X52286Y-14336D01*
X52195Y-14374D01*
X52124Y-14444D01*
X52086Y-14536D01*
X52086Y-14636D01*
X52086Y-15463D01*
X52124Y-15554D01*
X52176Y-15607D01*
X52171Y-15612D01*
X52067Y-15863D01*
X52066Y-16135D01*
X52170Y-16386D01*
X52362Y-16578D01*
X52425Y-16604D01*
X52750Y-16929D01*
X52755Y-16923D01*
X52826Y-16994D01*
X52820Y-17000D01*
X52826Y-17005D01*
X52755Y-17076D01*
X52750Y-17070D01*
X52679Y-17141D01*
X52679Y-17000D01*
X52267Y-16588D01*
X52158Y-16632D01*
X52062Y-16886D01*
X52071Y-17158D01*
X52158Y-17367D01*
X52267Y-17411D01*
X52679Y-17000D01*
X52679Y-17141D01*
X52425Y-17394D01*
X52363Y-17420D01*
X52171Y-17612D01*
X52067Y-17863D01*
X52066Y-18135D01*
X52170Y-18386D01*
X52284Y-18500D01*
X52171Y-18612D01*
X52067Y-18863D01*
X52066Y-19135D01*
X52170Y-19386D01*
X52362Y-19578D01*
X52613Y-19682D01*
X52885Y-19683D01*
X53136Y-19579D01*
X53328Y-19387D01*
X53354Y-19325D01*
X53996Y-19325D01*
X54008Y-19336D01*
X54100Y-19374D01*
X54199Y-19375D01*
X54699Y-19375D01*
X54791Y-19337D01*
X54803Y-19325D01*
X55744Y-19325D01*
X55865Y-19374D01*
X56034Y-19375D01*
X56184Y-19312D01*
X56208Y-19336D01*
X56300Y-19374D01*
X56399Y-19375D01*
X56899Y-19375D01*
X56991Y-19337D01*
X57028Y-19300D01*
X57050Y-19300D01*
X57050Y-19299D01*
X57164Y-19277D01*
X57164Y-19277D01*
X57262Y-19212D01*
X57272Y-19201D01*
X57333Y-19261D01*
X57425Y-19299D01*
X57524Y-19300D01*
X57637Y-19300D01*
X57700Y-19237D01*
X57700Y-18925D01*
X57692Y-18925D01*
X57692Y-18825D01*
X57700Y-18825D01*
X57700Y-18817D01*
X57800Y-18817D01*
X57800Y-18825D01*
X58212Y-18825D01*
X58275Y-18762D01*
X58275Y-18698D01*
X58359Y-18903D01*
X58475Y-18954D01*
X58929Y-18500D01*
X58475Y-18045D01*
X58359Y-18096D01*
X58274Y-18318D01*
X58275Y-18250D01*
X58275Y-17900D01*
X58237Y-17808D01*
X58178Y-17749D01*
X58236Y-17691D01*
X58274Y-17599D01*
X58275Y-17500D01*
X58275Y-17434D01*
X58414Y-17295D01*
X58435Y-17347D01*
X58541Y-17387D01*
X58929Y-17000D01*
X58923Y-16994D01*
X58994Y-16923D01*
X59000Y-16929D01*
X59005Y-16923D01*
X59076Y-16994D01*
X59070Y-17000D01*
X59458Y-17387D01*
X59564Y-17347D01*
X59654Y-17105D01*
X59654Y-18130D01*
X59640Y-18096D01*
X59524Y-18045D01*
X59454Y-18116D01*
X59454Y-17975D01*
X59403Y-17859D01*
X59387Y-17853D01*
X59387Y-17458D01*
X59000Y-17070D01*
X58612Y-17458D01*
X58652Y-17564D01*
X58894Y-17654D01*
X59152Y-17644D01*
X59347Y-17564D01*
X59387Y-17458D01*
X59387Y-17853D01*
X59127Y-17754D01*
X58832Y-17762D01*
X58596Y-17859D01*
X58545Y-17975D01*
X59000Y-18429D01*
X59454Y-17975D01*
X59454Y-18116D01*
X59070Y-18500D01*
X59524Y-18954D01*
X59640Y-18903D01*
X59745Y-18627D01*
X59745Y-26627D01*
X59737Y-26332D01*
X59654Y-26130D01*
X59654Y-25105D01*
X59644Y-24847D01*
X59564Y-24652D01*
X59501Y-24628D01*
X59541Y-24612D01*
X59611Y-24541D01*
X59649Y-24449D01*
X59650Y-24350D01*
X59650Y-23550D01*
X59612Y-23458D01*
X59541Y-23388D01*
X59454Y-23351D01*
X59454Y-19024D01*
X59000Y-18570D01*
X58545Y-19024D01*
X58596Y-19140D01*
X58872Y-19245D01*
X59167Y-19237D01*
X59403Y-19140D01*
X59454Y-19024D01*
X59454Y-23351D01*
X59449Y-23350D01*
X59350Y-23349D01*
X58575Y-23349D01*
X58575Y-22750D01*
X58550Y-22625D01*
X58479Y-22520D01*
X58374Y-22449D01*
X58275Y-22429D01*
X58275Y-19099D01*
X58275Y-18987D01*
X58212Y-18925D01*
X57800Y-18925D01*
X57800Y-19237D01*
X57862Y-19300D01*
X57975Y-19300D01*
X58074Y-19299D01*
X58166Y-19261D01*
X58237Y-19191D01*
X58275Y-19099D01*
X58275Y-22429D01*
X58250Y-22425D01*
X55500Y-22425D01*
X55375Y-22449D01*
X55270Y-22520D01*
X55270Y-22520D01*
X55115Y-22675D01*
X53413Y-22675D01*
X53413Y-22536D01*
X53375Y-22445D01*
X53305Y-22374D01*
X53213Y-22336D01*
X53113Y-22336D01*
X52286Y-22336D01*
X52195Y-22374D01*
X52124Y-22444D01*
X52086Y-22536D01*
X52086Y-22636D01*
X52086Y-23463D01*
X52124Y-23554D01*
X52176Y-23607D01*
X52171Y-23612D01*
X52067Y-23863D01*
X52066Y-24135D01*
X52170Y-24386D01*
X52362Y-24578D01*
X52425Y-24604D01*
X52750Y-24929D01*
X52755Y-24923D01*
X52826Y-24994D01*
X52820Y-25000D01*
X52826Y-25005D01*
X52755Y-25076D01*
X52750Y-25070D01*
X52679Y-25141D01*
X52679Y-25000D01*
X52267Y-24588D01*
X52158Y-24632D01*
X52062Y-24886D01*
X52071Y-25158D01*
X52158Y-25367D01*
X52267Y-25411D01*
X52679Y-25000D01*
X52679Y-25141D01*
X52425Y-25394D01*
X52363Y-25420D01*
X52171Y-25612D01*
X52067Y-25863D01*
X52066Y-26135D01*
X52170Y-26386D01*
X52284Y-26500D01*
X52171Y-26612D01*
X52067Y-26863D01*
X52066Y-27135D01*
X52170Y-27386D01*
X52362Y-27578D01*
X52613Y-27682D01*
X52885Y-27683D01*
X53136Y-27579D01*
X53328Y-27387D01*
X53354Y-27325D01*
X53996Y-27325D01*
X54008Y-27336D01*
X54100Y-27374D01*
X54199Y-27375D01*
X54699Y-27375D01*
X54791Y-27337D01*
X54803Y-27325D01*
X55744Y-27325D01*
X55865Y-27374D01*
X56034Y-27375D01*
X56184Y-27312D01*
X56208Y-27336D01*
X56300Y-27374D01*
X56399Y-27375D01*
X56899Y-27375D01*
X56991Y-27337D01*
X57028Y-27300D01*
X57050Y-27300D01*
X57050Y-27299D01*
X57164Y-27277D01*
X57164Y-27277D01*
X57262Y-27212D01*
X57272Y-27201D01*
X57333Y-27261D01*
X57425Y-27299D01*
X57524Y-27300D01*
X57637Y-27300D01*
X57700Y-27237D01*
X57700Y-26925D01*
X57692Y-26925D01*
X57692Y-26825D01*
X57700Y-26825D01*
X57700Y-26817D01*
X57800Y-26817D01*
X57800Y-26825D01*
X58212Y-26825D01*
X58275Y-26762D01*
X58275Y-26698D01*
X58359Y-26903D01*
X58475Y-26954D01*
X58929Y-26500D01*
X58475Y-26045D01*
X58359Y-26096D01*
X58274Y-26318D01*
X58275Y-26250D01*
X58275Y-25900D01*
X58237Y-25808D01*
X58178Y-25749D01*
X58236Y-25691D01*
X58274Y-25599D01*
X58275Y-25500D01*
X58275Y-25434D01*
X58414Y-25295D01*
X58435Y-25347D01*
X58541Y-25387D01*
X58929Y-25000D01*
X58923Y-24994D01*
X58994Y-24923D01*
X59000Y-24929D01*
X59005Y-24923D01*
X59076Y-24994D01*
X59070Y-25000D01*
X59458Y-25387D01*
X59564Y-25347D01*
X59654Y-25105D01*
X59654Y-26130D01*
X59640Y-26096D01*
X59524Y-26045D01*
X59454Y-26116D01*
X59454Y-25975D01*
X59403Y-25859D01*
X59387Y-25853D01*
X59387Y-25458D01*
X59000Y-25070D01*
X58612Y-25458D01*
X58652Y-25564D01*
X58894Y-25654D01*
X59152Y-25644D01*
X59347Y-25564D01*
X59387Y-25458D01*
X59387Y-25853D01*
X59127Y-25754D01*
X58832Y-25762D01*
X58596Y-25859D01*
X58545Y-25975D01*
X59000Y-26429D01*
X59454Y-25975D01*
X59454Y-26116D01*
X59070Y-26500D01*
X59524Y-26954D01*
X59640Y-26903D01*
X59745Y-26627D01*
X59745Y-28230D01*
X59454Y-28230D01*
X59454Y-27024D01*
X59000Y-26570D01*
X58545Y-27024D01*
X58596Y-27140D01*
X58872Y-27245D01*
X59167Y-27237D01*
X59403Y-27140D01*
X59454Y-27024D01*
X59454Y-28230D01*
X58275Y-28230D01*
X58275Y-27099D01*
X58275Y-26987D01*
X58212Y-26925D01*
X57800Y-26925D01*
X57800Y-27237D01*
X57862Y-27300D01*
X57975Y-27300D01*
X58074Y-27299D01*
X58166Y-27261D01*
X58237Y-27191D01*
X58275Y-27099D01*
X58275Y-28230D01*
X49745Y-28230D01*
X49745Y-26627D01*
X49745Y-18627D01*
X49737Y-18332D01*
X49654Y-18130D01*
X49654Y-17105D01*
X49644Y-16847D01*
X49564Y-16652D01*
X49501Y-16628D01*
X49541Y-16612D01*
X49611Y-16541D01*
X49649Y-16449D01*
X49650Y-16350D01*
X49650Y-15550D01*
X49612Y-15458D01*
X49541Y-15388D01*
X49449Y-15350D01*
X49350Y-15349D01*
X48575Y-15349D01*
X48575Y-14750D01*
X48550Y-14625D01*
X48479Y-14520D01*
X48374Y-14449D01*
X48250Y-14425D01*
X45500Y-14425D01*
X45375Y-14449D01*
X45270Y-14520D01*
X45270Y-14520D01*
X45115Y-14675D01*
X43413Y-14675D01*
X43413Y-14536D01*
X43375Y-14445D01*
X43305Y-14374D01*
X43213Y-14336D01*
X43113Y-14336D01*
X42286Y-14336D01*
X42195Y-14374D01*
X42124Y-14444D01*
X42086Y-14536D01*
X42086Y-14636D01*
X42086Y-15463D01*
X42124Y-15554D01*
X42176Y-15607D01*
X42171Y-15612D01*
X42067Y-15863D01*
X42066Y-16135D01*
X42170Y-16386D01*
X42362Y-16578D01*
X42425Y-16604D01*
X42750Y-16929D01*
X42755Y-16923D01*
X42826Y-16994D01*
X42820Y-17000D01*
X42826Y-17005D01*
X42755Y-17076D01*
X42750Y-17070D01*
X42679Y-17141D01*
X42679Y-17000D01*
X42267Y-16588D01*
X42158Y-16632D01*
X42062Y-16886D01*
X42071Y-17158D01*
X42158Y-17367D01*
X42267Y-17411D01*
X42679Y-17000D01*
X42679Y-17141D01*
X42425Y-17394D01*
X42363Y-17420D01*
X42171Y-17612D01*
X42067Y-17863D01*
X42066Y-18135D01*
X42170Y-18386D01*
X42284Y-18500D01*
X42171Y-18612D01*
X42067Y-18863D01*
X42066Y-19135D01*
X42170Y-19386D01*
X42362Y-19578D01*
X42613Y-19682D01*
X42885Y-19683D01*
X43136Y-19579D01*
X43328Y-19387D01*
X43354Y-19325D01*
X43996Y-19325D01*
X44008Y-19336D01*
X44100Y-19374D01*
X44199Y-19375D01*
X44699Y-19375D01*
X44791Y-19337D01*
X44803Y-19325D01*
X45744Y-19325D01*
X45865Y-19374D01*
X46034Y-19375D01*
X46184Y-19312D01*
X46208Y-19336D01*
X46300Y-19374D01*
X46399Y-19375D01*
X46899Y-19375D01*
X46991Y-19337D01*
X47028Y-19300D01*
X47050Y-19300D01*
X47050Y-19299D01*
X47164Y-19277D01*
X47164Y-19277D01*
X47262Y-19212D01*
X47272Y-19201D01*
X47333Y-19261D01*
X47425Y-19299D01*
X47524Y-19300D01*
X47637Y-19300D01*
X47700Y-19237D01*
X47700Y-18925D01*
X47692Y-18925D01*
X47692Y-18825D01*
X47700Y-18825D01*
X47700Y-18817D01*
X47800Y-18817D01*
X47800Y-18825D01*
X48212Y-18825D01*
X48275Y-18762D01*
X48275Y-18698D01*
X48359Y-18903D01*
X48475Y-18954D01*
X48929Y-18500D01*
X48475Y-18045D01*
X48359Y-18096D01*
X48274Y-18318D01*
X48275Y-18250D01*
X48275Y-17900D01*
X48237Y-17808D01*
X48178Y-17749D01*
X48236Y-17691D01*
X48274Y-17599D01*
X48275Y-17500D01*
X48275Y-17434D01*
X48414Y-17295D01*
X48435Y-17347D01*
X48541Y-17387D01*
X48929Y-17000D01*
X48923Y-16994D01*
X48994Y-16923D01*
X49000Y-16929D01*
X49005Y-16923D01*
X49076Y-16994D01*
X49070Y-17000D01*
X49458Y-17387D01*
X49564Y-17347D01*
X49654Y-17105D01*
X49654Y-18130D01*
X49640Y-18096D01*
X49524Y-18045D01*
X49454Y-18116D01*
X49454Y-17975D01*
X49403Y-17859D01*
X49387Y-17853D01*
X49387Y-17458D01*
X49000Y-17070D01*
X48612Y-17458D01*
X48652Y-17564D01*
X48894Y-17654D01*
X49152Y-17644D01*
X49347Y-17564D01*
X49387Y-17458D01*
X49387Y-17853D01*
X49127Y-17754D01*
X48832Y-17762D01*
X48596Y-17859D01*
X48545Y-17975D01*
X49000Y-18429D01*
X49454Y-17975D01*
X49454Y-18116D01*
X49070Y-18500D01*
X49524Y-18954D01*
X49640Y-18903D01*
X49745Y-18627D01*
X49745Y-26627D01*
X49737Y-26332D01*
X49654Y-26130D01*
X49654Y-25105D01*
X49644Y-24847D01*
X49564Y-24652D01*
X49501Y-24628D01*
X49541Y-24612D01*
X49611Y-24541D01*
X49649Y-24449D01*
X49650Y-24350D01*
X49650Y-23550D01*
X49612Y-23458D01*
X49541Y-23388D01*
X49454Y-23351D01*
X49454Y-19024D01*
X49000Y-18570D01*
X48545Y-19024D01*
X48596Y-19140D01*
X48872Y-19245D01*
X49167Y-19237D01*
X49403Y-19140D01*
X49454Y-19024D01*
X49454Y-23351D01*
X49449Y-23350D01*
X49350Y-23349D01*
X48575Y-23349D01*
X48575Y-22750D01*
X48550Y-22625D01*
X48479Y-22520D01*
X48374Y-22449D01*
X48275Y-22429D01*
X48275Y-19099D01*
X48275Y-18987D01*
X48212Y-18925D01*
X47800Y-18925D01*
X47800Y-19237D01*
X47862Y-19300D01*
X47975Y-19300D01*
X48074Y-19299D01*
X48166Y-19261D01*
X48237Y-19191D01*
X48275Y-19099D01*
X48275Y-22429D01*
X48250Y-22425D01*
X45500Y-22425D01*
X45375Y-22449D01*
X45270Y-22520D01*
X45270Y-22520D01*
X45115Y-22675D01*
X43413Y-22675D01*
X43413Y-22536D01*
X43375Y-22445D01*
X43305Y-22374D01*
X43213Y-22336D01*
X43113Y-22336D01*
X42286Y-22336D01*
X42195Y-22374D01*
X42124Y-22444D01*
X42086Y-22536D01*
X42086Y-22636D01*
X42086Y-23463D01*
X42124Y-23554D01*
X42176Y-23607D01*
X42171Y-23612D01*
X42067Y-23863D01*
X42066Y-24135D01*
X42170Y-24386D01*
X42362Y-24578D01*
X42425Y-24604D01*
X42750Y-24929D01*
X42755Y-24923D01*
X42826Y-24994D01*
X42820Y-25000D01*
X42826Y-25005D01*
X42755Y-25076D01*
X42750Y-25070D01*
X42679Y-25141D01*
X42679Y-25000D01*
X42267Y-24588D01*
X42158Y-24632D01*
X42062Y-24886D01*
X42071Y-25158D01*
X42158Y-25367D01*
X42267Y-25411D01*
X42679Y-25000D01*
X42679Y-25141D01*
X42425Y-25394D01*
X42363Y-25420D01*
X42171Y-25612D01*
X42067Y-25863D01*
X42066Y-26135D01*
X42170Y-26386D01*
X42284Y-26500D01*
X42171Y-26612D01*
X42067Y-26863D01*
X42066Y-27135D01*
X42170Y-27386D01*
X42362Y-27578D01*
X42613Y-27682D01*
X42885Y-27683D01*
X43136Y-27579D01*
X43328Y-27387D01*
X43354Y-27325D01*
X43996Y-27325D01*
X44008Y-27336D01*
X44100Y-27374D01*
X44199Y-27375D01*
X44699Y-27375D01*
X44791Y-27337D01*
X44803Y-27325D01*
X45744Y-27325D01*
X45865Y-27374D01*
X46034Y-27375D01*
X46184Y-27312D01*
X46208Y-27336D01*
X46300Y-27374D01*
X46399Y-27375D01*
X46899Y-27375D01*
X46991Y-27337D01*
X47028Y-27300D01*
X47050Y-27300D01*
X47050Y-27299D01*
X47164Y-27277D01*
X47164Y-27277D01*
X47262Y-27212D01*
X47272Y-27201D01*
X47333Y-27261D01*
X47425Y-27299D01*
X47524Y-27300D01*
X47637Y-27300D01*
X47700Y-27237D01*
X47700Y-26925D01*
X47692Y-26925D01*
X47692Y-26825D01*
X47700Y-26825D01*
X47700Y-26817D01*
X47800Y-26817D01*
X47800Y-26825D01*
X48212Y-26825D01*
X48275Y-26762D01*
X48275Y-26698D01*
X48359Y-26903D01*
X48475Y-26954D01*
X48929Y-26500D01*
X48475Y-26045D01*
X48359Y-26096D01*
X48274Y-26318D01*
X48275Y-26250D01*
X48275Y-25900D01*
X48237Y-25808D01*
X48178Y-25749D01*
X48236Y-25691D01*
X48274Y-25599D01*
X48275Y-25500D01*
X48275Y-25434D01*
X48414Y-25295D01*
X48435Y-25347D01*
X48541Y-25387D01*
X48929Y-25000D01*
X48923Y-24994D01*
X48994Y-24923D01*
X49000Y-24929D01*
X49005Y-24923D01*
X49076Y-24994D01*
X49070Y-25000D01*
X49458Y-25387D01*
X49564Y-25347D01*
X49654Y-25105D01*
X49654Y-26130D01*
X49640Y-26096D01*
X49524Y-26045D01*
X49454Y-26116D01*
X49454Y-25975D01*
X49403Y-25859D01*
X49387Y-25853D01*
X49387Y-25458D01*
X49000Y-25070D01*
X48612Y-25458D01*
X48652Y-25564D01*
X48894Y-25654D01*
X49152Y-25644D01*
X49347Y-25564D01*
X49387Y-25458D01*
X49387Y-25853D01*
X49127Y-25754D01*
X48832Y-25762D01*
X48596Y-25859D01*
X48545Y-25975D01*
X49000Y-26429D01*
X49454Y-25975D01*
X49454Y-26116D01*
X49070Y-26500D01*
X49524Y-26954D01*
X49640Y-26903D01*
X49745Y-26627D01*
X49745Y-28230D01*
X49454Y-28230D01*
X49454Y-27024D01*
X49000Y-26570D01*
X48545Y-27024D01*
X48596Y-27140D01*
X48872Y-27245D01*
X49167Y-27237D01*
X49403Y-27140D01*
X49454Y-27024D01*
X49454Y-28230D01*
X48275Y-28230D01*
X48275Y-27099D01*
X48275Y-26987D01*
X48212Y-26925D01*
X47800Y-26925D01*
X47800Y-27237D01*
X47862Y-27300D01*
X47975Y-27300D01*
X48074Y-27299D01*
X48166Y-27261D01*
X48237Y-27191D01*
X48275Y-27099D01*
X48275Y-28230D01*
X41269Y-28230D01*
X41269Y-13769D01*
X60230Y-13769D01*
X60230Y-28230D01*
X60230Y-28230D01*
G37*
G54D21*
X60230Y-28230D02*
X59745Y-28230D01*
X59745Y-26627D01*
X59745Y-18627D01*
X59737Y-18332D01*
X59654Y-18130D01*
X59654Y-17105D01*
X59644Y-16847D01*
X59564Y-16652D01*
X59501Y-16628D01*
X59541Y-16612D01*
X59611Y-16541D01*
X59649Y-16449D01*
X59650Y-16350D01*
X59650Y-15550D01*
X59612Y-15458D01*
X59541Y-15388D01*
X59449Y-15350D01*
X59350Y-15349D01*
X58575Y-15349D01*
X58575Y-14750D01*
X58550Y-14625D01*
X58479Y-14520D01*
X58374Y-14449D01*
X58250Y-14425D01*
X55500Y-14425D01*
X55375Y-14449D01*
X55270Y-14520D01*
X55270Y-14520D01*
X55115Y-14675D01*
X53413Y-14675D01*
X53413Y-14536D01*
X53375Y-14445D01*
X53305Y-14374D01*
X53213Y-14336D01*
X53113Y-14336D01*
X52286Y-14336D01*
X52195Y-14374D01*
X52124Y-14444D01*
X52086Y-14536D01*
X52086Y-14636D01*
X52086Y-15463D01*
X52124Y-15554D01*
X52176Y-15607D01*
X52171Y-15612D01*
X52067Y-15863D01*
X52066Y-16135D01*
X52170Y-16386D01*
X52362Y-16578D01*
X52425Y-16604D01*
X52750Y-16929D01*
X52755Y-16923D01*
X52826Y-16994D01*
X52820Y-17000D01*
X52826Y-17005D01*
X52755Y-17076D01*
X52750Y-17070D01*
X52679Y-17141D01*
X52679Y-17000D01*
X52267Y-16588D01*
X52158Y-16632D01*
X52062Y-16886D01*
X52071Y-17158D01*
X52158Y-17367D01*
X52267Y-17411D01*
X52679Y-17000D01*
X52679Y-17141D01*
X52425Y-17394D01*
X52363Y-17420D01*
X52171Y-17612D01*
X52067Y-17863D01*
X52066Y-18135D01*
X52170Y-18386D01*
X52284Y-18500D01*
X52171Y-18612D01*
X52067Y-18863D01*
X52066Y-19135D01*
X52170Y-19386D01*
X52362Y-19578D01*
X52613Y-19682D01*
X52885Y-19683D01*
X53136Y-19579D01*
X53328Y-19387D01*
X53354Y-19325D01*
X53996Y-19325D01*
X54008Y-19336D01*
X54100Y-19374D01*
X54199Y-19375D01*
X54699Y-19375D01*
X54791Y-19337D01*
X54803Y-19325D01*
X55744Y-19325D01*
X55865Y-19374D01*
X56034Y-19375D01*
X56184Y-19312D01*
X56208Y-19336D01*
X56300Y-19374D01*
X56399Y-19375D01*
X56899Y-19375D01*
X56991Y-19337D01*
X57028Y-19300D01*
X57050Y-19300D01*
X57050Y-19299D01*
X57164Y-19277D01*
X57164Y-19277D01*
X57262Y-19212D01*
X57272Y-19201D01*
X57333Y-19261D01*
X57425Y-19299D01*
X57524Y-19300D01*
X57637Y-19300D01*
X57700Y-19237D01*
X57700Y-18925D01*
X57692Y-18925D01*
X57692Y-18825D01*
X57700Y-18825D01*
X57700Y-18817D01*
X57800Y-18817D01*
X57800Y-18825D01*
X58212Y-18825D01*
X58275Y-18762D01*
X58275Y-18698D01*
X58359Y-18903D01*
X58475Y-18954D01*
X58929Y-18500D01*
X58475Y-18045D01*
X58359Y-18096D01*
X58274Y-18318D01*
X58275Y-18250D01*
X58275Y-17900D01*
X58237Y-17808D01*
X58178Y-17749D01*
X58236Y-17691D01*
X58274Y-17599D01*
X58275Y-17500D01*
X58275Y-17434D01*
X58414Y-17295D01*
X58435Y-17347D01*
X58541Y-17387D01*
X58929Y-17000D01*
X58923Y-16994D01*
X58994Y-16923D01*
X59000Y-16929D01*
X59005Y-16923D01*
X59076Y-16994D01*
X59070Y-17000D01*
X59458Y-17387D01*
X59564Y-17347D01*
X59654Y-17105D01*
X59654Y-18130D01*
X59640Y-18096D01*
X59524Y-18045D01*
X59454Y-18116D01*
X59454Y-17975D01*
X59403Y-17859D01*
X59387Y-17853D01*
X59387Y-17458D01*
X59000Y-17070D01*
X58612Y-17458D01*
X58652Y-17564D01*
X58894Y-17654D01*
X59152Y-17644D01*
X59347Y-17564D01*
X59387Y-17458D01*
X59387Y-17853D01*
X59127Y-17754D01*
X58832Y-17762D01*
X58596Y-17859D01*
X58545Y-17975D01*
X59000Y-18429D01*
X59454Y-17975D01*
X59454Y-18116D01*
X59070Y-18500D01*
X59524Y-18954D01*
X59640Y-18903D01*
X59745Y-18627D01*
X59745Y-26627D01*
X59737Y-26332D01*
X59654Y-26130D01*
X59654Y-25105D01*
X59644Y-24847D01*
X59564Y-24652D01*
X59501Y-24628D01*
X59541Y-24612D01*
X59611Y-24541D01*
X59649Y-24449D01*
X59650Y-24350D01*
X59650Y-23550D01*
X59612Y-23458D01*
X59541Y-23388D01*
X59454Y-23351D01*
X59454Y-19024D01*
X59000Y-18570D01*
X58545Y-19024D01*
X58596Y-19140D01*
X58872Y-19245D01*
X59167Y-19237D01*
X59403Y-19140D01*
X59454Y-19024D01*
X59454Y-23351D01*
X59449Y-23350D01*
X59350Y-23349D01*
X58575Y-23349D01*
X58575Y-22750D01*
X58550Y-22625D01*
X58479Y-22520D01*
X58374Y-22449D01*
X58275Y-22429D01*
X58275Y-19099D01*
X58275Y-18987D01*
X58212Y-18925D01*
X57800Y-18925D01*
X57800Y-19237D01*
X57862Y-19300D01*
X57975Y-19300D01*
X58074Y-19299D01*
X58166Y-19261D01*
X58237Y-19191D01*
X58275Y-19099D01*
X58275Y-22429D01*
X58250Y-22425D01*
X55500Y-22425D01*
X55375Y-22449D01*
X55270Y-22520D01*
X55270Y-22520D01*
X55115Y-22675D01*
X53413Y-22675D01*
X53413Y-22536D01*
X53375Y-22445D01*
X53305Y-22374D01*
X53213Y-22336D01*
X53113Y-22336D01*
X52286Y-22336D01*
X52195Y-22374D01*
X52124Y-22444D01*
X52086Y-22536D01*
X52086Y-22636D01*
X52086Y-23463D01*
X52124Y-23554D01*
X52176Y-23607D01*
X52171Y-23612D01*
X52067Y-23863D01*
X52066Y-24135D01*
X52170Y-24386D01*
X52362Y-24578D01*
X52425Y-24604D01*
X52750Y-24929D01*
X52755Y-24923D01*
X52826Y-24994D01*
X52820Y-25000D01*
X52826Y-25005D01*
X52755Y-25076D01*
X52750Y-25070D01*
X52679Y-25141D01*
X52679Y-25000D01*
X52267Y-24588D01*
X52158Y-24632D01*
X52062Y-24886D01*
X52071Y-25158D01*
X52158Y-25367D01*
X52267Y-25411D01*
X52679Y-25000D01*
X52679Y-25141D01*
X52425Y-25394D01*
X52363Y-25420D01*
X52171Y-25612D01*
X52067Y-25863D01*
X52066Y-26135D01*
X52170Y-26386D01*
X52284Y-26500D01*
X52171Y-26612D01*
X52067Y-26863D01*
X52066Y-27135D01*
X52170Y-27386D01*
X52362Y-27578D01*
X52613Y-27682D01*
X52885Y-27683D01*
X53136Y-27579D01*
X53328Y-27387D01*
X53354Y-27325D01*
X53996Y-27325D01*
X54008Y-27336D01*
X54100Y-27374D01*
X54199Y-27375D01*
X54699Y-27375D01*
X54791Y-27337D01*
X54803Y-27325D01*
X55744Y-27325D01*
X55865Y-27374D01*
X56034Y-27375D01*
X56184Y-27312D01*
X56208Y-27336D01*
X56300Y-27374D01*
X56399Y-27375D01*
X56899Y-27375D01*
X56991Y-27337D01*
X57028Y-27300D01*
X57050Y-27300D01*
X57050Y-27299D01*
X57164Y-27277D01*
X57164Y-27277D01*
X57262Y-27212D01*
X57272Y-27201D01*
X57333Y-27261D01*
X57425Y-27299D01*
X57524Y-27300D01*
X57637Y-27300D01*
X57700Y-27237D01*
X57700Y-26925D01*
X57692Y-26925D01*
X57692Y-26825D01*
X57700Y-26825D01*
X57700Y-26817D01*
X57800Y-26817D01*
X57800Y-26825D01*
X58212Y-26825D01*
X58275Y-26762D01*
X58275Y-26698D01*
X58359Y-26903D01*
X58475Y-26954D01*
X58929Y-26500D01*
X58475Y-26045D01*
X58359Y-26096D01*
X58274Y-26318D01*
X58275Y-26250D01*
X58275Y-25900D01*
X58237Y-25808D01*
X58178Y-25749D01*
X58236Y-25691D01*
X58274Y-25599D01*
X58275Y-25500D01*
X58275Y-25434D01*
X58414Y-25295D01*
X58435Y-25347D01*
X58541Y-25387D01*
X58929Y-25000D01*
X58923Y-24994D01*
X58994Y-24923D01*
X59000Y-24929D01*
X59005Y-24923D01*
X59076Y-24994D01*
X59070Y-25000D01*
X59458Y-25387D01*
X59564Y-25347D01*
X59654Y-25105D01*
X59654Y-26130D01*
X59640Y-26096D01*
X59524Y-26045D01*
X59454Y-26116D01*
X59454Y-25975D01*
X59403Y-25859D01*
X59387Y-25853D01*
X59387Y-25458D01*
X59000Y-25070D01*
X58612Y-25458D01*
X58652Y-25564D01*
X58894Y-25654D01*
X59152Y-25644D01*
X59347Y-25564D01*
X59387Y-25458D01*
X59387Y-25853D01*
X59127Y-25754D01*
X58832Y-25762D01*
X58596Y-25859D01*
X58545Y-25975D01*
X59000Y-26429D01*
X59454Y-25975D01*
X59454Y-26116D01*
X59070Y-26500D01*
X59524Y-26954D01*
X59640Y-26903D01*
X59745Y-26627D01*
X59745Y-28230D01*
X59454Y-28230D01*
X59454Y-27024D01*
X59000Y-26570D01*
X58545Y-27024D01*
X58596Y-27140D01*
X58872Y-27245D01*
X59167Y-27237D01*
X59403Y-27140D01*
X59454Y-27024D01*
X59454Y-28230D01*
X58275Y-28230D01*
X58275Y-27099D01*
X58275Y-26987D01*
X58212Y-26925D01*
X57800Y-26925D01*
X57800Y-27237D01*
X57862Y-27300D01*
X57975Y-27300D01*
X58074Y-27299D01*
X58166Y-27261D01*
X58237Y-27191D01*
X58275Y-27099D01*
X58275Y-28230D01*
X49745Y-28230D01*
X49745Y-26627D01*
X49745Y-18627D01*
X49737Y-18332D01*
X49654Y-18130D01*
X49654Y-17105D01*
X49644Y-16847D01*
X49564Y-16652D01*
X49501Y-16628D01*
X49541Y-16612D01*
X49611Y-16541D01*
X49649Y-16449D01*
X49650Y-16350D01*
X49650Y-15550D01*
X49612Y-15458D01*
X49541Y-15388D01*
X49449Y-15350D01*
X49350Y-15349D01*
X48575Y-15349D01*
X48575Y-14750D01*
X48550Y-14625D01*
X48479Y-14520D01*
X48374Y-14449D01*
X48250Y-14425D01*
X45500Y-14425D01*
X45375Y-14449D01*
X45270Y-14520D01*
X45270Y-14520D01*
X45115Y-14675D01*
X43413Y-14675D01*
X43413Y-14536D01*
X43375Y-14445D01*
X43305Y-14374D01*
X43213Y-14336D01*
X43113Y-14336D01*
X42286Y-14336D01*
X42195Y-14374D01*
X42124Y-14444D01*
X42086Y-14536D01*
X42086Y-14636D01*
X42086Y-15463D01*
X42124Y-15554D01*
X42176Y-15607D01*
X42171Y-15612D01*
X42067Y-15863D01*
X42066Y-16135D01*
X42170Y-16386D01*
X42362Y-16578D01*
X42425Y-16604D01*
X42750Y-16929D01*
X42755Y-16923D01*
X42826Y-16994D01*
X42820Y-17000D01*
X42826Y-17005D01*
X42755Y-17076D01*
X42750Y-17070D01*
X42679Y-17141D01*
X42679Y-17000D01*
X42267Y-16588D01*
X42158Y-16632D01*
X42062Y-16886D01*
X42071Y-17158D01*
X42158Y-17367D01*
X42267Y-17411D01*
X42679Y-17000D01*
X42679Y-17141D01*
X42425Y-17394D01*
X42363Y-17420D01*
X42171Y-17612D01*
X42067Y-17863D01*
X42066Y-18135D01*
X42170Y-18386D01*
X42284Y-18500D01*
X42171Y-18612D01*
X42067Y-18863D01*
X42066Y-19135D01*
X42170Y-19386D01*
X42362Y-19578D01*
X42613Y-19682D01*
X42885Y-19683D01*
X43136Y-19579D01*
X43328Y-19387D01*
X43354Y-19325D01*
X43996Y-19325D01*
X44008Y-19336D01*
X44100Y-19374D01*
X44199Y-19375D01*
X44699Y-19375D01*
X44791Y-19337D01*
X44803Y-19325D01*
X45744Y-19325D01*
X45865Y-19374D01*
X46034Y-19375D01*
X46184Y-19312D01*
X46208Y-19336D01*
X46300Y-19374D01*
X46399Y-19375D01*
X46899Y-19375D01*
X46991Y-19337D01*
X47028Y-19300D01*
X47050Y-19300D01*
X47050Y-19299D01*
X47164Y-19277D01*
X47164Y-19277D01*
X47262Y-19212D01*
X47272Y-19201D01*
X47333Y-19261D01*
X47425Y-19299D01*
X47524Y-19300D01*
X47637Y-19300D01*
X47700Y-19237D01*
X47700Y-18925D01*
X47692Y-18925D01*
X47692Y-18825D01*
X47700Y-18825D01*
X47700Y-18817D01*
X47800Y-18817D01*
X47800Y-18825D01*
X48212Y-18825D01*
X48275Y-18762D01*
X48275Y-18698D01*
X48359Y-18903D01*
X48475Y-18954D01*
X48929Y-18500D01*
X48475Y-18045D01*
X48359Y-18096D01*
X48274Y-18318D01*
X48275Y-18250D01*
X48275Y-17900D01*
X48237Y-17808D01*
X48178Y-17749D01*
X48236Y-17691D01*
X48274Y-17599D01*
X48275Y-17500D01*
X48275Y-17434D01*
X48414Y-17295D01*
X48435Y-17347D01*
X48541Y-17387D01*
X48929Y-17000D01*
X48923Y-16994D01*
X48994Y-16923D01*
X49000Y-16929D01*
X49005Y-16923D01*
X49076Y-16994D01*
X49070Y-17000D01*
X49458Y-17387D01*
X49564Y-17347D01*
X49654Y-17105D01*
X49654Y-18130D01*
X49640Y-18096D01*
X49524Y-18045D01*
X49454Y-18116D01*
X49454Y-17975D01*
X49403Y-17859D01*
X49387Y-17853D01*
X49387Y-17458D01*
X49000Y-17070D01*
X48612Y-17458D01*
X48652Y-17564D01*
X48894Y-17654D01*
X49152Y-17644D01*
X49347Y-17564D01*
X49387Y-17458D01*
X49387Y-17853D01*
X49127Y-17754D01*
X48832Y-17762D01*
X48596Y-17859D01*
X48545Y-17975D01*
X49000Y-18429D01*
X49454Y-17975D01*
X49454Y-18116D01*
X49070Y-18500D01*
X49524Y-18954D01*
X49640Y-18903D01*
X49745Y-18627D01*
X49745Y-26627D01*
X49737Y-26332D01*
X49654Y-26130D01*
X49654Y-25105D01*
X49644Y-24847D01*
X49564Y-24652D01*
X49501Y-24628D01*
X49541Y-24612D01*
X49611Y-24541D01*
X49649Y-24449D01*
X49650Y-24350D01*
X49650Y-23550D01*
X49612Y-23458D01*
X49541Y-23388D01*
X49454Y-23351D01*
X49454Y-19024D01*
X49000Y-18570D01*
X48545Y-19024D01*
X48596Y-19140D01*
X48872Y-19245D01*
X49167Y-19237D01*
X49403Y-19140D01*
X49454Y-19024D01*
X49454Y-23351D01*
X49449Y-23350D01*
X49350Y-23349D01*
X48575Y-23349D01*
X48575Y-22750D01*
X48550Y-22625D01*
X48479Y-22520D01*
X48374Y-22449D01*
X48275Y-22429D01*
X48275Y-19099D01*
X48275Y-18987D01*
X48212Y-18925D01*
X47800Y-18925D01*
X47800Y-19237D01*
X47862Y-19300D01*
X47975Y-19300D01*
X48074Y-19299D01*
X48166Y-19261D01*
X48237Y-19191D01*
X48275Y-19099D01*
X48275Y-22429D01*
X48250Y-22425D01*
X45500Y-22425D01*
X45375Y-22449D01*
X45270Y-22520D01*
X45270Y-22520D01*
X45115Y-22675D01*
X43413Y-22675D01*
X43413Y-22536D01*
X43375Y-22445D01*
X43305Y-22374D01*
X43213Y-22336D01*
X43113Y-22336D01*
X42286Y-22336D01*
X42195Y-22374D01*
X42124Y-22444D01*
X42086Y-22536D01*
X42086Y-22636D01*
X42086Y-23463D01*
X42124Y-23554D01*
X42176Y-23607D01*
X42171Y-23612D01*
X42067Y-23863D01*
X42066Y-24135D01*
X42170Y-24386D01*
X42362Y-24578D01*
X42425Y-24604D01*
X42750Y-24929D01*
X42755Y-24923D01*
X42826Y-24994D01*
X42820Y-25000D01*
X42826Y-25005D01*
X42755Y-25076D01*
X42750Y-25070D01*
X42679Y-25141D01*
X42679Y-25000D01*
X42267Y-24588D01*
X42158Y-24632D01*
X42062Y-24886D01*
X42071Y-25158D01*
X42158Y-25367D01*
X42267Y-25411D01*
X42679Y-25000D01*
X42679Y-25141D01*
X42425Y-25394D01*
X42363Y-25420D01*
X42171Y-25612D01*
X42067Y-25863D01*
X42066Y-26135D01*
X42170Y-26386D01*
X42284Y-26500D01*
X42171Y-26612D01*
X42067Y-26863D01*
X42066Y-27135D01*
X42170Y-27386D01*
X42362Y-27578D01*
X42613Y-27682D01*
X42885Y-27683D01*
X43136Y-27579D01*
X43328Y-27387D01*
X43354Y-27325D01*
X43996Y-27325D01*
X44008Y-27336D01*
X44100Y-27374D01*
X44199Y-27375D01*
X44699Y-27375D01*
X44791Y-27337D01*
X44803Y-27325D01*
X45744Y-27325D01*
X45865Y-27374D01*
X46034Y-27375D01*
X46184Y-27312D01*
X46208Y-27336D01*
X46300Y-27374D01*
X46399Y-27375D01*
X46899Y-27375D01*
X46991Y-27337D01*
X47028Y-27300D01*
X47050Y-27300D01*
X47050Y-27299D01*
X47164Y-27277D01*
X47164Y-27277D01*
X47262Y-27212D01*
X47272Y-27201D01*
X47333Y-27261D01*
X47425Y-27299D01*
X47524Y-27300D01*
X47637Y-27300D01*
X47700Y-27237D01*
X47700Y-26925D01*
X47692Y-26925D01*
X47692Y-26825D01*
X47700Y-26825D01*
X47700Y-26817D01*
X47800Y-26817D01*
X47800Y-26825D01*
X48212Y-26825D01*
X48275Y-26762D01*
X48275Y-26698D01*
X48359Y-26903D01*
X48475Y-26954D01*
X48929Y-26500D01*
X48475Y-26045D01*
X48359Y-26096D01*
X48274Y-26318D01*
X48275Y-26250D01*
X48275Y-25900D01*
X48237Y-25808D01*
X48178Y-25749D01*
X48236Y-25691D01*
X48274Y-25599D01*
X48275Y-25500D01*
X48275Y-25434D01*
X48414Y-25295D01*
X48435Y-25347D01*
X48541Y-25387D01*
X48929Y-25000D01*
X48923Y-24994D01*
X48994Y-24923D01*
X49000Y-24929D01*
X49005Y-24923D01*
X49076Y-24994D01*
X49070Y-25000D01*
X49458Y-25387D01*
X49564Y-25347D01*
X49654Y-25105D01*
X49654Y-26130D01*
X49640Y-26096D01*
X49524Y-26045D01*
X49454Y-26116D01*
X49454Y-25975D01*
X49403Y-25859D01*
X49387Y-25853D01*
X49387Y-25458D01*
X49000Y-25070D01*
X48612Y-25458D01*
X48652Y-25564D01*
X48894Y-25654D01*
X49152Y-25644D01*
X49347Y-25564D01*
X49387Y-25458D01*
X49387Y-25853D01*
X49127Y-25754D01*
X48832Y-25762D01*
X48596Y-25859D01*
X48545Y-25975D01*
X49000Y-26429D01*
X49454Y-25975D01*
X49454Y-26116D01*
X49070Y-26500D01*
X49524Y-26954D01*
X49640Y-26903D01*
X49745Y-26627D01*
X49745Y-28230D01*
X49454Y-28230D01*
X49454Y-27024D01*
X49000Y-26570D01*
X48545Y-27024D01*
X48596Y-27140D01*
X48872Y-27245D01*
X49167Y-27237D01*
X49403Y-27140D01*
X49454Y-27024D01*
X49454Y-28230D01*
X48275Y-28230D01*
X48275Y-27099D01*
X48275Y-26987D01*
X48212Y-26925D01*
X47800Y-26925D01*
X47800Y-27237D01*
X47862Y-27300D01*
X47975Y-27300D01*
X48074Y-27299D01*
X48166Y-27261D01*
X48237Y-27191D01*
X48275Y-27099D01*
X48275Y-28230D01*
X41269Y-28230D01*
X41269Y-13769D01*
X60230Y-13769D01*
X60230Y-28230D01*
M02*
