G04 (created by PCBNEW (2013-07-07 BZR 4022)-stable) date 29/12/2014 16:41:19*
%MOIN*%
G04 Gerber Fmt 3.4, Leading zero omitted, Abs format*
%FSLAX34Y34*%
G01*
G70*
G90*
G04 APERTURE LIST*
%ADD10C,0.00590551*%
%ADD11C,0.011811*%
%ADD12C,0.0984252*%
%ADD13R,0.0827X0.0827*%
%ADD14C,0.0866*%
%ADD15R,0.08X0.08*%
%ADD16C,0.08*%
%ADD17C,0.035*%
%ADD18C,0.015*%
%ADD19C,0.01*%
G04 APERTURE END LIST*
G54D10*
G54D11*
X47741Y-22598D02*
X48023Y-22598D01*
X48051Y-22879D01*
X48023Y-22851D01*
X47966Y-22823D01*
X47826Y-22823D01*
X47770Y-22851D01*
X47741Y-22879D01*
X47713Y-22935D01*
X47713Y-23076D01*
X47741Y-23132D01*
X47770Y-23160D01*
X47826Y-23189D01*
X47966Y-23189D01*
X48023Y-23160D01*
X48051Y-23132D01*
X47179Y-22598D02*
X47460Y-22598D01*
X47488Y-22879D01*
X47460Y-22851D01*
X47404Y-22823D01*
X47263Y-22823D01*
X47207Y-22851D01*
X47179Y-22879D01*
X47151Y-22935D01*
X47151Y-23076D01*
X47179Y-23132D01*
X47207Y-23160D01*
X47263Y-23189D01*
X47404Y-23189D01*
X47460Y-23160D01*
X47488Y-23132D01*
X46617Y-22598D02*
X46898Y-22598D01*
X46926Y-22879D01*
X46898Y-22851D01*
X46842Y-22823D01*
X46701Y-22823D01*
X46645Y-22851D01*
X46617Y-22879D01*
X46588Y-22935D01*
X46588Y-23076D01*
X46617Y-23132D01*
X46645Y-23160D01*
X46701Y-23189D01*
X46842Y-23189D01*
X46898Y-23160D01*
X46926Y-23132D01*
X45970Y-22598D02*
X45632Y-22598D01*
X45801Y-23189D02*
X45801Y-22598D01*
X45435Y-23189D02*
X45435Y-22795D01*
X45435Y-22598D02*
X45464Y-22626D01*
X45435Y-22654D01*
X45407Y-22626D01*
X45435Y-22598D01*
X45435Y-22654D01*
X45154Y-23189D02*
X45154Y-22795D01*
X45154Y-22851D02*
X45126Y-22823D01*
X45070Y-22795D01*
X44986Y-22795D01*
X44929Y-22823D01*
X44901Y-22879D01*
X44901Y-23189D01*
X44901Y-22879D02*
X44873Y-22823D01*
X44817Y-22795D01*
X44732Y-22795D01*
X44676Y-22823D01*
X44648Y-22879D01*
X44648Y-23189D01*
X44142Y-23160D02*
X44198Y-23189D01*
X44311Y-23189D01*
X44367Y-23160D01*
X44395Y-23104D01*
X44395Y-22879D01*
X44367Y-22823D01*
X44311Y-22795D01*
X44198Y-22795D01*
X44142Y-22823D01*
X44114Y-22879D01*
X44114Y-22935D01*
X44395Y-22992D01*
X43861Y-23189D02*
X43861Y-22795D01*
X43861Y-22907D02*
X43833Y-22851D01*
X43804Y-22823D01*
X43748Y-22795D01*
X43692Y-22795D01*
X57741Y-22598D02*
X58023Y-22598D01*
X58051Y-22879D01*
X58023Y-22851D01*
X57966Y-22823D01*
X57826Y-22823D01*
X57770Y-22851D01*
X57741Y-22879D01*
X57713Y-22935D01*
X57713Y-23076D01*
X57741Y-23132D01*
X57770Y-23160D01*
X57826Y-23189D01*
X57966Y-23189D01*
X58023Y-23160D01*
X58051Y-23132D01*
X57179Y-22598D02*
X57460Y-22598D01*
X57488Y-22879D01*
X57460Y-22851D01*
X57404Y-22823D01*
X57263Y-22823D01*
X57207Y-22851D01*
X57179Y-22879D01*
X57151Y-22935D01*
X57151Y-23076D01*
X57179Y-23132D01*
X57207Y-23160D01*
X57263Y-23189D01*
X57404Y-23189D01*
X57460Y-23160D01*
X57488Y-23132D01*
X56617Y-22598D02*
X56898Y-22598D01*
X56926Y-22879D01*
X56898Y-22851D01*
X56842Y-22823D01*
X56701Y-22823D01*
X56645Y-22851D01*
X56617Y-22879D01*
X56588Y-22935D01*
X56588Y-23076D01*
X56617Y-23132D01*
X56645Y-23160D01*
X56701Y-23189D01*
X56842Y-23189D01*
X56898Y-23160D01*
X56926Y-23132D01*
X55970Y-22598D02*
X55632Y-22598D01*
X55801Y-23189D02*
X55801Y-22598D01*
X55435Y-23189D02*
X55435Y-22795D01*
X55435Y-22598D02*
X55464Y-22626D01*
X55435Y-22654D01*
X55407Y-22626D01*
X55435Y-22598D01*
X55435Y-22654D01*
X55154Y-23189D02*
X55154Y-22795D01*
X55154Y-22851D02*
X55126Y-22823D01*
X55070Y-22795D01*
X54986Y-22795D01*
X54929Y-22823D01*
X54901Y-22879D01*
X54901Y-23189D01*
X54901Y-22879D02*
X54873Y-22823D01*
X54817Y-22795D01*
X54732Y-22795D01*
X54676Y-22823D01*
X54648Y-22879D01*
X54648Y-23189D01*
X54142Y-23160D02*
X54198Y-23189D01*
X54311Y-23189D01*
X54367Y-23160D01*
X54395Y-23104D01*
X54395Y-22879D01*
X54367Y-22823D01*
X54311Y-22795D01*
X54198Y-22795D01*
X54142Y-22823D01*
X54114Y-22879D01*
X54114Y-22935D01*
X54395Y-22992D01*
X53861Y-23189D02*
X53861Y-22795D01*
X53861Y-22907D02*
X53833Y-22851D01*
X53804Y-22823D01*
X53748Y-22795D01*
X53692Y-22795D01*
X57741Y-14598D02*
X58023Y-14598D01*
X58051Y-14879D01*
X58023Y-14851D01*
X57966Y-14823D01*
X57826Y-14823D01*
X57770Y-14851D01*
X57741Y-14879D01*
X57713Y-14935D01*
X57713Y-15076D01*
X57741Y-15132D01*
X57770Y-15160D01*
X57826Y-15189D01*
X57966Y-15189D01*
X58023Y-15160D01*
X58051Y-15132D01*
X57179Y-14598D02*
X57460Y-14598D01*
X57488Y-14879D01*
X57460Y-14851D01*
X57404Y-14823D01*
X57263Y-14823D01*
X57207Y-14851D01*
X57179Y-14879D01*
X57151Y-14935D01*
X57151Y-15076D01*
X57179Y-15132D01*
X57207Y-15160D01*
X57263Y-15189D01*
X57404Y-15189D01*
X57460Y-15160D01*
X57488Y-15132D01*
X56617Y-14598D02*
X56898Y-14598D01*
X56926Y-14879D01*
X56898Y-14851D01*
X56842Y-14823D01*
X56701Y-14823D01*
X56645Y-14851D01*
X56617Y-14879D01*
X56588Y-14935D01*
X56588Y-15076D01*
X56617Y-15132D01*
X56645Y-15160D01*
X56701Y-15189D01*
X56842Y-15189D01*
X56898Y-15160D01*
X56926Y-15132D01*
X55970Y-14598D02*
X55632Y-14598D01*
X55801Y-15189D02*
X55801Y-14598D01*
X55435Y-15189D02*
X55435Y-14795D01*
X55435Y-14598D02*
X55464Y-14626D01*
X55435Y-14654D01*
X55407Y-14626D01*
X55435Y-14598D01*
X55435Y-14654D01*
X55154Y-15189D02*
X55154Y-14795D01*
X55154Y-14851D02*
X55126Y-14823D01*
X55070Y-14795D01*
X54986Y-14795D01*
X54929Y-14823D01*
X54901Y-14879D01*
X54901Y-15189D01*
X54901Y-14879D02*
X54873Y-14823D01*
X54817Y-14795D01*
X54732Y-14795D01*
X54676Y-14823D01*
X54648Y-14879D01*
X54648Y-15189D01*
X54142Y-15160D02*
X54198Y-15189D01*
X54311Y-15189D01*
X54367Y-15160D01*
X54395Y-15104D01*
X54395Y-14879D01*
X54367Y-14823D01*
X54311Y-14795D01*
X54198Y-14795D01*
X54142Y-14823D01*
X54114Y-14879D01*
X54114Y-14935D01*
X54395Y-14992D01*
X53861Y-15189D02*
X53861Y-14795D01*
X53861Y-14907D02*
X53833Y-14851D01*
X53804Y-14823D01*
X53748Y-14795D01*
X53692Y-14795D01*
X47741Y-14598D02*
X48023Y-14598D01*
X48051Y-14879D01*
X48023Y-14851D01*
X47966Y-14823D01*
X47826Y-14823D01*
X47770Y-14851D01*
X47741Y-14879D01*
X47713Y-14935D01*
X47713Y-15076D01*
X47741Y-15132D01*
X47770Y-15160D01*
X47826Y-15189D01*
X47966Y-15189D01*
X48023Y-15160D01*
X48051Y-15132D01*
X47179Y-14598D02*
X47460Y-14598D01*
X47488Y-14879D01*
X47460Y-14851D01*
X47404Y-14823D01*
X47263Y-14823D01*
X47207Y-14851D01*
X47179Y-14879D01*
X47151Y-14935D01*
X47151Y-15076D01*
X47179Y-15132D01*
X47207Y-15160D01*
X47263Y-15189D01*
X47404Y-15189D01*
X47460Y-15160D01*
X47488Y-15132D01*
X46617Y-14598D02*
X46898Y-14598D01*
X46926Y-14879D01*
X46898Y-14851D01*
X46842Y-14823D01*
X46701Y-14823D01*
X46645Y-14851D01*
X46617Y-14879D01*
X46588Y-14935D01*
X46588Y-15076D01*
X46617Y-15132D01*
X46645Y-15160D01*
X46701Y-15189D01*
X46842Y-15189D01*
X46898Y-15160D01*
X46926Y-15132D01*
X45970Y-14598D02*
X45632Y-14598D01*
X45801Y-15189D02*
X45801Y-14598D01*
X45435Y-15189D02*
X45435Y-14795D01*
X45435Y-14598D02*
X45464Y-14626D01*
X45435Y-14654D01*
X45407Y-14626D01*
X45435Y-14598D01*
X45435Y-14654D01*
X45154Y-15189D02*
X45154Y-14795D01*
X45154Y-14851D02*
X45126Y-14823D01*
X45070Y-14795D01*
X44986Y-14795D01*
X44929Y-14823D01*
X44901Y-14879D01*
X44901Y-15189D01*
X44901Y-14879D02*
X44873Y-14823D01*
X44817Y-14795D01*
X44732Y-14795D01*
X44676Y-14823D01*
X44648Y-14879D01*
X44648Y-15189D01*
X44142Y-15160D02*
X44198Y-15189D01*
X44311Y-15189D01*
X44367Y-15160D01*
X44395Y-15104D01*
X44395Y-14879D01*
X44367Y-14823D01*
X44311Y-14795D01*
X44198Y-14795D01*
X44142Y-14823D01*
X44114Y-14879D01*
X44114Y-14935D01*
X44395Y-14992D01*
X43861Y-15189D02*
X43861Y-14795D01*
X43861Y-14907D02*
X43833Y-14851D01*
X43804Y-14823D01*
X43748Y-14795D01*
X43692Y-14795D01*
G54D12*
X49000Y-26500D03*
G54D13*
X42750Y-23000D03*
G54D14*
X42750Y-24000D03*
X42750Y-25000D03*
X42750Y-26000D03*
X42750Y-27000D03*
G54D15*
X49000Y-24000D03*
G54D16*
X49000Y-25000D03*
G54D15*
X59000Y-24000D03*
G54D16*
X59000Y-25000D03*
G54D13*
X52750Y-23000D03*
G54D14*
X52750Y-24000D03*
X52750Y-25000D03*
X52750Y-26000D03*
X52750Y-27000D03*
G54D12*
X59000Y-26500D03*
X59000Y-18500D03*
G54D13*
X52750Y-15000D03*
G54D14*
X52750Y-16000D03*
X52750Y-17000D03*
X52750Y-18000D03*
X52750Y-19000D03*
G54D15*
X59000Y-16000D03*
G54D16*
X59000Y-17000D03*
G54D15*
X49000Y-16000D03*
G54D16*
X49000Y-17000D03*
G54D13*
X42750Y-15000D03*
G54D14*
X42750Y-16000D03*
X42750Y-17000D03*
X42750Y-18000D03*
X42750Y-19000D03*
G54D12*
X49000Y-18500D03*
G54D17*
X45950Y-26950D03*
X46000Y-25000D03*
X56000Y-25000D03*
X55950Y-26950D03*
X55950Y-18950D03*
X56000Y-17000D03*
X46000Y-17000D03*
X45950Y-18950D03*
X43850Y-25500D03*
X53850Y-25500D03*
X53850Y-17500D03*
X43850Y-17500D03*
G54D18*
X45950Y-26950D02*
X46000Y-26900D01*
X46000Y-26900D02*
X46000Y-25000D01*
X56000Y-26900D02*
X56000Y-25000D01*
X55950Y-26950D02*
X56000Y-26900D01*
X55950Y-18950D02*
X56000Y-18900D01*
X56000Y-18900D02*
X56000Y-17000D01*
X46000Y-18900D02*
X46000Y-17000D01*
X45950Y-18950D02*
X46000Y-18900D01*
X48100Y-27350D02*
X46750Y-27350D01*
X48950Y-26500D02*
X48100Y-27350D01*
X49000Y-26500D02*
X48950Y-26500D01*
X43350Y-25000D02*
X43850Y-25500D01*
X42750Y-25000D02*
X43350Y-25000D01*
X43250Y-25000D02*
X45600Y-27350D01*
X45600Y-27350D02*
X46750Y-27350D01*
X42750Y-25000D02*
X43250Y-25000D01*
X52750Y-25000D02*
X53250Y-25000D01*
X55600Y-27350D02*
X56750Y-27350D01*
X53250Y-25000D02*
X55600Y-27350D01*
X52750Y-25000D02*
X53350Y-25000D01*
X53350Y-25000D02*
X53850Y-25500D01*
X59000Y-26500D02*
X58950Y-26500D01*
X58950Y-26500D02*
X58100Y-27350D01*
X58100Y-27350D02*
X56750Y-27350D01*
X58100Y-19350D02*
X56750Y-19350D01*
X58950Y-18500D02*
X58100Y-19350D01*
X59000Y-18500D02*
X58950Y-18500D01*
X53350Y-17000D02*
X53850Y-17500D01*
X52750Y-17000D02*
X53350Y-17000D01*
X53250Y-17000D02*
X55600Y-19350D01*
X55600Y-19350D02*
X56750Y-19350D01*
X52750Y-17000D02*
X53250Y-17000D01*
X42750Y-17000D02*
X43250Y-17000D01*
X45600Y-19350D02*
X46750Y-19350D01*
X43250Y-17000D02*
X45600Y-19350D01*
X42750Y-17000D02*
X43350Y-17000D01*
X43350Y-17000D02*
X43850Y-17500D01*
X49000Y-18500D02*
X48950Y-18500D01*
X48950Y-18500D02*
X48100Y-19350D01*
X48100Y-19350D02*
X46750Y-19350D01*
G54D10*
G36*
X60230Y-28230D02*
X59745Y-28230D01*
X59745Y-26627D01*
X59745Y-18627D01*
X59737Y-18332D01*
X59654Y-18130D01*
X59654Y-17105D01*
X59644Y-16847D01*
X59564Y-16652D01*
X59501Y-16628D01*
X59541Y-16612D01*
X59611Y-16541D01*
X59649Y-16449D01*
X59650Y-16350D01*
X59650Y-15550D01*
X59612Y-15458D01*
X59541Y-15388D01*
X59449Y-15350D01*
X59350Y-15349D01*
X58550Y-15349D01*
X58472Y-15382D01*
X58472Y-14109D01*
X53327Y-14109D01*
X53327Y-14396D01*
X53305Y-14374D01*
X53213Y-14336D01*
X53113Y-14336D01*
X52286Y-14336D01*
X52195Y-14374D01*
X52124Y-14444D01*
X52086Y-14536D01*
X52086Y-14636D01*
X52086Y-15463D01*
X52124Y-15554D01*
X52176Y-15607D01*
X52171Y-15612D01*
X52067Y-15863D01*
X52066Y-16135D01*
X52170Y-16386D01*
X52362Y-16578D01*
X52425Y-16604D01*
X52750Y-16929D01*
X53074Y-16605D01*
X53136Y-16579D01*
X53328Y-16387D01*
X53432Y-16136D01*
X53433Y-15864D01*
X53353Y-15672D01*
X58349Y-15672D01*
X58349Y-16449D01*
X58387Y-16541D01*
X58458Y-16611D01*
X58498Y-16628D01*
X58435Y-16652D01*
X58345Y-16894D01*
X58355Y-17152D01*
X58435Y-17347D01*
X58541Y-17387D01*
X58929Y-17000D01*
X58923Y-16994D01*
X58994Y-16923D01*
X59000Y-16929D01*
X59005Y-16923D01*
X59076Y-16994D01*
X59070Y-17000D01*
X59458Y-17387D01*
X59564Y-17347D01*
X59654Y-17105D01*
X59654Y-18130D01*
X59640Y-18096D01*
X59524Y-18045D01*
X59454Y-18116D01*
X59454Y-17975D01*
X59403Y-17859D01*
X59387Y-17853D01*
X59387Y-17458D01*
X59000Y-17070D01*
X58612Y-17458D01*
X58652Y-17564D01*
X58894Y-17654D01*
X59152Y-17644D01*
X59347Y-17564D01*
X59387Y-17458D01*
X59387Y-17853D01*
X59127Y-17754D01*
X58832Y-17762D01*
X58596Y-17859D01*
X58545Y-17975D01*
X59000Y-18429D01*
X59454Y-17975D01*
X59454Y-18116D01*
X59070Y-18500D01*
X59524Y-18954D01*
X59640Y-18903D01*
X59745Y-18627D01*
X59745Y-26627D01*
X59737Y-26332D01*
X59654Y-26130D01*
X59654Y-25105D01*
X59644Y-24847D01*
X59564Y-24652D01*
X59501Y-24628D01*
X59541Y-24612D01*
X59611Y-24541D01*
X59649Y-24449D01*
X59650Y-24350D01*
X59650Y-23550D01*
X59612Y-23458D01*
X59541Y-23388D01*
X59454Y-23351D01*
X59454Y-19024D01*
X59000Y-18570D01*
X58929Y-18641D01*
X58929Y-18500D01*
X58475Y-18045D01*
X58359Y-18096D01*
X58254Y-18372D01*
X58262Y-18667D01*
X58359Y-18903D01*
X58475Y-18954D01*
X58929Y-18500D01*
X58929Y-18641D01*
X58545Y-19024D01*
X58596Y-19140D01*
X58872Y-19245D01*
X59167Y-19237D01*
X59403Y-19140D01*
X59454Y-19024D01*
X59454Y-23351D01*
X59449Y-23350D01*
X59350Y-23349D01*
X58550Y-23349D01*
X58472Y-23382D01*
X58472Y-22109D01*
X56425Y-22109D01*
X56425Y-16915D01*
X56360Y-16759D01*
X56241Y-16639D01*
X56084Y-16575D01*
X55915Y-16574D01*
X55759Y-16639D01*
X55639Y-16758D01*
X55575Y-16915D01*
X55574Y-17084D01*
X55639Y-17240D01*
X55675Y-17275D01*
X55675Y-18624D01*
X55589Y-18708D01*
X55525Y-18865D01*
X55524Y-19034D01*
X55589Y-19190D01*
X55708Y-19310D01*
X55865Y-19374D01*
X56034Y-19375D01*
X56190Y-19310D01*
X56310Y-19191D01*
X56374Y-19034D01*
X56375Y-18865D01*
X56325Y-18744D01*
X56325Y-17276D01*
X56360Y-17241D01*
X56424Y-17084D01*
X56425Y-16915D01*
X56425Y-22109D01*
X53437Y-22109D01*
X53437Y-17113D01*
X53428Y-16841D01*
X53341Y-16632D01*
X53232Y-16588D01*
X52820Y-17000D01*
X53232Y-17411D01*
X53341Y-17367D01*
X53437Y-17113D01*
X53437Y-22109D01*
X53433Y-22109D01*
X53433Y-18864D01*
X53329Y-18613D01*
X53215Y-18499D01*
X53328Y-18387D01*
X53432Y-18136D01*
X53433Y-17864D01*
X53329Y-17613D01*
X53137Y-17421D01*
X53074Y-17395D01*
X52750Y-17070D01*
X52679Y-17141D01*
X52679Y-17000D01*
X52267Y-16588D01*
X52158Y-16632D01*
X52062Y-16886D01*
X52071Y-17158D01*
X52158Y-17367D01*
X52267Y-17411D01*
X52679Y-17000D01*
X52679Y-17141D01*
X52425Y-17394D01*
X52363Y-17420D01*
X52171Y-17612D01*
X52067Y-17863D01*
X52066Y-18135D01*
X52170Y-18386D01*
X52284Y-18500D01*
X52171Y-18612D01*
X52067Y-18863D01*
X52066Y-19135D01*
X52170Y-19386D01*
X52362Y-19578D01*
X52613Y-19682D01*
X52885Y-19683D01*
X53136Y-19579D01*
X53328Y-19387D01*
X53432Y-19136D01*
X53433Y-18864D01*
X53433Y-22109D01*
X53327Y-22109D01*
X53327Y-22396D01*
X53305Y-22374D01*
X53213Y-22336D01*
X53113Y-22336D01*
X52286Y-22336D01*
X52195Y-22374D01*
X52124Y-22444D01*
X52086Y-22536D01*
X52086Y-22636D01*
X52086Y-23463D01*
X52124Y-23554D01*
X52176Y-23607D01*
X52171Y-23612D01*
X52067Y-23863D01*
X52066Y-24135D01*
X52170Y-24386D01*
X52362Y-24578D01*
X52425Y-24604D01*
X52750Y-24929D01*
X53074Y-24605D01*
X53136Y-24579D01*
X53328Y-24387D01*
X53432Y-24136D01*
X53433Y-23864D01*
X53353Y-23672D01*
X58349Y-23672D01*
X58349Y-24449D01*
X58387Y-24541D01*
X58458Y-24611D01*
X58498Y-24628D01*
X58435Y-24652D01*
X58345Y-24894D01*
X58355Y-25152D01*
X58435Y-25347D01*
X58541Y-25387D01*
X58929Y-25000D01*
X58923Y-24994D01*
X58994Y-24923D01*
X59000Y-24929D01*
X59005Y-24923D01*
X59076Y-24994D01*
X59070Y-25000D01*
X59458Y-25387D01*
X59564Y-25347D01*
X59654Y-25105D01*
X59654Y-26130D01*
X59640Y-26096D01*
X59524Y-26045D01*
X59454Y-26116D01*
X59454Y-25975D01*
X59403Y-25859D01*
X59387Y-25853D01*
X59387Y-25458D01*
X59000Y-25070D01*
X58612Y-25458D01*
X58652Y-25564D01*
X58894Y-25654D01*
X59152Y-25644D01*
X59347Y-25564D01*
X59387Y-25458D01*
X59387Y-25853D01*
X59127Y-25754D01*
X58832Y-25762D01*
X58596Y-25859D01*
X58545Y-25975D01*
X59000Y-26429D01*
X59454Y-25975D01*
X59454Y-26116D01*
X59070Y-26500D01*
X59524Y-26954D01*
X59640Y-26903D01*
X59745Y-26627D01*
X59745Y-28230D01*
X59454Y-28230D01*
X59454Y-27024D01*
X59000Y-26570D01*
X58929Y-26641D01*
X58929Y-26500D01*
X58475Y-26045D01*
X58359Y-26096D01*
X58254Y-26372D01*
X58262Y-26667D01*
X58359Y-26903D01*
X58475Y-26954D01*
X58929Y-26500D01*
X58929Y-26641D01*
X58545Y-27024D01*
X58596Y-27140D01*
X58872Y-27245D01*
X59167Y-27237D01*
X59403Y-27140D01*
X59454Y-27024D01*
X59454Y-28230D01*
X56425Y-28230D01*
X56425Y-24915D01*
X56360Y-24759D01*
X56241Y-24639D01*
X56084Y-24575D01*
X55915Y-24574D01*
X55759Y-24639D01*
X55639Y-24758D01*
X55575Y-24915D01*
X55574Y-25084D01*
X55639Y-25240D01*
X55675Y-25275D01*
X55675Y-26624D01*
X55589Y-26708D01*
X55525Y-26865D01*
X55524Y-27034D01*
X55589Y-27190D01*
X55708Y-27310D01*
X55865Y-27374D01*
X56034Y-27375D01*
X56190Y-27310D01*
X56310Y-27191D01*
X56374Y-27034D01*
X56375Y-26865D01*
X56325Y-26744D01*
X56325Y-25276D01*
X56360Y-25241D01*
X56424Y-25084D01*
X56425Y-24915D01*
X56425Y-28230D01*
X53437Y-28230D01*
X53437Y-25113D01*
X53428Y-24841D01*
X53341Y-24632D01*
X53232Y-24588D01*
X52820Y-25000D01*
X53232Y-25411D01*
X53341Y-25367D01*
X53437Y-25113D01*
X53437Y-28230D01*
X53433Y-28230D01*
X53433Y-26864D01*
X53329Y-26613D01*
X53215Y-26499D01*
X53328Y-26387D01*
X53432Y-26136D01*
X53433Y-25864D01*
X53329Y-25613D01*
X53137Y-25421D01*
X53074Y-25395D01*
X52750Y-25070D01*
X52679Y-25141D01*
X52679Y-25000D01*
X52267Y-24588D01*
X52158Y-24632D01*
X52062Y-24886D01*
X52071Y-25158D01*
X52158Y-25367D01*
X52267Y-25411D01*
X52679Y-25000D01*
X52679Y-25141D01*
X52425Y-25394D01*
X52363Y-25420D01*
X52171Y-25612D01*
X52067Y-25863D01*
X52066Y-26135D01*
X52170Y-26386D01*
X52284Y-26500D01*
X52171Y-26612D01*
X52067Y-26863D01*
X52066Y-27135D01*
X52170Y-27386D01*
X52362Y-27578D01*
X52613Y-27682D01*
X52885Y-27683D01*
X53136Y-27579D01*
X53328Y-27387D01*
X53432Y-27136D01*
X53433Y-26864D01*
X53433Y-28230D01*
X49745Y-28230D01*
X49745Y-26627D01*
X49745Y-18627D01*
X49737Y-18332D01*
X49654Y-18130D01*
X49654Y-17105D01*
X49644Y-16847D01*
X49564Y-16652D01*
X49501Y-16628D01*
X49541Y-16612D01*
X49611Y-16541D01*
X49649Y-16449D01*
X49650Y-16350D01*
X49650Y-15550D01*
X49612Y-15458D01*
X49541Y-15388D01*
X49449Y-15350D01*
X49350Y-15349D01*
X48550Y-15349D01*
X48472Y-15382D01*
X48472Y-14109D01*
X43327Y-14109D01*
X43327Y-14396D01*
X43305Y-14374D01*
X43213Y-14336D01*
X43113Y-14336D01*
X42286Y-14336D01*
X42195Y-14374D01*
X42124Y-14444D01*
X42086Y-14536D01*
X42086Y-14636D01*
X42086Y-15463D01*
X42124Y-15554D01*
X42176Y-15607D01*
X42171Y-15612D01*
X42067Y-15863D01*
X42066Y-16135D01*
X42170Y-16386D01*
X42362Y-16578D01*
X42425Y-16604D01*
X42750Y-16929D01*
X43074Y-16605D01*
X43136Y-16579D01*
X43328Y-16387D01*
X43432Y-16136D01*
X43433Y-15864D01*
X43353Y-15672D01*
X48349Y-15672D01*
X48349Y-16449D01*
X48387Y-16541D01*
X48458Y-16611D01*
X48498Y-16628D01*
X48435Y-16652D01*
X48345Y-16894D01*
X48355Y-17152D01*
X48435Y-17347D01*
X48541Y-17387D01*
X48929Y-17000D01*
X48923Y-16994D01*
X48994Y-16923D01*
X49000Y-16929D01*
X49005Y-16923D01*
X49076Y-16994D01*
X49070Y-17000D01*
X49458Y-17387D01*
X49564Y-17347D01*
X49654Y-17105D01*
X49654Y-18130D01*
X49640Y-18096D01*
X49524Y-18045D01*
X49454Y-18116D01*
X49454Y-17975D01*
X49403Y-17859D01*
X49387Y-17853D01*
X49387Y-17458D01*
X49000Y-17070D01*
X48612Y-17458D01*
X48652Y-17564D01*
X48894Y-17654D01*
X49152Y-17644D01*
X49347Y-17564D01*
X49387Y-17458D01*
X49387Y-17853D01*
X49127Y-17754D01*
X48832Y-17762D01*
X48596Y-17859D01*
X48545Y-17975D01*
X49000Y-18429D01*
X49454Y-17975D01*
X49454Y-18116D01*
X49070Y-18500D01*
X49524Y-18954D01*
X49640Y-18903D01*
X49745Y-18627D01*
X49745Y-26627D01*
X49737Y-26332D01*
X49654Y-26130D01*
X49654Y-25105D01*
X49644Y-24847D01*
X49564Y-24652D01*
X49501Y-24628D01*
X49541Y-24612D01*
X49611Y-24541D01*
X49649Y-24449D01*
X49650Y-24350D01*
X49650Y-23550D01*
X49612Y-23458D01*
X49541Y-23388D01*
X49454Y-23351D01*
X49454Y-19024D01*
X49000Y-18570D01*
X48929Y-18641D01*
X48929Y-18500D01*
X48475Y-18045D01*
X48359Y-18096D01*
X48254Y-18372D01*
X48262Y-18667D01*
X48359Y-18903D01*
X48475Y-18954D01*
X48929Y-18500D01*
X48929Y-18641D01*
X48545Y-19024D01*
X48596Y-19140D01*
X48872Y-19245D01*
X49167Y-19237D01*
X49403Y-19140D01*
X49454Y-19024D01*
X49454Y-23351D01*
X49449Y-23350D01*
X49350Y-23349D01*
X48550Y-23349D01*
X48472Y-23382D01*
X48472Y-22109D01*
X46425Y-22109D01*
X46425Y-16915D01*
X46360Y-16759D01*
X46241Y-16639D01*
X46084Y-16575D01*
X45915Y-16574D01*
X45759Y-16639D01*
X45639Y-16758D01*
X45575Y-16915D01*
X45574Y-17084D01*
X45639Y-17240D01*
X45675Y-17275D01*
X45675Y-18624D01*
X45589Y-18708D01*
X45525Y-18865D01*
X45524Y-19034D01*
X45589Y-19190D01*
X45708Y-19310D01*
X45865Y-19374D01*
X46034Y-19375D01*
X46190Y-19310D01*
X46310Y-19191D01*
X46374Y-19034D01*
X46375Y-18865D01*
X46325Y-18744D01*
X46325Y-17276D01*
X46360Y-17241D01*
X46424Y-17084D01*
X46425Y-16915D01*
X46425Y-22109D01*
X43437Y-22109D01*
X43437Y-17113D01*
X43428Y-16841D01*
X43341Y-16632D01*
X43232Y-16588D01*
X42820Y-17000D01*
X43232Y-17411D01*
X43341Y-17367D01*
X43437Y-17113D01*
X43437Y-22109D01*
X43433Y-22109D01*
X43433Y-18864D01*
X43329Y-18613D01*
X43215Y-18499D01*
X43328Y-18387D01*
X43432Y-18136D01*
X43433Y-17864D01*
X43329Y-17613D01*
X43137Y-17421D01*
X43074Y-17395D01*
X42750Y-17070D01*
X42679Y-17141D01*
X42679Y-17000D01*
X42267Y-16588D01*
X42158Y-16632D01*
X42062Y-16886D01*
X42071Y-17158D01*
X42158Y-17367D01*
X42267Y-17411D01*
X42679Y-17000D01*
X42679Y-17141D01*
X42425Y-17394D01*
X42363Y-17420D01*
X42171Y-17612D01*
X42067Y-17863D01*
X42066Y-18135D01*
X42170Y-18386D01*
X42284Y-18500D01*
X42171Y-18612D01*
X42067Y-18863D01*
X42066Y-19135D01*
X42170Y-19386D01*
X42362Y-19578D01*
X42613Y-19682D01*
X42885Y-19683D01*
X43136Y-19579D01*
X43328Y-19387D01*
X43432Y-19136D01*
X43433Y-18864D01*
X43433Y-22109D01*
X43327Y-22109D01*
X43327Y-22396D01*
X43305Y-22374D01*
X43213Y-22336D01*
X43113Y-22336D01*
X42286Y-22336D01*
X42195Y-22374D01*
X42124Y-22444D01*
X42086Y-22536D01*
X42086Y-22636D01*
X42086Y-23463D01*
X42124Y-23554D01*
X42176Y-23607D01*
X42171Y-23612D01*
X42067Y-23863D01*
X42066Y-24135D01*
X42170Y-24386D01*
X42362Y-24578D01*
X42425Y-24604D01*
X42750Y-24929D01*
X43074Y-24605D01*
X43136Y-24579D01*
X43328Y-24387D01*
X43432Y-24136D01*
X43433Y-23864D01*
X43353Y-23672D01*
X48349Y-23672D01*
X48349Y-24449D01*
X48387Y-24541D01*
X48458Y-24611D01*
X48498Y-24628D01*
X48435Y-24652D01*
X48345Y-24894D01*
X48355Y-25152D01*
X48435Y-25347D01*
X48541Y-25387D01*
X48929Y-25000D01*
X48923Y-24994D01*
X48994Y-24923D01*
X49000Y-24929D01*
X49005Y-24923D01*
X49076Y-24994D01*
X49070Y-25000D01*
X49458Y-25387D01*
X49564Y-25347D01*
X49654Y-25105D01*
X49654Y-26130D01*
X49640Y-26096D01*
X49524Y-26045D01*
X49454Y-26116D01*
X49454Y-25975D01*
X49403Y-25859D01*
X49387Y-25853D01*
X49387Y-25458D01*
X49000Y-25070D01*
X48612Y-25458D01*
X48652Y-25564D01*
X48894Y-25654D01*
X49152Y-25644D01*
X49347Y-25564D01*
X49387Y-25458D01*
X49387Y-25853D01*
X49127Y-25754D01*
X48832Y-25762D01*
X48596Y-25859D01*
X48545Y-25975D01*
X49000Y-26429D01*
X49454Y-25975D01*
X49454Y-26116D01*
X49070Y-26500D01*
X49524Y-26954D01*
X49640Y-26903D01*
X49745Y-26627D01*
X49745Y-28230D01*
X49454Y-28230D01*
X49454Y-27024D01*
X49000Y-26570D01*
X48929Y-26641D01*
X48929Y-26500D01*
X48475Y-26045D01*
X48359Y-26096D01*
X48254Y-26372D01*
X48262Y-26667D01*
X48359Y-26903D01*
X48475Y-26954D01*
X48929Y-26500D01*
X48929Y-26641D01*
X48545Y-27024D01*
X48596Y-27140D01*
X48872Y-27245D01*
X49167Y-27237D01*
X49403Y-27140D01*
X49454Y-27024D01*
X49454Y-28230D01*
X46425Y-28230D01*
X46425Y-24915D01*
X46360Y-24759D01*
X46241Y-24639D01*
X46084Y-24575D01*
X45915Y-24574D01*
X45759Y-24639D01*
X45639Y-24758D01*
X45575Y-24915D01*
X45574Y-25084D01*
X45639Y-25240D01*
X45675Y-25275D01*
X45675Y-26624D01*
X45589Y-26708D01*
X45525Y-26865D01*
X45524Y-27034D01*
X45589Y-27190D01*
X45708Y-27310D01*
X45865Y-27374D01*
X46034Y-27375D01*
X46190Y-27310D01*
X46310Y-27191D01*
X46374Y-27034D01*
X46375Y-26865D01*
X46325Y-26744D01*
X46325Y-25276D01*
X46360Y-25241D01*
X46424Y-25084D01*
X46425Y-24915D01*
X46425Y-28230D01*
X43437Y-28230D01*
X43437Y-25113D01*
X43428Y-24841D01*
X43341Y-24632D01*
X43232Y-24588D01*
X42820Y-25000D01*
X43232Y-25411D01*
X43341Y-25367D01*
X43437Y-25113D01*
X43437Y-28230D01*
X43433Y-28230D01*
X43433Y-26864D01*
X43329Y-26613D01*
X43215Y-26499D01*
X43328Y-26387D01*
X43432Y-26136D01*
X43433Y-25864D01*
X43329Y-25613D01*
X43137Y-25421D01*
X43074Y-25395D01*
X42750Y-25070D01*
X42679Y-25141D01*
X42679Y-25000D01*
X42267Y-24588D01*
X42158Y-24632D01*
X42062Y-24886D01*
X42071Y-25158D01*
X42158Y-25367D01*
X42267Y-25411D01*
X42679Y-25000D01*
X42679Y-25141D01*
X42425Y-25394D01*
X42363Y-25420D01*
X42171Y-25612D01*
X42067Y-25863D01*
X42066Y-26135D01*
X42170Y-26386D01*
X42284Y-26500D01*
X42171Y-26612D01*
X42067Y-26863D01*
X42066Y-27135D01*
X42170Y-27386D01*
X42362Y-27578D01*
X42613Y-27682D01*
X42885Y-27683D01*
X43136Y-27579D01*
X43328Y-27387D01*
X43432Y-27136D01*
X43433Y-26864D01*
X43433Y-28230D01*
X41269Y-28230D01*
X41269Y-13769D01*
X60230Y-13769D01*
X60230Y-28230D01*
X60230Y-28230D01*
G37*
G54D19*
X60230Y-28230D02*
X59745Y-28230D01*
X59745Y-26627D01*
X59745Y-18627D01*
X59737Y-18332D01*
X59654Y-18130D01*
X59654Y-17105D01*
X59644Y-16847D01*
X59564Y-16652D01*
X59501Y-16628D01*
X59541Y-16612D01*
X59611Y-16541D01*
X59649Y-16449D01*
X59650Y-16350D01*
X59650Y-15550D01*
X59612Y-15458D01*
X59541Y-15388D01*
X59449Y-15350D01*
X59350Y-15349D01*
X58550Y-15349D01*
X58472Y-15382D01*
X58472Y-14109D01*
X53327Y-14109D01*
X53327Y-14396D01*
X53305Y-14374D01*
X53213Y-14336D01*
X53113Y-14336D01*
X52286Y-14336D01*
X52195Y-14374D01*
X52124Y-14444D01*
X52086Y-14536D01*
X52086Y-14636D01*
X52086Y-15463D01*
X52124Y-15554D01*
X52176Y-15607D01*
X52171Y-15612D01*
X52067Y-15863D01*
X52066Y-16135D01*
X52170Y-16386D01*
X52362Y-16578D01*
X52425Y-16604D01*
X52750Y-16929D01*
X53074Y-16605D01*
X53136Y-16579D01*
X53328Y-16387D01*
X53432Y-16136D01*
X53433Y-15864D01*
X53353Y-15672D01*
X58349Y-15672D01*
X58349Y-16449D01*
X58387Y-16541D01*
X58458Y-16611D01*
X58498Y-16628D01*
X58435Y-16652D01*
X58345Y-16894D01*
X58355Y-17152D01*
X58435Y-17347D01*
X58541Y-17387D01*
X58929Y-17000D01*
X58923Y-16994D01*
X58994Y-16923D01*
X59000Y-16929D01*
X59005Y-16923D01*
X59076Y-16994D01*
X59070Y-17000D01*
X59458Y-17387D01*
X59564Y-17347D01*
X59654Y-17105D01*
X59654Y-18130D01*
X59640Y-18096D01*
X59524Y-18045D01*
X59454Y-18116D01*
X59454Y-17975D01*
X59403Y-17859D01*
X59387Y-17853D01*
X59387Y-17458D01*
X59000Y-17070D01*
X58612Y-17458D01*
X58652Y-17564D01*
X58894Y-17654D01*
X59152Y-17644D01*
X59347Y-17564D01*
X59387Y-17458D01*
X59387Y-17853D01*
X59127Y-17754D01*
X58832Y-17762D01*
X58596Y-17859D01*
X58545Y-17975D01*
X59000Y-18429D01*
X59454Y-17975D01*
X59454Y-18116D01*
X59070Y-18500D01*
X59524Y-18954D01*
X59640Y-18903D01*
X59745Y-18627D01*
X59745Y-26627D01*
X59737Y-26332D01*
X59654Y-26130D01*
X59654Y-25105D01*
X59644Y-24847D01*
X59564Y-24652D01*
X59501Y-24628D01*
X59541Y-24612D01*
X59611Y-24541D01*
X59649Y-24449D01*
X59650Y-24350D01*
X59650Y-23550D01*
X59612Y-23458D01*
X59541Y-23388D01*
X59454Y-23351D01*
X59454Y-19024D01*
X59000Y-18570D01*
X58929Y-18641D01*
X58929Y-18500D01*
X58475Y-18045D01*
X58359Y-18096D01*
X58254Y-18372D01*
X58262Y-18667D01*
X58359Y-18903D01*
X58475Y-18954D01*
X58929Y-18500D01*
X58929Y-18641D01*
X58545Y-19024D01*
X58596Y-19140D01*
X58872Y-19245D01*
X59167Y-19237D01*
X59403Y-19140D01*
X59454Y-19024D01*
X59454Y-23351D01*
X59449Y-23350D01*
X59350Y-23349D01*
X58550Y-23349D01*
X58472Y-23382D01*
X58472Y-22109D01*
X56425Y-22109D01*
X56425Y-16915D01*
X56360Y-16759D01*
X56241Y-16639D01*
X56084Y-16575D01*
X55915Y-16574D01*
X55759Y-16639D01*
X55639Y-16758D01*
X55575Y-16915D01*
X55574Y-17084D01*
X55639Y-17240D01*
X55675Y-17275D01*
X55675Y-18624D01*
X55589Y-18708D01*
X55525Y-18865D01*
X55524Y-19034D01*
X55589Y-19190D01*
X55708Y-19310D01*
X55865Y-19374D01*
X56034Y-19375D01*
X56190Y-19310D01*
X56310Y-19191D01*
X56374Y-19034D01*
X56375Y-18865D01*
X56325Y-18744D01*
X56325Y-17276D01*
X56360Y-17241D01*
X56424Y-17084D01*
X56425Y-16915D01*
X56425Y-22109D01*
X53437Y-22109D01*
X53437Y-17113D01*
X53428Y-16841D01*
X53341Y-16632D01*
X53232Y-16588D01*
X52820Y-17000D01*
X53232Y-17411D01*
X53341Y-17367D01*
X53437Y-17113D01*
X53437Y-22109D01*
X53433Y-22109D01*
X53433Y-18864D01*
X53329Y-18613D01*
X53215Y-18499D01*
X53328Y-18387D01*
X53432Y-18136D01*
X53433Y-17864D01*
X53329Y-17613D01*
X53137Y-17421D01*
X53074Y-17395D01*
X52750Y-17070D01*
X52679Y-17141D01*
X52679Y-17000D01*
X52267Y-16588D01*
X52158Y-16632D01*
X52062Y-16886D01*
X52071Y-17158D01*
X52158Y-17367D01*
X52267Y-17411D01*
X52679Y-17000D01*
X52679Y-17141D01*
X52425Y-17394D01*
X52363Y-17420D01*
X52171Y-17612D01*
X52067Y-17863D01*
X52066Y-18135D01*
X52170Y-18386D01*
X52284Y-18500D01*
X52171Y-18612D01*
X52067Y-18863D01*
X52066Y-19135D01*
X52170Y-19386D01*
X52362Y-19578D01*
X52613Y-19682D01*
X52885Y-19683D01*
X53136Y-19579D01*
X53328Y-19387D01*
X53432Y-19136D01*
X53433Y-18864D01*
X53433Y-22109D01*
X53327Y-22109D01*
X53327Y-22396D01*
X53305Y-22374D01*
X53213Y-22336D01*
X53113Y-22336D01*
X52286Y-22336D01*
X52195Y-22374D01*
X52124Y-22444D01*
X52086Y-22536D01*
X52086Y-22636D01*
X52086Y-23463D01*
X52124Y-23554D01*
X52176Y-23607D01*
X52171Y-23612D01*
X52067Y-23863D01*
X52066Y-24135D01*
X52170Y-24386D01*
X52362Y-24578D01*
X52425Y-24604D01*
X52750Y-24929D01*
X53074Y-24605D01*
X53136Y-24579D01*
X53328Y-24387D01*
X53432Y-24136D01*
X53433Y-23864D01*
X53353Y-23672D01*
X58349Y-23672D01*
X58349Y-24449D01*
X58387Y-24541D01*
X58458Y-24611D01*
X58498Y-24628D01*
X58435Y-24652D01*
X58345Y-24894D01*
X58355Y-25152D01*
X58435Y-25347D01*
X58541Y-25387D01*
X58929Y-25000D01*
X58923Y-24994D01*
X58994Y-24923D01*
X59000Y-24929D01*
X59005Y-24923D01*
X59076Y-24994D01*
X59070Y-25000D01*
X59458Y-25387D01*
X59564Y-25347D01*
X59654Y-25105D01*
X59654Y-26130D01*
X59640Y-26096D01*
X59524Y-26045D01*
X59454Y-26116D01*
X59454Y-25975D01*
X59403Y-25859D01*
X59387Y-25853D01*
X59387Y-25458D01*
X59000Y-25070D01*
X58612Y-25458D01*
X58652Y-25564D01*
X58894Y-25654D01*
X59152Y-25644D01*
X59347Y-25564D01*
X59387Y-25458D01*
X59387Y-25853D01*
X59127Y-25754D01*
X58832Y-25762D01*
X58596Y-25859D01*
X58545Y-25975D01*
X59000Y-26429D01*
X59454Y-25975D01*
X59454Y-26116D01*
X59070Y-26500D01*
X59524Y-26954D01*
X59640Y-26903D01*
X59745Y-26627D01*
X59745Y-28230D01*
X59454Y-28230D01*
X59454Y-27024D01*
X59000Y-26570D01*
X58929Y-26641D01*
X58929Y-26500D01*
X58475Y-26045D01*
X58359Y-26096D01*
X58254Y-26372D01*
X58262Y-26667D01*
X58359Y-26903D01*
X58475Y-26954D01*
X58929Y-26500D01*
X58929Y-26641D01*
X58545Y-27024D01*
X58596Y-27140D01*
X58872Y-27245D01*
X59167Y-27237D01*
X59403Y-27140D01*
X59454Y-27024D01*
X59454Y-28230D01*
X56425Y-28230D01*
X56425Y-24915D01*
X56360Y-24759D01*
X56241Y-24639D01*
X56084Y-24575D01*
X55915Y-24574D01*
X55759Y-24639D01*
X55639Y-24758D01*
X55575Y-24915D01*
X55574Y-25084D01*
X55639Y-25240D01*
X55675Y-25275D01*
X55675Y-26624D01*
X55589Y-26708D01*
X55525Y-26865D01*
X55524Y-27034D01*
X55589Y-27190D01*
X55708Y-27310D01*
X55865Y-27374D01*
X56034Y-27375D01*
X56190Y-27310D01*
X56310Y-27191D01*
X56374Y-27034D01*
X56375Y-26865D01*
X56325Y-26744D01*
X56325Y-25276D01*
X56360Y-25241D01*
X56424Y-25084D01*
X56425Y-24915D01*
X56425Y-28230D01*
X53437Y-28230D01*
X53437Y-25113D01*
X53428Y-24841D01*
X53341Y-24632D01*
X53232Y-24588D01*
X52820Y-25000D01*
X53232Y-25411D01*
X53341Y-25367D01*
X53437Y-25113D01*
X53437Y-28230D01*
X53433Y-28230D01*
X53433Y-26864D01*
X53329Y-26613D01*
X53215Y-26499D01*
X53328Y-26387D01*
X53432Y-26136D01*
X53433Y-25864D01*
X53329Y-25613D01*
X53137Y-25421D01*
X53074Y-25395D01*
X52750Y-25070D01*
X52679Y-25141D01*
X52679Y-25000D01*
X52267Y-24588D01*
X52158Y-24632D01*
X52062Y-24886D01*
X52071Y-25158D01*
X52158Y-25367D01*
X52267Y-25411D01*
X52679Y-25000D01*
X52679Y-25141D01*
X52425Y-25394D01*
X52363Y-25420D01*
X52171Y-25612D01*
X52067Y-25863D01*
X52066Y-26135D01*
X52170Y-26386D01*
X52284Y-26500D01*
X52171Y-26612D01*
X52067Y-26863D01*
X52066Y-27135D01*
X52170Y-27386D01*
X52362Y-27578D01*
X52613Y-27682D01*
X52885Y-27683D01*
X53136Y-27579D01*
X53328Y-27387D01*
X53432Y-27136D01*
X53433Y-26864D01*
X53433Y-28230D01*
X49745Y-28230D01*
X49745Y-26627D01*
X49745Y-18627D01*
X49737Y-18332D01*
X49654Y-18130D01*
X49654Y-17105D01*
X49644Y-16847D01*
X49564Y-16652D01*
X49501Y-16628D01*
X49541Y-16612D01*
X49611Y-16541D01*
X49649Y-16449D01*
X49650Y-16350D01*
X49650Y-15550D01*
X49612Y-15458D01*
X49541Y-15388D01*
X49449Y-15350D01*
X49350Y-15349D01*
X48550Y-15349D01*
X48472Y-15382D01*
X48472Y-14109D01*
X43327Y-14109D01*
X43327Y-14396D01*
X43305Y-14374D01*
X43213Y-14336D01*
X43113Y-14336D01*
X42286Y-14336D01*
X42195Y-14374D01*
X42124Y-14444D01*
X42086Y-14536D01*
X42086Y-14636D01*
X42086Y-15463D01*
X42124Y-15554D01*
X42176Y-15607D01*
X42171Y-15612D01*
X42067Y-15863D01*
X42066Y-16135D01*
X42170Y-16386D01*
X42362Y-16578D01*
X42425Y-16604D01*
X42750Y-16929D01*
X43074Y-16605D01*
X43136Y-16579D01*
X43328Y-16387D01*
X43432Y-16136D01*
X43433Y-15864D01*
X43353Y-15672D01*
X48349Y-15672D01*
X48349Y-16449D01*
X48387Y-16541D01*
X48458Y-16611D01*
X48498Y-16628D01*
X48435Y-16652D01*
X48345Y-16894D01*
X48355Y-17152D01*
X48435Y-17347D01*
X48541Y-17387D01*
X48929Y-17000D01*
X48923Y-16994D01*
X48994Y-16923D01*
X49000Y-16929D01*
X49005Y-16923D01*
X49076Y-16994D01*
X49070Y-17000D01*
X49458Y-17387D01*
X49564Y-17347D01*
X49654Y-17105D01*
X49654Y-18130D01*
X49640Y-18096D01*
X49524Y-18045D01*
X49454Y-18116D01*
X49454Y-17975D01*
X49403Y-17859D01*
X49387Y-17853D01*
X49387Y-17458D01*
X49000Y-17070D01*
X48612Y-17458D01*
X48652Y-17564D01*
X48894Y-17654D01*
X49152Y-17644D01*
X49347Y-17564D01*
X49387Y-17458D01*
X49387Y-17853D01*
X49127Y-17754D01*
X48832Y-17762D01*
X48596Y-17859D01*
X48545Y-17975D01*
X49000Y-18429D01*
X49454Y-17975D01*
X49454Y-18116D01*
X49070Y-18500D01*
X49524Y-18954D01*
X49640Y-18903D01*
X49745Y-18627D01*
X49745Y-26627D01*
X49737Y-26332D01*
X49654Y-26130D01*
X49654Y-25105D01*
X49644Y-24847D01*
X49564Y-24652D01*
X49501Y-24628D01*
X49541Y-24612D01*
X49611Y-24541D01*
X49649Y-24449D01*
X49650Y-24350D01*
X49650Y-23550D01*
X49612Y-23458D01*
X49541Y-23388D01*
X49454Y-23351D01*
X49454Y-19024D01*
X49000Y-18570D01*
X48929Y-18641D01*
X48929Y-18500D01*
X48475Y-18045D01*
X48359Y-18096D01*
X48254Y-18372D01*
X48262Y-18667D01*
X48359Y-18903D01*
X48475Y-18954D01*
X48929Y-18500D01*
X48929Y-18641D01*
X48545Y-19024D01*
X48596Y-19140D01*
X48872Y-19245D01*
X49167Y-19237D01*
X49403Y-19140D01*
X49454Y-19024D01*
X49454Y-23351D01*
X49449Y-23350D01*
X49350Y-23349D01*
X48550Y-23349D01*
X48472Y-23382D01*
X48472Y-22109D01*
X46425Y-22109D01*
X46425Y-16915D01*
X46360Y-16759D01*
X46241Y-16639D01*
X46084Y-16575D01*
X45915Y-16574D01*
X45759Y-16639D01*
X45639Y-16758D01*
X45575Y-16915D01*
X45574Y-17084D01*
X45639Y-17240D01*
X45675Y-17275D01*
X45675Y-18624D01*
X45589Y-18708D01*
X45525Y-18865D01*
X45524Y-19034D01*
X45589Y-19190D01*
X45708Y-19310D01*
X45865Y-19374D01*
X46034Y-19375D01*
X46190Y-19310D01*
X46310Y-19191D01*
X46374Y-19034D01*
X46375Y-18865D01*
X46325Y-18744D01*
X46325Y-17276D01*
X46360Y-17241D01*
X46424Y-17084D01*
X46425Y-16915D01*
X46425Y-22109D01*
X43437Y-22109D01*
X43437Y-17113D01*
X43428Y-16841D01*
X43341Y-16632D01*
X43232Y-16588D01*
X42820Y-17000D01*
X43232Y-17411D01*
X43341Y-17367D01*
X43437Y-17113D01*
X43437Y-22109D01*
X43433Y-22109D01*
X43433Y-18864D01*
X43329Y-18613D01*
X43215Y-18499D01*
X43328Y-18387D01*
X43432Y-18136D01*
X43433Y-17864D01*
X43329Y-17613D01*
X43137Y-17421D01*
X43074Y-17395D01*
X42750Y-17070D01*
X42679Y-17141D01*
X42679Y-17000D01*
X42267Y-16588D01*
X42158Y-16632D01*
X42062Y-16886D01*
X42071Y-17158D01*
X42158Y-17367D01*
X42267Y-17411D01*
X42679Y-17000D01*
X42679Y-17141D01*
X42425Y-17394D01*
X42363Y-17420D01*
X42171Y-17612D01*
X42067Y-17863D01*
X42066Y-18135D01*
X42170Y-18386D01*
X42284Y-18500D01*
X42171Y-18612D01*
X42067Y-18863D01*
X42066Y-19135D01*
X42170Y-19386D01*
X42362Y-19578D01*
X42613Y-19682D01*
X42885Y-19683D01*
X43136Y-19579D01*
X43328Y-19387D01*
X43432Y-19136D01*
X43433Y-18864D01*
X43433Y-22109D01*
X43327Y-22109D01*
X43327Y-22396D01*
X43305Y-22374D01*
X43213Y-22336D01*
X43113Y-22336D01*
X42286Y-22336D01*
X42195Y-22374D01*
X42124Y-22444D01*
X42086Y-22536D01*
X42086Y-22636D01*
X42086Y-23463D01*
X42124Y-23554D01*
X42176Y-23607D01*
X42171Y-23612D01*
X42067Y-23863D01*
X42066Y-24135D01*
X42170Y-24386D01*
X42362Y-24578D01*
X42425Y-24604D01*
X42750Y-24929D01*
X43074Y-24605D01*
X43136Y-24579D01*
X43328Y-24387D01*
X43432Y-24136D01*
X43433Y-23864D01*
X43353Y-23672D01*
X48349Y-23672D01*
X48349Y-24449D01*
X48387Y-24541D01*
X48458Y-24611D01*
X48498Y-24628D01*
X48435Y-24652D01*
X48345Y-24894D01*
X48355Y-25152D01*
X48435Y-25347D01*
X48541Y-25387D01*
X48929Y-25000D01*
X48923Y-24994D01*
X48994Y-24923D01*
X49000Y-24929D01*
X49005Y-24923D01*
X49076Y-24994D01*
X49070Y-25000D01*
X49458Y-25387D01*
X49564Y-25347D01*
X49654Y-25105D01*
X49654Y-26130D01*
X49640Y-26096D01*
X49524Y-26045D01*
X49454Y-26116D01*
X49454Y-25975D01*
X49403Y-25859D01*
X49387Y-25853D01*
X49387Y-25458D01*
X49000Y-25070D01*
X48612Y-25458D01*
X48652Y-25564D01*
X48894Y-25654D01*
X49152Y-25644D01*
X49347Y-25564D01*
X49387Y-25458D01*
X49387Y-25853D01*
X49127Y-25754D01*
X48832Y-25762D01*
X48596Y-25859D01*
X48545Y-25975D01*
X49000Y-26429D01*
X49454Y-25975D01*
X49454Y-26116D01*
X49070Y-26500D01*
X49524Y-26954D01*
X49640Y-26903D01*
X49745Y-26627D01*
X49745Y-28230D01*
X49454Y-28230D01*
X49454Y-27024D01*
X49000Y-26570D01*
X48929Y-26641D01*
X48929Y-26500D01*
X48475Y-26045D01*
X48359Y-26096D01*
X48254Y-26372D01*
X48262Y-26667D01*
X48359Y-26903D01*
X48475Y-26954D01*
X48929Y-26500D01*
X48929Y-26641D01*
X48545Y-27024D01*
X48596Y-27140D01*
X48872Y-27245D01*
X49167Y-27237D01*
X49403Y-27140D01*
X49454Y-27024D01*
X49454Y-28230D01*
X46425Y-28230D01*
X46425Y-24915D01*
X46360Y-24759D01*
X46241Y-24639D01*
X46084Y-24575D01*
X45915Y-24574D01*
X45759Y-24639D01*
X45639Y-24758D01*
X45575Y-24915D01*
X45574Y-25084D01*
X45639Y-25240D01*
X45675Y-25275D01*
X45675Y-26624D01*
X45589Y-26708D01*
X45525Y-26865D01*
X45524Y-27034D01*
X45589Y-27190D01*
X45708Y-27310D01*
X45865Y-27374D01*
X46034Y-27375D01*
X46190Y-27310D01*
X46310Y-27191D01*
X46374Y-27034D01*
X46375Y-26865D01*
X46325Y-26744D01*
X46325Y-25276D01*
X46360Y-25241D01*
X46424Y-25084D01*
X46425Y-24915D01*
X46425Y-28230D01*
X43437Y-28230D01*
X43437Y-25113D01*
X43428Y-24841D01*
X43341Y-24632D01*
X43232Y-24588D01*
X42820Y-25000D01*
X43232Y-25411D01*
X43341Y-25367D01*
X43437Y-25113D01*
X43437Y-28230D01*
X43433Y-28230D01*
X43433Y-26864D01*
X43329Y-26613D01*
X43215Y-26499D01*
X43328Y-26387D01*
X43432Y-26136D01*
X43433Y-25864D01*
X43329Y-25613D01*
X43137Y-25421D01*
X43074Y-25395D01*
X42750Y-25070D01*
X42679Y-25141D01*
X42679Y-25000D01*
X42267Y-24588D01*
X42158Y-24632D01*
X42062Y-24886D01*
X42071Y-25158D01*
X42158Y-25367D01*
X42267Y-25411D01*
X42679Y-25000D01*
X42679Y-25141D01*
X42425Y-25394D01*
X42363Y-25420D01*
X42171Y-25612D01*
X42067Y-25863D01*
X42066Y-26135D01*
X42170Y-26386D01*
X42284Y-26500D01*
X42171Y-26612D01*
X42067Y-26863D01*
X42066Y-27135D01*
X42170Y-27386D01*
X42362Y-27578D01*
X42613Y-27682D01*
X42885Y-27683D01*
X43136Y-27579D01*
X43328Y-27387D01*
X43432Y-27136D01*
X43433Y-26864D01*
X43433Y-28230D01*
X41269Y-28230D01*
X41269Y-13769D01*
X60230Y-13769D01*
X60230Y-28230D01*
M02*
