G04 (created by PCBNEW (2013-07-07 BZR 4022)-stable) date 29/12/2014 16:41:19*
%MOIN*%
G04 Gerber Fmt 3.4, Leading zero omitted, Abs format*
%FSLAX34Y34*%
G01*
G70*
G90*
G04 APERTURE LIST*
%ADD10C,0.00590551*%
%ADD11C,0.011811*%
%ADD12C,0.0039*%
%ADD13C,0.015*%
%ADD14C,0.005*%
%ADD15C,0.012*%
%ADD16C,0.0043*%
%ADD17C,0.01*%
%ADD18C,0.0059*%
%ADD19C,0.0047*%
G04 APERTURE END LIST*
G54D10*
G54D11*
X41496Y-24648D02*
X41553Y-24648D01*
X41609Y-24676D01*
X41637Y-24704D01*
X41665Y-24760D01*
X41693Y-24873D01*
X41693Y-25014D01*
X41665Y-25126D01*
X41637Y-25182D01*
X41609Y-25210D01*
X41553Y-25239D01*
X41496Y-25239D01*
X41440Y-25210D01*
X41412Y-25182D01*
X41384Y-25126D01*
X41356Y-25014D01*
X41356Y-24873D01*
X41384Y-24760D01*
X41412Y-24704D01*
X41440Y-24676D01*
X41496Y-24648D01*
X41890Y-24845D02*
X42031Y-25239D01*
X42171Y-24845D01*
X41595Y-26239D02*
X41595Y-25648D01*
X41735Y-25648D01*
X41820Y-25676D01*
X41876Y-25732D01*
X41904Y-25789D01*
X41932Y-25901D01*
X41932Y-25985D01*
X41904Y-26098D01*
X41876Y-26154D01*
X41820Y-26210D01*
X41735Y-26239D01*
X41595Y-26239D01*
X41525Y-27014D02*
X41974Y-27014D01*
X41750Y-27239D02*
X41750Y-26789D01*
X41567Y-24239D02*
X41370Y-23957D01*
X41229Y-24239D02*
X41229Y-23648D01*
X41454Y-23648D01*
X41510Y-23676D01*
X41539Y-23704D01*
X41567Y-23760D01*
X41567Y-23845D01*
X41539Y-23901D01*
X41510Y-23929D01*
X41454Y-23957D01*
X41229Y-23957D01*
X41820Y-24014D02*
X42270Y-24014D01*
X41567Y-23239D02*
X41370Y-22957D01*
X41229Y-23239D02*
X41229Y-22648D01*
X41454Y-22648D01*
X41510Y-22676D01*
X41539Y-22704D01*
X41567Y-22760D01*
X41567Y-22845D01*
X41539Y-22901D01*
X41510Y-22929D01*
X41454Y-22957D01*
X41229Y-22957D01*
X41820Y-23014D02*
X42270Y-23014D01*
X42045Y-23239D02*
X42045Y-22789D01*
X51567Y-23239D02*
X51370Y-22957D01*
X51229Y-23239D02*
X51229Y-22648D01*
X51454Y-22648D01*
X51510Y-22676D01*
X51539Y-22704D01*
X51567Y-22760D01*
X51567Y-22845D01*
X51539Y-22901D01*
X51510Y-22929D01*
X51454Y-22957D01*
X51229Y-22957D01*
X51820Y-23014D02*
X52270Y-23014D01*
X52045Y-23239D02*
X52045Y-22789D01*
X51567Y-24239D02*
X51370Y-23957D01*
X51229Y-24239D02*
X51229Y-23648D01*
X51454Y-23648D01*
X51510Y-23676D01*
X51539Y-23704D01*
X51567Y-23760D01*
X51567Y-23845D01*
X51539Y-23901D01*
X51510Y-23929D01*
X51454Y-23957D01*
X51229Y-23957D01*
X51820Y-24014D02*
X52270Y-24014D01*
X51525Y-27014D02*
X51974Y-27014D01*
X51750Y-27239D02*
X51750Y-26789D01*
X51595Y-26239D02*
X51595Y-25648D01*
X51735Y-25648D01*
X51820Y-25676D01*
X51876Y-25732D01*
X51904Y-25789D01*
X51932Y-25901D01*
X51932Y-25985D01*
X51904Y-26098D01*
X51876Y-26154D01*
X51820Y-26210D01*
X51735Y-26239D01*
X51595Y-26239D01*
X51496Y-24648D02*
X51553Y-24648D01*
X51609Y-24676D01*
X51637Y-24704D01*
X51665Y-24760D01*
X51693Y-24873D01*
X51693Y-25014D01*
X51665Y-25126D01*
X51637Y-25182D01*
X51609Y-25210D01*
X51553Y-25239D01*
X51496Y-25239D01*
X51440Y-25210D01*
X51412Y-25182D01*
X51384Y-25126D01*
X51356Y-25014D01*
X51356Y-24873D01*
X51384Y-24760D01*
X51412Y-24704D01*
X51440Y-24676D01*
X51496Y-24648D01*
X51890Y-24845D02*
X52031Y-25239D01*
X52171Y-24845D01*
X51496Y-16648D02*
X51553Y-16648D01*
X51609Y-16676D01*
X51637Y-16704D01*
X51665Y-16760D01*
X51693Y-16873D01*
X51693Y-17014D01*
X51665Y-17126D01*
X51637Y-17182D01*
X51609Y-17210D01*
X51553Y-17239D01*
X51496Y-17239D01*
X51440Y-17210D01*
X51412Y-17182D01*
X51384Y-17126D01*
X51356Y-17014D01*
X51356Y-16873D01*
X51384Y-16760D01*
X51412Y-16704D01*
X51440Y-16676D01*
X51496Y-16648D01*
X51890Y-16845D02*
X52031Y-17239D01*
X52171Y-16845D01*
X51595Y-18239D02*
X51595Y-17648D01*
X51735Y-17648D01*
X51820Y-17676D01*
X51876Y-17732D01*
X51904Y-17789D01*
X51932Y-17901D01*
X51932Y-17985D01*
X51904Y-18098D01*
X51876Y-18154D01*
X51820Y-18210D01*
X51735Y-18239D01*
X51595Y-18239D01*
X51525Y-19014D02*
X51974Y-19014D01*
X51750Y-19239D02*
X51750Y-18789D01*
X51567Y-16239D02*
X51370Y-15957D01*
X51229Y-16239D02*
X51229Y-15648D01*
X51454Y-15648D01*
X51510Y-15676D01*
X51539Y-15704D01*
X51567Y-15760D01*
X51567Y-15845D01*
X51539Y-15901D01*
X51510Y-15929D01*
X51454Y-15957D01*
X51229Y-15957D01*
X51820Y-16014D02*
X52270Y-16014D01*
X51567Y-15239D02*
X51370Y-14957D01*
X51229Y-15239D02*
X51229Y-14648D01*
X51454Y-14648D01*
X51510Y-14676D01*
X51539Y-14704D01*
X51567Y-14760D01*
X51567Y-14845D01*
X51539Y-14901D01*
X51510Y-14929D01*
X51454Y-14957D01*
X51229Y-14957D01*
X51820Y-15014D02*
X52270Y-15014D01*
X52045Y-15239D02*
X52045Y-14789D01*
X41567Y-15239D02*
X41370Y-14957D01*
X41229Y-15239D02*
X41229Y-14648D01*
X41454Y-14648D01*
X41510Y-14676D01*
X41539Y-14704D01*
X41567Y-14760D01*
X41567Y-14845D01*
X41539Y-14901D01*
X41510Y-14929D01*
X41454Y-14957D01*
X41229Y-14957D01*
X41820Y-15014D02*
X42270Y-15014D01*
X42045Y-15239D02*
X42045Y-14789D01*
X41567Y-16239D02*
X41370Y-15957D01*
X41229Y-16239D02*
X41229Y-15648D01*
X41454Y-15648D01*
X41510Y-15676D01*
X41539Y-15704D01*
X41567Y-15760D01*
X41567Y-15845D01*
X41539Y-15901D01*
X41510Y-15929D01*
X41454Y-15957D01*
X41229Y-15957D01*
X41820Y-16014D02*
X42270Y-16014D01*
X41525Y-19014D02*
X41974Y-19014D01*
X41750Y-19239D02*
X41750Y-18789D01*
X41595Y-18239D02*
X41595Y-17648D01*
X41735Y-17648D01*
X41820Y-17676D01*
X41876Y-17732D01*
X41904Y-17789D01*
X41932Y-17901D01*
X41932Y-17985D01*
X41904Y-18098D01*
X41876Y-18154D01*
X41820Y-18210D01*
X41735Y-18239D01*
X41595Y-18239D01*
X41496Y-16648D02*
X41553Y-16648D01*
X41609Y-16676D01*
X41637Y-16704D01*
X41665Y-16760D01*
X41693Y-16873D01*
X41693Y-17014D01*
X41665Y-17126D01*
X41637Y-17182D01*
X41609Y-17210D01*
X41553Y-17239D01*
X41496Y-17239D01*
X41440Y-17210D01*
X41412Y-17182D01*
X41384Y-17126D01*
X41356Y-17014D01*
X41356Y-16873D01*
X41384Y-16760D01*
X41412Y-16704D01*
X41440Y-16676D01*
X41496Y-16648D01*
X41890Y-16845D02*
X42031Y-17239D01*
X42171Y-16845D01*
G54D12*
X47500Y-24350D02*
G75*
G03X47500Y-24350I-50J0D01*
G74*
G01*
X47450Y-24800D02*
X47450Y-24400D01*
X47450Y-24400D02*
X48050Y-24400D01*
X48050Y-24400D02*
X48050Y-24800D01*
X48050Y-25200D02*
X48050Y-25600D01*
X48050Y-25600D02*
X47450Y-25600D01*
X47450Y-25600D02*
X47450Y-25200D01*
G54D10*
X43250Y-22500D02*
X43250Y-22250D01*
X43250Y-22250D02*
X42250Y-22250D01*
X42250Y-22250D02*
X42250Y-22500D01*
X42250Y-23500D02*
X43250Y-23500D01*
X43250Y-23500D02*
X43250Y-22500D01*
X43250Y-22500D02*
X43250Y-27500D01*
X43250Y-27500D02*
X42250Y-27500D01*
X43250Y-22500D02*
X42250Y-22500D01*
X42250Y-22500D02*
X42250Y-27500D01*
G54D13*
X42850Y-22200D02*
G75*
G03X42850Y-22200I-100J0D01*
G74*
G01*
G54D12*
X47500Y-22850D02*
G75*
G03X47500Y-22850I-50J0D01*
G74*
G01*
X47450Y-23300D02*
X47450Y-22900D01*
X47450Y-22900D02*
X48050Y-22900D01*
X48050Y-22900D02*
X48050Y-23300D01*
X48050Y-23700D02*
X48050Y-24100D01*
X48050Y-24100D02*
X47450Y-24100D01*
X47450Y-24100D02*
X47450Y-23700D01*
X47500Y-25850D02*
G75*
G03X47500Y-25850I-50J0D01*
G74*
G01*
X47450Y-26300D02*
X47450Y-25900D01*
X47450Y-25900D02*
X48050Y-25900D01*
X48050Y-25900D02*
X48050Y-26300D01*
X48050Y-26700D02*
X48050Y-27100D01*
X48050Y-27100D02*
X47450Y-27100D01*
X47450Y-27100D02*
X47450Y-26700D01*
G54D14*
X46280Y-25300D02*
X44720Y-25300D01*
X44720Y-25300D02*
X44720Y-27200D01*
X44720Y-27200D02*
X46280Y-27200D01*
X46280Y-27200D02*
X46280Y-25300D01*
X46280Y-25500D02*
X46710Y-25500D01*
X46280Y-26000D02*
X46710Y-26000D01*
X46280Y-26500D02*
X46710Y-26500D01*
X46710Y-27000D02*
X46280Y-27000D01*
X44720Y-27000D02*
X44290Y-27000D01*
X44290Y-26500D02*
X44720Y-26500D01*
X44290Y-26000D02*
X44720Y-26000D01*
X44290Y-25500D02*
X44720Y-25500D01*
X45196Y-25590D02*
G75*
G03X45196Y-25590I-186J0D01*
G74*
G01*
G54D15*
X48500Y-23500D02*
X49500Y-23500D01*
X49500Y-23500D02*
X49500Y-25500D01*
X49500Y-25500D02*
X48500Y-25500D01*
X48500Y-25500D02*
X48500Y-23500D01*
G54D14*
X46150Y-23750D02*
X45850Y-23750D01*
X46000Y-23600D02*
X46000Y-23900D01*
X46100Y-24650D02*
X44600Y-24650D01*
X46400Y-23150D02*
X46400Y-24350D01*
X46100Y-24650D02*
X46400Y-24350D01*
X46100Y-22850D02*
X44600Y-22850D01*
X46100Y-22850D02*
X46400Y-23150D01*
X44700Y-23800D02*
X44700Y-23700D01*
X44750Y-23500D02*
X44750Y-24000D01*
X44800Y-24100D02*
X44800Y-23400D01*
X44850Y-24200D02*
X44850Y-23300D01*
X44900Y-23250D02*
X44900Y-24250D01*
X44950Y-24300D02*
X44950Y-23200D01*
X45000Y-23150D02*
X45000Y-24350D01*
X45050Y-23100D02*
X45050Y-24400D01*
X46300Y-23750D02*
G75*
G03X46300Y-23750I-800J0D01*
G74*
G01*
X44600Y-22850D02*
X44600Y-24650D01*
X56150Y-23750D02*
X55850Y-23750D01*
X56000Y-23600D02*
X56000Y-23900D01*
X56100Y-24650D02*
X54600Y-24650D01*
X56400Y-23150D02*
X56400Y-24350D01*
X56100Y-24650D02*
X56400Y-24350D01*
X56100Y-22850D02*
X54600Y-22850D01*
X56100Y-22850D02*
X56400Y-23150D01*
X54700Y-23800D02*
X54700Y-23700D01*
X54750Y-23500D02*
X54750Y-24000D01*
X54800Y-24100D02*
X54800Y-23400D01*
X54850Y-24200D02*
X54850Y-23300D01*
X54900Y-23250D02*
X54900Y-24250D01*
X54950Y-24300D02*
X54950Y-23200D01*
X55000Y-23150D02*
X55000Y-24350D01*
X55050Y-23100D02*
X55050Y-24400D01*
X56300Y-23750D02*
G75*
G03X56300Y-23750I-800J0D01*
G74*
G01*
X54600Y-22850D02*
X54600Y-24650D01*
G54D15*
X58500Y-23500D02*
X59500Y-23500D01*
X59500Y-23500D02*
X59500Y-25500D01*
X59500Y-25500D02*
X58500Y-25500D01*
X58500Y-25500D02*
X58500Y-23500D01*
G54D14*
X56280Y-25300D02*
X54720Y-25300D01*
X54720Y-25300D02*
X54720Y-27200D01*
X54720Y-27200D02*
X56280Y-27200D01*
X56280Y-27200D02*
X56280Y-25300D01*
X56280Y-25500D02*
X56710Y-25500D01*
X56280Y-26000D02*
X56710Y-26000D01*
X56280Y-26500D02*
X56710Y-26500D01*
X56710Y-27000D02*
X56280Y-27000D01*
X54720Y-27000D02*
X54290Y-27000D01*
X54290Y-26500D02*
X54720Y-26500D01*
X54290Y-26000D02*
X54720Y-26000D01*
X54290Y-25500D02*
X54720Y-25500D01*
X55196Y-25590D02*
G75*
G03X55196Y-25590I-186J0D01*
G74*
G01*
G54D12*
X57500Y-25850D02*
G75*
G03X57500Y-25850I-50J0D01*
G74*
G01*
X57450Y-26300D02*
X57450Y-25900D01*
X57450Y-25900D02*
X58050Y-25900D01*
X58050Y-25900D02*
X58050Y-26300D01*
X58050Y-26700D02*
X58050Y-27100D01*
X58050Y-27100D02*
X57450Y-27100D01*
X57450Y-27100D02*
X57450Y-26700D01*
X57500Y-22850D02*
G75*
G03X57500Y-22850I-50J0D01*
G74*
G01*
X57450Y-23300D02*
X57450Y-22900D01*
X57450Y-22900D02*
X58050Y-22900D01*
X58050Y-22900D02*
X58050Y-23300D01*
X58050Y-23700D02*
X58050Y-24100D01*
X58050Y-24100D02*
X57450Y-24100D01*
X57450Y-24100D02*
X57450Y-23700D01*
G54D10*
X53250Y-22500D02*
X53250Y-22250D01*
X53250Y-22250D02*
X52250Y-22250D01*
X52250Y-22250D02*
X52250Y-22500D01*
X52250Y-23500D02*
X53250Y-23500D01*
X53250Y-23500D02*
X53250Y-22500D01*
X53250Y-22500D02*
X53250Y-27500D01*
X53250Y-27500D02*
X52250Y-27500D01*
X53250Y-22500D02*
X52250Y-22500D01*
X52250Y-22500D02*
X52250Y-27500D01*
G54D13*
X52850Y-22200D02*
G75*
G03X52850Y-22200I-100J0D01*
G74*
G01*
G54D12*
X57500Y-24350D02*
G75*
G03X57500Y-24350I-50J0D01*
G74*
G01*
X57450Y-24800D02*
X57450Y-24400D01*
X57450Y-24400D02*
X58050Y-24400D01*
X58050Y-24400D02*
X58050Y-24800D01*
X58050Y-25200D02*
X58050Y-25600D01*
X58050Y-25600D02*
X57450Y-25600D01*
X57450Y-25600D02*
X57450Y-25200D01*
X57500Y-16350D02*
G75*
G03X57500Y-16350I-50J0D01*
G74*
G01*
X57450Y-16800D02*
X57450Y-16400D01*
X57450Y-16400D02*
X58050Y-16400D01*
X58050Y-16400D02*
X58050Y-16800D01*
X58050Y-17200D02*
X58050Y-17600D01*
X58050Y-17600D02*
X57450Y-17600D01*
X57450Y-17600D02*
X57450Y-17200D01*
G54D10*
X53250Y-14500D02*
X53250Y-14250D01*
X53250Y-14250D02*
X52250Y-14250D01*
X52250Y-14250D02*
X52250Y-14500D01*
X52250Y-15500D02*
X53250Y-15500D01*
X53250Y-15500D02*
X53250Y-14500D01*
X53250Y-14500D02*
X53250Y-19500D01*
X53250Y-19500D02*
X52250Y-19500D01*
X53250Y-14500D02*
X52250Y-14500D01*
X52250Y-14500D02*
X52250Y-19500D01*
G54D13*
X52850Y-14200D02*
G75*
G03X52850Y-14200I-100J0D01*
G74*
G01*
G54D12*
X57500Y-14850D02*
G75*
G03X57500Y-14850I-50J0D01*
G74*
G01*
X57450Y-15300D02*
X57450Y-14900D01*
X57450Y-14900D02*
X58050Y-14900D01*
X58050Y-14900D02*
X58050Y-15300D01*
X58050Y-15700D02*
X58050Y-16100D01*
X58050Y-16100D02*
X57450Y-16100D01*
X57450Y-16100D02*
X57450Y-15700D01*
X57500Y-17850D02*
G75*
G03X57500Y-17850I-50J0D01*
G74*
G01*
X57450Y-18300D02*
X57450Y-17900D01*
X57450Y-17900D02*
X58050Y-17900D01*
X58050Y-17900D02*
X58050Y-18300D01*
X58050Y-18700D02*
X58050Y-19100D01*
X58050Y-19100D02*
X57450Y-19100D01*
X57450Y-19100D02*
X57450Y-18700D01*
G54D14*
X56280Y-17300D02*
X54720Y-17300D01*
X54720Y-17300D02*
X54720Y-19200D01*
X54720Y-19200D02*
X56280Y-19200D01*
X56280Y-19200D02*
X56280Y-17300D01*
X56280Y-17500D02*
X56710Y-17500D01*
X56280Y-18000D02*
X56710Y-18000D01*
X56280Y-18500D02*
X56710Y-18500D01*
X56710Y-19000D02*
X56280Y-19000D01*
X54720Y-19000D02*
X54290Y-19000D01*
X54290Y-18500D02*
X54720Y-18500D01*
X54290Y-18000D02*
X54720Y-18000D01*
X54290Y-17500D02*
X54720Y-17500D01*
X55196Y-17590D02*
G75*
G03X55196Y-17590I-186J0D01*
G74*
G01*
G54D15*
X58500Y-15500D02*
X59500Y-15500D01*
X59500Y-15500D02*
X59500Y-17500D01*
X59500Y-17500D02*
X58500Y-17500D01*
X58500Y-17500D02*
X58500Y-15500D01*
G54D14*
X56150Y-15750D02*
X55850Y-15750D01*
X56000Y-15600D02*
X56000Y-15900D01*
X56100Y-16650D02*
X54600Y-16650D01*
X56400Y-15150D02*
X56400Y-16350D01*
X56100Y-16650D02*
X56400Y-16350D01*
X56100Y-14850D02*
X54600Y-14850D01*
X56100Y-14850D02*
X56400Y-15150D01*
X54700Y-15800D02*
X54700Y-15700D01*
X54750Y-15500D02*
X54750Y-16000D01*
X54800Y-16100D02*
X54800Y-15400D01*
X54850Y-16200D02*
X54850Y-15300D01*
X54900Y-15250D02*
X54900Y-16250D01*
X54950Y-16300D02*
X54950Y-15200D01*
X55000Y-15150D02*
X55000Y-16350D01*
X55050Y-15100D02*
X55050Y-16400D01*
X56300Y-15750D02*
G75*
G03X56300Y-15750I-800J0D01*
G74*
G01*
X54600Y-14850D02*
X54600Y-16650D01*
X46150Y-15750D02*
X45850Y-15750D01*
X46000Y-15600D02*
X46000Y-15900D01*
X46100Y-16650D02*
X44600Y-16650D01*
X46400Y-15150D02*
X46400Y-16350D01*
X46100Y-16650D02*
X46400Y-16350D01*
X46100Y-14850D02*
X44600Y-14850D01*
X46100Y-14850D02*
X46400Y-15150D01*
X44700Y-15800D02*
X44700Y-15700D01*
X44750Y-15500D02*
X44750Y-16000D01*
X44800Y-16100D02*
X44800Y-15400D01*
X44850Y-16200D02*
X44850Y-15300D01*
X44900Y-15250D02*
X44900Y-16250D01*
X44950Y-16300D02*
X44950Y-15200D01*
X45000Y-15150D02*
X45000Y-16350D01*
X45050Y-15100D02*
X45050Y-16400D01*
X46300Y-15750D02*
G75*
G03X46300Y-15750I-800J0D01*
G74*
G01*
X44600Y-14850D02*
X44600Y-16650D01*
G54D15*
X48500Y-15500D02*
X49500Y-15500D01*
X49500Y-15500D02*
X49500Y-17500D01*
X49500Y-17500D02*
X48500Y-17500D01*
X48500Y-17500D02*
X48500Y-15500D01*
G54D14*
X46280Y-17300D02*
X44720Y-17300D01*
X44720Y-17300D02*
X44720Y-19200D01*
X44720Y-19200D02*
X46280Y-19200D01*
X46280Y-19200D02*
X46280Y-17300D01*
X46280Y-17500D02*
X46710Y-17500D01*
X46280Y-18000D02*
X46710Y-18000D01*
X46280Y-18500D02*
X46710Y-18500D01*
X46710Y-19000D02*
X46280Y-19000D01*
X44720Y-19000D02*
X44290Y-19000D01*
X44290Y-18500D02*
X44720Y-18500D01*
X44290Y-18000D02*
X44720Y-18000D01*
X44290Y-17500D02*
X44720Y-17500D01*
X45196Y-17590D02*
G75*
G03X45196Y-17590I-186J0D01*
G74*
G01*
G54D12*
X47500Y-17850D02*
G75*
G03X47500Y-17850I-50J0D01*
G74*
G01*
X47450Y-18300D02*
X47450Y-17900D01*
X47450Y-17900D02*
X48050Y-17900D01*
X48050Y-17900D02*
X48050Y-18300D01*
X48050Y-18700D02*
X48050Y-19100D01*
X48050Y-19100D02*
X47450Y-19100D01*
X47450Y-19100D02*
X47450Y-18700D01*
X47500Y-14850D02*
G75*
G03X47500Y-14850I-50J0D01*
G74*
G01*
X47450Y-15300D02*
X47450Y-14900D01*
X47450Y-14900D02*
X48050Y-14900D01*
X48050Y-14900D02*
X48050Y-15300D01*
X48050Y-15700D02*
X48050Y-16100D01*
X48050Y-16100D02*
X47450Y-16100D01*
X47450Y-16100D02*
X47450Y-15700D01*
G54D10*
X43250Y-14500D02*
X43250Y-14250D01*
X43250Y-14250D02*
X42250Y-14250D01*
X42250Y-14250D02*
X42250Y-14500D01*
X42250Y-15500D02*
X43250Y-15500D01*
X43250Y-15500D02*
X43250Y-14500D01*
X43250Y-14500D02*
X43250Y-19500D01*
X43250Y-19500D02*
X42250Y-19500D01*
X43250Y-14500D02*
X42250Y-14500D01*
X42250Y-14500D02*
X42250Y-19500D01*
G54D13*
X42850Y-14200D02*
G75*
G03X42850Y-14200I-100J0D01*
G74*
G01*
G54D12*
X47500Y-16350D02*
G75*
G03X47500Y-16350I-50J0D01*
G74*
G01*
X47450Y-16800D02*
X47450Y-16400D01*
X47450Y-16400D02*
X48050Y-16400D01*
X48050Y-16400D02*
X48050Y-16800D01*
X48050Y-17200D02*
X48050Y-17600D01*
X48050Y-17600D02*
X47450Y-17600D01*
X47450Y-17600D02*
X47450Y-17200D01*
G54D16*
X47954Y-25032D02*
X47860Y-25098D01*
X47954Y-25145D02*
X47757Y-25145D01*
X47757Y-25070D01*
X47767Y-25051D01*
X47776Y-25042D01*
X47795Y-25032D01*
X47823Y-25032D01*
X47842Y-25042D01*
X47851Y-25051D01*
X47860Y-25070D01*
X47860Y-25145D01*
X47776Y-24957D02*
X47767Y-24948D01*
X47757Y-24929D01*
X47757Y-24882D01*
X47767Y-24863D01*
X47776Y-24854D01*
X47795Y-24845D01*
X47814Y-24845D01*
X47842Y-24854D01*
X47954Y-24967D01*
X47954Y-24845D01*
X47679Y-24939D02*
X47585Y-25004D01*
X47679Y-25051D02*
X47482Y-25051D01*
X47482Y-24976D01*
X47492Y-24957D01*
X47501Y-24948D01*
X47520Y-24939D01*
X47548Y-24939D01*
X47567Y-24948D01*
X47576Y-24957D01*
X47585Y-24976D01*
X47585Y-25051D01*
G54D17*
X44042Y-24199D02*
X43442Y-24199D01*
X43442Y-24104D01*
X43471Y-24047D01*
X43528Y-24009D01*
X43585Y-23990D01*
X43700Y-23971D01*
X43785Y-23971D01*
X43900Y-23990D01*
X43957Y-24009D01*
X44014Y-24047D01*
X44042Y-24104D01*
X44042Y-24199D01*
X43871Y-23819D02*
X43871Y-23628D01*
X44042Y-23857D02*
X43442Y-23723D01*
X44042Y-23590D01*
X43442Y-23514D02*
X43442Y-23285D01*
X44042Y-23399D02*
X43442Y-23399D01*
X43871Y-23171D02*
X43871Y-22980D01*
X44042Y-23209D02*
X43442Y-23076D01*
X44042Y-22942D01*
G54D16*
X48329Y-23532D02*
X48235Y-23598D01*
X48329Y-23645D02*
X48132Y-23645D01*
X48132Y-23570D01*
X48142Y-23551D01*
X48151Y-23542D01*
X48170Y-23532D01*
X48198Y-23532D01*
X48217Y-23542D01*
X48226Y-23551D01*
X48235Y-23570D01*
X48235Y-23645D01*
X48329Y-23345D02*
X48329Y-23457D01*
X48329Y-23401D02*
X48132Y-23401D01*
X48160Y-23420D01*
X48179Y-23439D01*
X48189Y-23457D01*
X46943Y-23179D02*
X46831Y-23179D01*
X46887Y-23179D02*
X46887Y-22982D01*
X46868Y-23010D01*
X46849Y-23029D01*
X46831Y-23039D01*
X47028Y-23179D02*
X47028Y-22982D01*
X47093Y-23123D01*
X47159Y-22982D01*
X47159Y-23179D01*
X48310Y-26532D02*
X48320Y-26542D01*
X48329Y-26570D01*
X48329Y-26589D01*
X48320Y-26617D01*
X48301Y-26636D01*
X48282Y-26645D01*
X48245Y-26654D01*
X48217Y-26654D01*
X48179Y-26645D01*
X48160Y-26636D01*
X48142Y-26617D01*
X48132Y-26589D01*
X48132Y-26570D01*
X48142Y-26542D01*
X48151Y-26532D01*
X48151Y-26457D02*
X48142Y-26448D01*
X48132Y-26429D01*
X48132Y-26382D01*
X48142Y-26363D01*
X48151Y-26354D01*
X48170Y-26345D01*
X48189Y-26345D01*
X48217Y-26354D01*
X48329Y-26467D01*
X48329Y-26345D01*
X47517Y-27429D02*
X47404Y-27429D01*
X47460Y-27429D02*
X47460Y-27232D01*
X47442Y-27260D01*
X47423Y-27279D01*
X47404Y-27289D01*
X47639Y-27232D02*
X47657Y-27232D01*
X47676Y-27242D01*
X47685Y-27251D01*
X47695Y-27270D01*
X47704Y-27307D01*
X47704Y-27354D01*
X47695Y-27392D01*
X47685Y-27410D01*
X47676Y-27420D01*
X47657Y-27429D01*
X47639Y-27429D01*
X47620Y-27420D01*
X47610Y-27410D01*
X47601Y-27392D01*
X47592Y-27354D01*
X47592Y-27307D01*
X47601Y-27270D01*
X47610Y-27251D01*
X47620Y-27242D01*
X47639Y-27232D01*
X47789Y-27298D02*
X47789Y-27429D01*
X47789Y-27317D02*
X47798Y-27307D01*
X47817Y-27298D01*
X47845Y-27298D01*
X47864Y-27307D01*
X47873Y-27326D01*
X47873Y-27429D01*
X47939Y-27298D02*
X48014Y-27298D01*
X47967Y-27429D02*
X47967Y-27260D01*
X47976Y-27242D01*
X47995Y-27232D01*
X48014Y-27232D01*
G54D18*
X43862Y-25169D02*
X43862Y-24874D01*
X44171Y-25141D02*
X44157Y-25155D01*
X44114Y-25169D01*
X44086Y-25169D01*
X44044Y-25155D01*
X44016Y-25127D01*
X44002Y-25099D01*
X43988Y-25042D01*
X43988Y-25000D01*
X44002Y-24944D01*
X44016Y-24916D01*
X44044Y-24888D01*
X44086Y-24874D01*
X44114Y-24874D01*
X44157Y-24888D01*
X44171Y-24902D01*
X44452Y-25169D02*
X44283Y-25169D01*
X44367Y-25169D02*
X44367Y-24874D01*
X44339Y-24916D01*
X44311Y-24944D01*
X44283Y-24958D01*
X45474Y-26896D02*
X45474Y-26727D01*
X45769Y-26811D02*
X45474Y-26811D01*
X45755Y-26643D02*
X45769Y-26601D01*
X45769Y-26530D01*
X45755Y-26502D01*
X45741Y-26488D01*
X45713Y-26474D01*
X45685Y-26474D01*
X45657Y-26488D01*
X45642Y-26502D01*
X45628Y-26530D01*
X45614Y-26587D01*
X45600Y-26615D01*
X45586Y-26629D01*
X45558Y-26643D01*
X45530Y-26643D01*
X45502Y-26629D01*
X45488Y-26615D01*
X45474Y-26587D01*
X45474Y-26516D01*
X45488Y-26474D01*
X45474Y-26207D02*
X45474Y-26348D01*
X45614Y-26362D01*
X45600Y-26348D01*
X45586Y-26320D01*
X45586Y-26250D01*
X45600Y-26221D01*
X45614Y-26207D01*
X45642Y-26193D01*
X45713Y-26193D01*
X45741Y-26207D01*
X45755Y-26221D01*
X45769Y-26250D01*
X45769Y-26320D01*
X45755Y-26348D01*
X45741Y-26362D01*
X45474Y-25926D02*
X45474Y-26067D01*
X45614Y-26081D01*
X45600Y-26067D01*
X45586Y-26039D01*
X45586Y-25969D01*
X45600Y-25940D01*
X45614Y-25926D01*
X45642Y-25912D01*
X45713Y-25912D01*
X45741Y-25926D01*
X45755Y-25940D01*
X45769Y-25969D01*
X45769Y-26039D01*
X45755Y-26067D01*
X45741Y-26081D01*
X45474Y-25645D02*
X45474Y-25786D01*
X45614Y-25800D01*
X45600Y-25786D01*
X45586Y-25758D01*
X45586Y-25688D01*
X45600Y-25660D01*
X45614Y-25645D01*
X45642Y-25631D01*
X45713Y-25631D01*
X45741Y-25645D01*
X45755Y-25660D01*
X45769Y-25688D01*
X45769Y-25758D01*
X45755Y-25786D01*
X45741Y-25800D01*
G54D17*
X47673Y-23214D02*
X47730Y-23242D01*
X47826Y-23242D01*
X47864Y-23214D01*
X47883Y-23185D01*
X47902Y-23128D01*
X47902Y-23071D01*
X47883Y-23014D01*
X47864Y-22985D01*
X47826Y-22957D01*
X47750Y-22928D01*
X47711Y-22900D01*
X47692Y-22871D01*
X47673Y-22814D01*
X47673Y-22757D01*
X47692Y-22700D01*
X47711Y-22671D01*
X47750Y-22642D01*
X47845Y-22642D01*
X47902Y-22671D01*
X48073Y-22928D02*
X48207Y-22928D01*
X48264Y-23242D02*
X48073Y-23242D01*
X48073Y-22642D01*
X48264Y-22642D01*
X48435Y-23242D02*
X48435Y-22642D01*
X48664Y-23242D01*
X48664Y-22642D01*
X48835Y-23214D02*
X48892Y-23242D01*
X48988Y-23242D01*
X49026Y-23214D01*
X49045Y-23185D01*
X49064Y-23128D01*
X49064Y-23071D01*
X49045Y-23014D01*
X49026Y-22985D01*
X48988Y-22957D01*
X48911Y-22928D01*
X48873Y-22900D01*
X48854Y-22871D01*
X48835Y-22814D01*
X48835Y-22757D01*
X48854Y-22700D01*
X48873Y-22671D01*
X48911Y-22642D01*
X49007Y-22642D01*
X49064Y-22671D01*
X49235Y-22928D02*
X49369Y-22928D01*
X49426Y-23242D02*
X49235Y-23242D01*
X49235Y-22642D01*
X49426Y-22642D01*
G54D19*
X44267Y-23160D02*
X44257Y-23170D01*
X44229Y-23179D01*
X44210Y-23179D01*
X44182Y-23170D01*
X44163Y-23151D01*
X44154Y-23132D01*
X44145Y-23095D01*
X44145Y-23067D01*
X44154Y-23029D01*
X44163Y-23010D01*
X44182Y-22992D01*
X44210Y-22982D01*
X44229Y-22982D01*
X44257Y-22992D01*
X44267Y-23001D01*
X44454Y-23179D02*
X44342Y-23179D01*
X44398Y-23179D02*
X44398Y-22982D01*
X44379Y-23010D01*
X44360Y-23029D01*
X44342Y-23039D01*
X54267Y-23160D02*
X54257Y-23170D01*
X54229Y-23179D01*
X54210Y-23179D01*
X54182Y-23170D01*
X54163Y-23151D01*
X54154Y-23132D01*
X54145Y-23095D01*
X54145Y-23067D01*
X54154Y-23029D01*
X54163Y-23010D01*
X54182Y-22992D01*
X54210Y-22982D01*
X54229Y-22982D01*
X54257Y-22992D01*
X54267Y-23001D01*
X54454Y-23179D02*
X54342Y-23179D01*
X54398Y-23179D02*
X54398Y-22982D01*
X54379Y-23010D01*
X54360Y-23029D01*
X54342Y-23039D01*
G54D17*
X57673Y-23214D02*
X57730Y-23242D01*
X57826Y-23242D01*
X57864Y-23214D01*
X57883Y-23185D01*
X57902Y-23128D01*
X57902Y-23071D01*
X57883Y-23014D01*
X57864Y-22985D01*
X57826Y-22957D01*
X57750Y-22928D01*
X57711Y-22900D01*
X57692Y-22871D01*
X57673Y-22814D01*
X57673Y-22757D01*
X57692Y-22700D01*
X57711Y-22671D01*
X57750Y-22642D01*
X57845Y-22642D01*
X57902Y-22671D01*
X58073Y-22928D02*
X58207Y-22928D01*
X58264Y-23242D02*
X58073Y-23242D01*
X58073Y-22642D01*
X58264Y-22642D01*
X58435Y-23242D02*
X58435Y-22642D01*
X58664Y-23242D01*
X58664Y-22642D01*
X58835Y-23214D02*
X58892Y-23242D01*
X58988Y-23242D01*
X59026Y-23214D01*
X59045Y-23185D01*
X59064Y-23128D01*
X59064Y-23071D01*
X59045Y-23014D01*
X59026Y-22985D01*
X58988Y-22957D01*
X58911Y-22928D01*
X58873Y-22900D01*
X58854Y-22871D01*
X58835Y-22814D01*
X58835Y-22757D01*
X58854Y-22700D01*
X58873Y-22671D01*
X58911Y-22642D01*
X59007Y-22642D01*
X59064Y-22671D01*
X59235Y-22928D02*
X59369Y-22928D01*
X59426Y-23242D02*
X59235Y-23242D01*
X59235Y-22642D01*
X59426Y-22642D01*
G54D18*
X53862Y-25169D02*
X53862Y-24874D01*
X54171Y-25141D02*
X54157Y-25155D01*
X54114Y-25169D01*
X54086Y-25169D01*
X54044Y-25155D01*
X54016Y-25127D01*
X54002Y-25099D01*
X53988Y-25042D01*
X53988Y-25000D01*
X54002Y-24944D01*
X54016Y-24916D01*
X54044Y-24888D01*
X54086Y-24874D01*
X54114Y-24874D01*
X54157Y-24888D01*
X54171Y-24902D01*
X54452Y-25169D02*
X54283Y-25169D01*
X54367Y-25169D02*
X54367Y-24874D01*
X54339Y-24916D01*
X54311Y-24944D01*
X54283Y-24958D01*
X55474Y-26896D02*
X55474Y-26727D01*
X55769Y-26811D02*
X55474Y-26811D01*
X55755Y-26643D02*
X55769Y-26601D01*
X55769Y-26530D01*
X55755Y-26502D01*
X55741Y-26488D01*
X55713Y-26474D01*
X55685Y-26474D01*
X55657Y-26488D01*
X55642Y-26502D01*
X55628Y-26530D01*
X55614Y-26587D01*
X55600Y-26615D01*
X55586Y-26629D01*
X55558Y-26643D01*
X55530Y-26643D01*
X55502Y-26629D01*
X55488Y-26615D01*
X55474Y-26587D01*
X55474Y-26516D01*
X55488Y-26474D01*
X55474Y-26207D02*
X55474Y-26348D01*
X55614Y-26362D01*
X55600Y-26348D01*
X55586Y-26320D01*
X55586Y-26250D01*
X55600Y-26221D01*
X55614Y-26207D01*
X55642Y-26193D01*
X55713Y-26193D01*
X55741Y-26207D01*
X55755Y-26221D01*
X55769Y-26250D01*
X55769Y-26320D01*
X55755Y-26348D01*
X55741Y-26362D01*
X55474Y-25926D02*
X55474Y-26067D01*
X55614Y-26081D01*
X55600Y-26067D01*
X55586Y-26039D01*
X55586Y-25969D01*
X55600Y-25940D01*
X55614Y-25926D01*
X55642Y-25912D01*
X55713Y-25912D01*
X55741Y-25926D01*
X55755Y-25940D01*
X55769Y-25969D01*
X55769Y-26039D01*
X55755Y-26067D01*
X55741Y-26081D01*
X55474Y-25645D02*
X55474Y-25786D01*
X55614Y-25800D01*
X55600Y-25786D01*
X55586Y-25758D01*
X55586Y-25688D01*
X55600Y-25660D01*
X55614Y-25645D01*
X55642Y-25631D01*
X55713Y-25631D01*
X55741Y-25645D01*
X55755Y-25660D01*
X55769Y-25688D01*
X55769Y-25758D01*
X55755Y-25786D01*
X55741Y-25800D01*
G54D16*
X58310Y-26532D02*
X58320Y-26542D01*
X58329Y-26570D01*
X58329Y-26589D01*
X58320Y-26617D01*
X58301Y-26636D01*
X58282Y-26645D01*
X58245Y-26654D01*
X58217Y-26654D01*
X58179Y-26645D01*
X58160Y-26636D01*
X58142Y-26617D01*
X58132Y-26589D01*
X58132Y-26570D01*
X58142Y-26542D01*
X58151Y-26532D01*
X58151Y-26457D02*
X58142Y-26448D01*
X58132Y-26429D01*
X58132Y-26382D01*
X58142Y-26363D01*
X58151Y-26354D01*
X58170Y-26345D01*
X58189Y-26345D01*
X58217Y-26354D01*
X58329Y-26467D01*
X58329Y-26345D01*
X57517Y-27429D02*
X57404Y-27429D01*
X57460Y-27429D02*
X57460Y-27232D01*
X57442Y-27260D01*
X57423Y-27279D01*
X57404Y-27289D01*
X57639Y-27232D02*
X57657Y-27232D01*
X57676Y-27242D01*
X57685Y-27251D01*
X57695Y-27270D01*
X57704Y-27307D01*
X57704Y-27354D01*
X57695Y-27392D01*
X57685Y-27410D01*
X57676Y-27420D01*
X57657Y-27429D01*
X57639Y-27429D01*
X57620Y-27420D01*
X57610Y-27410D01*
X57601Y-27392D01*
X57592Y-27354D01*
X57592Y-27307D01*
X57601Y-27270D01*
X57610Y-27251D01*
X57620Y-27242D01*
X57639Y-27232D01*
X57789Y-27298D02*
X57789Y-27429D01*
X57789Y-27317D02*
X57798Y-27307D01*
X57817Y-27298D01*
X57845Y-27298D01*
X57864Y-27307D01*
X57873Y-27326D01*
X57873Y-27429D01*
X57939Y-27298D02*
X58014Y-27298D01*
X57967Y-27429D02*
X57967Y-27260D01*
X57976Y-27242D01*
X57995Y-27232D01*
X58014Y-27232D01*
X58329Y-23532D02*
X58235Y-23598D01*
X58329Y-23645D02*
X58132Y-23645D01*
X58132Y-23570D01*
X58142Y-23551D01*
X58151Y-23542D01*
X58170Y-23532D01*
X58198Y-23532D01*
X58217Y-23542D01*
X58226Y-23551D01*
X58235Y-23570D01*
X58235Y-23645D01*
X58329Y-23345D02*
X58329Y-23457D01*
X58329Y-23401D02*
X58132Y-23401D01*
X58160Y-23420D01*
X58179Y-23439D01*
X58189Y-23457D01*
X56943Y-23179D02*
X56831Y-23179D01*
X56887Y-23179D02*
X56887Y-22982D01*
X56868Y-23010D01*
X56849Y-23029D01*
X56831Y-23039D01*
X57028Y-23179D02*
X57028Y-22982D01*
X57093Y-23123D01*
X57159Y-22982D01*
X57159Y-23179D01*
G54D17*
X54042Y-24199D02*
X53442Y-24199D01*
X53442Y-24104D01*
X53471Y-24047D01*
X53528Y-24009D01*
X53585Y-23990D01*
X53700Y-23971D01*
X53785Y-23971D01*
X53900Y-23990D01*
X53957Y-24009D01*
X54014Y-24047D01*
X54042Y-24104D01*
X54042Y-24199D01*
X53871Y-23819D02*
X53871Y-23628D01*
X54042Y-23857D02*
X53442Y-23723D01*
X54042Y-23590D01*
X53442Y-23514D02*
X53442Y-23285D01*
X54042Y-23399D02*
X53442Y-23399D01*
X53871Y-23171D02*
X53871Y-22980D01*
X54042Y-23209D02*
X53442Y-23076D01*
X54042Y-22942D01*
G54D16*
X57954Y-25032D02*
X57860Y-25098D01*
X57954Y-25145D02*
X57757Y-25145D01*
X57757Y-25070D01*
X57767Y-25051D01*
X57776Y-25042D01*
X57795Y-25032D01*
X57823Y-25032D01*
X57842Y-25042D01*
X57851Y-25051D01*
X57860Y-25070D01*
X57860Y-25145D01*
X57776Y-24957D02*
X57767Y-24948D01*
X57757Y-24929D01*
X57757Y-24882D01*
X57767Y-24863D01*
X57776Y-24854D01*
X57795Y-24845D01*
X57814Y-24845D01*
X57842Y-24854D01*
X57954Y-24967D01*
X57954Y-24845D01*
X57679Y-24939D02*
X57585Y-25004D01*
X57679Y-25051D02*
X57482Y-25051D01*
X57482Y-24976D01*
X57492Y-24957D01*
X57501Y-24948D01*
X57520Y-24939D01*
X57548Y-24939D01*
X57567Y-24948D01*
X57576Y-24957D01*
X57585Y-24976D01*
X57585Y-25051D01*
X57954Y-17032D02*
X57860Y-17098D01*
X57954Y-17145D02*
X57757Y-17145D01*
X57757Y-17070D01*
X57767Y-17051D01*
X57776Y-17042D01*
X57795Y-17032D01*
X57823Y-17032D01*
X57842Y-17042D01*
X57851Y-17051D01*
X57860Y-17070D01*
X57860Y-17145D01*
X57776Y-16957D02*
X57767Y-16948D01*
X57757Y-16929D01*
X57757Y-16882D01*
X57767Y-16863D01*
X57776Y-16854D01*
X57795Y-16845D01*
X57814Y-16845D01*
X57842Y-16854D01*
X57954Y-16967D01*
X57954Y-16845D01*
X57679Y-16939D02*
X57585Y-17004D01*
X57679Y-17051D02*
X57482Y-17051D01*
X57482Y-16976D01*
X57492Y-16957D01*
X57501Y-16948D01*
X57520Y-16939D01*
X57548Y-16939D01*
X57567Y-16948D01*
X57576Y-16957D01*
X57585Y-16976D01*
X57585Y-17051D01*
G54D17*
X54042Y-16199D02*
X53442Y-16199D01*
X53442Y-16104D01*
X53471Y-16047D01*
X53528Y-16009D01*
X53585Y-15990D01*
X53700Y-15971D01*
X53785Y-15971D01*
X53900Y-15990D01*
X53957Y-16009D01*
X54014Y-16047D01*
X54042Y-16104D01*
X54042Y-16199D01*
X53871Y-15819D02*
X53871Y-15628D01*
X54042Y-15857D02*
X53442Y-15723D01*
X54042Y-15590D01*
X53442Y-15514D02*
X53442Y-15285D01*
X54042Y-15399D02*
X53442Y-15399D01*
X53871Y-15171D02*
X53871Y-14980D01*
X54042Y-15209D02*
X53442Y-15076D01*
X54042Y-14942D01*
G54D16*
X58329Y-15532D02*
X58235Y-15598D01*
X58329Y-15645D02*
X58132Y-15645D01*
X58132Y-15570D01*
X58142Y-15551D01*
X58151Y-15542D01*
X58170Y-15532D01*
X58198Y-15532D01*
X58217Y-15542D01*
X58226Y-15551D01*
X58235Y-15570D01*
X58235Y-15645D01*
X58329Y-15345D02*
X58329Y-15457D01*
X58329Y-15401D02*
X58132Y-15401D01*
X58160Y-15420D01*
X58179Y-15439D01*
X58189Y-15457D01*
X56943Y-15179D02*
X56831Y-15179D01*
X56887Y-15179D02*
X56887Y-14982D01*
X56868Y-15010D01*
X56849Y-15029D01*
X56831Y-15039D01*
X57028Y-15179D02*
X57028Y-14982D01*
X57093Y-15123D01*
X57159Y-14982D01*
X57159Y-15179D01*
X58310Y-18532D02*
X58320Y-18542D01*
X58329Y-18570D01*
X58329Y-18589D01*
X58320Y-18617D01*
X58301Y-18636D01*
X58282Y-18645D01*
X58245Y-18654D01*
X58217Y-18654D01*
X58179Y-18645D01*
X58160Y-18636D01*
X58142Y-18617D01*
X58132Y-18589D01*
X58132Y-18570D01*
X58142Y-18542D01*
X58151Y-18532D01*
X58151Y-18457D02*
X58142Y-18448D01*
X58132Y-18429D01*
X58132Y-18382D01*
X58142Y-18363D01*
X58151Y-18354D01*
X58170Y-18345D01*
X58189Y-18345D01*
X58217Y-18354D01*
X58329Y-18467D01*
X58329Y-18345D01*
X57517Y-19429D02*
X57404Y-19429D01*
X57460Y-19429D02*
X57460Y-19232D01*
X57442Y-19260D01*
X57423Y-19279D01*
X57404Y-19289D01*
X57639Y-19232D02*
X57657Y-19232D01*
X57676Y-19242D01*
X57685Y-19251D01*
X57695Y-19270D01*
X57704Y-19307D01*
X57704Y-19354D01*
X57695Y-19392D01*
X57685Y-19410D01*
X57676Y-19420D01*
X57657Y-19429D01*
X57639Y-19429D01*
X57620Y-19420D01*
X57610Y-19410D01*
X57601Y-19392D01*
X57592Y-19354D01*
X57592Y-19307D01*
X57601Y-19270D01*
X57610Y-19251D01*
X57620Y-19242D01*
X57639Y-19232D01*
X57789Y-19298D02*
X57789Y-19429D01*
X57789Y-19317D02*
X57798Y-19307D01*
X57817Y-19298D01*
X57845Y-19298D01*
X57864Y-19307D01*
X57873Y-19326D01*
X57873Y-19429D01*
X57939Y-19298D02*
X58014Y-19298D01*
X57967Y-19429D02*
X57967Y-19260D01*
X57976Y-19242D01*
X57995Y-19232D01*
X58014Y-19232D01*
G54D18*
X53862Y-17169D02*
X53862Y-16874D01*
X54171Y-17141D02*
X54157Y-17155D01*
X54114Y-17169D01*
X54086Y-17169D01*
X54044Y-17155D01*
X54016Y-17127D01*
X54002Y-17099D01*
X53988Y-17042D01*
X53988Y-17000D01*
X54002Y-16944D01*
X54016Y-16916D01*
X54044Y-16888D01*
X54086Y-16874D01*
X54114Y-16874D01*
X54157Y-16888D01*
X54171Y-16902D01*
X54452Y-17169D02*
X54283Y-17169D01*
X54367Y-17169D02*
X54367Y-16874D01*
X54339Y-16916D01*
X54311Y-16944D01*
X54283Y-16958D01*
X55474Y-18896D02*
X55474Y-18727D01*
X55769Y-18811D02*
X55474Y-18811D01*
X55755Y-18643D02*
X55769Y-18601D01*
X55769Y-18530D01*
X55755Y-18502D01*
X55741Y-18488D01*
X55713Y-18474D01*
X55685Y-18474D01*
X55657Y-18488D01*
X55642Y-18502D01*
X55628Y-18530D01*
X55614Y-18587D01*
X55600Y-18615D01*
X55586Y-18629D01*
X55558Y-18643D01*
X55530Y-18643D01*
X55502Y-18629D01*
X55488Y-18615D01*
X55474Y-18587D01*
X55474Y-18516D01*
X55488Y-18474D01*
X55474Y-18207D02*
X55474Y-18348D01*
X55614Y-18362D01*
X55600Y-18348D01*
X55586Y-18320D01*
X55586Y-18250D01*
X55600Y-18221D01*
X55614Y-18207D01*
X55642Y-18193D01*
X55713Y-18193D01*
X55741Y-18207D01*
X55755Y-18221D01*
X55769Y-18250D01*
X55769Y-18320D01*
X55755Y-18348D01*
X55741Y-18362D01*
X55474Y-17926D02*
X55474Y-18067D01*
X55614Y-18081D01*
X55600Y-18067D01*
X55586Y-18039D01*
X55586Y-17969D01*
X55600Y-17940D01*
X55614Y-17926D01*
X55642Y-17912D01*
X55713Y-17912D01*
X55741Y-17926D01*
X55755Y-17940D01*
X55769Y-17969D01*
X55769Y-18039D01*
X55755Y-18067D01*
X55741Y-18081D01*
X55474Y-17645D02*
X55474Y-17786D01*
X55614Y-17800D01*
X55600Y-17786D01*
X55586Y-17758D01*
X55586Y-17688D01*
X55600Y-17660D01*
X55614Y-17645D01*
X55642Y-17631D01*
X55713Y-17631D01*
X55741Y-17645D01*
X55755Y-17660D01*
X55769Y-17688D01*
X55769Y-17758D01*
X55755Y-17786D01*
X55741Y-17800D01*
G54D17*
X57673Y-15214D02*
X57730Y-15242D01*
X57826Y-15242D01*
X57864Y-15214D01*
X57883Y-15185D01*
X57902Y-15128D01*
X57902Y-15071D01*
X57883Y-15014D01*
X57864Y-14985D01*
X57826Y-14957D01*
X57750Y-14928D01*
X57711Y-14900D01*
X57692Y-14871D01*
X57673Y-14814D01*
X57673Y-14757D01*
X57692Y-14700D01*
X57711Y-14671D01*
X57750Y-14642D01*
X57845Y-14642D01*
X57902Y-14671D01*
X58073Y-14928D02*
X58207Y-14928D01*
X58264Y-15242D02*
X58073Y-15242D01*
X58073Y-14642D01*
X58264Y-14642D01*
X58435Y-15242D02*
X58435Y-14642D01*
X58664Y-15242D01*
X58664Y-14642D01*
X58835Y-15214D02*
X58892Y-15242D01*
X58988Y-15242D01*
X59026Y-15214D01*
X59045Y-15185D01*
X59064Y-15128D01*
X59064Y-15071D01*
X59045Y-15014D01*
X59026Y-14985D01*
X58988Y-14957D01*
X58911Y-14928D01*
X58873Y-14900D01*
X58854Y-14871D01*
X58835Y-14814D01*
X58835Y-14757D01*
X58854Y-14700D01*
X58873Y-14671D01*
X58911Y-14642D01*
X59007Y-14642D01*
X59064Y-14671D01*
X59235Y-14928D02*
X59369Y-14928D01*
X59426Y-15242D02*
X59235Y-15242D01*
X59235Y-14642D01*
X59426Y-14642D01*
G54D19*
X54267Y-15160D02*
X54257Y-15170D01*
X54229Y-15179D01*
X54210Y-15179D01*
X54182Y-15170D01*
X54163Y-15151D01*
X54154Y-15132D01*
X54145Y-15095D01*
X54145Y-15067D01*
X54154Y-15029D01*
X54163Y-15010D01*
X54182Y-14992D01*
X54210Y-14982D01*
X54229Y-14982D01*
X54257Y-14992D01*
X54267Y-15001D01*
X54454Y-15179D02*
X54342Y-15179D01*
X54398Y-15179D02*
X54398Y-14982D01*
X54379Y-15010D01*
X54360Y-15029D01*
X54342Y-15039D01*
X44267Y-15160D02*
X44257Y-15170D01*
X44229Y-15179D01*
X44210Y-15179D01*
X44182Y-15170D01*
X44163Y-15151D01*
X44154Y-15132D01*
X44145Y-15095D01*
X44145Y-15067D01*
X44154Y-15029D01*
X44163Y-15010D01*
X44182Y-14992D01*
X44210Y-14982D01*
X44229Y-14982D01*
X44257Y-14992D01*
X44267Y-15001D01*
X44454Y-15179D02*
X44342Y-15179D01*
X44398Y-15179D02*
X44398Y-14982D01*
X44379Y-15010D01*
X44360Y-15029D01*
X44342Y-15039D01*
G54D17*
X47673Y-15214D02*
X47730Y-15242D01*
X47826Y-15242D01*
X47864Y-15214D01*
X47883Y-15185D01*
X47902Y-15128D01*
X47902Y-15071D01*
X47883Y-15014D01*
X47864Y-14985D01*
X47826Y-14957D01*
X47750Y-14928D01*
X47711Y-14900D01*
X47692Y-14871D01*
X47673Y-14814D01*
X47673Y-14757D01*
X47692Y-14700D01*
X47711Y-14671D01*
X47750Y-14642D01*
X47845Y-14642D01*
X47902Y-14671D01*
X48073Y-14928D02*
X48207Y-14928D01*
X48264Y-15242D02*
X48073Y-15242D01*
X48073Y-14642D01*
X48264Y-14642D01*
X48435Y-15242D02*
X48435Y-14642D01*
X48664Y-15242D01*
X48664Y-14642D01*
X48835Y-15214D02*
X48892Y-15242D01*
X48988Y-15242D01*
X49026Y-15214D01*
X49045Y-15185D01*
X49064Y-15128D01*
X49064Y-15071D01*
X49045Y-15014D01*
X49026Y-14985D01*
X48988Y-14957D01*
X48911Y-14928D01*
X48873Y-14900D01*
X48854Y-14871D01*
X48835Y-14814D01*
X48835Y-14757D01*
X48854Y-14700D01*
X48873Y-14671D01*
X48911Y-14642D01*
X49007Y-14642D01*
X49064Y-14671D01*
X49235Y-14928D02*
X49369Y-14928D01*
X49426Y-15242D02*
X49235Y-15242D01*
X49235Y-14642D01*
X49426Y-14642D01*
G54D18*
X43862Y-17169D02*
X43862Y-16874D01*
X44171Y-17141D02*
X44157Y-17155D01*
X44114Y-17169D01*
X44086Y-17169D01*
X44044Y-17155D01*
X44016Y-17127D01*
X44002Y-17099D01*
X43988Y-17042D01*
X43988Y-17000D01*
X44002Y-16944D01*
X44016Y-16916D01*
X44044Y-16888D01*
X44086Y-16874D01*
X44114Y-16874D01*
X44157Y-16888D01*
X44171Y-16902D01*
X44452Y-17169D02*
X44283Y-17169D01*
X44367Y-17169D02*
X44367Y-16874D01*
X44339Y-16916D01*
X44311Y-16944D01*
X44283Y-16958D01*
X45474Y-18896D02*
X45474Y-18727D01*
X45769Y-18811D02*
X45474Y-18811D01*
X45755Y-18643D02*
X45769Y-18601D01*
X45769Y-18530D01*
X45755Y-18502D01*
X45741Y-18488D01*
X45713Y-18474D01*
X45685Y-18474D01*
X45657Y-18488D01*
X45642Y-18502D01*
X45628Y-18530D01*
X45614Y-18587D01*
X45600Y-18615D01*
X45586Y-18629D01*
X45558Y-18643D01*
X45530Y-18643D01*
X45502Y-18629D01*
X45488Y-18615D01*
X45474Y-18587D01*
X45474Y-18516D01*
X45488Y-18474D01*
X45474Y-18207D02*
X45474Y-18348D01*
X45614Y-18362D01*
X45600Y-18348D01*
X45586Y-18320D01*
X45586Y-18250D01*
X45600Y-18221D01*
X45614Y-18207D01*
X45642Y-18193D01*
X45713Y-18193D01*
X45741Y-18207D01*
X45755Y-18221D01*
X45769Y-18250D01*
X45769Y-18320D01*
X45755Y-18348D01*
X45741Y-18362D01*
X45474Y-17926D02*
X45474Y-18067D01*
X45614Y-18081D01*
X45600Y-18067D01*
X45586Y-18039D01*
X45586Y-17969D01*
X45600Y-17940D01*
X45614Y-17926D01*
X45642Y-17912D01*
X45713Y-17912D01*
X45741Y-17926D01*
X45755Y-17940D01*
X45769Y-17969D01*
X45769Y-18039D01*
X45755Y-18067D01*
X45741Y-18081D01*
X45474Y-17645D02*
X45474Y-17786D01*
X45614Y-17800D01*
X45600Y-17786D01*
X45586Y-17758D01*
X45586Y-17688D01*
X45600Y-17660D01*
X45614Y-17645D01*
X45642Y-17631D01*
X45713Y-17631D01*
X45741Y-17645D01*
X45755Y-17660D01*
X45769Y-17688D01*
X45769Y-17758D01*
X45755Y-17786D01*
X45741Y-17800D01*
G54D16*
X48310Y-18532D02*
X48320Y-18542D01*
X48329Y-18570D01*
X48329Y-18589D01*
X48320Y-18617D01*
X48301Y-18636D01*
X48282Y-18645D01*
X48245Y-18654D01*
X48217Y-18654D01*
X48179Y-18645D01*
X48160Y-18636D01*
X48142Y-18617D01*
X48132Y-18589D01*
X48132Y-18570D01*
X48142Y-18542D01*
X48151Y-18532D01*
X48151Y-18457D02*
X48142Y-18448D01*
X48132Y-18429D01*
X48132Y-18382D01*
X48142Y-18363D01*
X48151Y-18354D01*
X48170Y-18345D01*
X48189Y-18345D01*
X48217Y-18354D01*
X48329Y-18467D01*
X48329Y-18345D01*
X47517Y-19429D02*
X47404Y-19429D01*
X47460Y-19429D02*
X47460Y-19232D01*
X47442Y-19260D01*
X47423Y-19279D01*
X47404Y-19289D01*
X47639Y-19232D02*
X47657Y-19232D01*
X47676Y-19242D01*
X47685Y-19251D01*
X47695Y-19270D01*
X47704Y-19307D01*
X47704Y-19354D01*
X47695Y-19392D01*
X47685Y-19410D01*
X47676Y-19420D01*
X47657Y-19429D01*
X47639Y-19429D01*
X47620Y-19420D01*
X47610Y-19410D01*
X47601Y-19392D01*
X47592Y-19354D01*
X47592Y-19307D01*
X47601Y-19270D01*
X47610Y-19251D01*
X47620Y-19242D01*
X47639Y-19232D01*
X47789Y-19298D02*
X47789Y-19429D01*
X47789Y-19317D02*
X47798Y-19307D01*
X47817Y-19298D01*
X47845Y-19298D01*
X47864Y-19307D01*
X47873Y-19326D01*
X47873Y-19429D01*
X47939Y-19298D02*
X48014Y-19298D01*
X47967Y-19429D02*
X47967Y-19260D01*
X47976Y-19242D01*
X47995Y-19232D01*
X48014Y-19232D01*
X48329Y-15532D02*
X48235Y-15598D01*
X48329Y-15645D02*
X48132Y-15645D01*
X48132Y-15570D01*
X48142Y-15551D01*
X48151Y-15542D01*
X48170Y-15532D01*
X48198Y-15532D01*
X48217Y-15542D01*
X48226Y-15551D01*
X48235Y-15570D01*
X48235Y-15645D01*
X48329Y-15345D02*
X48329Y-15457D01*
X48329Y-15401D02*
X48132Y-15401D01*
X48160Y-15420D01*
X48179Y-15439D01*
X48189Y-15457D01*
X46943Y-15179D02*
X46831Y-15179D01*
X46887Y-15179D02*
X46887Y-14982D01*
X46868Y-15010D01*
X46849Y-15029D01*
X46831Y-15039D01*
X47028Y-15179D02*
X47028Y-14982D01*
X47093Y-15123D01*
X47159Y-14982D01*
X47159Y-15179D01*
G54D17*
X44042Y-16199D02*
X43442Y-16199D01*
X43442Y-16104D01*
X43471Y-16047D01*
X43528Y-16009D01*
X43585Y-15990D01*
X43700Y-15971D01*
X43785Y-15971D01*
X43900Y-15990D01*
X43957Y-16009D01*
X44014Y-16047D01*
X44042Y-16104D01*
X44042Y-16199D01*
X43871Y-15819D02*
X43871Y-15628D01*
X44042Y-15857D02*
X43442Y-15723D01*
X44042Y-15590D01*
X43442Y-15514D02*
X43442Y-15285D01*
X44042Y-15399D02*
X43442Y-15399D01*
X43871Y-15171D02*
X43871Y-14980D01*
X44042Y-15209D02*
X43442Y-15076D01*
X44042Y-14942D01*
G54D16*
X47954Y-17032D02*
X47860Y-17098D01*
X47954Y-17145D02*
X47757Y-17145D01*
X47757Y-17070D01*
X47767Y-17051D01*
X47776Y-17042D01*
X47795Y-17032D01*
X47823Y-17032D01*
X47842Y-17042D01*
X47851Y-17051D01*
X47860Y-17070D01*
X47860Y-17145D01*
X47776Y-16957D02*
X47767Y-16948D01*
X47757Y-16929D01*
X47757Y-16882D01*
X47767Y-16863D01*
X47776Y-16854D01*
X47795Y-16845D01*
X47814Y-16845D01*
X47842Y-16854D01*
X47954Y-16967D01*
X47954Y-16845D01*
X47679Y-16939D02*
X47585Y-17004D01*
X47679Y-17051D02*
X47482Y-17051D01*
X47482Y-16976D01*
X47492Y-16957D01*
X47501Y-16948D01*
X47520Y-16939D01*
X47548Y-16939D01*
X47567Y-16948D01*
X47576Y-16957D01*
X47585Y-16976D01*
X47585Y-17051D01*
M02*
