M48
INCH,TZ
T1C0.025
T2C0.039
T3C0.047
%
G90
G05
T1
X043850Y-017500
X043850Y-025500
X045950Y-018950
X045950Y-026950
X046000Y-017000
X046000Y-025000
X053850Y-017500
X053850Y-025500
X055950Y-018950
X055950Y-026950
X056000Y-017000
X056000Y-025000
T2
X042750Y-015000
X042750Y-016000
X042750Y-017000
X042750Y-018000
X042750Y-019000
X042750Y-023000
X042750Y-024000
X042750Y-025000
X042750Y-026000
X042750Y-027000
X049000Y-016000
X049000Y-017000
X049000Y-024000
X049000Y-025000
X052750Y-015000
X052750Y-016000
X052750Y-017000
X052750Y-018000
X052750Y-019000
X052750Y-023000
X052750Y-024000
X052750Y-025000
X052750Y-026000
X052750Y-027000
X059000Y-016000
X059000Y-017000
X059000Y-024000
X059000Y-025000
T3
X049000Y-018500
X049000Y-026500
X059000Y-018500
X059000Y-026500
T0
M30
